<svg width="264" height="202" viewBox="0 0 264 202" fill="none" xmlns="http://www.w3.org/2000/svg">
<g clip-path="url(#clip0)">
<path opacity="0.1" d="M44.9816 29.7036C43.5714 31.4149 43.0284 33.8209 42.4211 36.0829C37.5318 54.3122 25.4836 68.975 11.7627 79.4484C5.95212 83.8848 -1.12192 89.8343 0.149295 97.7884C0.833797 102.06 3.83685 105.205 6.06792 108.684C10.7488 115.969 12.267 125.871 10.036 134.592C7.49868 144.515 0.406626 153.773 2.60166 163.807C3.95523 169.983 8.55117 174.378 12.9695 178.156C19.8626 184.045 26.9752 189.562 34.3075 194.707C39.2225 198.155 44.4515 201.511 50.1797 201.948C55.2234 202.334 60.1641 200.417 64.9531 198.526C69.1373 196.871 73.427 195.15 76.8058 191.835C79.0111 189.671 80.7687 186.879 83.2185 185.109C88.9724 180.95 96.3629 183.585 102.961 185.366C118.529 189.545 135.192 188.019 150.006 181.058C172.731 170.379 190.052 147.953 212.28 135.92C221.838 130.745 232.234 127.533 241.084 120.868C246.069 117.074 250.354 112.437 253.744 107.168C260.435 96.8465 264.053 83.6866 263.008 70.8046C261.963 57.9226 256.109 45.5089 246.915 38.2367C237.072 30.4525 224.64 28.9985 213.441 24.3254C201.882 19.4927 191.594 11.1912 180.145 6.01628C170.875 1.83555 160.787 -0.216349 150.62 0.0111954C140.454 0.23874 130.467 2.73995 121.394 7.33124C108.926 13.6359 96.2935 28.3449 82.4079 29.4617C72.516 30.2337 52.7067 20.3316 44.9816 29.7036Z" fill="#61A199"/>
<path d="M223.397 89.3144C223.397 89.3144 219.651 76.5894 224.1 67.2251C225.992 63.3088 226.563 58.8842 225.726 54.6159C225.313 52.5926 224.715 50.6114 223.94 48.6973" stroke="#535461" stroke-width="2" stroke-miterlimit="10"/>
<path d="M226.722 42.7817C226.722 44.3412 223.892 48.8625 223.892 48.8625C223.892 48.8625 221.061 44.3412 221.061 42.7817C221.032 42.3935 221.084 42.0035 221.213 41.6361C221.342 41.2687 221.545 40.9318 221.81 40.6465C222.075 40.3613 222.396 40.1337 222.753 39.9781C223.109 39.8225 223.495 39.7422 223.884 39.7422C224.273 39.7422 224.658 39.8225 225.015 39.9781C225.372 40.1337 225.693 40.3613 225.958 40.6465C226.223 40.9318 226.426 41.2687 226.555 41.6361C226.684 42.0035 226.736 42.3935 226.707 42.7817H226.722Z" fill="#61A199"/>
<path d="M231.377 51.4172C230.531 52.727 225.693 54.989 225.693 54.989C225.693 54.989 225.78 49.6596 226.627 48.3498C227.058 47.7773 227.689 47.3894 228.395 47.2642C229.1 47.1391 229.827 47.2861 230.428 47.6755C231.029 48.0649 231.46 48.6679 231.635 49.3627C231.809 50.0576 231.713 50.7927 231.367 51.4198L231.377 51.4172Z" fill="#61A199"/>
<path d="M231.174 66.18C229.782 66.8825 224.483 66.3961 224.483 66.3961C224.483 66.3961 227.25 61.8388 228.642 61.1363C229.302 60.8622 230.041 60.848 230.711 61.0965C231.381 61.345 231.933 61.8378 232.255 62.4759C232.576 63.114 232.645 63.8503 232.446 64.5369C232.248 65.2234 231.797 65.8095 231.184 66.1774L231.174 66.18Z" fill="#61A199"/>
<path d="M228.505 77.3266C227.252 78.253 221.936 78.6724 221.936 78.6724C221.936 78.6724 223.891 73.7136 225.147 72.7846C225.751 72.4174 226.471 72.2897 227.165 72.4266C227.859 72.5635 228.476 72.9551 228.896 73.5244C229.315 74.0936 229.506 74.7993 229.432 75.5025C229.357 76.2057 229.022 76.8555 228.492 77.324L228.505 77.3266Z" fill="#61A199"/>
<path d="M219.773 55.2897C220.893 56.3756 226.104 57.5027 226.104 57.5027C226.104 57.5027 224.817 52.3278 223.708 51.2393C223.449 50.9492 223.134 50.7155 222.78 50.5528C222.427 50.3901 222.045 50.3019 221.656 50.2936C221.267 50.2854 220.881 50.3572 220.521 50.5048C220.162 50.6524 219.836 50.8724 219.565 51.1513C219.295 51.4301 219.084 51.7618 218.947 52.1256C218.81 52.4894 218.749 52.8775 218.769 53.2658C218.788 53.654 218.888 54.0341 219.06 54.3823C219.233 54.7305 219.476 55.0394 219.773 55.2897Z" fill="#61A199"/>
<path d="M216.817 68.3538C218.21 69.0563 223.508 68.57 223.508 68.57C223.508 68.57 220.742 64.0126 219.35 63.3101C218.69 63.0361 217.95 63.0219 217.28 63.2703C216.61 63.5188 216.059 64.0116 215.737 64.6497C215.415 65.2879 215.346 66.0241 215.545 66.7107C215.744 67.3973 216.194 67.9833 216.807 68.3512L216.817 68.3538Z" fill="#61A199"/>
<path d="M215.685 81.4417C216.938 82.3681 222.255 82.7876 222.255 82.7876C222.255 82.7876 220.299 77.8288 219.043 76.8998C218.749 76.6395 218.404 76.4433 218.029 76.3237C217.655 76.2041 217.26 76.1638 216.869 76.2053C216.478 76.2467 216.101 76.3691 215.76 76.5646C215.419 76.7601 215.122 77.0245 214.889 77.3408C214.656 77.6571 214.492 78.0185 214.406 78.402C214.32 78.7855 214.315 79.1826 214.391 79.5681C214.467 79.9536 214.623 80.3191 214.848 80.6412C215.073 80.9634 215.362 81.2351 215.698 81.4391L215.685 81.4417Z" fill="#61A199"/>
<path opacity="0.1" d="M226.722 42.7817C226.722 44.3412 223.892 48.8625 223.892 48.8625C223.892 48.8625 221.061 44.3412 221.061 42.7817C221.032 42.3935 221.084 42.0035 221.213 41.6361C221.342 41.2687 221.545 40.9318 221.81 40.6465C222.075 40.3613 222.396 40.1337 222.753 39.9781C223.109 39.8225 223.495 39.7422 223.884 39.7422C224.273 39.7422 224.658 39.8225 225.015 39.9781C225.372 40.1337 225.693 40.3613 225.958 40.6465C226.223 40.9318 226.426 41.2687 226.555 41.6361C226.684 42.0035 226.736 42.3935 226.707 42.7817H226.722Z" fill="#61A199"/>
<path opacity="0.1" d="M231.377 51.4172C230.531 52.727 225.693 54.989 225.693 54.989C225.693 54.989 225.78 49.6596 226.627 48.3498C227.058 47.7773 227.689 47.3894 228.395 47.2642C229.1 47.1391 229.827 47.2861 230.428 47.6755C231.029 48.0649 231.46 48.6679 231.635 49.3627C231.809 50.0576 231.713 50.7927 231.367 51.4198L231.377 51.4172Z" fill="#61A199"/>
<path opacity="0.1" d="M231.174 66.18C229.782 66.8825 224.483 66.3961 224.483 66.3961C224.483 66.3961 227.25 61.8388 228.642 61.1363C229.302 60.8622 230.041 60.848 230.711 61.0965C231.381 61.345 231.933 61.8378 232.255 62.4759C232.576 63.114 232.645 63.8503 232.446 64.5369C232.248 65.2234 231.797 65.8095 231.184 66.1774L231.174 66.18Z" fill="#61A199"/>
<path opacity="0.1" d="M228.505 77.3266C227.252 78.253 221.936 78.6724 221.936 78.6724C221.936 78.6724 223.891 73.7136 225.147 72.7846C225.751 72.4174 226.471 72.2897 227.165 72.4266C227.859 72.5635 228.476 72.9551 228.896 73.5244C229.315 74.0936 229.506 74.7993 229.432 75.5025C229.357 76.2057 229.022 76.8555 228.492 77.324L228.505 77.3266Z" fill="#61A199"/>
<path opacity="0.1" d="M219.773 55.2897C220.893 56.3756 226.104 57.5027 226.104 57.5027C226.104 57.5027 224.817 52.3278 223.708 51.2393C223.449 50.9492 223.134 50.7155 222.78 50.5528C222.427 50.3901 222.045 50.3019 221.656 50.2936C221.267 50.2854 220.881 50.3572 220.521 50.5048C220.162 50.6524 219.836 50.8724 219.565 51.1513C219.295 51.4301 219.084 51.7618 218.947 52.1256C218.81 52.4894 218.749 52.8775 218.769 53.2658C218.788 53.654 218.888 54.0341 219.06 54.3823C219.233 54.7305 219.476 55.0394 219.773 55.2897Z" fill="#61A199"/>
<path opacity="0.1" d="M216.817 68.3538C218.21 69.0563 223.508 68.57 223.508 68.57C223.508 68.57 220.742 64.0126 219.35 63.3101C218.69 63.0361 217.95 63.0219 217.28 63.2703C216.61 63.5188 216.059 64.0116 215.737 64.6497C215.415 65.2879 215.346 66.0241 215.545 66.7107C215.744 67.3973 216.194 67.9833 216.807 68.3512L216.817 68.3538Z" fill="#61A199"/>
<path opacity="0.1" d="M215.685 81.4417C216.938 82.3681 222.255 82.7876 222.255 82.7876C222.255 82.7876 220.299 77.8288 219.043 76.8998C218.749 76.6395 218.404 76.4433 218.029 76.3237C217.655 76.2041 217.26 76.1638 216.869 76.2053C216.478 76.2467 216.101 76.3691 215.76 76.5646C215.419 76.7601 215.122 77.0245 214.889 77.3408C214.656 77.6571 214.492 78.0185 214.406 78.402C214.32 78.7855 214.315 79.1826 214.391 79.5681C214.467 79.9536 214.623 80.3191 214.848 80.6412C215.073 80.9634 215.362 81.2351 215.698 81.4391L215.685 81.4417Z" fill="#61A199"/>
<path d="M239.094 109.645C239.094 109.645 235.347 96.9195 239.797 87.5552C241.689 83.6388 242.26 79.2143 241.423 74.946C241.01 72.9227 240.412 70.9415 239.637 69.0273" stroke="#535461" stroke-width="2" stroke-miterlimit="10"/>
<path d="M242.419 63.1118C242.419 64.6713 239.588 69.1926 239.588 69.1926C239.588 69.1926 236.758 64.6713 236.758 63.1118C236.729 62.7236 236.781 62.3335 236.91 61.9661C237.038 61.5988 237.242 61.2619 237.507 60.9766C237.771 60.6913 238.092 60.4638 238.449 60.3082C238.806 60.1526 239.191 60.0723 239.581 60.0723C239.97 60.0723 240.355 60.1526 240.712 60.3082C241.069 60.4638 241.39 60.6913 241.655 60.9766C241.92 61.2619 242.123 61.5988 242.252 61.9661C242.381 62.3335 242.432 62.7236 242.404 63.1118H242.419Z" fill="#61A199"/>
<path d="M247.075 71.7451C246.228 73.0549 241.4 75.3143 241.4 75.3143C241.4 75.3143 241.488 69.9849 242.335 68.6751C242.522 68.3351 242.778 68.0373 243.086 67.8004C243.394 67.5635 243.747 67.3924 244.124 67.2979C244.501 67.2034 244.893 67.1875 245.276 67.2511C245.659 67.3147 246.025 67.4565 246.351 67.6677C246.677 67.8788 246.956 68.1548 247.171 68.4785C247.386 68.8022 247.532 69.1666 247.6 69.5491C247.667 69.9315 247.656 70.3239 247.565 70.7017C247.475 71.0795 247.308 71.4347 247.075 71.7451Z" fill="#61A199"/>
<path d="M246.871 86.51C245.479 87.2125 240.181 86.7262 240.181 86.7262C240.181 86.7262 242.947 82.1688 244.339 81.4663C244.673 81.2659 245.044 81.1366 245.43 81.0862C245.816 81.0359 246.209 81.0658 246.582 81.1739C246.956 81.282 247.304 81.4661 247.604 81.7147C247.903 81.9632 248.148 82.2709 248.324 82.6185C248.499 82.966 248.601 83.346 248.622 83.7347C248.644 84.1233 248.586 84.5123 248.45 84.8773C248.315 85.2423 248.106 85.5754 247.836 85.8559C247.566 86.1364 247.241 86.3582 246.882 86.5074L246.871 86.51Z" fill="#61A199"/>
<path d="M244.203 97.6547C242.949 98.5811 237.633 99.0005 237.633 99.0005C237.633 99.0005 239.589 94.0417 240.844 93.1128C241.449 92.7456 242.169 92.6178 242.862 92.7547C243.556 92.8916 244.173 93.2833 244.593 93.8525C245.013 94.4218 245.204 95.1274 245.129 95.8306C245.054 96.5338 244.719 97.1836 244.19 97.6521L244.203 97.6547Z" fill="#61A199"/>
<path d="M235.471 75.6193C236.59 76.7052 241.801 77.8323 241.801 77.8323C241.801 77.8323 240.514 72.6574 239.405 71.5689C238.858 71.1081 238.156 70.8719 237.441 70.9079C236.726 70.9438 236.051 71.2492 235.553 71.7626C235.054 72.276 234.768 72.9593 234.753 73.6748C234.738 74.3904 234.994 75.0852 235.471 75.6193Z" fill="#61A199"/>
<path d="M232.514 88.6819C233.906 89.3844 239.204 88.8981 239.204 88.8981C239.204 88.8981 236.438 84.3407 235.046 83.6382C234.386 83.3642 233.647 83.35 232.976 83.5985C232.306 83.8469 231.755 84.3397 231.433 84.9779C231.111 85.616 231.043 86.3522 231.241 87.0388C231.44 87.7254 231.891 88.3114 232.503 88.6793L232.514 88.6819Z" fill="#61A199"/>
<path d="M231.382 101.772C232.635 102.698 237.952 103.118 237.952 103.118C237.952 103.118 235.996 98.1589 234.74 97.2299C234.446 96.9696 234.101 96.7734 233.726 96.6538C233.352 96.5342 232.957 96.4939 232.566 96.5353C232.175 96.5768 231.797 96.6992 231.457 96.8947C231.116 97.0902 230.819 97.3545 230.586 97.6709C230.353 97.9872 230.188 98.3486 230.102 98.7321C230.017 99.1156 230.012 99.5127 230.088 99.8982C230.164 100.284 230.319 100.649 230.544 100.971C230.769 101.293 231.059 101.565 231.395 101.769L231.382 101.772Z" fill="#61A199"/>
<path opacity="0.1" d="M242.419 63.1118C242.419 64.6713 239.588 69.1926 239.588 69.1926C239.588 69.1926 236.758 64.6713 236.758 63.1118C236.729 62.7236 236.781 62.3335 236.91 61.9661C237.038 61.5988 237.242 61.2619 237.507 60.9766C237.771 60.6913 238.092 60.4638 238.449 60.3082C238.806 60.1526 239.191 60.0723 239.581 60.0723C239.97 60.0723 240.355 60.1526 240.712 60.3082C241.069 60.4638 241.39 60.6913 241.655 60.9766C241.92 61.2619 242.123 61.5988 242.252 61.9661C242.381 62.3335 242.432 62.7236 242.404 63.1118H242.419Z" fill="#61A199"/>
<path opacity="0.1" d="M247.075 71.7451C246.228 73.0549 241.4 75.3143 241.4 75.3143C241.4 75.3143 241.488 69.9849 242.335 68.6751C242.522 68.3351 242.778 68.0373 243.086 67.8004C243.394 67.5635 243.747 67.3924 244.124 67.2979C244.501 67.2034 244.893 67.1875 245.276 67.2511C245.659 67.3147 246.025 67.4565 246.351 67.6677C246.677 67.8788 246.956 68.1548 247.171 68.4785C247.386 68.8022 247.532 69.1666 247.6 69.5491C247.667 69.9315 247.656 70.3239 247.565 70.7017C247.475 71.0795 247.308 71.4347 247.075 71.7451Z" fill="#61A199"/>
<path opacity="0.1" d="M246.871 86.51C245.479 87.2125 240.181 86.7262 240.181 86.7262C240.181 86.7262 242.947 82.1688 244.339 81.4663C244.673 81.2659 245.044 81.1366 245.43 81.0862C245.816 81.0359 246.209 81.0658 246.582 81.1739C246.956 81.282 247.304 81.4661 247.604 81.7147C247.903 81.9632 248.148 82.2709 248.324 82.6185C248.499 82.966 248.601 83.346 248.622 83.7347C248.644 84.1233 248.586 84.5123 248.45 84.8773C248.315 85.2423 248.106 85.5754 247.836 85.8559C247.566 86.1364 247.241 86.3582 246.882 86.5074L246.871 86.51Z" fill="#61A199"/>
<path opacity="0.1" d="M244.203 97.6547C242.949 98.5811 237.633 99.0005 237.633 99.0005C237.633 99.0005 239.589 94.0417 240.844 93.1128C241.449 92.7456 242.169 92.6178 242.862 92.7547C243.556 92.8916 244.173 93.2833 244.593 93.8525C245.013 94.4218 245.204 95.1274 245.129 95.8306C245.054 96.5338 244.719 97.1836 244.19 97.6521L244.203 97.6547Z" fill="#61A199"/>
<path opacity="0.1" d="M235.471 75.6193C236.59 76.7052 241.801 77.8323 241.801 77.8323C241.801 77.8323 240.514 72.6574 239.405 71.5689C238.858 71.1081 238.156 70.8719 237.441 70.9079C236.726 70.9438 236.051 71.2492 235.553 71.7626C235.054 72.276 234.768 72.9593 234.753 73.6748C234.738 74.3904 234.994 75.0852 235.471 75.6193Z" fill="#61A199"/>
<path opacity="0.1" d="M232.514 88.6819C233.906 89.3844 239.204 88.8981 239.204 88.8981C239.204 88.8981 236.438 84.3407 235.046 83.6382C234.386 83.3642 233.647 83.35 232.976 83.5985C232.306 83.8469 231.755 84.3397 231.433 84.9779C231.111 85.616 231.043 86.3522 231.241 87.0388C231.44 87.7254 231.891 88.3114 232.503 88.6793L232.514 88.6819Z" fill="#61A199"/>
<path opacity="0.1" d="M231.382 101.772C232.635 102.698 237.952 103.118 237.952 103.118C237.952 103.118 235.996 98.1589 234.74 97.2299C234.446 96.9696 234.101 96.7734 233.726 96.6538C233.352 96.5342 232.957 96.4939 232.566 96.5353C232.175 96.5768 231.797 96.6992 231.457 96.8947C231.116 97.0902 230.819 97.3545 230.586 97.6709C230.353 97.9872 230.188 98.3486 230.102 98.7321C230.017 99.1156 230.012 99.5127 230.088 99.8982C230.164 100.284 230.319 100.649 230.544 100.971C230.769 101.293 231.059 101.565 231.395 101.769L231.382 101.772Z" fill="#61A199"/>
<path opacity="0.1" d="M138.945 152.188C208.84 145.372 264.613 130.725 263.515 119.474C262.418 108.223 204.867 104.629 134.971 111.445C65.0757 118.261 9.30353 132.908 10.4007 144.159C11.4979 155.409 69.0491 159.004 138.945 152.188Z" fill="#61A199"/>
<path d="M252.501 121.267C257.26 111.515 256.276 95.6398 255.77 90.2513C255.659 89.0727 255.571 88.3959 255.571 88.3959C255.571 88.3959 251.377 87.7346 252.923 82.6574C253.68 80.1716 250.993 78.7974 248.06 78.0435C245.962 77.5418 243.822 77.2394 241.668 77.1402L201.038 74.6312C195.467 65.7893 184.504 67.2098 184.504 67.2098C184.504 67.2098 174.726 66.1933 167.793 66.0878C166.741 65.1609 165.588 64.3555 164.355 63.6869C163.621 63.2456 162.839 62.8891 162.024 62.6242C161.033 62.3383 159.989 62.2883 158.976 62.4782C157.962 62.6682 157.007 63.0927 156.187 63.7178C155.788 64.0053 155.462 64.3837 155.238 64.8218C155.151 65.021 155.087 65.2289 155.045 65.4419C154.94 65.8053 154.854 66.1737 154.788 66.5459C154.727 66.725 154.64 66.8941 154.53 67.0477C154.252 67.4414 153.774 67.7373 153.712 68.2134C153.71 68.2408 153.71 68.2683 153.712 68.2957C153.661 68.3867 153.627 68.4861 153.612 68.5891C153.593 68.801 153.639 69.0135 153.743 69.199C153.758 69.2299 153.776 69.2582 153.794 69.2865C153.452 69.7818 153.173 70.3177 152.963 70.8819C152.868 70.9337 152.776 70.9913 152.688 71.0543L152.611 71.1109V71.2679L152.567 71.3014L152.472 73.8361L152.526 73.8773C152.603 75.0597 152.96 76.2068 153.567 77.2248C154.173 78.2429 155.012 79.1027 156.015 79.7341C156.048 79.8962 156.079 80.0609 156.11 80.2333C156.252 81.0645 156.315 81.907 156.301 82.75H156.257C155.047 82.2354 152.979 82.9919 151.2 83.8746H128.164C132.657 78.0949 138.154 73.6122 138.154 73.6122V68.5325C134.227 68.3369 99.7289 84.9091 92.1659 88.5683L91.8314 88.7304L52.9615 89.9347C45.9209 89.891 39.7655 90.9255 34.4336 92.611C25.5237 95.4097 17.5171 100.525 11.2326 107.433C6.64184 112.472 4.62951 116.635 4.62951 116.635L4.67326 116.985L4.62951 117.075L4.69127 117.13L5.73861 125.395L6.45914 131.082C1.45147 134.319 7.93879 135.616 7.93879 135.616C14.1147 140.912 24.0503 140.693 24.0503 140.693C26.4769 144.005 33.5407 143.563 33.5407 143.563H70.6196C71.1971 140.158 71.9704 136.79 72.9356 133.475C74.5182 144.872 83.5119 153.604 94.3661 153.604C95.1712 153.603 95.9755 153.554 96.7747 153.457C97.5739 153.554 98.3783 153.603 99.1834 153.604C110.164 153.604 119.237 144.667 120.665 133.079H122.48C122.141 135.668 121.552 138.218 120.722 140.693C154.049 130.982 216.068 126.347 216.068 126.347C216.326 123.902 216.609 121.54 216.915 119.273C219.47 125.616 225.263 130.045 232.005 130.045C232.617 130.044 233.229 130.006 233.837 129.932C234.445 130.006 235.057 130.044 235.669 130.045C243.675 130.045 250.337 123.8 251.84 115.519C252.039 116.98 252.153 118.452 252.18 119.927C251.894 121.332 251.645 122.23 251.611 122.356C251.812 121.989 252.002 121.613 252.182 121.229C252.182 121.378 252.182 121.532 252.182 121.687C252.121 121.944 252.077 122.088 252.064 122.137L252.177 121.926C252.177 122.039 252.177 122.15 252.177 122.263C252.151 122.274 252.288 121.903 252.501 121.267Z" fill="url(#paint0_linear)"/>
<path d="M248.613 86.2246H172.211V117.045H248.613V86.2246Z" fill="#6F7D95"/>
<path d="M152.785 71.7917L163.636 96.1017L185.126 94.7997L185.993 84.8152L186.644 73.0938L156.259 70.9219L152.785 71.7917Z" fill="#4B5C7A"/>
<path d="M152.785 71.7894C152.785 71.7894 156.902 67.8831 161.902 67.0133C166.902 66.1436 183.608 67.8805 183.608 67.8805L185.996 71.9978L185.548 73.9587L152.785 71.7894Z" fill="#FF4D52"/>
<path d="M193.698 84.2715H116.646V106.845H193.698V84.2715Z" fill="#4B5C7A"/>
<g opacity="0.1">
<path opacity="0.1" d="M162.034 73.7214C160.676 71.8686 158.084 73.3895 157.66 73.6545L156.993 73.5876C156.412 72.9546 154.628 71.2716 152.953 72.5094L152.881 72.5634L152.781 74.9386L152.853 74.9952C153.337 75.3688 153.885 75.6497 154.471 75.8238C154.842 75.9329 155.234 75.9523 155.614 75.8804C155.895 75.8156 156.159 75.6898 156.386 75.5119C156.613 75.334 156.798 75.1085 156.929 74.8511L157.276 74.8743L157.534 74.8254C157.585 75.099 157.694 75.3586 157.854 75.5867C158.014 75.8147 158.22 76.0061 158.46 76.1481C159.61 76.7991 161.291 76.1481 161.36 76.1352L161.448 76.1017L162.065 73.8038L162.034 73.7214ZM161.162 75.811C160.82 75.9268 159.528 76.3076 158.661 75.811C158.445 75.6756 158.263 75.4924 158.129 75.2756C157.995 75.0587 157.913 74.814 157.889 74.5603L157.858 74.3725L157.294 74.4883L156.728 74.4677L156.674 74.5758C156.571 74.8095 156.415 75.0165 156.219 75.1806C156.024 75.3448 155.793 75.4619 155.545 75.5227C154.574 75.7312 153.452 74.9798 153.159 74.7662L153.244 72.759C154.7 71.7786 156.306 73.3689 156.769 73.8887L156.818 73.9427L157.758 74.0354L157.814 73.9968C157.84 73.9813 160.174 72.4142 161.504 73.6751C161.57 73.7363 161.631 73.8025 161.687 73.8732L161.162 75.811Z" fill="black"/>
</g>
<path d="M136.396 101.854H59.9946V132.674H136.396V101.854Z" fill="#6F7D95"/>
<path d="M94.9605 152.858C106.735 152.858 116.28 142.412 116.28 129.526C116.28 116.64 106.735 106.193 94.9605 106.193C83.1859 106.193 73.6406 116.64 73.6406 129.526C73.6406 142.412 83.1859 152.858 94.9605 152.858Z" fill="#4B5C7A"/>
<path opacity="0.05" d="M94.9605 152.858C106.735 152.858 116.28 142.412 116.28 129.526C116.28 116.64 106.735 106.193 94.9605 106.193C83.1859 106.193 73.6406 116.64 73.6406 129.526C73.6406 142.412 83.1859 152.858 94.9605 152.858Z" fill="black"/>
<path d="M99.6978 152.858C111.473 152.858 121.018 142.412 121.018 129.526C121.018 116.64 111.473 106.193 99.6978 106.193C87.9232 106.193 78.3779 116.64 78.3779 129.526C78.3779 142.412 87.9232 152.858 99.6978 152.858Z" fill="#4B5C7A"/>
<path opacity="0.05" d="M99.2245 139.118C104.457 139.118 108.699 134.876 108.699 129.643C108.699 124.41 104.457 120.168 99.2245 120.168C93.9916 120.168 89.7495 124.41 89.7495 129.643C89.7495 134.876 93.9916 139.118 99.2245 139.118Z" fill="black"/>
<path d="M99.2239 132.488C100.794 132.488 102.067 131.215 102.067 129.644C102.067 128.074 100.794 126.801 99.2239 126.801C97.6535 126.801 96.3804 128.074 96.3804 129.644C96.3804 131.215 97.6535 132.488 99.2239 132.488Z" stroke="#6F7D95" stroke-width="2" stroke-miterlimit="10"/>
<path d="M99.2244 125.379C99.6167 125.379 99.9346 125.061 99.9346 124.669C99.9346 124.277 99.6167 123.959 99.2244 123.959C98.8321 123.959 98.5142 124.277 98.5142 124.669C98.5142 125.061 98.8321 125.379 99.2244 125.379Z" fill="#6F7D95"/>
<path d="M103.567 126.585C103.868 126.333 103.907 125.885 103.655 125.584C103.403 125.284 102.955 125.244 102.654 125.497C102.354 125.749 102.315 126.197 102.567 126.497C102.819 126.798 103.267 126.837 103.567 126.585Z" fill="#6F7D95"/>
<path d="M105.263 130.024C105.331 129.637 105.073 129.269 104.687 129.201C104.301 129.133 103.932 129.391 103.864 129.777C103.796 130.163 104.054 130.532 104.44 130.6C104.826 130.668 105.195 130.41 105.263 130.024Z" fill="#6F7D95"/>
<path d="M102.889 134.109C103.229 133.913 103.345 133.479 103.149 133.139C102.953 132.8 102.518 132.683 102.179 132.879C101.839 133.075 101.722 133.51 101.919 133.849C102.115 134.189 102.549 134.306 102.889 134.109Z" fill="#6F7D95"/>
<path d="M99.1485 134.494C99.2827 134.126 99.0926 133.718 98.724 133.584C98.3554 133.45 97.9479 133.64 97.8137 134.008C97.6796 134.377 97.8696 134.785 98.2382 134.919C98.6068 135.053 99.0143 134.863 99.1485 134.494Z" fill="#6F7D95"/>
<path d="M95.539 132.301C95.9076 132.167 96.0976 131.759 95.9635 131.391C95.8293 131.022 95.4217 130.832 95.0531 130.966C94.6846 131.1 94.4945 131.508 94.6287 131.876C94.7628 132.245 95.1704 132.435 95.539 132.301Z" fill="#6F7D95"/>
<path d="M95.8705 127.863C96.0666 127.523 95.9502 127.089 95.6105 126.893C95.2708 126.696 94.8364 126.813 94.6403 127.152C94.4442 127.492 94.5605 127.927 94.9003 128.123C95.24 128.319 95.6743 128.202 95.8705 127.863Z" fill="#6F7D95"/>
<path d="M252.89 111.495C252.162 116.523 250.137 122.028 250.137 122.028C250.15 121.685 250.159 121.346 250.162 121.011C250.162 120.579 250.162 120.152 250.162 119.725C249.905 105.865 242.352 97.3136 237.481 93.2195C236.215 92.1406 234.853 91.1793 233.413 90.3477H246.652C246.652 90.3477 251.861 100.983 252.947 106.192C253.261 107.653 253.173 109.539 252.89 111.495Z" fill="#FF4D52"/>
<path opacity="0.05" d="M252.89 111.495C252.162 116.523 250.137 122.028 250.137 122.028C250.15 121.685 250.159 121.346 250.162 121.011C250.162 120.579 250.162 120.152 250.162 119.725C249.905 105.865 242.352 97.3136 237.481 93.2195C236.215 92.1406 234.853 91.1793 233.413 90.3477H246.652C246.652 90.3477 251.861 100.983 252.947 106.192C253.261 107.653 253.173 109.539 252.89 111.495Z" fill="black"/>
<path d="M230.317 129.69C239.272 129.69 246.531 121.745 246.531 111.945C246.531 102.144 239.272 94.1992 230.317 94.1992C221.362 94.1992 214.102 102.144 214.102 111.945C214.102 121.745 221.362 129.69 230.317 129.69Z" fill="#4B5C7A"/>
<path opacity="0.05" d="M230.317 129.69C239.272 129.69 246.531 121.745 246.531 111.945C246.531 102.144 239.272 94.1992 230.317 94.1992C221.362 94.1992 214.102 102.144 214.102 111.945C214.102 121.745 221.362 129.69 230.317 129.69Z" fill="black"/>
<path d="M233.92 129.69C242.875 129.69 250.134 121.745 250.134 111.945C250.134 102.144 242.875 94.1992 233.92 94.1992C224.965 94.1992 217.705 102.144 217.705 111.945C217.705 121.745 224.965 129.69 233.92 129.69Z" fill="#4B5C7A"/>
<path opacity="0.05" d="M233.559 119.239C237.538 119.239 240.764 116.013 240.764 112.033C240.764 108.054 237.538 104.828 233.559 104.828C229.579 104.828 226.354 108.054 226.354 112.033C226.354 116.013 229.579 119.239 233.559 119.239Z" fill="black"/>
<path d="M233.559 114.196C234.753 114.196 235.721 113.228 235.721 112.035C235.721 110.841 234.753 109.873 233.559 109.873C232.365 109.873 231.397 110.841 231.397 112.035C231.397 113.228 232.365 114.196 233.559 114.196Z" stroke="#6F7D95" stroke-width="2" stroke-miterlimit="10"/>
<path d="M233.559 108.792C233.858 108.792 234.1 108.55 234.1 108.251C234.1 107.953 233.858 107.711 233.559 107.711C233.261 107.711 233.019 107.953 233.019 108.251C233.019 108.55 233.261 108.792 233.559 108.792Z" fill="#6F7D95"/>
<path d="M236.864 109.709C237.093 109.517 237.123 109.176 236.931 108.948C236.739 108.719 236.398 108.689 236.169 108.881C235.941 109.073 235.911 109.414 236.103 109.642C236.295 109.871 236.635 109.901 236.864 109.709Z" fill="#6F7D95"/>
<path d="M238.152 112.325C238.204 112.032 238.007 111.751 237.713 111.699C237.42 111.648 237.139 111.844 237.087 112.138C237.036 112.432 237.232 112.712 237.526 112.764C237.82 112.816 238.1 112.619 238.152 112.325Z" fill="#6F7D95"/>
<path d="M236.347 115.433C236.606 115.284 236.694 114.954 236.545 114.695C236.396 114.437 236.065 114.348 235.807 114.497C235.548 114.647 235.46 114.977 235.609 115.236C235.758 115.494 236.089 115.583 236.347 115.433Z" fill="#6F7D95"/>
<path d="M233.503 115.723C233.605 115.443 233.461 115.133 233.18 115.031C232.9 114.928 232.59 115.073 232.488 115.354C232.385 115.634 232.53 115.944 232.811 116.046C233.091 116.148 233.401 116.004 233.503 115.723Z" fill="#6F7D95"/>
<path d="M230.756 114.053C231.037 113.951 231.181 113.641 231.079 113.361C230.977 113.08 230.667 112.936 230.387 113.038C230.106 113.14 229.962 113.45 230.064 113.73C230.166 114.011 230.476 114.156 230.756 114.053Z" fill="#6F7D95"/>
<path d="M231.012 110.68C231.161 110.421 231.072 110.091 230.814 109.942C230.556 109.792 230.225 109.881 230.076 110.139C229.927 110.398 230.015 110.728 230.274 110.878C230.532 111.027 230.863 110.938 231.012 110.68Z" fill="#6F7D95"/>
<path d="M8.66448 131.914L6.70361 116.502H29.9278L41.8654 127.137L36.0059 140.812C36.0059 140.812 12.3649 136.906 8.66448 131.914Z" fill="#FF4D52"/>
<path opacity="0.05" d="M41.8734 127.137L36.014 140.811C36.014 140.811 12.3652 136.905 8.6648 131.913L8.57988 131.241L6.77856 116.99L6.76054 116.849L6.7168 116.504H29.941L41.8734 127.137Z" fill="black"/>
<path d="M138.028 69.1853V74.1776C138.028 74.1776 126.026 83.9562 123.169 93.1815C122.671 94.6795 122.482 96.2634 122.616 97.8366C123.702 108.037 91.3657 89.5866 91.3657 89.5866L92.8042 88.8866C100.239 85.302 134.165 68.9898 138.028 69.1853Z" fill="#7597CE"/>
<path d="M165.377 93.2791C165.377 93.2791 176.617 87.7567 178.421 83.6703C178.663 83.1222 178.892 82.5689 179.16 82.0311C180.274 79.7898 182.616 74.5325 181.437 72.0081C179.919 68.7528 185.127 72.4429 185.127 72.4429L182.088 87.8494L174.708 91.9667L165.158 93.2791" fill="#FF4D52"/>
<path opacity="0.05" d="M165.377 93.2791C165.377 93.2791 176.617 87.7567 178.421 83.6703C178.663 83.1222 178.892 82.5689 179.16 82.0311C180.274 79.7898 182.616 74.5325 181.437 72.0081C179.919 68.7528 185.127 72.4429 185.127 72.4429L182.088 87.8494L174.708 91.9667L165.158 93.2791" fill="black"/>
<path opacity="0.05" d="M41.8723 127.138L36.0129 140.813C36.0129 140.813 12.3642 136.906 8.66373 131.914L8.57881 131.243C8.67402 131.178 8.77438 131.111 8.87989 131.047C8.87989 131.047 16.0414 136.69 32.3228 137.995C32.3228 137.995 42.1014 130.18 26.2446 121.5C26.2446 121.5 12.4516 121.932 6.76977 116.994L6.70801 116.943L6.75176 116.853C6.7895 116.779 6.8504 116.664 6.93446 116.508H29.9322L41.8723 127.138Z" fill="black"/>
<path opacity="0.05" d="M122.616 97.8341C123.702 108.037 91.3657 89.5867 91.3657 89.5867L92.8042 88.8867C93.7563 89.9006 97.5571 93.3205 105.156 92.95C110.045 92.7107 117.469 92.9294 123.182 93.179C122.679 94.6761 122.487 96.2601 122.616 97.8341Z" fill="black"/>
<path opacity="0.05" d="M136.398 101.854V132.674H122.204C123.141 125.505 122.6 115.055 113.496 109.064C110.1 106.844 106.157 105.606 102.102 105.485C98.0474 105.364 94.0379 106.366 90.5161 108.379C84.5486 111.787 77.876 118.714 73.6351 132.674H59.9966V101.854H136.398Z" fill="black"/>
<path opacity="0.05" d="M252.89 111.495C252.355 114.897 251.495 118.201 250.165 121.016C249.993 121.396 249.806 121.765 249.604 122.126C249.637 121.999 249.882 121.119 250.165 119.735C251.544 112.993 253.904 94.3363 238.093 93.2709C237.888 93.2581 237.684 93.2452 237.481 93.2375C236.216 92.1524 234.854 91.1851 233.413 90.3477H246.652C246.652 90.3477 251.861 100.983 252.947 106.192C253.261 107.653 253.173 109.539 252.89 111.495Z" fill="black"/>
<path d="M250.033 121.913C250.239 121.17 257.573 94.3454 238.523 93.0613C219.205 91.7592 216.817 106.301 214.648 126.054C214.648 126.054 153.66 130.611 120.881 140.163C120.881 140.163 128.75 118.599 113.933 108.846C110.538 106.626 106.595 105.388 102.54 105.267C98.4848 105.146 94.4753 106.148 90.9535 108.162C83.6453 112.335 75.2743 121.8 71.6125 142.984H35.1435C35.1435 142.984 28.1956 143.419 25.8101 140.153C25.8101 140.153 16.0315 140.369 9.96621 135.161C9.96621 135.161 3.45572 133.859 8.66411 130.603C8.66411 130.603 16.0444 136.247 32.3232 137.551C32.3232 137.551 42.1017 129.736 26.245 121.056C26.245 121.056 12.3491 121.491 6.71096 116.499C6.71096 116.499 8.68984 112.405 13.206 107.451C19.383 100.657 27.2537 95.624 36.0133 92.8683C41.9157 91.0436 48.0678 90.1562 54.2452 90.2384L92.5541 89.0444C92.5541 89.0444 96.2546 93.8205 105.143 93.3856C114.031 92.9507 131.406 94.0366 131.406 94.0366H131.578L167.327 92.418C168.353 92.2731 169.369 92.0581 170.366 91.7747C175.549 90.3671 185.379 86.0979 183.606 74.1758L239.822 77.6498C241.941 77.7471 244.046 78.0444 246.109 78.5375C248.996 79.2787 251.636 80.6322 250.893 83.0769C249.374 88.0691 253.497 88.7201 253.497 88.7201C253.497 88.7201 253.584 89.3866 253.692 90.5446C254.207 96.0052 255.218 112.423 250.033 121.913Z" fill="#FF4D52"/>
<path opacity="0.05" d="M78.1202 98.0547C78.1202 98.0547 54.6773 98.2708 39.2632 111.951H47.9455C47.9455 111.951 72.2556 105.656 78.1151 100.664L78.1202 98.0547Z" fill="black"/>
<path d="M77.9015 97.834C77.9015 97.834 54.4586 98.0501 39.0444 111.73H47.7268C47.7268 111.73 72.0369 105.436 77.8963 100.443L77.9015 97.834Z" fill="#FFEC9F"/>
<path opacity="0.05" d="M36.2295 93.0879V98.9216L16.4819 108.039L13.4248 107.671C19.6011 100.876 27.4708 95.844 36.2295 93.0879Z" fill="black"/>
<path d="M36.0109 92.8711V98.7048L16.2607 107.819L13.2036 107.451C19.3809 100.658 27.2516 95.6261 36.0109 92.8711Z" fill="#FFEC9F"/>
<path opacity="0.05" d="M64.011 119.324C64.011 119.324 53.3755 125.835 52.2896 140.168H58.3677C58.3677 140.168 60.7558 124.54 67.7011 119.324H64.011Z" fill="black"/>
<path opacity="0.05" d="M189.687 119.759L134.553 126.27C134.553 126.27 130.907 103.059 131.581 94.0288L167.33 92.4102C168.355 92.2677 169.37 92.0553 170.366 91.7746V93.9284L197.281 87.418C197.281 87.418 201.84 94.1446 189.687 119.759Z" fill="black"/>
<path d="M183.609 67.8814C183.609 67.8814 195.33 66.3631 200.539 76.3476L183.776 75.7017L183.609 67.8814Z" fill="#FF4D52"/>
<path opacity="0.05" d="M199.725 79.8474C199.264 81.2911 199.612 82.8788 202.28 83.9776C204.501 84.8937 207.105 83.8335 207.864 81.5561C208.307 80.2283 208.003 78.7255 205.61 77.5031C203.217 76.2808 200.53 77.3256 199.725 79.8474Z" fill="black"/>
<path d="M7.12354 119.754C7.12354 119.754 21.0349 126.959 31.0193 124.231" stroke="#FF4D52" stroke-miterlimit="10"/>
<path d="M7.61475 123.646C7.61475 123.646 16.6033 130.579 34.7709 128.968" stroke="#FF4D52" stroke-miterlimit="10"/>
<path d="M8.02832 126.91C8.02832 126.91 16.9449 134.648 35.2669 132.196" stroke="#FF4D52" stroke-miterlimit="10"/>
<path opacity="0.05" d="M199.866 75.1816C199.866 75.1816 192.615 81.4425 185.996 84.2732C185.996 84.2732 196.047 86.0616 199.866 75.1816Z" fill="black"/>
<path opacity="0.1" d="M123.042 93.6101C123.042 93.6101 157.453 96.8602 170.474 93.8211C170.474 93.8211 171.169 94.2818 167.023 92.4238L123.042 93.6101Z" fill="black"/>
<path opacity="0.05" d="M253.695 90.5448C251.551 89.1372 248.152 86.2165 248.615 82.9664C248.847 81.3375 247.694 79.8141 246.111 78.5352C248.999 79.2763 251.639 80.6298 250.895 83.0745C249.377 88.0667 253.499 88.7178 253.499 88.7178C253.499 88.7178 253.584 89.3868 253.695 90.5448Z" fill="black"/>
<path d="M80.7453 113.202C80.7658 112.342 80.7453 111.449 80.6809 110.628C80.6809 110.471 80.6552 110.319 80.6398 110.17C81.1235 110.536 81.4117 110.814 81.4117 110.814L80.9872 88.4669L78.6454 76.7608C78.6454 68.4593 74.1756 66.1202 74.1756 66.1202C74.1756 66.1202 71.8339 65.0548 71.1957 63.5675C70.5575 62.0801 64.9014 58.9355 64.8988 58.9355C64.854 58.3938 64.8368 57.8501 64.8473 57.3066C64.8473 57.1651 64.8473 57.0184 64.8602 56.8717C66.2782 55.9315 67.3068 54.5086 67.755 52.8673C68.2031 51.226 68.0405 49.4779 67.2971 47.9475C67.6111 47.9475 67.8658 47.8162 67.9842 47.3504C68.3599 45.8759 67.9971 43.6552 67.1427 42.4766C66.9601 42.2301 66.7541 42.0017 66.5277 41.7947C66.2626 41.5286 65.9834 41.2769 65.6914 41.0407C64.9606 40.4334 64.1474 39.7952 63.2416 39.8467C62.7277 39.9139 62.2339 40.0893 61.7928 40.3613C59.53 41.5519 57.2732 42.7528 55.0224 43.964C54.1912 44.4143 53.3343 44.8878 52.7528 45.6958C52.1712 46.5038 51.937 47.5383 51.7749 48.5548C51.6386 49.2434 51.6065 49.9487 51.6797 50.6469C51.7477 51.2822 52.0386 51.873 52.5006 52.3144C52.5937 52.427 52.7 52.528 52.8171 52.6155C53.2752 52.95 53.8644 53.0323 54.3431 53.3025C54.7049 54.3532 55.3108 55.303 56.1109 56.074C56.1109 56.2052 56.0929 56.3313 56.0826 56.4754C56.0543 56.8434 56.0106 57.2474 55.954 57.6566C55.954 57.6566 54.3817 57.6154 52.04 60.8063C49.6982 63.9972 44.5902 64.4244 44.5902 64.4244C44.5902 64.4244 42.6757 63.5726 40.5475 73.1505C38.4194 82.7284 37.7812 89.105 38.844 90.1755C39.2953 90.565 39.8039 90.8827 40.352 91.1174C42.156 92.028 44.0972 92.6365 46.0982 92.9187C46.1237 92.9954 46.1669 93.0651 46.2243 93.122L46.3761 94.9773C46.5048 98.8939 46.654 106.75 45.8614 108.492C44.7961 110.834 46.075 112.324 46.075 112.324L46.3324 112.306C46.3799 112.387 46.4332 112.464 46.4919 112.538L47.5212 112.468C47.4466 116.843 47.2459 122.911 46.7158 124.244C45.864 126.372 46.7158 138.078 46.7158 138.078L45.2258 159.148C45.2258 159.148 44.4101 170.146 45.1744 171.42C44.7575 173.708 44.0087 178.067 44.1631 179.153C44.3766 180.643 49.2711 182.771 49.2711 182.771C49.2711 182.771 55.0173 184.058 57.7836 183.623C59.2298 183.399 59.8036 182.421 59.8088 181.564C61.6847 181.865 64.1268 182.153 65.6579 181.917C68.4242 181.492 67.9996 178.299 66.5097 178.512C65.0197 178.726 63.3162 175.73 62.0501 174.241C61.4068 173.489 60.8716 172.146 60.5062 170.996C60.7753 170.955 61.0224 170.823 61.2061 170.622C61.8443 169.557 62.9096 159.768 62.9096 159.768L65.6759 142.743C65.6759 142.743 67.1659 134.442 68.4423 132.527C69.4072 131.081 70.6141 120.288 71.1468 115.09H71.1931H71.2086L71.2652 114.908L72.0655 112.324C72.4926 113.078 73.5683 113.451 74.8215 113.611C74.6877 114.156 74.577 114.601 74.5127 114.856C74.1936 116.143 78.8462 118.261 79.9681 117.198C80.439 116.753 80.6835 115.139 80.7401 113.374H80.7787L80.7453 113.202ZM52.7836 171.24C52.7116 171.654 52.6395 172.087 52.5675 172.527C52.4054 172.012 52.2767 171.549 52.1892 171.207C52.4002 171.214 52.5984 171.225 52.7836 171.24Z" fill="url(#paint1_linear)"/>
<path d="M59.9198 166.801C59.9198 166.801 60.7407 170.491 61.9785 171.925C63.2162 173.358 64.8477 176.227 66.281 176.024C67.7144 175.821 68.1261 178.893 65.4601 179.302C62.7942 179.711 57.2616 178.481 57.2616 178.481C57.2616 178.481 52.5473 176.423 52.344 174.997C52.1407 173.572 53.574 166.184 53.574 166.184L59.9198 166.801Z" fill="#53526B"/>
<path opacity="0.05" d="M59.9198 166.801C59.9198 166.801 60.7407 170.491 61.9785 171.925C63.2162 173.358 64.8477 176.227 66.281 176.024C67.7144 175.821 68.1261 178.893 65.4601 179.302C62.7942 179.711 57.2616 178.481 57.2616 178.481C57.2616 178.481 52.5473 176.423 52.344 174.997C52.1407 173.572 53.574 166.184 53.574 166.184L59.9198 166.801Z" fill="black"/>
<path d="M52.3363 168.441C52.3363 168.441 53.1572 172.131 54.3949 173.565C55.6327 174.998 57.2642 177.867 58.6975 177.664C60.1309 177.461 60.5426 180.533 57.8766 180.942C55.2107 181.352 49.6781 180.124 49.6781 180.124C49.6781 180.124 44.9638 178.065 44.7605 176.64C44.5572 175.214 45.9905 167.826 45.9905 167.826L52.3363 168.441Z" fill="#53526B"/>
<path d="M70.9874 112.287C70.9874 112.287 69.3482 129.912 68.1181 131.757C66.8881 133.602 65.4547 141.595 65.4547 141.595L62.7913 157.989C62.7913 157.989 61.762 167.418 61.1521 168.442C60.5423 169.466 52.9355 169.026 52.9355 169.026L57.655 114.747L70.9874 112.287Z" fill="#5F5D7E"/>
<path opacity="0.05" d="M70.9874 112.287C70.9874 112.287 69.3482 129.912 68.1181 131.757C66.8881 133.602 65.4547 141.595 65.4547 141.595L62.7913 157.989C62.7913 157.989 61.762 167.418 61.1521 168.442C60.5423 169.466 52.9355 169.026 52.9355 169.026L57.655 114.747L70.9874 112.287Z" fill="black"/>
<path d="M74.2655 103.885L73.7303 105.586L70.8353 114.775L70.7787 114.95H70.7632C70.3747 115.037 62.171 116.924 60.4005 117.503C60.305 117.532 60.2113 117.567 60.12 117.608C59.2991 118.017 58.275 132.773 58.275 132.773C58.275 132.773 57.6599 146.71 57.2456 147.734C56.8313 148.758 55.187 169.864 54.1705 169.252C53.1541 168.64 45.7686 169.252 45.7686 169.252C44.9478 168.431 45.7686 157.366 45.7686 157.366L47.202 137.075C47.202 137.075 46.3811 125.804 47.202 123.753C48.0229 121.702 48.0229 107.974 48.0229 107.974L64.8086 105.375L66.4298 105.117L74.2655 103.885Z" fill="#5F5D7E"/>
<path opacity="0.02" d="M73.7308 105.584L70.8358 114.774L70.7664 114.954C70.3778 115.041 62.1741 116.928 60.4036 117.507H60.2261L64.8091 105.373L64.9404 105.023L66.4303 105.119L73.7308 105.584Z" fill="black"/>
<path opacity="0.1" d="M54.5907 62.8965C54.5907 62.8965 62.1742 71.0951 66.8885 64.3298L71.397 67.4049L70.5761 72.1192L73.2395 107.78C73.2395 107.78 66.2709 107.574 61.3533 109.214C59.9837 109.699 58.5038 109.784 57.0878 109.457C55.6718 109.13 54.3787 108.406 53.3606 107.369L54.1815 76.0127L52.3364 66.3808L54.5907 62.8965Z" fill="black"/>
<path d="M54.591 62.2832C54.591 62.2832 62.1746 70.4818 66.8889 63.7165L71.3973 66.7916L70.5764 71.506L73.2424 107.177C73.2424 107.177 66.2739 106.971 61.3562 108.611C59.9866 109.096 58.5067 109.181 57.0907 108.854C55.6748 108.527 54.3816 107.803 53.3635 106.765L54.1844 75.4097L52.3394 65.7778L54.591 62.2832Z" fill="#53526B"/>
<path d="M69.7266 98.793V100.082H70.1409V99.2227H71.6463V100.082H72.0606V98.7955L69.7266 98.793Z" fill="#E82127"/>
<path d="M70.0972 98.3764H71.6875C71.7917 98.3514 71.8871 98.2984 71.9633 98.2231C72.0395 98.1478 72.0937 98.0531 72.1198 97.9492H69.6675C69.6939 98.053 69.7482 98.1476 69.8243 98.2228C69.9005 98.2981 69.9957 98.3512 70.0998 98.3764" fill="#E82127"/>
<path d="M55.7173 97.9531C55.7444 98.0558 55.7986 98.1494 55.8742 98.2241C55.9498 98.2988 56.044 98.3518 56.147 98.3777H56.8161L56.8495 98.3906V100.079H57.2664V98.3906L57.305 98.3777H57.9741C58.0768 98.3511 58.1706 98.2978 58.2461 98.2232C58.3215 98.1487 58.3759 98.0555 58.4038 97.9531H55.7173Z" fill="#E82127"/>
<path d="M70.3726 104.703C70.3726 104.703 70.3726 110.032 71.6026 112.287C72.8326 114.541 80.0045 113.316 80.0045 113.316L78.5711 105.732L70.3726 104.703Z" fill="#D39999"/>
<path d="M79.2249 117.002C78.1441 118.031 73.6639 115.972 73.9727 114.747C74.1889 113.88 74.9454 110.777 75.3752 109.017L75.6737 107.779C75.6737 107.779 78.2985 106.958 79.2249 107.779C79.562 108.077 79.7987 109.253 79.9094 110.674C80.0998 113.142 79.912 116.351 79.2249 117.002Z" fill="#FDC2CC"/>
<path d="M69.3453 65.9681L62.1735 71.5007C62.1735 71.5007 51.5174 70.8857 54.1808 65.7622C55.3405 63.5089 56.0403 61.0473 56.2394 58.5209C56.3261 57.5888 56.3261 56.6507 56.2394 55.7186C56.2394 55.7186 66.0772 46.712 64.8472 56.9486C64.7502 57.7344 64.6936 58.5245 64.6773 59.3161C64.541 67 69.3453 65.9681 69.3453 65.9681Z" fill="#FDC2CC"/>
<path opacity="0.1" d="M64.8371 56.9524C64.7402 57.7381 64.6835 58.5283 64.6673 59.3198C63.5633 60.051 62.2678 60.4396 60.9437 60.4366C59.1089 60.4366 57.7579 58.6508 56.5382 57.4645C56.6745 55.7635 56.2319 55.7223 56.2319 55.7223C56.2319 55.7223 66.0671 46.7028 64.8371 56.9524Z" fill="black"/>
<path d="M60.9438 60.0254C64.6787 60.0254 67.7065 56.9976 67.7065 53.2627C67.7065 49.5278 64.6787 46.5 60.9438 46.5C57.2089 46.5 54.1812 49.5278 54.1812 53.2627C54.1812 56.9976 57.2089 60.0254 60.9438 60.0254Z" fill="#FDC2CC"/>
<path opacity="0.1" d="M56.1286 59.7188C56.1286 59.7188 55.0015 59.8217 52.7473 62.8942C50.4931 65.9668 45.56 66.3785 45.56 66.3785C45.56 66.3785 43.715 65.5576 41.6666 74.7804C39.6183 84.0031 39.0032 90.1508 40.0274 91.1749C41.0516 92.1991 45.1509 93.635 47.1992 93.635C47.1992 93.635 47.8143 106.545 46.7901 108.8C45.7659 111.054 46.9959 112.49 46.9959 112.49L56.0025 111.875C56.0025 111.875 59.0777 107.981 59.6927 101.219C60.3077 94.4559 62.3561 75.1895 61.3319 72.9353C60.3077 70.6811 55.7993 64.9426 56.0025 64.3276C56.2058 63.7125 56.1286 59.7188 56.1286 59.7188Z" fill="black"/>
<path d="M56.111 59.6563C56.111 59.6563 54.5953 59.6151 52.3411 62.6902C50.0869 65.7653 45.1693 66.1745 45.1693 66.1745C45.1693 66.1745 43.3242 65.3536 41.2758 74.5764C39.2275 83.7991 38.6125 89.9468 39.6418 90.9632C40.6711 91.9797 44.7652 93.4233 46.8136 93.4233C46.8136 93.4233 47.4286 106.334 46.4044 108.588C45.3803 110.842 46.6103 112.278 46.6103 112.278L55.6169 111.663C55.6169 111.663 58.692 107.77 59.3071 101.007C59.9221 94.2442 61.9704 74.9778 60.9463 72.7236C59.9221 70.4693 55.4136 64.7309 55.6169 64.1158C55.8202 63.5008 56.111 59.6563 56.111 59.6563Z" fill="#D39999"/>
<path d="M50.7075 86.0543C50.7075 86.0543 60.9622 74.2942 59.5211 82.3641C58.4918 88.1026 54.6035 91.1777 52.7584 91.7928C50.9134 92.4078 50.7075 86.0543 50.7075 86.0543Z" fill="#FDC2CC"/>
<path opacity="0.1" d="M79.9092 110.674C78.9287 109.925 77.0785 108.759 75.375 109.017L75.6735 107.779C75.6735 107.779 78.2983 106.958 79.2247 107.779C79.5643 108.077 79.7985 109.253 79.9092 110.674Z" fill="black"/>
<path opacity="0.1" d="M64.7339 60.9492C64.7339 60.9492 69.9603 64.3306 70.5753 65.7665C71.1903 67.2024 73.4445 68.2266 73.4445 68.2266C73.4445 68.2266 77.7471 70.4808 77.7471 78.4735L80.0014 89.7446L69.7493 104.088C69.7493 104.088 68.5192 89.742 67.9042 86.2578C67.2892 82.7735 66.4709 76.2218 66.4709 76.2218C66.4709 76.2218 63.3957 72.3284 63.8075 71.3042C64.2192 70.2801 64.7339 60.9492 64.7339 60.9492Z" fill="black"/>
<path d="M64.7163 60.8867C64.7163 60.8867 70.1665 63.9207 70.779 65.354C71.3914 66.7873 73.6508 67.8038 73.6508 67.8038C73.6508 67.8038 77.9534 70.058 77.9534 78.0507L80.2076 89.3218L80.6168 110.84C80.6168 110.84 76.9266 107.356 74.2633 108.995C71.5999 110.634 69.9607 103.665 69.9607 103.665C69.9607 103.665 68.7306 89.3193 68.1156 85.835C67.5006 82.3507 66.6823 75.7991 66.6823 75.7991C66.6823 75.7991 63.6072 71.9211 64.0189 70.8918C64.4306 69.8624 64.7163 60.8867 64.7163 60.8867Z" fill="#D39999"/>
<path opacity="0.1" d="M66.8804 45.0383C66.5334 44.5969 66.1323 44.2009 65.6864 43.8597C64.9813 43.273 64.2016 42.6606 63.3267 42.712C62.8317 42.7779 62.3563 42.9481 61.9319 43.2112C59.7532 44.3589 57.5805 45.5186 55.4137 46.6904C54.6134 47.1227 53.7874 47.5807 53.229 48.3579C52.6706 49.135 52.4441 50.1335 52.2872 51.1113C52.1558 51.7737 52.1246 52.452 52.1945 53.1236C52.2583 53.7821 52.578 54.3892 53.0849 54.8143C53.669 55.2389 54.4693 55.2415 54.9583 55.7973C55.2413 56.119 55.3648 56.5693 55.5656 56.9605C55.7663 57.3516 56.1137 57.7325 56.51 57.663C56.9062 57.5935 57.1456 57.174 57.2022 56.7494C57.2274 56.3191 57.2024 55.8873 57.1276 55.4628C57.0504 54.6908 57.1481 53.8725 57.5959 53.2986C57.9047 52.9075 58.3473 52.6707 58.6458 52.2693C59.3612 51.3017 59.0344 49.696 59.8192 48.7876C60.0471 48.5502 60.3339 48.3774 60.6504 48.287C60.9668 48.1966 61.3016 48.1917 61.6206 48.273C62.2562 48.4068 62.8377 48.7516 63.4219 49.0449C64.211 49.443 65.0377 49.762 65.8897 49.9971C66.6051 50.1926 67.4337 50.661 67.6781 49.7089C68.0513 48.3115 67.691 46.1731 66.8804 45.0383Z" fill="black"/>
<path d="M66.6744 44.8313C66.3274 44.3899 65.9263 43.9939 65.4804 43.6527C64.7753 43.066 63.9956 42.4535 63.1206 42.505C62.6256 42.5709 62.1503 42.741 61.7259 43.0042C59.5489 44.1519 57.7398 43.066 55.2077 46.4833C54.6673 47.2142 53.5813 47.3737 53.0229 48.1508C52.4645 48.928 52.2381 49.9264 52.0811 50.9043C51.9497 51.5667 51.9185 52.245 51.9885 52.9166C52.0523 53.5751 52.372 54.1822 52.8788 54.6073C53.463 55.0319 54.2633 55.0345 54.7522 55.5903C55.0353 55.912 55.1588 56.3623 55.3595 56.7534C55.5602 57.1446 55.9076 57.5254 56.3039 57.456C56.7002 57.3865 56.9395 56.967 56.9961 56.5424C57.0214 56.1121 56.9963 55.6803 56.9215 55.2558C56.8443 54.4838 56.9421 53.6655 57.3899 53.0916C57.6987 52.7005 58.1413 52.4637 58.4398 52.0623C59.1551 51.0947 58.8283 49.489 59.6132 48.5806C59.8411 48.3431 60.1279 48.1704 60.4444 48.08C60.7608 47.9896 61.0956 47.9847 61.4145 48.0659C62.0501 48.1997 62.6317 48.5446 63.2158 48.8379C64.005 49.236 64.8316 49.555 65.6837 49.79C66.399 49.9856 67.2276 50.454 67.4721 49.5018C67.8478 48.1045 67.4978 45.9661 66.6744 44.8313Z" fill="#865A61"/>
<path d="M48.2366 75.1914C48.2366 75.1914 48.0307 82.775 47.0066 83.7991C45.9824 84.8233 47.6216 86.0534 47.6216 86.0534L51.7209 85.024C51.7209 85.024 50.6916 91.7867 54.9993 90.9684C54.9993 90.9684 52.13 93.6318 49.2608 94.0435C46.3915 94.4552 46.5897 93.4311 46.5897 93.4311L42.2871 88.3076L48.2366 75.1914Z" fill="#D39999"/>
<path opacity="0.1" d="M48.2033 76.1133C48.2033 76.1133 45.4704 83.0818 47.5214 85.9511L52.0298 84.9217C52.0298 84.9217 47.9305 86.1518 48.5455 83.6917C49.1606 81.2316 48.2033 76.1133 48.2033 76.1133Z" fill="black"/>
<path opacity="0.1" d="M46.7002 93.3287C46.7002 93.3287 52.6446 93.7378 54.2838 92.5078C52.1265 94.1601 49.5773 95.2242 46.8855 95.5958L46.7002 93.3287Z" fill="black"/>
<path opacity="0.1" d="M72.3232 80.2129C72.3232 80.2129 75.3983 89.6415 75.1925 91.0749C74.9866 92.5082 74.5775 108.29 74.5775 108.29L73.9624 108.084L74.1683 90.869L72.3232 80.2129Z" fill="black"/>
<path d="M201.792 106.875C201.792 106.875 206.295 115.714 202.626 120.55C198.956 125.385 202.96 138.563 202.96 138.563" stroke="#61A199" stroke-miterlimit="10"/>
<path d="M203.124 104.125C203.124 105.829 201.874 107.213 201.874 107.213C201.874 107.213 200.623 105.831 200.623 104.125C200.623 102.419 201.874 101.037 201.874 101.037C201.874 101.037 203.124 102.422 203.124 104.125Z" fill="#61A199"/>
<path d="M204.125 106.875C204.125 106.875 199.622 115.714 203.292 120.55C206.961 125.385 202.957 138.563 202.957 138.563" stroke="#61A199" stroke-miterlimit="10"/>
<path d="M202.79 104.125C202.79 105.829 204.041 107.213 204.041 107.213C204.041 107.213 205.291 105.831 205.291 104.125C205.291 102.419 204.041 101.037 204.041 101.037C204.041 101.037 202.79 102.422 202.79 104.125Z" fill="#61A199"/>
<path opacity="0.1" d="M202.79 104.125C202.79 105.829 204.041 107.213 204.041 107.213C204.041 107.213 205.291 105.831 205.291 104.125C205.291 102.419 204.041 101.037 204.041 101.037C204.041 101.037 202.79 102.422 202.79 104.125Z" fill="black"/>
<path d="M205.96 106.875C205.96 106.875 210.463 115.714 206.794 120.55C203.124 125.385 207.128 138.563 207.128 138.563" stroke="#61A199" stroke-miterlimit="10"/>
<path d="M207.293 104.125C207.293 105.829 206.043 107.213 206.043 107.213C206.043 107.213 204.792 105.831 204.792 104.125C204.792 102.419 206.043 101.037 206.043 101.037C206.043 101.037 207.293 102.422 207.293 104.125Z" fill="#61A199"/>
<path d="M206.593 111.205C205.412 112.433 203.552 112.561 203.552 112.561C203.552 112.561 203.608 110.698 204.79 109.473C205.971 108.248 207.831 108.117 207.831 108.117C207.831 108.117 207.775 109.978 206.593 111.205Z" fill="#61A199"/>
<path d="M206.709 117.303C205.528 118.531 203.667 118.66 203.667 118.66C203.667 118.66 203.724 116.797 204.905 115.572C206.086 114.347 207.937 114.213 207.937 114.213C207.937 114.213 207.89 116.073 206.709 117.303Z" fill="#61A199"/>
<path d="M200.304 120.657C201.421 121.944 201.382 123.807 201.382 123.807C201.382 123.807 199.532 123.583 198.415 122.296C197.298 121.01 197.337 119.146 197.337 119.146C197.337 119.146 199.187 119.37 200.304 120.657Z" fill="#61A199"/>
<path d="M201.341 107.654C202.762 108.596 203.222 110.402 203.222 110.402C203.222 110.402 201.377 110.68 199.959 109.749C198.541 108.817 198.078 107.001 198.078 107.001C198.078 107.001 199.921 106.712 201.341 107.654Z" fill="#61A199"/>
<path opacity="0.1" d="M201.341 107.654C202.762 108.596 203.222 110.402 203.222 110.402C203.222 110.402 201.377 110.68 199.959 109.749C198.541 108.817 198.078 107.001 198.078 107.001C198.078 107.001 199.921 106.712 201.341 107.654Z" fill="black"/>
<path d="M208.294 106.875C208.294 106.875 203.791 115.714 207.461 120.55C211.13 125.385 207.126 138.563 207.126 138.563" stroke="#61A199" stroke-miterlimit="10"/>
<path d="M206.961 104.125C206.961 105.829 208.212 107.213 208.212 107.213C208.212 107.213 209.463 105.831 209.463 104.125C209.463 102.419 208.212 101.037 208.212 101.037C208.212 101.037 206.961 102.422 206.961 104.125Z" fill="#61A199"/>
<path opacity="0.1" d="M206.961 104.125C206.961 105.829 208.212 107.213 208.212 107.213C208.212 107.213 209.463 105.831 209.463 104.125C209.463 102.419 208.212 101.037 208.212 101.037C208.212 101.037 206.961 102.422 206.961 104.125Z" fill="black"/>
<path d="M207.322 111.338C206.125 112.552 206.035 114.426 206.035 114.426C206.035 114.426 207.896 114.32 209.092 113.106C210.289 111.891 210.379 110.018 210.379 110.018C210.379 110.018 208.516 110.123 207.322 111.338Z" fill="#61A199"/>
<path opacity="0.1" d="M207.322 111.338C206.125 112.552 206.035 114.426 206.035 114.426C206.035 114.426 207.896 114.32 209.092 113.106C210.289 111.891 210.379 110.018 210.379 110.018C210.379 110.018 208.516 110.123 207.322 111.338Z" fill="black"/>
<path d="M209.666 119.785C208.469 121 208.379 122.873 208.379 122.873C208.379 122.873 210.24 122.767 211.436 121.553C212.633 120.338 212.723 118.465 212.723 118.465C212.723 118.465 210.863 118.565 209.666 119.785Z" fill="#61A199"/>
<path d="M206.215 117.925C206.215 117.925 208.925 113.654 212.73 113.551" stroke="#61A199" stroke-miterlimit="10"/>
<path d="M204.105 115.343C204.105 115.343 201.396 111.072 197.59 110.969" stroke="#61A199" stroke-miterlimit="10"/>
<path d="M203.752 121.443C203.752 121.443 206.462 117.171 210.268 117.068" stroke="#61A199" stroke-miterlimit="10"/>
<path d="M212.605 114.229C212.993 114.229 213.307 113.915 213.307 113.527C213.307 113.139 212.993 112.824 212.605 112.824C212.217 112.824 211.902 113.139 211.902 113.527C211.902 113.915 212.217 114.229 212.605 114.229Z" fill="#61A199"/>
<path d="M197.653 111.708C198.041 111.708 198.356 111.393 198.356 111.005C198.356 110.617 198.041 110.303 197.653 110.303C197.265 110.303 196.951 110.617 196.951 111.005C196.951 111.393 197.265 111.708 197.653 111.708Z" fill="#61A199"/>
<path d="M205.747 122.851C205.747 122.851 203.037 118.579 199.231 118.477" stroke="#61A199" stroke-miterlimit="10"/>
<path d="M199.295 119.214C199.683 119.214 199.997 118.899 199.997 118.511C199.997 118.123 199.683 117.809 199.295 117.809C198.907 117.809 198.592 118.123 198.592 118.511C198.592 118.899 198.907 119.214 199.295 119.214Z" fill="#61A199"/>
<path d="M210.32 117.807C210.708 117.807 211.022 117.493 211.022 117.105C211.022 116.717 210.708 116.402 210.32 116.402C209.932 116.402 209.617 116.717 209.617 117.105C209.617 117.493 209.932 117.807 210.32 117.807Z" fill="#61A199"/>
<path d="M220.728 133.423C220.728 133.423 214.197 132.116 212.455 130.374C210.713 128.632 202.874 125.593 202.005 127.762C201.135 129.931 190.247 137.35 197.643 138.655C205.039 139.959 215.062 140.397 217.239 139.525C219.416 138.652 220.728 133.423 220.728 133.423Z" fill="#A8A8A8"/>
<path opacity="0.2" d="M197.644 137.847C205.047 139.154 215.063 139.589 217.24 138.717C218.897 138.053 220.05 134.857 220.505 133.385L220.724 133.431C220.724 133.431 219.417 138.657 217.24 139.527C215.063 140.397 205.047 139.962 197.644 138.658C195.508 138.279 194.895 137.394 195.127 136.275C195.315 137.003 196.059 137.566 197.644 137.847Z" fill="black"/>
<path d="M29.1615 155.209C29.1615 155.209 31.3179 158.04 28.1656 162.286C25.0133 166.532 22.4143 170.137 23.4668 172.795C23.4668 172.795 28.2223 164.887 32.0925 164.777C35.9628 164.666 33.4178 159.964 29.1615 155.209Z" fill="#61A199"/>
<path opacity="0.1" d="M29.1606 155.209C29.3486 155.482 29.4967 155.78 29.6007 156.094C33.3783 160.531 35.3881 164.671 31.7597 164.777C28.3784 164.874 24.3228 170.919 23.3501 172.448C23.3822 172.565 23.4209 172.681 23.4659 172.795C23.4659 172.795 28.2214 164.887 32.0916 164.777C35.9619 164.666 33.4169 159.964 29.1606 155.209Z" fill="black"/>
<path d="M33.1699 158.801C33.1699 159.794 33.0593 160.602 32.9126 160.602C32.7659 160.602 32.6553 159.797 32.6553 158.801C32.6553 157.805 32.7942 158.286 32.9306 158.286C33.067 158.286 33.1699 157.81 33.1699 158.801Z" fill="#FFD037"/>
<path d="M34.5439 159.988C33.6716 160.464 32.9125 160.76 32.8481 160.629C32.7838 160.498 33.4349 160.024 34.3072 159.551C35.1796 159.077 34.8347 159.422 34.9016 159.551C34.9685 159.679 35.4163 159.512 34.5439 159.988Z" fill="#FFD037"/>
<path d="M17.7688 155.209C17.7688 155.209 15.6124 158.04 18.7647 162.286C21.917 166.532 24.5161 170.137 23.4636 172.792C23.4636 172.792 18.7081 164.885 14.8378 164.774C10.9676 164.663 13.5126 159.964 17.7688 155.209Z" fill="#61A199"/>
<path opacity="0.1" d="M17.7688 155.209C17.5809 155.482 17.4328 155.78 17.3288 156.094C13.5512 160.531 11.5414 164.671 15.1698 164.777C18.5511 164.874 22.6067 170.919 23.5794 172.448C23.5473 172.565 23.5086 172.681 23.4636 172.795C23.4636 172.795 18.7081 164.887 14.8378 164.777C10.9676 164.666 13.5126 159.964 17.7688 155.209Z" fill="black"/>
<path d="M13.7593 158.801C13.7593 159.794 13.8699 160.602 14.0166 160.602C14.1633 160.602 14.2739 159.797 14.2739 158.801C14.2739 157.805 14.135 158.286 13.9986 158.286C13.8622 158.286 13.7593 157.81 13.7593 158.801Z" fill="#FFD037"/>
<path d="M12.3854 159.988C13.2577 160.464 14.0169 160.76 14.0812 160.629C14.1455 160.498 13.4945 160.024 12.6221 159.551C11.7498 159.077 12.0946 159.422 12.0277 159.551C11.9608 159.679 11.513 159.512 12.3854 159.988Z" fill="#FFD037"/>
<path d="M14.4468 172.423C14.4468 172.423 20.4761 172.237 22.2928 170.943C24.1096 169.649 31.5567 168.112 32.0174 170.171C32.478 172.23 41.078 180.493 34.2716 180.547C27.4652 180.601 18.456 179.486 16.6418 178.382C14.8276 177.278 14.4468 172.423 14.4468 172.423Z" fill="#A8A8A8"/>
<path opacity="0.2" d="M34.395 179.834C27.5886 179.888 18.5794 178.774 16.7652 177.67C15.3833 176.829 14.8326 173.81 14.6499 172.418H14.4492C14.4492 172.418 14.8301 177.282 16.6443 178.385C18.4584 179.489 27.4676 180.606 34.274 180.55C36.24 180.534 36.9168 179.834 36.8808 178.8C36.6055 179.433 35.8566 179.821 34.395 179.834Z" fill="black"/>
</g>
<defs>
<linearGradient id="paint0_linear" x1="130.387" y1="153.614" x2="130.387" y2="62.3694" gradientUnits="userSpaceOnUse">
<stop stop-color="#808080" stop-opacity="0.25"/>
<stop offset="0.54" stop-color="#808080" stop-opacity="0.12"/>
<stop offset="1" stop-color="#808080" stop-opacity="0.1"/>
</linearGradient>
<linearGradient id="paint1_linear" x1="13849.5" y1="111587" x2="13849.5" y2="31163" gradientUnits="userSpaceOnUse">
<stop stop-color="#808080" stop-opacity="0.25"/>
<stop offset="0.54" stop-color="#808080" stop-opacity="0.12"/>
<stop offset="1" stop-color="#808080" stop-opacity="0.1"/>
</linearGradient>
<clipPath id="clip0">
<rect width="263.531" height="202" fill="white"/>
</clipPath>
</defs>
</svg>
