<svg width="32" height="32" viewBox="0 0 32 32" fill="none" xmlns="http://www.w3.org/2000/svg">
<circle cx="16" cy="16" r="16" fill="#61A199"/>
<path d="M12.25 18.25H13.75C13.75 19.06 14.7775 19.75 16 19.75C17.2225 19.75 18.25 19.06 18.25 18.25C18.25 17.425 17.47 17.125 15.82 16.7275C14.23 16.33 12.25 15.835 12.25 13.75C12.25 12.4075 13.3525 11.2675 14.875 10.885V9.25H17.125V10.885C18.6475 11.2675 19.75 12.4075 19.75 13.75H18.25C18.25 12.94 17.2225 12.25 16 12.25C14.7775 12.25 13.75 12.94 13.75 13.75C13.75 14.575 14.53 14.875 16.18 15.2725C17.77 15.67 19.75 16.165 19.75 18.25C19.75 19.5925 18.6475 20.7325 17.125 21.115V22.75H14.875V21.115C13.3525 20.7325 12.25 19.5925 12.25 18.25Z" fill="white"/>
</svg>
