<svg width="32" height="32" viewBox="0 0 32 32" fill="none" xmlns="http://www.w3.org/2000/svg">
<circle cx="16" cy="16" r="16" fill="#61A199"/>
<path d="M21.2482 22.9219H11.6179V20.8366L16.0539 16.1731C17.1471 14.9282 17.6937 13.9393 17.6937 13.2062C17.6937 12.6122 17.5641 12.1604 17.3051 11.8508C17.046 11.5411 16.67 11.3863 16.1771 11.3863C15.6905 11.3863 15.2956 11.5949 14.9923 12.0119C14.6889 12.4227 14.5373 12.9377 14.5373 13.5569H11.3335C11.3335 12.7102 11.5452 11.9298 11.9686 11.2157C12.3919 10.4953 12.9796 9.93293 13.7316 9.52851C14.4836 9.12409 15.324 8.92188 16.2529 8.92188C17.7442 8.92188 18.8912 9.26627 19.6937 9.95505C20.5025 10.6438 20.907 11.6328 20.907 12.9219C20.907 13.4653 20.8059 13.9961 20.6036 14.5143C20.4014 15.0261 20.0855 15.5664 19.6558 16.1351C19.2324 16.6975 18.5468 17.4527 17.5989 18.4005L15.8169 20.4574H21.2482V22.9219Z" fill="white"/>
</svg>
