<svg width="32" height="32" viewBox="0 0 32 32" fill="none" xmlns="http://www.w3.org/2000/svg">
<circle cx="16" cy="16" r="16" fill="#61A199"/>
<path d="M14.0755 14.6079H15.5624C16.7408 14.6079 17.33 14.0312 17.33 12.8778C17.33 12.4289 17.1897 12.0642 16.9091 11.7836C16.6286 11.4968 16.2327 11.3534 15.7214 11.3534C15.3037 11.3534 14.939 11.475 14.6272 11.7181C14.3217 11.9613 14.169 12.2637 14.169 12.6253H11.0173C11.0173 11.9083 11.2169 11.2692 11.6159 10.7081C12.0149 10.147 12.5667 9.71056 13.2712 9.39883C13.9819 9.08086 14.7613 8.92188 15.6092 8.92188C17.1242 8.92188 18.315 9.2679 19.1817 9.95995C20.0483 10.652 20.4816 11.6028 20.4816 12.8123C20.4816 13.3984 20.3008 13.9533 19.9392 14.477C19.5838 14.9945 19.0632 15.4153 18.3774 15.7395C19.1006 16.0014 19.668 16.4004 20.0795 16.9366C20.491 17.4665 20.6967 18.1243 20.6967 18.9099C20.6967 20.1256 20.2291 21.0982 19.2939 21.8277C18.3587 22.5571 17.1305 22.9219 15.6092 22.9219C14.7176 22.9219 13.8884 22.7535 13.1216 22.4169C12.3609 22.074 11.7842 21.6032 11.3914 21.0047C10.9986 20.3999 10.8022 19.7141 10.8022 18.9473H13.9726C13.9726 19.365 14.1409 19.7266 14.4776 20.0321C14.8143 20.3376 15.2289 20.4903 15.7214 20.4903C16.2763 20.4903 16.719 20.3376 17.0494 20.0321C17.3798 19.7204 17.5451 19.3245 17.5451 18.8444C17.5451 18.1586 17.3736 17.6723 17.0307 17.3855C16.6878 17.0987 16.214 16.9553 15.6092 16.9553H14.0755V14.6079Z" fill="white"/>
</svg>
