<svg width="32" height="32" viewBox="0 0 32 32" fill="none" xmlns="http://www.w3.org/2000/svg">
<circle cx="16" cy="16" r="16" fill="#61A199"/>
<path d="M12.6668 13.6667C12.4016 13.6667 12.1473 13.5613 11.9597 13.3738C11.7722 13.1862 11.6668 12.9319 11.6668 12.6667C11.6668 12.4014 11.7722 12.1471 11.9597 11.9596C12.1473 11.772 12.4016 11.6667 12.6668 11.6667C12.932 11.6667 13.1864 11.772 13.3739 11.9596C13.5615 12.1471 13.6668 12.4014 13.6668 12.6667C13.6668 12.9319 13.5615 13.1862 13.3739 13.3738C13.1864 13.5613 12.932 13.6667 12.6668 13.6667ZM23.2735 16.72L17.2735 10.72C17.0335 10.48 16.7002 10.3333 16.3335 10.3333H11.6668C10.9268 10.3333 10.3335 10.9267 10.3335 11.6667V16.3333C10.3335 16.7 10.4802 17.0333 10.7268 17.2733L16.7202 23.2733C16.9668 23.5133 17.3002 23.6667 17.6668 23.6667C18.0335 23.6667 18.3668 23.5133 18.6068 23.2733L23.2735 18.6067C23.5202 18.3667 23.6668 18.0333 23.6668 17.6667C23.6668 17.2933 23.5135 16.96 23.2735 16.72Z" fill="white"/>
</svg>
