<svg width="32" height="32" viewBox="0 0 32 32" fill="none" xmlns="http://www.w3.org/2000/svg">
<circle cx="16" cy="16" r="16" fill="#61A199"/>
<path d="M10.75 10.5H24.25V19.5H10.75V10.5ZM17.5 12.75C18.0967 12.75 18.669 12.9871 19.091 13.409C19.5129 13.831 19.75 14.4033 19.75 15C19.75 15.5967 19.5129 16.169 19.091 16.591C18.669 17.0129 18.0967 17.25 17.5 17.25C16.9033 17.25 16.331 17.0129 15.909 16.591C15.4871 16.169 15.25 15.5967 15.25 15C15.25 14.4033 15.4871 13.831 15.909 13.409C16.331 12.9871 16.9033 12.75 17.5 12.75ZM13.75 12C13.75 12.3978 13.592 12.7794 13.3107 13.0607C13.0294 13.342 12.6478 13.5 12.25 13.5V16.5C12.6478 16.5 13.0294 16.658 13.3107 16.9393C13.592 17.2206 13.75 17.6022 13.75 18H21.25C21.25 17.6022 21.408 17.2206 21.6893 16.9393C21.9706 16.658 22.3522 16.5 22.75 16.5V13.5C22.3522 13.5 21.9706 13.342 21.6893 13.0607C21.408 12.7794 21.25 12.3978 21.25 12H13.75ZM7.75 13.5H9.25V21H21.25V22.5H7.75V13.5Z" fill="white"/>
</svg>
