<svg width="450" height="300" viewBox="0 0 450 300" fill="none" xmlns="http://www.w3.org/2000/svg">
<g clip-path="url(#clip0)">
<path d="M294.481 252.481L214.29 223.92V223.516H213.157H80.6538H80.6199L0 252.481H0.231956V260.205H294.713V252.481H294.481Z" fill="#E6E6E6"/>
<path d="M350.623 300C405.359 300 449.731 296.383 449.731 291.921C449.731 287.458 405.359 283.841 350.623 283.841C295.887 283.841 251.515 287.458 251.515 291.921C251.515 296.383 295.887 300 350.623 300Z" fill="#E6E6E6"/>
<path d="M299.842 146.34L294.876 150.998C294.876 150.998 281.418 161.973 287.664 165.998C293.911 170.024 300.876 153.883 300.876 153.883L303.56 149.718L299.842 146.34Z" fill="#9F616A"/>
<path d="M328.629 66.2664L321.611 67.9179C321.611 67.9179 319.959 74.9368 320.372 81.5428C320.785 88.1488 318.756 100.409 318.756 100.409L313.996 111.479L294.067 149.183L306.455 154.57L328.629 111.27L330.694 83.6072L328.629 66.2664Z" fill="#E6E6E6"/>
<path d="M339.066 46.655C351.203 46.655 361.041 36.2109 361.041 23.3275C361.041 10.4441 351.203 0 339.066 0C326.929 0 317.091 10.4441 317.091 23.3275C317.091 36.2109 326.929 46.655 339.066 46.655Z" fill="#2F2E41"/>
<path d="M358.564 58.6286C364.949 58.6286 370.124 53.4528 370.124 47.0681C370.124 40.6834 364.949 35.5076 358.564 35.5076C352.179 35.5076 347.003 40.6834 347.003 47.0681C347.003 53.4528 352.179 58.6286 358.564 58.6286Z" fill="#2F2E41"/>
<path d="M350.512 31.585L356.705 47.6872L341.016 54.2933L339.638 51.1711L334.822 40.2555L350.512 31.585Z" fill="#9F616A"/>
<path d="M371.57 119.94L377.35 147.19L385.195 208.296L379.414 264.034C379.414 264.034 362.074 269.815 355.468 259.08L363.312 213.251L347.623 159.164L345.146 212.425L349.275 258.667C349.275 258.667 336.475 266.099 326.153 258.667L319.135 167.008C319.135 167.008 313.767 126.959 326.153 113.747L371.57 119.94Z" fill="#2F2E41"/>
<path d="M338.126 42.1134C345.765 42.1134 351.957 35.9209 351.957 28.282C351.957 20.6432 345.765 14.4507 338.126 14.4507C330.487 14.4507 324.294 20.6432 324.294 28.282C324.294 35.9209 330.487 42.1134 338.126 42.1134Z" fill="#9F616A"/>
<path d="M338.126 55.1188L339.479 50.8081C339.479 50.8081 351.94 48.7552 355.561 44.7117L362.073 51.4029C362.073 51.4029 379.827 57.1832 382.304 59.6605C384.781 62.1377 372.395 100.535 372.395 100.535C372.395 100.535 375.285 107.141 370.331 110.031C370.331 110.031 377.763 121.179 371.982 122.418C366.202 123.656 324.502 114.986 324.502 114.986C324.502 114.986 321.611 110.031 328.217 107.967C328.217 107.967 325.74 102.187 328.63 100.122C331.52 98.058 329.043 86.4974 329.043 86.4974C329.043 86.4974 320.373 69.1566 321.611 67.918C322.85 66.6794 338.126 55.1188 338.126 55.1188Z" fill="#E6E6E6"/>
<path d="M378.587 156.274L378.175 159.577C378.175 159.577 378.587 179.395 371.156 178.569C363.724 177.743 368.265 158.338 368.265 158.338L369.504 153.796L378.587 156.274Z" fill="#9F616A"/>
<path d="M369.505 260.319C369.505 260.319 367.854 276.834 370.744 278.072C373.634 279.311 393.039 289.633 387.259 294.174C381.479 298.716 362.073 286.743 360.009 288.807C357.945 290.871 351.339 289.22 350.926 285.504C350.513 281.788 351.339 275.182 354.642 271.053C357.945 266.925 357.945 258.667 357.945 258.667L369.505 260.319Z" fill="#2F2E41"/>
<path d="M345.971 254.125L348.861 267.75C348.861 267.75 355.054 281.375 349.687 284.265C344.32 287.156 343.494 287.568 343.081 289.22C342.668 290.871 331.52 299.542 328.217 292.936C324.914 286.33 336.888 276.834 336.888 276.834L338.952 272.292L336.888 256.19L345.971 254.125Z" fill="#2F2E41"/>
<path d="M326.82 26.7649C335.513 20.9638 338.112 19.5771 348.077 21.8178L348.675 7.28052L322.924 12.6823L326.82 26.7649Z" fill="#2F2E41"/>
<path d="M378.588 60.0735L382.716 59.6606C382.716 59.6606 386.845 70.3954 386.845 75.7628V111.27L380.239 157.925L367.44 155.861L374.459 114.16L372.394 88.9749L378.588 60.0735Z" fill="#E6E6E6"/>
<path d="M288.207 144.215L289.778 147.269C289.793 147.298 289.795 147.33 289.786 147.361C289.776 147.391 289.755 147.416 289.727 147.431L289.651 147.47L297.838 163.378C298.065 163.818 298.107 164.331 297.956 164.802C297.805 165.274 297.473 165.666 297.033 165.892L287.092 171.008C286.874 171.12 286.636 171.189 286.392 171.209C286.148 171.229 285.902 171.201 285.668 171.126C285.435 171.051 285.219 170.931 285.032 170.773C284.845 170.614 284.691 170.42 284.579 170.202L276.678 154.852L276.623 154.88C276.603 154.89 276.58 154.892 276.559 154.885C276.538 154.879 276.52 154.864 276.509 154.844L275.615 153.106C275.61 153.096 275.607 153.085 275.606 153.074C275.605 153.063 275.606 153.052 275.61 153.041C275.613 153.031 275.618 153.021 275.626 153.012C275.633 153.004 275.642 152.997 275.652 152.992L275.706 152.964L275.369 152.309L275.314 152.337C275.293 152.348 275.269 152.35 275.247 152.343C275.224 152.336 275.206 152.32 275.195 152.299L274.313 150.584C274.302 150.564 274.3 150.539 274.307 150.517C274.314 150.495 274.33 150.476 274.351 150.465L274.406 150.437L273.946 149.543L273.89 149.572C273.881 149.577 273.871 149.58 273.86 149.581C273.85 149.582 273.84 149.58 273.83 149.577C273.82 149.574 273.811 149.569 273.803 149.562C273.795 149.556 273.789 149.548 273.784 149.538L273.303 148.603C273.293 148.584 273.291 148.563 273.298 148.543C273.304 148.523 273.318 148.506 273.336 148.497L273.393 148.468L272.418 146.574C272.191 146.134 272.149 145.621 272.3 145.15C272.451 144.679 272.783 144.287 273.223 144.06L283.164 138.944C283.604 138.718 284.116 138.675 284.587 138.826C285.059 138.977 285.451 139.309 285.678 139.749L287.969 144.203L288.045 144.164C288.074 144.149 288.106 144.147 288.137 144.156C288.167 144.166 288.192 144.187 288.207 144.215Z" fill="#3F3D56"/>
<path d="M285.051 140.487L297.114 163.925C297.257 164.204 297.284 164.529 297.188 164.828C297.092 165.127 296.882 165.376 296.603 165.52L287.087 170.417C286.949 170.488 286.798 170.532 286.643 170.545C286.488 170.558 286.332 170.54 286.184 170.493C286.036 170.445 285.898 170.369 285.78 170.268C285.661 170.168 285.563 170.045 285.492 169.906L273.43 146.468C273.358 146.33 273.315 146.179 273.302 146.024C273.29 145.869 273.307 145.713 273.355 145.565C273.402 145.416 273.478 145.279 273.579 145.16C273.68 145.042 273.802 144.944 273.941 144.873L275.365 144.14L275.459 144.323C275.577 144.553 275.782 144.726 276.029 144.805C276.275 144.884 276.542 144.862 276.772 144.743L281.612 142.253C281.842 142.135 282.015 141.93 282.094 141.683C282.173 141.437 282.151 141.169 282.033 140.939L281.939 140.757L283.456 139.976C283.594 139.904 283.745 139.861 283.9 139.848C284.055 139.835 284.211 139.853 284.36 139.901C284.508 139.948 284.645 140.024 284.764 140.125C284.882 140.225 284.98 140.348 285.051 140.487Z" fill="#61A199"/>
<path d="M198.462 198.786C197.512 198.806 196.591 199.116 195.823 199.675L187.467 131.428C187.124 128.629 185.769 126.052 183.657 124.183C181.546 122.315 178.824 121.283 176.004 121.283H118.942C116.122 121.283 113.4 122.315 111.288 124.183C109.177 126.052 107.822 128.629 107.479 131.428L99.1222 199.675C98.3541 199.116 97.4334 198.806 96.4839 198.786C91.9782 198.786 88.3257 206.091 88.3257 215.102C88.3257 224.114 91.9782 231.419 96.4839 231.419C99.9067 231.419 102.833 227.198 104.044 221.221H190.902C192.113 227.198 195.039 231.419 198.462 231.419C202.967 231.419 206.62 224.114 206.62 215.102C206.62 206.091 202.967 198.786 198.462 198.786ZM120.959 202.865C118.942 202.865 116.97 202.267 115.293 201.146C113.616 200.026 112.309 198.433 111.537 196.57C110.765 194.706 110.563 192.656 110.957 190.678C111.35 188.7 112.321 186.883 113.748 185.456C115.174 184.03 116.991 183.059 118.969 182.665C120.947 182.272 122.998 182.474 124.861 183.246C126.724 184.018 128.317 185.325 129.438 187.002C130.558 188.679 131.156 190.65 131.156 192.667C131.156 194.006 130.893 195.333 130.38 196.57C129.868 197.807 129.116 198.931 128.169 199.878C127.222 200.825 126.098 201.576 124.861 202.089C123.624 202.601 122.298 202.865 120.959 202.865ZM171.947 202.865C169.93 202.865 167.959 202.267 166.282 201.146C164.605 200.026 163.298 198.433 162.526 196.57C161.754 194.706 161.552 192.656 161.946 190.678C162.339 188.7 163.31 186.883 164.736 185.456C166.163 184.03 167.98 183.059 169.958 182.665C171.936 182.272 173.986 182.474 175.85 183.246C177.713 184.018 179.306 185.325 180.426 187.002C181.547 188.679 182.145 190.65 182.145 192.667C182.145 194.006 181.881 195.333 181.369 196.57C180.856 197.807 180.105 198.931 179.158 199.878C178.211 200.825 177.087 201.576 175.85 202.089C174.613 202.601 173.287 202.865 171.947 202.865ZM184.185 163.905C184.185 164.736 184.021 165.559 183.703 166.326C183.385 167.094 182.919 167.791 182.331 168.379C181.744 168.966 181.046 169.433 180.279 169.751C179.511 170.069 178.688 170.232 177.857 170.232H117.088C116.257 170.232 115.434 170.069 114.667 169.751C113.899 169.433 113.202 168.967 112.614 168.379C112.026 167.791 111.56 167.094 111.242 166.326C110.924 165.559 110.761 164.736 110.761 163.905V143.927C110.761 143.096 110.924 142.273 111.242 141.505C111.56 140.738 112.026 140.04 112.614 139.453C113.202 138.865 113.899 138.399 114.667 138.081C115.434 137.763 116.257 137.599 117.088 137.599H177.857C178.688 137.599 179.511 137.763 180.279 138.081C181.046 138.399 181.744 138.865 182.331 139.453C182.919 140.04 183.385 140.738 183.703 141.505C184.021 142.273 184.185 143.096 184.185 143.927V163.905Z" fill="#3F3D56"/>
<path d="M158.154 124.511H136.791L141.369 117.644H153.576L158.154 124.511Z" fill="#61A199"/>
<path d="M144.882 107.762C158.109 107.762 168.832 97.0393 168.832 83.812C168.832 70.5847 158.109 59.8618 144.882 59.8618C131.655 59.8618 120.932 70.5847 120.932 83.812C120.932 97.0393 131.655 107.762 144.882 107.762Z" fill="#61A199"/>
<path d="M142.6 93.9216L135.432 84.7046L139.6 81.4623L142.995 85.8264L154.461 73.7222L158.295 77.355L142.6 93.9216Z" fill="white"/>
<path d="M149.655 224.2H144.827V227.097H149.655V224.2Z" fill="white"/>
<path d="M149.655 252.039H144.827V245.803H149.655V252.039ZM149.655 239.568H144.827V233.332H149.655V239.568Z" fill="white"/>
<path d="M149.655 258.274H144.827V261.17H149.655V258.274Z" fill="white"/>
</g>
<defs>
<clipPath id="clip0">
<rect width="449.731" height="300" fill="white"/>
</clipPath>
</defs>
</svg>
