<svg width="32" height="32" viewBox="0 0 32 32" fill="none" xmlns="http://www.w3.org/2000/svg">
<circle cx="16" cy="16" r="16" fill="#61A199"/>
<path d="M20.3335 10.3333L10.3335 20.3333L11.6668 21.6667L21.6668 11.6667L20.3335 10.3333ZM12.6668 10.6667C12.1364 10.6667 11.6277 10.8774 11.2526 11.2525C10.8775 11.6275 10.6668 12.1362 10.6668 12.6667C10.6668 13.1971 10.8775 13.7058 11.2526 14.0809C11.6277 14.456 12.1364 14.6667 12.6668 14.6667C13.1973 14.6667 13.706 14.456 14.081 14.0809C14.4561 13.7058 14.6668 13.1971 14.6668 12.6667C14.6668 12.1362 14.4561 11.6275 14.081 11.2525C13.706 10.8774 13.1973 10.6667 12.6668 10.6667ZM19.3335 17.3333C18.8031 17.3333 18.2944 17.544 17.9193 17.9191C17.5442 18.2942 17.3335 18.8029 17.3335 19.3333C17.3335 19.8638 17.5442 20.3725 17.9193 20.7475C18.2944 21.1226 18.8031 21.3333 19.3335 21.3333C19.8639 21.3333 20.3726 21.1226 20.7477 20.7475C21.1228 20.3725 21.3335 19.8638 21.3335 19.3333C21.3335 18.8029 21.1228 18.2942 20.7477 17.9191C20.3726 17.544 19.8639 17.3333 19.3335 17.3333Z" fill="white"/>
</svg>
