<svg width="218" height="181" viewBox="0 0 218 181" fill="none" xmlns="http://www.w3.org/2000/svg">
<g clip-path="url(#clip0)">
<path opacity="0.1" d="M154.334 180.997C166.586 180.997 176.518 180.018 176.518 178.81C176.518 177.603 166.586 176.624 154.334 176.624C142.082 176.624 132.15 177.603 132.15 178.81C132.15 180.018 142.082 180.997 154.334 180.997Z" fill="#61A199"/>
<path opacity="0.1" d="M95.073 2.64749C104.843 -0.984277 116.738 2.13917 126.896 6.69456C158.799 21.0053 182.041 48.1711 200.507 75.8474C207.193 85.8688 213.543 96.3315 216.057 107.519C221.175 130.289 207.826 153.862 185.125 162.123C177.405 164.935 168.924 166.088 160.43 166.73C145.325 167.874 129.686 167.42 114.703 163.183C104.017 160.155 93.9092 155.283 84.2144 149.902C57.1395 134.864 32.4136 115.336 14.6095 91.4819C6.80091 81.0192 0.194947 69.2241 0.00459825 57.1521C-0.18575 45.0801 7.68128 32.9497 20.625 30.897C25.9764 30.0491 31.6371 30.9316 37.1594 31.8401C45.2903 33.179 53.5315 34.5871 61.5694 34.0031C69.8734 33.3953 80.6735 30.1507 82.1877 22.2231C83.7905 13.7115 85.3154 6.27493 95.073 2.64749Z" fill="#61A199"/>
<path d="M52.7826 166.297C52.7826 166.297 63.2215 165.668 61.9907 172.983C61.9907 172.983 62.2351 174.281 61.0628 174.863C61.0628 174.863 61.0455 174.32 59.9921 174.504C59.6179 174.568 59.2373 174.587 58.8586 174.56C58.3465 174.524 57.8598 174.323 57.4721 173.987C57.4721 173.987 54.5368 172.775 53.3969 167.978C53.3969 167.978 52.5511 166.933 52.5858 166.663L54.3465 167.415C54.3465 167.415 53.7452 168.687 54.2189 169.743C54.2189 169.743 54.2751 167.463 54.6147 167.515C54.6818 167.526 55.5297 167.947 55.5297 167.947C55.5297 167.947 54.4936 170.16 55.2744 171.77C55.2744 171.77 54.9781 169.042 55.852 168.107L57.0936 168.832C57.0936 168.832 55.8822 171.118 56.7042 172.983C56.7042 172.983 56.4879 170.121 57.3531 169.007L58.4779 169.873C58.4779 169.873 57.3401 172.126 58.0345 173.675C58.0345 173.675 58.1232 170.342 58.7202 170.091C58.7202 170.091 59.7044 170.956 59.8536 171.315C59.8536 171.315 59.0749 172.951 59.5573 173.814C59.5573 173.814 59.8536 171.594 60.098 171.584C60.098 171.584 61.0757 173.054 61.1796 174.062C61.1796 174.062 61.1363 172.563 60.3338 171.443C60.3338 171.443 61.2812 171.605 61.835 172.219C61.835 172.219 61.6814 171.179 60.0937 171.088C60.0937 171.088 59.2847 169.974 59.0663 169.905C59.0663 169.905 60.6475 169.773 61.6057 170.199C61.6057 170.199 60.7621 169.217 58.7764 169.663L57.6668 168.759C57.6668 168.759 59.7498 168.473 60.6302 168.789C60.6302 168.789 59.6157 167.924 57.3683 168.553L56.1613 167.831C56.1613 167.831 57.935 167.448 58.9927 167.586C58.9927 167.586 57.8766 166.985 55.8065 167.636L54.9413 167.249C54.9413 167.249 56.2392 166.994 56.622 166.952C57.0049 166.911 57.0222 166.808 57.0222 166.808C56.1988 166.67 55.3533 166.763 54.5801 167.078C54.5801 167.078 52.7501 166.422 52.7826 166.297Z" fill="#61A199"/>
<path opacity="0.1" d="M59.9732 176.75C64.054 176.75 67.3622 176.191 67.3622 175.502C67.3622 174.812 64.054 174.254 59.9732 174.254C55.8924 174.254 52.5842 174.812 52.5842 175.502C52.5842 176.191 55.8924 176.75 59.9732 176.75Z" fill="#61A199"/>
<path d="M38.7987 161.376C38.7987 161.376 44.6844 161.022 43.99 165.146C44.0267 165.356 43.996 165.571 43.9023 165.761C43.8086 165.952 43.6568 166.108 43.4687 166.206C43.4687 166.206 43.4579 165.901 42.8652 166.005C42.6546 166.041 42.4403 166.051 42.2271 166.035C41.9377 166.018 41.6623 165.904 41.4441 165.713C41.4441 165.713 39.7915 165.028 39.1426 162.324C39.1426 162.324 38.6668 161.733 38.6841 161.582L39.6791 162.014C39.6791 162.014 39.3395 162.733 39.6055 163.327C39.6055 163.327 39.638 162.04 39.8218 162.071C39.8608 162.071 40.3388 162.319 40.3388 162.319C40.3388 162.319 39.7548 163.567 40.196 164.482C40.196 164.482 40.0273 162.944 40.5205 162.417L41.2192 162.826C41.2192 162.826 40.5378 164.123 41.0029 165.166C41.0029 165.166 40.8839 163.552 41.3684 162.925L42.0022 163.418C42.0022 163.418 41.3533 164.688 41.7534 165.562C41.7534 165.562 41.8032 163.682 42.1406 163.542C42.1406 163.542 42.6944 164.03 42.7787 164.232C42.7787 164.232 42.3461 165.153 42.6122 165.64C42.6122 165.64 42.7787 164.389 42.9172 164.383C42.9172 164.383 43.4687 165.211 43.525 165.78C43.4974 165.255 43.3334 164.746 43.0491 164.303C43.3673 164.361 43.6614 164.512 43.8949 164.736C43.8949 164.736 43.8105 164.149 42.9128 164.097C42.9128 164.097 42.4564 163.468 42.3353 163.431C42.3353 163.431 43.2265 163.355 43.7672 163.596C43.7672 163.596 43.2914 163.042 42.1709 163.293L41.5458 162.782C41.5458 162.782 42.7203 162.622 43.2178 162.8C43.2178 162.8 42.6446 162.311 41.3771 162.668L40.6979 162.259C41.2211 162.145 41.757 162.099 42.292 162.123C42.292 162.123 41.6647 161.783 40.4967 162.151L40.01 161.934C40.01 161.934 40.7433 161.789 40.9574 161.768C41.1716 161.746 41.1845 161.686 41.1845 161.686C40.7199 161.609 40.243 161.662 39.8067 161.839C39.8067 161.839 38.7814 161.448 38.7987 161.376Z" fill="#61A199"/>
<path opacity="0.1" d="M42.8526 167.269C45.1534 167.269 47.0186 166.954 47.0186 166.564C47.0186 166.175 45.1534 165.859 42.8526 165.859C40.5517 165.859 38.6865 166.175 38.6865 166.564C38.6865 166.954 40.5517 167.269 42.8526 167.269Z" fill="#61A199"/>
<path d="M183.596 165.342C183.596 165.342 190.702 164.909 189.869 169.884C189.912 170.137 189.874 170.397 189.76 170.627C189.647 170.857 189.464 171.045 189.238 171.165C189.238 171.165 189.225 170.795 188.509 170.921C188.254 170.964 187.994 170.976 187.736 170.957C187.388 170.935 187.056 170.798 186.793 170.568C186.793 170.568 184.795 169.744 184.018 166.478C184.018 166.478 183.443 165.766 183.467 165.584L184.665 166.095C184.665 166.095 184.256 166.96 184.578 167.68C184.578 167.68 184.617 166.127 184.847 166.166C184.894 166.166 185.47 166.465 185.47 166.465C185.47 166.465 184.764 167.979 185.296 169.06C185.296 169.06 185.095 167.204 185.69 166.568L186.534 167.059C186.534 167.059 185.71 168.617 186.27 169.887C186.27 169.887 186.125 167.94 186.702 167.181L187.468 167.778C187.468 167.778 186.694 169.311 187.165 170.373C187.165 170.373 187.228 168.106 187.635 167.933C187.635 167.933 188.303 168.524 188.405 168.766C188.405 168.766 187.875 169.88 188.204 170.468C188.204 170.468 188.405 168.954 188.571 168.954C188.571 168.954 189.238 169.956 189.307 170.642C189.275 170.008 189.077 169.393 188.734 168.859C189.118 168.932 189.473 169.115 189.755 169.387C189.755 169.387 189.651 168.68 188.567 168.617C188.567 168.617 188.018 167.858 187.871 167.812C187.871 167.812 188.952 167.721 189.601 168.011C189.601 168.011 189.026 167.345 187.674 167.648L186.919 167.031C186.919 167.031 188.336 166.837 188.937 167.051C188.937 167.051 188.245 166.46 186.715 166.891L185.893 166.4C185.893 166.4 187.1 166.14 187.821 166.233C187.821 166.233 187.062 165.824 185.658 166.268L185.069 166.004C185.069 166.004 185.954 165.829 186.214 165.803C186.473 165.777 186.486 165.703 186.486 165.703C185.926 165.61 185.351 165.673 184.825 165.887C184.825 165.887 183.575 165.424 183.596 165.342Z" fill="#61A199"/>
<path opacity="0.1" d="M188.488 172.458C191.266 172.458 193.517 172.078 193.517 171.608C193.517 171.139 191.266 170.758 188.488 170.758C185.711 170.758 183.459 171.139 183.459 171.608C183.459 172.078 185.711 172.458 188.488 172.458Z" fill="#61A199"/>
<path d="M176.516 112.829C176.379 112.067 176.3 111.297 176.28 110.523C176.28 109.595 175.019 108.773 175.019 108.773C175.019 108.773 174.24 106.971 173.721 106.705C173.202 106.439 171.599 104.082 171.599 104.082C171.58 103.617 171.411 103.17 171.117 102.81C170.636 102.178 170.198 101.517 169.804 100.828C169.587 100.565 169.695 100.378 169.371 98.8406C169.354 98.7605 169.334 98.6827 169.31 98.6091C169.31 98.5745 169.289 98.5442 169.276 98.5096C169.62 98.1642 169.86 97.7288 169.968 97.2533C170.077 96.7778 170.049 96.2813 169.888 95.8209C169.83 95.6378 169.724 95.4736 169.581 95.3451C169.215 95.0466 168.631 95.1699 168.255 94.8865L168.655 93.1171C168.75 92.6845 168.8 92.1373 168.421 91.9036C168.279 91.8362 168.13 91.7861 167.976 91.7544C167.327 91.5381 166.951 90.8524 166.782 90.1927C166.62 89.5572 166.576 88.8973 166.652 88.2459C166.726 87.6186 166.909 87.0087 166.976 86.3792C167.098 85.215 166.818 84.044 166.183 83.0611C165.935 82.6369 165.571 82.293 165.134 82.0704C164.733 81.8909 164.268 81.8541 163.894 81.6378C163.089 81.1251 163.131 79.9073 162.488 79.2087C161.846 78.51 160.708 78.5122 159.771 78.7523C158.835 78.9924 157.902 79.4012 156.942 79.2995C156.323 79.2303 155.744 78.9491 155.123 78.8842C154.945 78.8673 154.766 78.8754 154.591 78.908V78.8886C154.132 78.9707 153.71 79.226 153.602 79.6608C153.578 79.7642 153.568 79.8704 153.572 79.9766C153.572 80.2296 153.633 80.4935 153.637 80.7358C153.645 80.832 153.634 80.9289 153.603 81.0207C153.573 81.1124 153.525 81.1972 153.462 81.2701C153.338 81.402 153.157 81.4712 153.029 81.6075C152.977 81.6596 152.936 81.7218 152.909 81.7902C152.882 81.8587 152.869 81.9319 152.871 82.0055C152.871 82.3905 153.351 82.7301 153.674 82.8859H153.687C153.6 82.9724 153.514 83.0632 153.434 83.1563C152.51 84.1997 152 85.5457 152.002 86.9394C152.009 88.0652 152.346 89.164 152.97 90.101C153.594 91.0379 154.479 91.772 155.514 92.213L155.469 92.3536C155.378 92.6317 155.272 92.9046 155.151 93.1712C154.927 93.0959 154.69 93.0705 154.455 93.0966C154.22 93.1228 153.994 93.1999 153.793 93.3226C153.174 93.7552 151.965 93.7206 151.643 93.6406C151.32 93.5605 147.965 93.1366 147.695 93.2426C147.425 93.3486 146.89 92.8727 146.542 93.5086C146.194 94.1446 146.032 94.4885 145.677 94.6486C145.322 94.8086 144.71 95.3105 144.792 95.4164C144.874 95.5224 143.905 96.1584 143.905 96.1584C143.905 96.1584 143.073 97.0236 142.59 97.1382C142.108 97.2529 141.087 97.9083 141.087 97.9083L139.904 98.8341C139.904 98.8341 139.019 98.9682 139.287 98.3582C139.555 97.7482 138.803 96.9803 138.803 96.9803C138.803 96.9803 137.299 93.9326 137.299 93.3031C137.299 92.6737 136.064 89.9893 136.064 89.9893L135.913 89.9742L135.844 89.7774C135.617 89.1393 135.322 88.3562 135.097 87.8977C134.665 87.0216 134.399 86.9308 134.399 86.9308C134.399 86.9308 129.19 83.02 125.807 84.2118C122.424 85.4037 131.983 88.9554 132.841 89.3274C133.142 89.4572 133.358 89.8769 133.51 90.3679C132.748 90.7353 132.106 91.3123 131.66 92.0313C131.66 92.0313 133.728 96.6148 133.782 97.7547C133.836 98.8946 135.206 102.081 135.206 102.081C135.206 102.081 135.716 104.441 138.48 104.307C138.48 104.307 142.294 105.007 143.127 104.307C143.959 103.606 144.71 103.056 145.114 102.976C145.412 102.879 145.673 102.694 145.865 102.446C145.865 102.446 144.604 110.396 143.985 111.086C143.367 111.776 137.901 120.7 139.863 122.297C141.416 123.5 143.058 124.584 144.775 125.541C144.941 125.623 145.441 124.791 146.155 124.2C146.155 124.349 146.155 124.501 146.155 124.661C146.168 127.836 146.588 132.664 147.167 133.746C148.032 135.336 147.678 138.409 147.678 138.409C148.133 138.623 148.627 138.742 149.129 138.758C149.155 138.861 149.185 138.974 149.213 139.082C149.687 140.871 150.455 143.637 150.847 144.373C151.437 145.487 151.865 149.013 151.865 149.013C151.865 149.013 152.216 152.473 152.082 152.96C152.03 153.144 152.257 154.585 152.614 156.421C152.397 158.906 151.986 163.698 151.917 165.43C151.917 165.463 151.917 165.495 151.917 165.525V165.556C151.918 165.575 151.918 165.595 151.917 165.614C151.917 165.653 151.917 165.688 151.917 165.72C151.911 165.829 151.915 165.938 151.93 166.047C151.957 166.212 151.944 166.381 151.893 166.54C151.74 167.019 151.546 167.483 151.312 167.928C151.213 168.147 151.126 168.371 151.052 168.599C150.836 168.694 150.572 168.926 150.425 169.49C150.157 170.524 149.754 173.384 149.754 173.384C149.754 173.384 149.592 175.134 149.272 175.532C148.952 175.93 148.623 178.419 150.909 178.737C153.196 179.055 154.184 177.526 154.184 177.526L154.104 170.587V170.574C154.15 170.516 154.19 170.452 154.223 170.386V170.368C154.238 170.336 154.256 170.301 154.271 170.262L154.29 170.211L154.325 170.126C154.324 170.116 154.324 170.106 154.325 170.096C154.547 169.431 154.613 168.725 154.519 168.03V167.996V167.941C154.519 167.924 154.519 167.905 154.519 167.887V167.779C154.519 167.766 154.519 167.751 154.519 167.738C154.519 167.692 154.524 167.644 154.532 167.595C154.532 167.595 154.532 167.578 154.532 167.569L154.545 167.485V167.448C154.545 167.42 154.545 167.392 154.563 167.362C154.562 167.355 154.562 167.347 154.563 167.34C154.584 167.241 154.61 167.124 154.638 167.029V167.005L154.671 166.901C154.703 166.791 154.74 166.685 154.779 166.568V166.546C154.779 166.512 154.803 166.477 154.816 166.445V166.432C154.855 166.326 154.896 166.215 154.935 166.124L154.946 166.096L154.98 166.01L154.991 165.984L155.073 165.791L155.707 167.749C155.707 167.749 156.057 169.207 155.869 169.551C155.681 169.895 156.085 171.327 156.352 171.353L156.103 173.154C155.968 174.148 155.888 175.148 155.863 176.15C155.845 176.265 155.828 176.367 155.815 176.436C155.642 177.359 156.057 178.791 156.057 178.791C158.177 181.298 160.704 178.986 160.704 178.986C160.704 178.986 160.998 177.66 160.704 177.396C160.409 177.132 160.541 176.176 160.541 176.176C160.541 176.176 160.675 173.816 160.701 172.095C160.727 170.373 159.293 168.85 159.293 168.85L159.213 168.921C158.952 168.246 158.653 167.459 158.716 167.107C158.824 166.497 158.419 160.057 158.419 160.057C158.569 158.331 158.601 156.596 158.515 154.866C158.549 154.574 158.582 154.286 158.614 154.001C158.776 152.616 158.908 151.433 158.96 150.812V150.739C158.973 150.572 158.98 150.453 158.977 150.397C158.977 150.181 158.977 149.934 158.999 149.664C159.049 148.92 159.166 148.091 159.166 148.091L159.728 144.671C159.728 144.671 160.161 143.001 160.777 142.076L160.851 141.959C160.874 141.918 160.898 141.872 160.924 141.825L160.935 141.805C160.959 141.76 160.985 141.712 161.009 141.663L161.019 141.643C161.106 141.472 161.199 141.275 161.296 141.059C161.296 141.042 161.311 141.027 161.318 141.009L161.391 140.845C161.391 140.823 161.409 140.802 161.42 140.78C161.43 140.758 161.465 140.67 161.489 140.616C161.499 140.594 161.509 140.571 161.517 140.549C161.545 140.484 161.575 140.417 161.603 140.347L161.645 140.248C161.664 140.198 161.686 140.148 161.707 140.099L161.759 139.967C161.774 139.934 161.787 139.902 161.8 139.869L161.859 139.72C161.859 139.698 161.878 139.675 161.887 139.653C162.04 139.27 162.187 138.892 162.319 138.548C162.361 138.44 162.402 138.331 162.438 138.236C163.814 138.321 164.749 138.396 164.749 138.396C164.749 138.396 165.181 135.297 165.043 133.257C164.952 131.864 165.211 130.112 165.382 129.147C165.402 129.041 165.419 128.946 165.436 128.859L165.473 128.89C166.146 129.42 166.628 127.67 166.628 127.67C166.628 127.67 166.447 126.037 166.196 124.057L166.17 123.861C166.557 123.943 166.949 124.003 167.344 124.04C167.344 124.04 167.56 124.021 167.857 123.984C168.677 124.458 169.542 124.85 170.44 125.152L171.869 122.513C172.138 121.966 172.453 121.443 172.81 120.949C173.243 120.419 174.77 118.723 174.744 118.405C174.718 118.087 175.254 116.257 175.791 115.436C176.327 114.614 176.541 112.961 176.516 112.829ZM170.554 114.843C169.99 115.081 169.453 116.407 169.427 116.805C169.401 117.203 168.809 118.95 168.192 119.162C167.623 119.357 166.537 120.356 166.364 120.517C166.187 120.532 165.986 120.555 165.776 120.59C165.54 118.918 165.307 117.534 165.157 117.255C164.725 116.459 165.631 113.915 165.631 113.915C165.631 113.915 165.72 111.345 166.28 110.735C166.84 110.125 166.713 108.587 166.713 108.587C166.713 108.587 166.847 107.951 166.901 107.661C166.955 107.372 167.699 107.661 167.705 107.661C167.705 107.661 169.155 108.455 169.371 109.647C169.587 110.839 171.171 112.907 171.171 112.907C171.171 112.907 170.928 113.623 171.171 113.988C171.413 114.354 171.119 114.605 170.554 114.843Z" fill="url(#paint0_linear)"/>
<path d="M131.721 92.1929C132.162 91.4656 132.807 90.8844 133.577 90.522C134.346 90.1596 135.205 90.032 136.047 90.1553V93.2506H134.167L132.696 92.8786L131.721 92.1929Z" fill="#4C4981"/>
<path opacity="0.1" d="M131.721 92.1929C132.162 91.4656 132.807 90.8844 133.577 90.522C134.346 90.1596 135.205 90.032 136.047 90.1553V93.2506H134.167L132.696 92.8786L131.721 92.1929Z" fill="black"/>
<path d="M136.188 90.9763L133.884 92.5899C133.884 92.5899 133.865 92.2676 133.807 91.8263C133.692 90.9914 133.434 89.739 132.879 89.4967C132.033 89.1247 122.617 85.5816 125.957 84.3898C129.297 83.1979 134.421 87.1044 134.421 87.1044C134.421 87.1044 134.685 87.1952 135.107 88.067C135.323 88.5255 135.619 89.3064 135.842 89.9445C136.047 90.5199 136.188 90.9763 136.188 90.9763Z" fill="#AE6E79"/>
<path d="M154.592 93.4614L154.854 93.3381L155.589 94.1774L154.988 95.4601L153.962 95.0492L154.2 94.0238L154.592 93.4614Z" fill="#4C4981"/>
<path d="M151.107 168.586C151.107 168.586 150.445 168.508 150.181 169.539C149.917 170.571 149.519 173.433 149.519 173.433C149.519 173.433 149.361 175.179 149.043 175.577C148.725 175.975 148.409 178.46 150.657 178.776C152.904 179.092 153.884 177.567 153.884 177.567L153.804 170.63L151.107 168.586Z" fill="#444053"/>
<path d="M158.95 168.898C158.95 168.898 160.364 170.412 160.338 172.129C160.312 173.847 160.178 176.202 160.178 176.202C160.178 176.202 160.049 177.156 160.338 177.42C160.628 177.684 160.338 179.008 160.338 179.008C160.338 179.008 157.851 181.316 155.761 178.813C155.761 178.813 155.355 177.383 155.523 176.462C155.692 175.54 156.164 171.398 156.164 171.398L158.95 168.898Z" fill="#444053"/>
<path d="M162.453 137.268C162.453 137.268 161.026 141.261 160.416 142.187C159.806 143.113 159.386 144.782 159.386 144.782L158.83 148.194C158.722 148.956 158.66 149.725 158.644 150.495C158.67 151.263 157.268 162.45 157.268 162.45L155.047 165.282C155.047 165.282 154.069 167.265 154.227 168.094C154.385 168.922 154.121 170.237 153.795 170.633C153.795 170.633 153.743 173.229 153.663 173.806C153.583 174.384 153.955 176.03 153.663 176.32C153.371 176.61 149.484 176.48 149.378 176.002C149.272 175.524 149.854 173.224 149.854 173.224L150.197 171.003C150.197 171.003 150.885 169.787 150.727 169.389C150.569 168.991 151.017 168.068 151.043 167.988C151.069 167.908 151.785 166.612 151.653 166.11C151.521 165.608 152.486 154.936 152.486 154.936L155.209 135.812L162.453 137.268Z" fill="#AE6E79"/>
<path opacity="0.1" d="M162.453 137.267C162.453 137.267 162.237 137.868 161.941 138.658C161.469 139.904 160.79 141.619 160.416 142.186C159.808 143.111 159.384 144.781 159.384 144.781L158.828 148.195C158.721 148.957 158.659 149.726 158.644 150.496C158.644 150.799 158.441 152.73 158.181 154.956C157.781 158.359 157.268 162.451 157.268 162.451L155.047 165.283C155.047 165.283 154.935 165.499 154.794 165.841C154.515 166.49 154.121 167.543 154.227 168.086C154.385 168.906 154.121 170.227 153.795 170.625C153.795 170.625 153.741 173.221 153.663 173.799C153.585 174.376 153.955 176.02 153.663 176.312C153.371 176.604 149.484 176.472 149.378 175.996C149.272 175.52 149.854 173.219 149.854 173.219L150.197 170.995C150.197 170.995 150.885 169.78 150.725 169.382C150.565 168.984 151.017 168.06 151.043 167.98C151.069 167.9 151.785 166.604 151.653 166.102C151.552 165.72 152.086 159.453 152.335 156.481C152.419 155.547 152.473 154.939 152.473 154.939L154.816 138.487L155.006 137.161L155.196 135.815L162.453 137.267Z" fill="black"/>
<path d="M160.075 177.048C160.099 177.34 156.344 177.764 155.807 177.446C155.271 177.128 155.807 173.187 155.807 173.187L156.052 171.389C155.79 171.361 155.392 169.934 155.576 169.59C155.76 169.246 155.418 167.792 155.418 167.792L154.795 165.845L154.414 164.654C153.796 163.289 152.9 159.395 152.344 156.488C151.994 154.663 151.771 153.224 151.821 153.04C151.953 152.564 151.604 149.099 151.604 149.099C151.604 149.099 151.172 145.58 150.601 144.47C150.214 143.735 149.459 140.973 148.991 139.19C148.754 138.275 148.589 137.618 148.589 137.618C148.589 137.618 152.586 137.282 155.011 137.166C156.125 137.111 156.908 137.105 156.817 137.196C156.727 137.287 156.703 137.771 156.707 138.472C156.718 140.287 156.971 143.48 157.239 144.338C157.609 145.528 157.979 149.097 157.821 149.443C157.663 149.789 157.715 152.088 157.715 152.088C157.988 153.023 158.145 153.987 158.182 154.959C158.267 156.681 158.237 158.408 158.091 160.126C158.091 160.126 158.487 166.555 158.381 167.163C158.275 167.771 159.227 169.676 159.227 170.046C159.227 170.416 159.491 172.929 159.491 172.929C159.491 172.929 160.058 176.758 160.075 177.048Z" fill="#AE6E79"/>
<path d="M162.162 99.7845L161.708 100.276L161.411 100.596L159.681 102.456L155.21 102.96L152.831 102.324L152.242 102.166C152.242 102.166 152.242 100.972 152.348 99.5401C152.5 97.7036 152.861 95.4735 153.724 94.8657C154.156 94.5274 154.501 94.0906 154.73 93.5917C154.902 93.2477 155.047 92.8903 155.162 92.5231C155.18 92.4755 155.193 92.4301 155.208 92.3825C155.402 91.7415 155.543 91.0852 155.627 90.4206C155.627 90.4206 156.198 90.1048 156.992 89.7371C159.062 88.7702 162.638 87.4356 161.394 90.4206C161.211 90.8578 161.055 91.3056 160.927 91.7617C160.907 91.8288 160.89 91.8958 160.875 91.9607C160.46 93.622 160.734 94.6299 161.044 95.1858C161.096 95.2821 161.156 95.374 161.223 95.4605C161.308 95.5766 161.409 95.6794 161.524 95.7655L162.039 99.0339L162.082 99.3043L162.162 99.7845Z" fill="#AE6E79"/>
<path opacity="0.1" d="M161.396 90.5806C161.161 91.1473 161.511 90.1177 161.396 90.5806C160.453 91.2512 158.232 93.1611 156.984 93.1611C156.14 93.1611 155.887 93.0076 155.165 92.6809C155.383 91.9964 155.539 91.2934 155.63 90.5806C155.63 90.5806 163.116 86.4535 161.396 90.5806Z" fill="black"/>
<path d="M163.301 87.1046C163.3 88.5291 162.772 89.9029 161.819 90.9615C160.866 92.0201 159.555 92.6888 158.138 92.8389C157.939 92.8583 157.738 92.8713 157.535 92.8713C156.394 92.8713 155.279 92.5331 154.331 91.8994C153.383 91.2658 152.643 90.3651 152.207 89.3114C151.771 88.2577 151.656 87.0982 151.879 85.9796C152.101 84.8609 152.651 83.8334 153.457 83.0269C154.264 82.2204 155.291 81.6712 156.41 81.4487C157.528 81.2262 158.688 81.3404 159.742 81.7769C160.795 82.2133 161.696 82.9525 162.33 83.9008C162.963 84.8491 163.301 85.964 163.301 87.1046Z" fill="#AE6E79"/>
<path opacity="0.1" d="M164.121 112.667L163.299 114.811C163.299 114.811 162.631 114.839 161.588 114.871C158.069 114.984 150.314 115.127 149.968 114.222C149.891 113.993 149.85 113.753 149.847 113.511C149.802 112.133 150.444 110.017 150.444 110.017C150.444 110.017 150.814 105.784 150.814 105.601C150.814 105.417 150.496 102.451 150.496 102.451L151.132 100.072L152.904 98.828C152.904 98.828 153.697 100.046 154.173 100.15C154.649 100.253 155.285 100.84 155.285 100.84C155.285 100.84 156.845 101.791 157.349 101.261C157.853 100.731 161.766 98.4041 161.766 98.4041L163.829 100.68L164.121 112.667Z" fill="black"/>
<path d="M164.122 112.996L163.3 115.138C163.3 115.138 162.632 115.168 161.589 115.2H161.487C161.037 115.216 160.523 115.231 159.973 115.242C157.176 115.306 153.324 115.324 151.31 115.025C150.553 114.917 150.058 114.761 149.975 114.549C149.93 114.422 149.898 114.29 149.88 114.156C149.867 114.056 149.859 113.939 149.854 113.838C149.809 112.46 150.451 110.344 150.451 110.344C150.451 110.344 150.821 106.111 150.821 105.927C150.821 105.744 150.503 102.778 150.503 102.778L151.139 100.399L152.357 99.5465L152.911 99.1571C153.097 99.4359 153.3 99.7032 153.519 99.9574C153.689 100.187 153.918 100.366 154.18 100.479C154.658 100.585 155.292 101.169 155.292 101.169C155.292 101.169 156.852 102.12 157.356 101.591C157.739 101.186 160.118 99.7303 161.217 99.0663C161.554 98.8608 161.773 98.7332 161.773 98.7332L162.05 99.0403L163.836 101.009L164.122 112.996Z" fill="white"/>
<path opacity="0.1" d="M136.188 90.9756L133.885 92.5892C133.885 92.5892 133.865 92.2669 133.807 91.8257C134.945 91.3455 135.637 90.2834 135.836 89.9438C136.048 90.5192 136.188 90.9756 136.188 90.9756Z" fill="black"/>
<path d="M144.282 96.4522L143.78 96.3181C143.78 96.3181 142.958 97.1833 142.482 97.2979C142.006 97.4126 141.003 98.0636 141.003 98.0636L139.837 98.9894C139.837 98.9894 138.972 99.1235 139.229 98.5136C139.486 97.9036 138.753 97.1379 138.753 97.1379C138.753 97.1379 137.271 94.0966 137.271 93.4607C137.271 92.8247 136.047 90.1555 136.047 90.1555C136.047 90.1555 134.511 93.1449 131.708 92.1931C131.708 92.1931 133.746 96.768 133.798 97.9057C133.849 99.0435 135.199 102.217 135.199 102.217C135.199 102.217 135.703 104.572 138.426 104.44C138.426 104.44 142.184 105.139 143.003 104.44C143.823 103.742 144.563 103.192 144.95 103.112C145.337 103.032 145.69 102.584 145.69 102.584V99.4393L144.282 96.4522Z" fill="#4C4981"/>
<path opacity="0.1" d="M139.573 99.4395C139.573 99.4395 140.235 101.901 139.811 102.165L139.573 99.4395Z" fill="black"/>
<path opacity="0.1" d="M161.589 115.189C158.07 115.301 150.315 115.442 149.969 114.54C149.891 114.311 149.851 114.07 149.848 113.828L161.345 114.434L161.589 115.189Z" fill="black"/>
<path opacity="0.1" d="M162.453 137.268C162.453 137.268 162.237 137.869 161.94 138.659C160.48 138.57 158.547 138.477 156.71 138.464C156.061 138.464 155.425 138.464 154.824 138.486C153.548 138.525 152.445 138.629 151.742 138.828C150.853 139.101 149.924 139.221 148.995 139.182C148.757 138.267 148.592 137.61 148.592 137.61C148.592 137.61 152.59 137.274 155.014 137.158L155.205 135.812L162.453 137.268Z" fill="black"/>
<path d="M165.549 127.585L165.099 128.537C165.099 128.537 165.036 128.82 164.956 129.27C164.788 130.239 164.524 131.987 164.623 133.38C164.755 135.418 164.331 138.511 164.331 138.511C164.331 138.511 154.597 137.691 151.742 138.511C148.887 139.331 147.481 138.511 147.481 138.511C147.481 138.511 147.827 135.444 146.979 133.856C146.402 132.774 145.995 127.947 145.982 124.771C145.982 123.307 146.055 122.197 146.239 121.972C146.821 121.258 149.307 114.116 149.307 114.116L149.873 114.146L151.387 114.226L159.996 114.681L161.348 114.752L161.491 115.185L165.549 127.585Z" fill="#444053"/>
<path d="M169.834 124.41L169.914 125.258C169.914 125.258 165.651 123.869 165.867 122.163C166.084 120.456 165.867 120.648 165.867 120.648L169.294 120.938L169.834 124.41Z" fill="#4C4981"/>
<path opacity="0.1" d="M169.834 124.41L169.914 125.258C169.914 125.258 165.651 123.869 165.867 122.163C166.084 120.456 165.867 120.648 165.867 120.648L169.294 120.938L169.834 124.41Z" fill="black"/>
<path opacity="0.1" d="M142.418 100.124C142.853 100.494 143.366 100.761 143.919 100.905C143.759 100.87 143.61 100.796 143.486 100.689C143.181 100.472 142.891 100.237 142.597 100.007C142.359 99.8213 142.063 99.512 141.771 99.4363C141.962 99.6874 142.179 99.9179 142.418 100.124Z" fill="black"/>
<path opacity="0.1" d="M142.482 101.237C142.62 101.392 142.731 101.568 142.811 101.758C142.948 102.297 142.939 102.862 142.787 103.396L142.104 101.748C141.985 101.466 141.866 101.185 141.723 100.917C141.66 100.802 141.267 100.324 141.312 100.225C141.433 99.9435 142.355 101.079 142.482 101.237Z" fill="black"/>
<path opacity="0.1" d="M161.554 110.366C162.02 110.31 162.455 110.106 162.797 109.784C162.094 109.873 161.428 110.15 160.736 110.295C160.093 110.444 159.42 110.382 158.815 110.118C159.611 110.507 160.706 110.52 161.554 110.366Z" fill="black"/>
<path opacity="0.1" d="M159.566 105.523C159.44 105.541 159.312 105.509 159.209 105.434C158.682 105.131 158.161 104.815 157.648 104.486C157.148 104.164 156.545 103.838 156.118 103.431C157.167 104.378 158.145 105.179 159.566 105.523Z" fill="black"/>
<path opacity="0.1" d="M161.033 111.134C161.31 111.146 161.587 111.124 161.859 111.067C162.134 111.01 162.376 110.85 162.538 110.621C162.44 110.599 162.337 110.615 162.25 110.667C161.412 111.019 160.492 111.13 159.594 110.985C160.025 111.169 160.576 111.132 161.033 111.134Z" fill="black"/>
<path opacity="0.1" d="M156.024 123.415C155.473 123.581 154.907 123.692 154.334 123.746C153.889 123.767 153.442 123.758 152.998 123.72L150.835 123.584L149.753 123.515C149.625 123.515 149.104 123.515 149.361 123.257C149.491 123.132 150.214 123.212 150.4 123.205C150.759 123.194 151.119 123.187 151.481 123.186C152.197 123.186 152.915 123.186 153.631 123.229C154.434 123.268 155.223 123.329 156.024 123.415Z" fill="black"/>
<path opacity="0.1" d="M153.516 124.486C153.148 124.471 152.674 124.689 152.296 124.737C151.872 124.787 151.446 124.803 151.02 124.786C150.177 124.766 149.344 124.596 148.56 124.285C150.211 124.369 151.865 124.419 153.516 124.486Z" fill="black"/>
<path opacity="0.1" d="M148.883 125.62C149.043 125.652 149.2 125.695 149.354 125.749C150.267 126.009 151.238 125.78 152.166 125.55C151.935 125.899 151.517 126.048 151.1 126.143C150.421 126.315 149.713 126.341 149.023 126.219C148.807 126.175 148.264 126.098 148.158 125.873C147.981 125.542 148.679 125.587 148.883 125.62Z" fill="black"/>
<path opacity="0.1" d="M154.001 127.326C154.275 127.382 154.545 127.455 154.81 127.543C155.837 127.798 156.904 127.448 157.936 127.212C159.176 126.93 160.448 126.812 161.719 126.861C161.492 126.861 161.13 127.06 160.908 127.127C160.616 127.216 160.319 127.298 160.023 127.372C159.441 127.515 158.85 127.631 158.256 127.716C157.055 127.889 155.84 127.942 154.628 127.874C154.074 127.843 153.114 127.9 152.64 127.621C153.05 127.377 153.527 127.274 154.001 127.326Z" fill="black"/>
<path opacity="0.1" d="M154.388 94.7022C154.388 94.7022 154.439 97.1378 154.044 98.2496C153.918 98.5957 153.723 99.2338 153.511 99.9498C153.28 100.744 153.027 101.633 152.832 102.329C152.638 103.026 152.508 103.493 152.508 103.493C152.508 103.493 151.615 110.769 151.383 114.237C151.383 114.297 151.383 114.36 151.37 114.418C151.357 114.613 151.335 114.816 151.303 115.026C150.788 118.47 147.818 123.78 146.821 124.204C146.51 124.347 146.226 124.542 145.982 124.782C145.982 123.317 146.055 122.208 146.239 121.983C146.821 121.269 149.307 114.126 149.307 114.126L149.873 114.157C149.86 114.057 149.852 113.94 149.847 113.839C149.802 112.461 150.444 110.345 150.444 110.345C150.444 110.345 150.814 106.112 150.814 105.928C150.814 105.745 150.496 102.779 150.496 102.779L151.132 100.4L152.35 99.5475C152.501 97.711 152.863 95.4809 153.726 94.8731C154.158 94.5348 154.503 94.0979 154.731 93.5991C154.902 93.6228 154.591 93.4714 154.591 93.4714L154.388 94.7022Z" fill="black"/>
<path d="M154.853 93.3374C154.633 93.262 154.398 93.2365 154.167 93.2627C153.935 93.2888 153.712 93.3661 153.514 93.4888C152.904 93.9214 151.714 93.8847 151.396 93.8068C151.078 93.7289 147.773 93.3028 147.503 93.4088C147.233 93.5148 146.709 93.0389 146.365 93.6748C146.021 94.3108 145.863 94.6525 145.519 94.8104C145.176 94.9683 144.566 95.4723 144.654 95.5783C144.743 95.6843 143.789 96.3181 143.789 96.3181L145.718 102.591C145.718 102.591 144.475 110.525 143.867 111.213C143.259 111.901 137.862 120.815 139.794 122.402C141.323 123.605 142.941 124.69 144.635 125.647C144.851 125.753 145.612 124.325 146.67 123.875C147.728 123.426 151.009 117.473 151.213 114.088C151.416 110.702 152.35 103.164 152.35 103.164C152.35 103.164 153.488 99.0371 153.884 97.9252C154.28 96.8134 154.228 94.3778 154.228 94.3778L154.853 93.3374Z" fill="#4C4981"/>
<path opacity="0.1" d="M165.55 127.586L165.1 128.538C165.1 128.538 165.037 128.821 164.957 129.271C164.877 129.261 164.802 129.227 164.741 129.174C164.079 128.644 160.198 124.651 160.006 121.106C159.87 118.49 159.935 116.237 159.978 115.233C159.991 114.917 160.004 114.727 160.004 114.686C160.004 114.686 163.019 111.034 162.675 109.741C162.331 108.447 161.537 101.521 161.537 101.521L161.421 100.613L161.219 99.077L160.739 95.3608L161.237 95.4776C161.321 95.5937 161.423 95.6965 161.537 95.7826L162.052 99.051L163.839 101.019L164.131 113.003L163.309 115.144C163.309 115.144 162.64 115.174 161.598 115.207H161.496L165.55 127.586Z" fill="black"/>
<path d="M167.215 107.804C167.215 107.804 166.475 107.512 166.423 107.804C166.371 108.096 166.237 108.727 166.237 108.727C166.237 108.727 166.369 110.263 165.804 110.871C165.24 111.479 165.155 114.044 165.155 114.044C165.155 114.044 164.264 116.584 164.686 117.378C164.84 117.665 165.078 119.108 165.315 120.838C165.467 121.92 165.616 123.107 165.748 124.193C165.988 126.166 166.168 127.799 166.168 127.799C166.168 127.799 165.69 129.545 165.028 129.015C164.366 128.485 160.485 124.492 160.295 120.947C160.165 118.457 160.217 116.294 160.26 115.227C160.278 114.775 160.295 114.52 160.295 114.52C160.295 114.52 163.31 110.869 162.966 109.573C162.622 108.278 161.829 101.354 161.829 101.354L161.69 100.283L161.541 99.1322L161.506 98.8791L161.028 95.2019C161.113 95.2214 164.08 95.8919 164.472 96.2834C164.863 96.6749 167.284 97.2352 167.284 97.2352C167.649 97.3342 167.981 97.5294 168.245 97.8002C168.509 98.0711 168.695 98.4078 168.785 98.7753C168.809 98.8488 168.826 98.9267 168.843 99.0067C169.161 100.542 169.06 100.726 169.276 100.992C169.492 101.258 167.215 107.804 167.215 107.804Z" fill="#4C4981"/>
<path opacity="0.1" d="M165.765 124.191C164.684 123.975 163.079 123.475 163.115 122.372C163.148 121.34 164.389 120.968 165.33 120.836C165.482 121.914 165.631 123.105 165.765 124.191Z" fill="black"/>
<path d="M169.12 123.642C169.077 123.735 168.904 123.815 168.657 123.887C168.079 124.025 167.491 124.121 166.899 124.174C166.899 124.174 163.221 123.882 163.273 122.215C163.312 121.019 164.973 120.701 165.906 120.629C166.112 120.61 166.319 120.601 166.526 120.603C166.526 120.603 169.278 123.301 169.12 123.642Z" fill="#AE6E79"/>
<path opacity="0.1" d="M169.12 123.642C169.077 123.735 168.904 123.815 168.657 123.887C167.699 122.604 166.362 120.958 165.707 120.813L165.906 120.629C166.112 120.61 166.32 120.601 166.527 120.603C166.527 120.603 169.278 123.301 169.12 123.642Z" fill="black"/>
<path d="M168.194 100.815L169.276 100.975C169.666 101.663 170.1 102.326 170.574 102.959C170.864 103.32 171.031 103.765 171.05 104.229C171.05 104.229 172.637 106.582 173.139 106.846C173.641 107.11 174.409 108.91 174.409 108.91C174.409 108.91 175.653 109.729 175.653 110.655C175.675 111.427 175.754 112.196 175.891 112.957C175.919 113.089 175.707 114.73 175.177 115.552C174.647 116.374 174.117 118.187 174.145 118.511C174.173 118.836 172.663 120.523 172.241 121.051C171.889 121.544 171.58 122.067 171.316 122.613L169.914 125.258C169.914 125.258 166.951 120.893 165.867 120.655C165.867 120.655 167.083 119.491 167.69 119.279C168.298 119.067 168.882 117.333 168.908 116.926C168.934 116.519 169.464 115.206 170.018 114.979C170.572 114.752 170.866 114.503 170.628 114.131C170.39 113.759 170.628 113.05 170.628 113.05C170.628 113.05 169.066 110.986 168.854 109.805C168.642 108.624 167.215 107.822 167.215 107.822L166.395 105.81L168.194 100.815Z" fill="#4C4981"/>
<path opacity="0.1" d="M172.129 110.69C172.727 110.185 173.481 109.899 174.264 109.881C173.762 109.967 173.234 110.078 172.867 110.428C172.722 110.58 172.592 110.745 172.479 110.921C172.354 111.101 171.333 112.399 171.182 112.193C170.928 111.892 171.923 110.865 172.129 110.69Z" fill="black"/>
<path opacity="0.1" d="M169.733 109.437C169.895 109.423 170.05 109.366 170.183 109.273C170.316 109.179 170.421 109.051 170.488 108.903C170.617 108.605 170.697 108.288 170.724 107.964C170.801 107.423 170.91 106.886 171.05 106.357C171.092 106.253 171.11 106.14 171.102 106.027C171.095 105.915 171.061 105.806 171.005 105.708C170.947 105.539 170.869 105.378 170.771 105.228C170.577 105.444 170.52 105.948 170.44 106.238C170.341 106.597 170.25 106.958 170.164 107.32C170.118 107.493 169.759 109.437 169.733 109.437Z" fill="black"/>
<path opacity="0.1" d="M168.796 98.7592C168.689 98.8986 168.566 99.025 168.43 99.1356C167.997 99.4795 167.424 99.7694 167.37 100.312C167.385 100.489 167.363 100.666 167.305 100.834C167.167 101.072 166.827 101.05 166.557 101.004C166.329 100.984 166.11 100.903 165.923 100.771C165.64 100.529 165.614 100.096 165.397 99.791C165.266 99.6336 165.1 99.5086 164.913 99.4257C164.725 99.3428 164.521 99.3042 164.316 99.313C163.911 99.3 163.509 99.3908 163.105 99.4081C162.845 99.4212 162.584 99.4038 162.328 99.3562C162.244 99.3433 162.16 99.326 162.077 99.3043C161.896 99.2598 161.72 99.1997 161.549 99.1248C161.461 99.0897 161.375 99.0492 161.292 99.0036C161.021 98.8646 160.77 98.69 160.546 98.4845C160.15 98.1211 159.821 97.6193 159.854 97.0807C159.873 96.7497 160.022 96.4447 160.07 96.1181C160.232 95.1837 159.611 94.3012 158.939 93.6328C158.67 93.3667 158.385 93.1093 158.117 92.8389C157.699 92.4537 157.369 91.983 157.15 91.4589C156.969 90.901 156.91 90.311 156.977 89.7285C157.037 89.1378 157.054 88.5435 157.026 87.9504C156.827 85.8479 155.032 84.2365 153.237 83.3604L153.157 83.3193C153.689 82.7081 154.345 82.2161 155.081 81.8754C155.816 81.5347 156.616 81.3531 157.426 81.3423C158.237 81.3315 159.041 81.4919 159.785 81.8129C160.53 82.1339 161.198 82.6083 161.747 83.2052C162.295 83.8021 162.712 84.508 162.969 85.2768C163.227 86.0456 163.319 86.8601 163.24 87.667C163.161 88.4738 162.913 89.255 162.512 89.9595C162.11 90.664 161.565 91.2759 160.911 91.7552C160.892 91.8223 160.875 91.8894 160.859 91.9542C160.444 93.6155 160.719 94.6235 161.028 95.1794C161.112 95.1988 164.08 95.8694 164.472 96.2609C164.863 96.6524 167.284 97.2126 167.284 97.2126C167.651 97.3105 167.986 97.5059 168.252 97.7781C168.518 98.0503 168.706 98.3892 168.796 98.7592Z" fill="black"/>
<path d="M152.777 81.7931C152.896 81.6568 153.075 81.5876 153.196 81.4557C153.571 81.049 153.196 80.385 153.333 79.8485C153.48 79.2537 154.211 78.9941 154.821 79.0568C155.431 79.1196 156.002 79.4008 156.612 79.47C157.559 79.576 158.476 79.165 159.4 78.9249C160.324 78.6848 161.44 78.6718 162.076 79.3791C162.712 80.0865 162.668 81.2913 163.46 81.8039C163.826 82.0397 164.286 82.0656 164.682 82.2365C165.115 82.4588 165.475 82.8023 165.716 83.225C166.343 84.2092 166.619 85.3761 166.499 86.5367C166.432 87.164 166.25 87.7739 166.177 88.4012C166.102 89.0527 166.146 89.7122 166.307 90.348C166.473 90.9969 166.835 91.6977 167.481 91.9054C167.631 91.9383 167.776 91.9883 167.914 92.0546C168.288 92.2882 168.238 92.8377 168.143 93.2659L167.758 95.0418C168.128 95.323 168.703 95.2019 169.056 95.4982C169.197 95.6272 169.302 95.7915 169.359 95.9741C169.533 96.4707 169.552 97.0085 169.413 97.5161C169.274 98.0237 168.985 98.4771 168.582 98.8163C168.15 99.1603 167.576 99.4501 167.522 99.9909C167.539 100.167 167.517 100.345 167.457 100.512C167.321 100.75 166.979 100.728 166.709 100.683C166.482 100.662 166.264 100.582 166.077 100.449C165.792 100.207 165.768 99.7746 165.552 99.4696C165.42 99.3124 165.254 99.1876 165.067 99.1047C164.879 99.0218 164.675 98.9831 164.47 98.9915C164.064 98.9786 163.663 99.0694 163.257 99.0889C162.319 99.1273 161.403 98.7965 160.707 98.1674C160.309 97.8019 159.982 97.3022 160.012 96.7614C160.032 96.4326 160.181 96.1255 160.229 95.7989C160.389 94.8666 159.77 93.9819 159.097 93.3135C158.425 92.6451 157.635 92.0287 157.306 91.1397C156.895 90.0387 157.293 88.8101 157.183 87.642C156.984 85.5374 155.191 83.928 153.393 83.0498C152.993 82.8444 152.312 82.3231 152.777 81.7931Z" fill="#444053"/>
<path opacity="0.1" d="M166.923 99.959C166.637 99.7146 166.613 99.2842 166.397 98.9792C166.265 98.8219 166.099 98.6968 165.912 98.6135C165.725 98.5303 165.52 98.4911 165.316 98.499C164.909 98.486 164.507 98.5768 164.102 98.5963C163.161 98.6376 162.241 98.3057 161.543 97.6727C161.145 97.3093 160.821 96.8075 160.851 96.2689C160.87 95.9379 161.02 95.6307 161.067 95.3063C161.23 94.3718 160.609 93.4872 159.936 92.8188C159.263 92.1504 158.476 91.5339 158.145 90.6449C157.736 89.5461 158.145 88.3175 158.024 87.1472C157.823 85.0426 156.03 83.4333 154.234 82.5551C153.815 82.3496 153.133 81.8283 153.598 81.2983C153.715 81.1621 153.895 81.0928 154.016 80.9609C154.39 80.5564 154.016 79.8902 154.154 79.3559C154.181 79.2495 154.227 79.149 154.29 79.0596C153.838 79.1439 153.425 79.3992 153.315 79.8318C153.183 80.3682 153.553 81.0323 153.179 81.4389C153.058 81.5709 152.878 81.6401 152.759 81.7742C152.294 82.3042 152.975 82.8276 153.395 83.0309C155.192 83.9091 156.986 85.5206 157.185 87.6231C157.295 88.7933 156.897 90.0219 157.308 91.1229C157.637 92.0098 158.426 92.6371 159.099 93.2968C159.772 93.9565 160.397 94.8477 160.23 95.7822C160.139 96.0984 160.067 96.4199 160.014 96.7447C159.984 97.2833 160.31 97.7851 160.708 98.1485C161.405 98.7818 162.324 99.1139 163.265 99.0722C163.672 99.0527 164.072 98.964 164.478 98.9748C164.683 98.9671 164.887 99.0064 165.075 99.0896C165.262 99.1729 165.428 99.2978 165.56 99.455C165.776 99.76 165.8 100.193 166.086 100.435C166.272 100.566 166.49 100.646 166.717 100.666C166.988 100.716 167.329 100.733 167.466 100.498C167.514 100.401 167.535 100.294 167.526 100.186C167.309 100.165 167.1 100.086 166.923 99.959Z" fill="black"/>
<path d="M135.435 87.1038H120.473V72.3604H135.446L135.435 87.1038ZM135.219 64.8741H120.69C120.69 41.963 142.467 43.302 142.467 28.8073C142.467 20.8235 135.933 14.4274 127.949 14.4274C119.965 14.4274 113.433 21.3232 113.433 29.0345H98.9141C98.9076 25.2197 99.6541 21.4412 101.111 17.9156C102.568 14.39 104.706 11.1867 107.404 8.48924C110.101 5.79182 113.304 3.65339 116.83 2.19658C120.356 0.739776 124.134 -0.00675467 127.949 -0.000201367C143.986 -0.000201367 156.983 12.7943 156.983 28.8073C156.983 46.9316 135.208 48.9951 135.208 64.8741H135.219Z" fill="#61A199"/>
<path opacity="0.1" d="M60.8119 82.7136H56.953V78.9023H60.8119V82.7136ZM60.7535 76.9815H57.0114C57.0114 71.0764 62.6246 71.4203 62.6246 67.6804C62.6226 67.191 62.5242 66.7069 62.3351 66.2556C62.1459 65.8043 61.8697 65.3947 61.5222 65.0502C61.1746 64.7057 60.7626 64.4331 60.3097 64.2478C59.8568 64.0626 59.3718 63.9685 58.8825 63.9707C57.8943 63.9936 56.9533 64.3984 56.2572 65.1001C55.5611 65.8019 55.1639 66.7461 55.1491 67.7344H51.407C51.4318 65.7706 52.2274 63.8951 53.6223 62.5124C55.0171 61.1297 56.8995 60.3505 58.8635 60.3428C60.8275 60.3352 62.7159 61.0996 64.1215 62.4714C65.5271 63.8432 66.3373 65.7124 66.3775 67.676C66.3667 72.3482 60.7535 72.8803 60.7535 76.9728V76.9815Z" fill="#61A199"/>
<path opacity="0.1" d="M90.0304 109.191H86.1715V105.39H90.0304V109.191ZM89.9742 103.461H86.2321C86.2321 97.5533 91.8452 97.8994 91.8452 94.1595C91.8432 93.6703 91.7448 93.1862 91.5556 92.735C91.3665 92.2839 91.0902 91.8744 90.7427 91.5301C90.3951 91.1858 89.9831 90.9133 89.5302 90.7283C89.0773 90.5433 88.5924 90.4494 88.1031 90.452C87.1108 90.4699 86.1643 90.8731 85.4639 91.5763C84.7635 92.2795 84.3641 93.2276 84.3502 94.22H80.6082C80.633 92.2562 81.4286 90.3807 82.8234 88.998C84.2183 87.6153 86.1006 86.8361 88.0647 86.8284C90.0287 86.8208 91.9171 87.5852 93.3227 88.957C94.7283 90.3288 95.5385 92.198 95.5786 94.1616C95.5851 98.8338 89.9742 99.3681 89.9742 103.461Z" fill="#61A199"/>
<path opacity="0.1" d="M107.798 62.3175H105.002V59.5683H107.798V62.3175ZM107.757 58.1623H105.045C105.045 53.8837 109.114 54.1325 109.114 51.4244C109.112 51.0699 109.04 50.7191 108.903 50.3923C108.766 50.0654 108.566 49.7688 108.314 49.5193C108.062 49.2699 107.763 49.0724 107.435 48.9384C107.107 48.8043 106.756 48.7361 106.401 48.7378C105.683 48.7524 104.999 49.0451 104.493 49.5544C103.987 50.0637 103.699 50.7497 103.689 51.4676H100.976C100.97 50.0288 101.536 48.6467 102.55 47.6253C103.563 46.6038 104.941 46.0268 106.379 46.021C107.818 46.0153 109.2 46.5814 110.222 47.5947C111.243 48.608 111.82 49.9856 111.826 51.4244C111.822 54.8095 107.757 55.1967 107.757 58.1623Z" fill="#61A199"/>
<path opacity="0.1" d="M155.567 66.198H153.986V64.6406H155.567V66.198ZM155.543 63.8511H154.001C154.001 61.4328 156.3 61.5734 156.3 60.0419C156.3 59.8416 156.26 59.6433 156.183 59.4585C156.106 59.2736 155.993 59.106 155.85 58.9651C155.708 58.8243 155.539 58.7131 155.353 58.6381C155.168 58.563 154.969 58.5255 154.769 58.5278C154.363 58.5362 153.976 58.7016 153.69 58.9893C153.404 59.277 153.241 59.6644 153.235 60.0701H151.701C151.719 59.2707 152.049 58.51 152.619 57.9499C153.19 57.3898 153.956 57.0747 154.756 57.0716C155.555 57.0685 156.325 57.3777 156.899 57.9333C157.474 58.489 157.81 59.2471 157.834 60.0463C157.842 61.9476 155.543 62.1747 155.543 63.8511Z" fill="#61A199"/>
<path opacity="0.1" d="M179.741 137.031H178.159V135.474H179.741V137.031ZM179.717 134.684H178.183C178.183 132.264 180.485 132.406 180.485 130.875C180.482 130.471 180.319 130.084 180.031 129.801C179.744 129.517 179.355 129.359 178.951 129.361C178.545 129.369 178.158 129.534 177.872 129.822C177.586 130.109 177.423 130.497 177.417 130.903H175.884C175.902 130.104 176.231 129.343 176.802 128.783C177.372 128.223 178.139 127.908 178.938 127.905C179.738 127.901 180.507 128.211 181.082 128.766C181.657 129.322 181.992 130.08 182.016 130.879C182.025 132.789 179.725 133.008 179.725 134.684H179.717Z" fill="#61A199"/>
</g>
<defs>
<linearGradient id="paint0_linear" x1="150.808" y1="179.977" x2="150.808" y2="78.5836" gradientUnits="userSpaceOnUse">
<stop stop-color="#808080" stop-opacity="0.25"/>
<stop offset="0.54" stop-color="#808080" stop-opacity="0.12"/>
<stop offset="1" stop-color="#808080" stop-opacity="0.1"/>
</linearGradient>
<clipPath id="clip0">
<rect width="217.153" height="181" fill="white"/>
</clipPath>
</defs>
</svg>
