<svg width="160" height="132" viewBox="0 0 160 132" fill="none" xmlns="http://www.w3.org/2000/svg">
<g clip-path="url(#clip0)">
<path d="M140.938 75.4564C140.063 82.9531 138.245 88.9721 135.749 93.7724C132.428 100.168 126.748 102.745 121.674 105.442C120.208 106.22 118.683 106.882 117.114 107.424C107.881 110.629 97.5464 109.779 89.4286 108.087C83.7349 106.899 77.9554 106.168 72.1453 105.902C70.4882 105.827 68.8295 105.79 67.169 105.791C64.6087 105.794 18.5072 106.669 7.2828 83.9444C4.51156 78.3388 2.61204 71.4913 1.92961 63.1444C-0.00145137 39.5465 10.6119 24.0482 24.3021 13.918C50.1996 -5.24487 85.6976 -4.44122 111.213 15.2264C128.209 28.3271 144.123 48.1541 140.938 75.4564Z" fill="#F2F2F2"/>
<path d="M49.8125 68.6245C49.8125 87.3818 38.6616 93.9311 24.9062 93.9311C11.1509 93.9311 0 87.3818 0 68.6245C0 49.8672 24.9062 26.005 24.9062 26.005C24.9062 26.005 49.8125 49.8672 49.8125 68.6245Z" fill="#61A199"/>
<path d="M23.9986 91.0619L24.2536 75.3637L34.8693 55.9429L24.2937 72.9011L24.4082 65.8427L31.7245 51.7919L24.4386 63.9747L24.6448 51.2797L32.4793 40.0934L24.6772 49.2833L24.8061 26.0051L23.9963 56.8213L24.0629 55.5501L16.0975 43.3578L23.9352 57.9904L23.193 72.1687L23.1709 71.7923L13.9883 58.9617L23.143 73.1218L23.0502 74.8949L23.0336 74.9215L23.0412 75.0671L21.1583 111.039H23.674L23.9759 92.4587L33.1081 78.3333L23.9986 91.0619Z" fill="#3F3D56"/>
<path d="M159.4 69.7869C159.4 88.5441 148.249 95.0935 134.494 95.0935C120.739 95.0935 109.588 88.5441 109.588 69.7869C109.588 51.0296 134.494 27.1674 134.494 27.1674C134.494 27.1674 159.4 51.0296 159.4 69.7869Z" fill="#61A199"/>
<path d="M133.587 92.2243L133.842 76.526L144.457 57.1053L133.882 74.0635L133.996 67.005L141.312 52.9542L134.027 65.1371L134.233 52.442L142.067 41.2558L134.265 50.4457L134.394 27.1675L133.584 57.9837L133.651 56.7124L125.685 44.5202L133.523 59.1528L132.781 73.331L132.759 72.9546L123.576 60.1241L132.731 74.2841L132.638 76.0573L132.621 76.0839L132.629 76.2295L130.746 112.201H133.262L133.564 93.621L142.696 79.4957L133.587 92.2243Z" fill="#3F3D56"/>
<path d="M107.594 53.8564C107.594 74.3643 95.4028 81.5249 80.3636 81.5249C65.3245 81.5249 53.1328 74.3643 53.1328 53.8564C53.1328 33.3484 80.3636 7.25903 80.3636 7.25903C80.3636 7.25903 107.594 33.3484 107.594 53.8564Z" fill="#61A199"/>
<path d="M79.3724 78.3879L79.6512 61.2245L91.2577 39.9911L79.695 58.5322L79.8204 50.8149L87.8194 35.4527L79.8534 48.7726L80.0789 34.8926L88.6447 22.6623L80.1144 32.71L80.2552 7.25916L79.3699 40.9515L79.4426 39.5616L70.7339 26.2314L79.303 42.2297L78.4915 57.7313L78.4675 57.3197L68.4277 43.2919L78.4371 58.7734L78.3354 60.712L78.3173 60.7412L78.3256 60.9002L76.2669 100.229H79.0175L79.3475 79.915L89.3322 64.4713L79.3724 78.3879Z" fill="#3F3D56"/>
<path d="M138.146 113.901C138.146 118.303 109.303 132 73.722 132C38.1415 132 9.29785 118.303 9.29785 113.901C9.29785 109.5 35.817 99.6218 71.3974 99.6218C106.978 99.6218 138.146 109.5 138.146 113.901Z" fill="#3F3D56"/>
<path opacity="0.1" d="M138.146 113.901C138.146 118.303 109.303 132 73.722 132C38.1415 132 9.29785 118.303 9.29785 113.901C9.29785 109.5 35.817 99.6218 71.3974 99.6218C106.978 99.6218 138.146 109.5 138.146 113.901Z" fill="black"/>
<path d="M138.146 113.901C138.146 118.303 109.303 121.871 73.722 121.871C38.1415 121.871 9.29785 118.303 9.29785 113.901C9.29785 109.5 35.817 99.6218 71.3974 99.6218C106.978 99.6218 138.146 109.5 138.146 113.901Z" fill="#3F3D56"/>
<path d="M95.3789 91.8313C95.3789 98.1457 99.3402 103.255 104.236 103.255L95.3789 91.8313Z" fill="#3F3D56"/>
<path d="M104.235 103.255C104.235 96.8698 108.656 91.7029 114.119 91.7029L104.235 103.255Z" fill="#61A199"/>
<path d="M98.5879 92.4037C98.5879 98.4017 101.114 103.255 104.236 103.255L98.5879 92.4037Z" fill="#61A199"/>
<path d="M104.235 103.255C104.235 95.0961 109.345 88.4939 115.659 88.4939L104.235 103.255Z" fill="#3F3D56"/>
<path d="M102.372 103.336C102.372 103.336 103.628 103.297 104.007 103.028C104.385 102.758 105.939 102.436 106.033 102.868C106.127 103.301 107.92 105.019 106.502 105.03C105.084 105.041 103.207 104.809 102.829 104.579C102.452 104.349 102.372 103.336 102.372 103.336Z" fill="#A8A8A8"/>
<path opacity="0.2" d="M106.527 104.879C105.109 104.891 103.233 104.659 102.855 104.428C102.567 104.253 102.452 103.624 102.414 103.334C102.387 103.335 102.372 103.336 102.372 103.336C102.372 103.336 102.452 104.349 102.829 104.579C103.207 104.809 105.084 105.041 106.502 105.03C106.912 105.027 107.053 104.881 107.045 104.665C106.988 104.796 106.832 104.877 106.527 104.879Z" fill="black"/>
<path opacity="0.1" d="M74.5532 116.558C86.6579 116.558 96.4707 114.997 96.4707 113.071C96.4707 111.145 86.6579 109.584 74.5532 109.584C62.4485 109.584 52.6357 111.145 52.6357 113.071C52.6357 114.997 62.4485 116.558 74.5532 116.558Z" fill="black"/>
<path d="M84.1829 105.267H82.0244V110.249H84.1829V105.267Z" fill="#FFB9B9"/>
<path d="M84.349 38.0204H76.0469V52.9641H84.349V38.0204Z" fill="#FF6584"/>
<path d="M90.4463 66.3024L90.7336 68.6012L83.1669 70.8999L82.209 66.6856L90.4463 66.3024Z" fill="#FFB9B9"/>
<path d="M79.2395 44.1769C79.2395 44.1769 79.0479 45.901 78.6648 45.901C78.2817 45.901 76.9407 46.5715 76.9407 46.5715L76.5576 48.3913L79.2395 50.0196L83.6455 49.5407L84.8906 47.6251L83.6455 46.3799C83.6455 46.3799 82.5919 44.0811 82.975 43.6022C83.3581 43.1233 79.2395 44.1769 79.2395 44.1769Z" fill="#FFB9B9"/>
<path opacity="0.1" d="M79.2395 44.1769C79.2395 44.1769 79.0479 45.901 78.6648 45.901C78.2817 45.901 76.9407 46.5715 76.9407 46.5715L76.5576 48.3913L79.2395 50.0196L83.6455 49.5407L84.8906 47.6251L83.6455 46.3799C83.6455 46.3799 82.5919 44.0811 82.975 43.6022C83.3581 43.1233 79.2395 44.1769 79.2395 44.1769Z" fill="black"/>
<path d="M67.2666 103.849C67.2666 103.849 66.4046 109.596 65.351 109.979C64.2974 110.362 69.3738 111.033 69.3738 111.033L69.7569 108.925C69.7569 108.925 69.8527 105.094 70.2358 104.519C70.619 103.945 67.2666 103.849 67.2666 103.849Z" fill="#FFB9B9"/>
<path d="M77.0368 70.4212C77.0368 70.4212 90.9252 67.9308 91.021 67.4519C91.1167 66.973 93.8944 71.0916 92.1703 79.1373C90.4463 87.183 86.1361 106.148 86.1361 106.148C86.1361 106.148 81.7301 107.489 81.8259 106.435C81.9217 105.381 83.3584 87.0872 83.3584 87.0872L82.4006 79.3289L80.7723 80.2867L73.9718 93.6961L70.5237 105.286C70.5237 105.286 66.1177 106.052 66.7882 104.424C67.4587 102.795 69.6616 90.1522 69.6616 90.1522L75.6959 72.3368C75.6959 72.3368 75.5043 70.4212 77.0368 70.4212Z" fill="#2F2E41"/>
<path d="M80.5326 45.47C82.7544 45.47 84.5554 43.6689 84.5554 41.4471C84.5554 39.2254 82.7544 37.4243 80.5326 37.4243C78.3108 37.4243 76.5098 39.2254 76.5098 41.4471C76.5098 43.6689 78.3108 45.47 80.5326 45.47Z" fill="#FFB9B9"/>
<path d="M84.6991 46.4757C84.6991 46.4757 82.7835 48.2956 78.2817 47.8166C73.78 47.3377 79.5269 58.0653 79.5269 58.0653L81.3467 68.8886C81.3467 68.8886 89.3924 67.9308 89.6798 66.111C89.9671 64.2911 84.6991 46.4757 84.6991 46.4757Z" fill="#F2F2F2"/>
<path d="M82.7834 56.7244C82.7834 56.7244 80.4846 55.575 79.6226 52.4142C78.7606 49.2534 77.9943 45.9969 77.5154 46.0926C77.1111 46.1735 73.3609 47.62 72.1454 48.5873C71.9213 48.7656 71.7834 48.9277 71.7685 49.0619C71.6727 49.9239 75.2167 58.5442 75.2167 58.5442C75.2167 58.5442 77.9943 64.7701 76.8449 66.7815C75.6956 68.7929 75.5998 71.379 77.707 71.1874C79.8142 70.9959 86.8062 70.6127 85.8484 65.249C85.8484 65.249 87.6683 68.9844 92.7447 66.3026C92.7447 66.3026 95.8097 65.8237 95.714 64.7701C95.6182 63.7165 90.8291 54.6172 90.8291 54.6172C90.8291 54.6172 90.0628 50.5944 91.4996 49.0619L88.243 45.2306C88.243 45.2306 87.4767 44.0812 86.7105 44.6559C85.9442 45.2306 84.2201 46.1884 83.9328 46.2842C83.6455 46.38 83.4565 45.9399 83.4565 45.9399C82.7929 47.328 82.5268 48.8727 82.6876 50.4028C82.975 52.8931 82.7834 56.7244 82.7834 56.7244Z" fill="#2F2E41"/>
<path d="M67.5549 108.83C67.5549 108.83 67.3411 108.159 66.1071 108.83C66.1071 108.83 66.5014 106.722 65.1604 106.722C63.8195 106.722 63.3406 109.213 63.3406 109.213C63.3406 109.213 62.9574 110.841 60.3713 111.511C57.7852 112.182 59.7966 114.481 61.6165 114.481C63.4363 114.481 65.8309 113.044 65.8309 113.044C65.8309 113.044 70.8115 113.14 70.9073 112.182C71.0031 111.224 70.4284 108.351 70.0453 108.351C69.6622 108.351 68.8959 109.692 68.8959 109.692L67.5549 108.83Z" fill="#2F2E41"/>
<path d="M83.8377 107.144C83.8377 107.144 82.4968 105.707 81.7305 108.102C80.9643 110.496 80.3896 111.454 80.8685 111.837C81.3474 112.22 81.7305 112.029 81.539 112.795C81.3474 113.561 82.1137 115.19 83.8377 115.19C85.5618 115.19 86.0407 113.944 85.9449 113.082C85.8492 112.22 85.0829 111.167 85.0829 111.167L84.3167 108.485L83.8377 107.144Z" fill="#2F2E41"/>
<path d="M91.4031 39.771L86.3267 41.4951C86.3267 41.4951 81.7292 44.1769 83.7406 44.7516C85.752 45.3263 87.476 43.0276 87.476 43.0276L91.882 41.8782L91.4031 39.771Z" fill="#FFB9B9"/>
<path d="M77.7956 35.2264C77.1929 35.6393 76.7131 36.2048 76.2569 36.7755C75.3299 37.935 74.4217 39.3197 74.6501 40.7865C74.7369 41.3436 74.9844 41.8621 75.1238 42.4084C75.312 43.1457 75.2996 43.9173 75.286 44.6781C75.2972 45.0013 75.2571 45.3243 75.1673 45.6351C75.0331 45.9378 74.8753 46.2296 74.6953 46.5075C74.234 47.3668 74.2227 48.3877 74.2223 49.3629C74.2002 49.6912 74.2449 50.0206 74.3536 50.3312C74.4796 50.6244 74.7141 50.8543 74.9085 51.1074C75.2308 51.5349 75.4459 52.0335 75.5356 52.5613C75.6254 53.0891 75.5874 53.6307 75.4246 54.1407C75.6746 54.1418 75.9197 54.0716 76.1312 53.9382C76.3426 53.8049 76.5117 53.614 76.6184 53.388C76.6516 53.631 76.6307 53.8784 76.5571 54.1124C76.4836 54.3464 76.3592 54.5613 76.1929 54.7416C77.2893 54.4158 78.4646 53.8664 78.8648 52.7949C78.9823 52.4308 79.0485 52.0521 79.0616 51.6698C79.2745 48.9819 79.396 46.1936 78.4321 43.6756C78.1237 42.87 77.7039 42.0902 77.6006 41.2338C77.4972 40.3774 77.8132 39.3877 78.6 39.034C78.6183 39.2533 78.7157 39.4584 78.874 39.6112C79.0491 39.7412 79.373 39.6597 79.3761 39.4416L79.7562 39.9707C79.9019 39.8991 80.0264 39.7906 80.1171 39.6559L80.3776 39.9748L80.9318 39.5717L81.4129 40.0906C81.5982 39.9851 81.7459 39.8244 81.8354 39.6309C81.9388 39.7856 82.0668 39.9555 82.2521 39.9723C82.6556 40.0087 82.7389 39.3684 83.0914 39.1687C83.2216 39.1111 83.3681 39.1022 83.5043 39.1435C83.6405 39.1848 83.7575 39.2736 83.8338 39.3937C83.9792 39.641 84.0321 39.9318 83.9833 40.2144C83.8374 41.5315 82.7136 42.7332 83.0468 44.0158C83.2342 44.737 83.8652 45.3153 83.9128 46.0589C83.9508 46.6531 83.6015 47.2153 83.6068 47.8108C83.6131 48.5086 84.0952 49.1013 84.5659 49.6165C85.4036 50.5335 86.2853 51.4076 87.2111 52.2386L86.9251 51.7383C87.0586 51.7278 87.1928 51.7463 87.3185 51.7925C87.4442 51.8387 87.5584 51.9116 87.6533 52.0061C87.7355 51.7185 87.5993 51.4189 87.4707 51.1488C86.7006 49.5318 86.0789 47.81 85.9861 46.0214C85.857 43.5352 86.7509 41.0103 86.1844 38.586C85.8585 37.2287 85.0991 36.0146 84.0211 35.1278C83.4971 34.6964 83.0998 34.4381 82.4213 34.3905C81.6628 34.3246 80.8998 34.3306 80.1424 34.4084C79.3057 34.488 78.5005 34.7687 77.7956 35.2264Z" fill="#FF6584"/>
<path d="M87.4775 45.3263C87.4775 45.3263 88.5311 45.4221 89.0101 45.3263C89.489 45.2306 90.1594 44.7516 90.1594 44.7516L93.7991 42.0698L90.6383 42.5487C90.6383 42.5487 91.213 38.1427 91.0215 38.0469C90.8299 37.9511 100.312 36.1313 100.121 39.1005C99.9292 42.0698 94.5654 47.9124 91.5004 49.0618L89.489 49.3492L87.4775 45.3263Z" fill="#2F2E41"/>
<path d="M97.7991 79.2833H52.6357V89.91H97.7991V79.2833Z" fill="white"/>
<path d="M91.9037 81.6909H58.3633V87.3363H91.9037V81.6909Z" fill="#3F3D56"/>
<path d="M66.1576 84.3898C66.1441 84.245 65.5038 84.1806 64.6253 84.2168C65.1344 83.5 65.4293 82.928 65.3152 82.8378C65.2076 82.7528 64.7672 83.1203 64.2311 83.7172C64.1804 82.9165 64.0627 82.3551 63.9256 82.3551C63.776 82.3551 63.6495 83.023 63.608 83.941C62.8619 83.4045 62.2595 83.0896 62.1667 83.207C62.0782 83.3191 62.4814 83.7924 63.1224 84.3587C62.2764 84.4842 61.6804 84.6613 61.6936 84.8036C61.707 84.9483 62.3473 85.0128 63.2258 84.9765C62.7167 85.6934 62.4219 86.2654 62.5359 86.3555C62.6435 86.4405 63.0839 86.073 63.6201 85.4761C63.6707 86.2769 63.7884 86.8382 63.9256 86.8382C64.0751 86.8382 64.2016 86.1703 64.2431 85.2523C64.9892 85.7888 65.5917 86.1037 65.6844 85.9863C65.7729 85.8742 65.3697 85.4009 64.7287 84.8347C65.5747 84.7092 66.1707 84.532 66.1576 84.3898Z" fill="white"/>
<path d="M71.8031 84.3898C71.7896 84.245 71.1494 84.1806 70.2708 84.2168C70.7799 83.5 71.0748 82.928 70.9607 82.8378C70.8531 82.7528 70.4127 83.1203 69.8766 83.7172C69.8259 82.9165 69.7082 82.3551 69.5711 82.3551C69.4215 82.3551 69.2951 83.023 69.2535 83.941C68.5075 83.4045 67.905 83.0896 67.8122 83.207C67.7237 83.3191 68.1269 83.7924 68.7679 84.3587C67.9219 84.4842 67.3259 84.6613 67.3391 84.8036C67.3525 84.9483 67.9928 85.0128 68.8713 84.9765C68.3622 85.6934 68.0674 86.2654 68.1814 86.3555C68.2891 86.4405 68.7294 86.073 69.2656 85.4761C69.3163 86.2769 69.4339 86.8382 69.5711 86.8382C69.7207 86.8382 69.8471 86.1703 69.8886 85.2523C70.6347 85.7888 71.2372 86.1037 71.3299 85.9863C71.4184 85.8742 71.0152 85.4009 70.3742 84.8347C71.2202 84.7092 71.8162 84.532 71.8031 84.3898Z" fill="white"/>
<path d="M77.4486 84.3898C77.4351 84.245 76.7949 84.1806 75.9164 84.2168C76.4254 83.5 76.7203 82.928 76.6062 82.8378C76.4986 82.7528 76.0582 83.1203 75.5221 83.7172C75.4714 82.9165 75.3537 82.3551 75.2166 82.3551C75.067 82.3551 74.9406 83.023 74.899 83.941C74.153 83.4045 73.5505 83.0896 73.4577 83.207C73.3692 83.3191 73.7724 83.7924 74.4134 84.3587C73.5674 84.4842 72.9714 84.6613 72.9846 84.8036C72.998 84.9483 73.6383 85.0128 74.5168 84.9765C74.0077 85.6934 73.7129 86.2654 73.827 86.3555C73.9346 86.4405 74.3749 86.073 74.9111 85.4761C74.9618 86.2769 75.0794 86.8382 75.2166 86.8382C75.3662 86.8382 75.4926 86.1703 75.5341 85.2523C76.2802 85.7888 76.8827 86.1037 76.9754 85.9863C77.0639 85.8742 76.6607 85.4009 76.0197 84.8347C76.8657 84.7092 77.4617 84.532 77.4486 84.3898Z" fill="white"/>
<path d="M83.0941 84.3898C83.0807 84.245 82.4404 84.1806 81.5619 84.2168C82.0709 83.5 82.3658 82.928 82.2517 82.8378C82.1441 82.7528 81.7038 83.1203 81.1676 83.7172C81.1169 82.9165 80.9992 82.3551 80.8621 82.3551C80.7125 82.3551 80.5861 83.023 80.5445 83.941C79.7985 83.4045 79.196 83.0896 79.1033 83.207C79.0147 83.3191 79.4179 83.7924 80.059 84.3587C79.2129 84.4842 78.6169 84.6613 78.6301 84.8036C78.6435 84.9483 79.2838 85.0128 80.1623 84.9765C79.6532 85.6934 79.3584 86.2654 79.4725 86.3555C79.5801 86.4405 80.0204 86.073 80.5566 85.4761C80.6073 86.2769 80.725 86.8382 80.8621 86.8382C81.0117 86.8382 81.1381 86.1703 81.1797 85.2523C81.9257 85.7888 82.5282 86.1037 82.6209 85.9863C82.7095 85.8742 82.3062 85.4009 81.6652 84.8347C82.5112 84.7092 83.1073 84.532 83.0941 84.3898Z" fill="white"/>
<path d="M88.7396 84.3898C88.7262 84.245 88.0859 84.1806 87.2074 84.2168C87.7164 83.5 88.0113 82.928 87.8972 82.8378C87.7896 82.7528 87.3492 83.1203 86.8131 83.7172C86.7624 82.9165 86.6447 82.3551 86.5076 82.3551C86.358 82.3551 86.2316 83.023 86.19 83.941C85.444 83.4045 84.8415 83.0896 84.7488 83.207C84.6602 83.3191 85.0634 83.7924 85.7045 84.3587C84.8584 84.4842 84.2624 84.6613 84.2756 84.8036C84.289 84.9483 84.9293 85.0128 85.8078 84.9765C85.2987 85.6934 85.0039 86.2654 85.118 86.3555C85.2256 86.4405 85.6659 86.073 86.2021 85.4761C86.2528 86.2769 86.3705 86.8382 86.5076 86.8382C86.6572 86.8382 86.7836 86.1703 86.8252 85.2523C87.5712 85.7888 88.1737 86.1037 88.2664 85.9863C88.355 85.8742 87.9517 85.4009 87.3107 84.8347C88.1567 84.7092 88.7528 84.532 88.7396 84.3898Z" fill="white"/>
<path d="M71.1938 74.7313C71.1938 74.7313 70.7149 81.0529 73.0136 81.3403C75.3124 81.6276 73.2052 74.1566 73.2052 74.1566L71.1938 74.7313Z" fill="#FFB9B9"/>
<path d="M72.4398 48.8702L71.7694 49.0618C71.7694 49.0618 68.9917 71.2832 70.8115 75.5933C70.8115 75.5933 72.7272 74.5397 73.685 74.7313L75.2175 56.6286L72.4398 48.8702Z" fill="#2F2E41"/>
</g>
<defs>
<clipPath id="clip0">
<rect width="159.4" height="132" fill="white"/>
</clipPath>
</defs>
</svg>
