<svg width="541" height="300" viewBox="0 0 541 300" fill="none" xmlns="http://www.w3.org/2000/svg">
<g clip-path="url(#clip0)">
<path d="M141.811 93.978C158.919 93.978 172.787 80.1096 172.787 63.002C172.787 45.8943 158.919 32.0259 141.811 32.0259C124.704 32.0259 110.835 45.8943 110.835 63.002C110.835 80.1096 124.704 93.978 141.811 93.978Z" fill="#FF6584"/>
<path d="M238.949 158.459H86.9892C86.799 158.462 86.6089 158.446 86.4214 158.414L158.291 33.9253C158.73 33.15 159.366 32.5051 160.136 32.0563C160.905 31.6076 161.78 31.3711 162.671 31.3711C163.562 31.3711 164.437 31.6076 165.206 32.0563C165.975 32.5051 166.612 33.15 167.051 33.9253L215.284 117.467L217.595 121.464L238.949 158.459Z" fill="#3F3D56"/>
<path opacity="0.2" d="M238.949 158.459H187.066L212.535 121.464L214.368 118.799L215.285 117.467L217.596 121.464L238.949 158.459Z" fill="black"/>
<path d="M323.559 158.459H192.126L217.595 121.465L219.428 118.8L252.616 70.5886C254.792 67.4288 260.027 67.2321 262.585 69.9926C262.757 70.1809 262.916 70.38 263.063 70.5886L323.559 158.459Z" fill="#3F3D56"/>
<path d="M362.139 137.979C367.294 137.979 371.473 133.8 371.473 128.645C371.473 123.49 367.294 119.311 362.139 119.311C356.984 119.311 352.805 123.49 352.805 128.645C352.805 133.8 356.984 137.979 362.139 137.979Z" fill="#61A199"/>
<path d="M363.039 156.76H361.127L361.999 127.24L363.039 156.76Z" fill="#3F3D56"/>
<path d="M362.167 132.834L364.22 129.994L362.139 133.537L361.915 133.144L362.167 132.834Z" fill="#3F3D56"/>
<path d="M361.943 135.702L359.89 132.863L361.971 136.405L362.195 136.011L361.943 135.702Z" fill="#3F3D56"/>
<path d="M447.763 137.979C452.918 137.979 457.097 133.8 457.097 128.645C457.097 123.49 452.918 119.311 447.763 119.311C442.607 119.311 438.428 123.49 438.428 128.645C438.428 133.8 442.607 137.979 447.763 137.979Z" fill="#61A199"/>
<path d="M448.662 156.76H446.75L447.622 127.24L448.662 156.76Z" fill="#3F3D56"/>
<path d="M447.791 132.834L449.843 129.994L447.763 133.537L447.537 133.144L447.791 132.834Z" fill="#3F3D56"/>
<path d="M447.566 135.702L445.513 132.863L447.594 136.405L447.819 136.011L447.566 135.702Z" fill="#3F3D56"/>
<path d="M389.179 129.023C396.792 129.023 402.965 122.851 402.965 115.237C402.965 107.624 396.792 101.451 389.179 101.451C381.565 101.451 375.393 107.624 375.393 115.237C375.393 122.851 381.565 129.023 389.179 129.023Z" fill="#61A199"/>
<path d="M390.507 156.76H387.684L388.971 113.161L390.507 156.76Z" fill="#3F3D56"/>
<path d="M389.22 121.423L392.251 117.23L389.179 122.462L388.846 121.88L389.22 121.423Z" fill="#3F3D56"/>
<path d="M388.888 125.658L385.857 121.465L388.929 126.696L389.262 126.116L388.888 125.658Z" fill="#3F3D56"/>
<path d="M422.798 129.023C430.411 129.023 436.583 122.851 436.583 115.237C436.583 107.624 430.411 101.451 422.798 101.451C415.184 101.451 409.012 107.624 409.012 115.237C409.012 122.851 415.184 129.023 422.798 129.023Z" fill="#61A199"/>
<path d="M424.127 156.76H421.303L422.59 113.161L424.127 156.76Z" fill="#3F3D56"/>
<path d="M422.839 121.423L425.87 117.23L422.797 122.462L422.465 121.88L422.839 121.423Z" fill="#3F3D56"/>
<path d="M422.507 125.658L419.476 121.465L422.549 126.696L422.881 126.116L422.507 125.658Z" fill="#3F3D56"/>
<path d="M335.599 129.023C343.212 129.023 349.384 122.851 349.384 115.237C349.384 107.624 343.212 101.451 335.599 101.451C327.985 101.451 321.813 107.624 321.813 115.237C321.813 122.851 327.985 129.023 335.599 129.023Z" fill="#61A199"/>
<path d="M336.927 156.76H334.104L335.391 113.161L336.927 156.76Z" fill="#3F3D56"/>
<path d="M335.64 121.423L338.671 117.23L335.599 122.462L335.267 121.88L335.64 121.423Z" fill="#3F3D56"/>
<path d="M335.308 125.658L332.276 121.465L335.349 126.696L335.681 126.116L335.308 125.658Z" fill="#3F3D56"/>
<path d="M498.697 300H48.8071C43.1389 300 37.5262 298.883 32.2894 296.714C27.0527 294.545 22.2944 291.366 18.2864 287.358C14.2784 283.35 11.099 278.591 8.92987 273.355C6.76073 268.118 5.64429 262.505 5.64429 256.837C5.64429 251.169 6.76073 245.556 8.92987 240.319C11.099 235.082 14.2784 230.324 18.2864 226.316C22.2944 222.308 27.0527 219.129 32.2894 216.96C37.5262 214.791 43.1389 213.674 48.8071 213.674H497.701C502.104 213.674 506.326 211.925 509.439 208.812C512.553 205.698 514.302 201.476 514.302 197.073C514.302 192.67 512.553 188.448 509.439 185.334C506.326 182.221 502.104 180.472 497.701 180.472H33.8662V153.91H497.701C509.148 153.91 520.127 158.458 528.221 166.552C536.316 174.647 540.864 185.626 540.864 197.073C540.864 208.521 536.316 219.499 528.221 227.594C520.127 235.688 509.148 240.236 497.701 240.236H48.8071C44.4043 240.236 40.1817 241.985 37.0684 245.098C33.9551 248.212 32.206 252.434 32.206 256.837C32.206 261.24 33.9551 265.462 37.0684 268.576C40.1817 271.689 44.4043 273.438 48.8071 273.438H498.697V300Z" fill="#E6E6E6"/>
<path d="M71.0529 166.527H50.4675V167.855H71.0529V166.527Z" fill="white"/>
<path d="M129.489 166.527H108.903V167.855H129.489V166.527Z" fill="white"/>
<path d="M187.924 166.527H167.339V167.855H187.924V166.527Z" fill="white"/>
<path d="M246.36 166.527H225.775V167.855H246.36V166.527Z" fill="white"/>
<path d="M304.796 166.527H284.211V167.855H304.796V166.527Z" fill="white"/>
<path d="M363.232 166.527H342.646V167.855H363.232V166.527Z" fill="white"/>
<path d="M421.668 166.527H401.082V167.855H421.668V166.527Z" fill="white"/>
<path d="M480.103 166.527H459.518V167.855H480.103V166.527Z" fill="white"/>
<path d="M71.0529 226.291H50.4675V227.619H71.0529V226.291Z" fill="white"/>
<path d="M129.489 226.291H108.903V227.619H129.489V226.291Z" fill="white"/>
<path d="M187.924 226.291H167.339V227.619H187.924V226.291Z" fill="white"/>
<path d="M246.36 226.291H225.775V227.619H246.36V226.291Z" fill="white"/>
<path d="M304.796 226.291H284.211V227.619H304.796V226.291Z" fill="white"/>
<path d="M363.232 226.291H342.646V227.619H363.232V226.291Z" fill="white"/>
<path d="M421.668 226.291H401.082V227.619H421.668V226.291Z" fill="white"/>
<path d="M480.103 226.291H459.518V227.619H480.103V226.291Z" fill="white"/>
<path d="M71.0529 286.055H50.4675V287.383H71.0529V286.055Z" fill="white"/>
<path d="M129.489 286.055H108.903V287.383H129.489V286.055Z" fill="white"/>
<path d="M187.924 286.055H167.339V287.383H187.924V286.055Z" fill="white"/>
<path d="M246.36 286.055H225.775V287.383H246.36V286.055Z" fill="white"/>
<path d="M304.796 286.055H284.211V287.383H304.796V286.055Z" fill="white"/>
<path d="M363.232 286.055H342.646V287.383H363.232V286.055Z" fill="white"/>
<path d="M421.668 286.055H401.082V287.383H421.668V286.055Z" fill="white"/>
<path d="M480.103 286.055H459.518V287.383H480.103V286.055Z" fill="white"/>
<path d="M361.166 52.7063C363.328 52.7043 365.456 53.254 367.347 54.3035H355C356.886 53.2543 359.008 52.7045 361.166 52.7063Z" fill="#E6E6E6"/>
<path d="M337.208 51.1099C340.821 51.1057 344.346 52.2217 347.298 54.3042H327.133C330.08 52.2241 333.6 51.1082 337.208 51.1099Z" fill="#E6E6E6"/>
<path d="M201.499 30.891C201.938 23.1439 205.113 15.8042 210.459 10.1804C215.806 4.55673 222.976 1.01458 230.691 0.185527C238.406 -0.643524 246.165 1.29441 252.584 5.65383C259.003 10.0132 263.665 16.5108 265.739 23.9879C266.136 23.9737 266.532 23.9578 266.932 23.9578C274.006 23.9591 280.889 26.2507 286.552 30.4898C292.215 34.7289 296.353 40.6876 298.347 47.4744C303.035 45.4148 308.273 44.968 313.241 46.2038C318.21 47.4397 322.628 50.2885 325.804 54.304H223.672C220.692 54.3125 217.741 53.7196 214.996 52.5609C212.251 51.4021 209.768 49.7014 207.696 47.5605C205.624 45.4196 204.005 42.8826 202.936 40.1013C201.867 37.32 201.371 34.3516 201.476 31.3739C201.483 31.2132 201.491 31.0522 201.499 30.891Z" fill="#E6E6E6"/>
<path d="M368.619 76.6118C366.456 76.6098 364.328 77.1595 362.438 78.209H374.784C372.898 77.1598 370.776 76.61 368.619 76.6118Z" fill="#E6E6E6"/>
<path d="M392.576 75.0154C388.963 75.0112 385.438 76.1272 382.487 78.2097H402.651C399.704 76.1296 396.184 75.0137 392.576 75.0154Z" fill="#E6E6E6"/>
<path d="M528.285 54.7965C527.846 47.0494 524.671 39.7097 519.325 34.086C513.978 28.4622 506.808 24.9201 499.093 24.091C491.378 23.262 483.619 25.1999 477.2 29.5593C470.781 33.9188 466.119 40.4163 464.045 47.8934C463.648 47.8792 463.252 47.8633 462.852 47.8633C455.778 47.8646 448.895 50.1562 443.232 54.3953C437.569 58.6344 433.431 64.5931 431.437 71.3799C426.749 69.3203 421.511 68.8735 416.543 70.1094C411.574 71.3452 407.156 74.194 403.98 78.2096H506.112C509.092 78.218 512.043 77.6251 514.788 76.4664C517.533 75.3076 520.016 73.6069 522.088 71.466C524.16 69.3251 525.779 66.7881 526.848 64.0068C527.917 61.2255 528.413 58.2571 528.308 55.2794C528.301 55.1187 528.293 54.9578 528.285 54.7965Z" fill="#E6E6E6"/>
<path d="M460.193 281.438L472.064 281.445L472.065 279.56L460.194 279.554L460.193 281.438Z" fill="#3F3D56"/>
<path d="M374.371 279.979L376.82 280.546L469.898 280.596L470.735 278.646C472.194 275.301 472.695 271.616 472.182 268.002C471.781 265.309 470.776 262.633 468.495 261.471L464.364 233.96L412.869 233.867L392.946 249.937C392.946 249.937 383.548 249.768 378.442 256.124C376.6 258.488 375.513 261.351 375.321 264.341L375.12 267.648L374.371 279.979Z" fill="#61A199"/>
<path d="M394.814 291.012C401.162 291.012 406.307 285.867 406.307 279.519C406.307 273.171 401.162 268.026 394.814 268.026C388.466 268.026 383.321 273.171 383.321 279.519C383.321 285.867 388.466 291.012 394.814 291.012Z" fill="#3F3D56"/>
<path d="M394.814 285.568C398.155 285.568 400.863 282.86 400.863 279.519C400.863 276.178 398.155 273.47 394.814 273.47C391.473 273.47 388.765 276.178 388.765 279.519C388.765 282.86 391.473 285.568 394.814 285.568Z" fill="#CCCCCC"/>
<path d="M451.528 291.043C457.875 291.043 463.021 285.897 463.021 279.55C463.021 273.202 457.875 268.056 451.528 268.056C445.18 268.056 440.034 273.202 440.034 279.55C440.034 285.897 445.18 291.043 451.528 291.043Z" fill="#3F3D56"/>
<path d="M451.527 285.599C454.868 285.599 457.577 282.891 457.577 279.55C457.577 276.209 454.868 273.5 451.527 273.5C448.187 273.5 445.478 276.209 445.478 279.55C445.478 282.891 448.187 285.599 451.527 285.599Z" fill="#CCCCCC"/>
<path d="M400.862 248.058L428.665 248.07H432.059L437.789 248.074V247.656L437.793 242.617L437.797 236.959H433.985L430.591 236.955L424.579 236.951H421.185L414.244 236.947L400.862 248.058Z" fill="white"/>
<path d="M442.313 248.079L457.007 248.087L457.011 245.204V240.164L457.015 236.972H454.863L451.469 236.968L442.317 236.964L442.313 248.079Z" fill="white"/>
<path d="M435.899 259.946L437.783 259.947L437.785 256.367L435.901 256.366L435.899 259.946Z" fill="#3F3D56"/>
<path d="M408.394 253.148L408.395 251.264L404.815 251.262L404.814 253.146L408.394 253.148Z" fill="#3F3D56"/>
<path d="M407.076 252.092L406.868 252.092C406.351 252.092 405.839 251.989 405.362 251.791C404.884 251.593 404.45 251.303 404.085 250.937C403.719 250.571 403.429 250.137 403.232 249.659C403.034 249.181 402.932 248.669 402.933 248.152C402.933 247.635 403.035 247.123 403.233 246.645C403.431 246.167 403.722 245.733 404.087 245.368C404.453 245.003 404.888 244.713 405.365 244.515C405.843 244.317 406.355 244.216 406.873 244.216L407.08 244.216L407.076 252.092Z" fill="#3F3D56"/>
<path d="M375.119 267.648C376.544 267.803 377.978 267.45 379.168 266.651C380.359 265.853 381.229 264.66 381.626 263.283C382.023 261.906 381.921 260.433 381.339 259.123C380.756 257.813 379.73 256.751 378.442 256.124C376.6 258.488 375.512 261.351 375.321 264.341L375.119 267.648Z" fill="#3F3D56"/>
<path d="M430.591 236.956L437.789 247.656L437.793 242.617L433.985 236.959L430.591 236.956Z" fill="#F2F2F2"/>
<path d="M451.469 236.967L457.011 245.203V240.164L454.863 236.971L451.469 236.967Z" fill="#F2F2F2"/>
<path d="M421.185 236.952L428.665 248.07H432.059L424.579 236.952H421.185Z" fill="#F2F2F2"/>
</g>
<defs>
<clipPath id="clip0">
<rect width="540.864" height="300" fill="white"/>
</clipPath>
</defs>
</svg>
