<svg width="215" height="160" viewBox="0 0 215 160" fill="none" xmlns="http://www.w3.org/2000/svg">
<g clip-path="url(#clip0)">
<g opacity="0.3">
<path opacity="0.3" d="M148.366 88.5068H125.594C124.788 88.5068 124.134 89.1601 124.134 89.9661V94.8096C124.134 95.6156 124.788 96.269 125.594 96.269H148.366C149.172 96.269 149.826 95.6156 149.826 94.8096V89.9661C149.826 89.1601 149.172 88.5068 148.366 88.5068Z" fill="#F2F2F2"/>
<path opacity="0.3" d="M175.253 96.2689H152.481C151.675 96.2689 151.021 96.9223 151.021 97.7283V102.572C151.021 103.378 151.675 104.031 152.481 104.031H175.253C176.059 104.031 176.713 103.378 176.713 102.572V97.7283C176.713 96.9223 176.059 96.2689 175.253 96.2689Z" fill="#F2F2F2"/>
<path opacity="0.3" d="M202.141 104.033H179.37C178.563 104.033 177.91 104.686 177.91 105.492V110.336C177.91 111.142 178.563 111.795 179.37 111.795H202.141C202.948 111.795 203.602 111.142 203.602 110.336V105.492C203.602 104.686 202.948 104.033 202.141 104.033Z" fill="#F2F2F2"/>
<path opacity="0.3" d="M148.366 76.8616H125.594C124.788 76.8616 124.134 77.5149 124.134 78.3209V83.1644C124.134 83.9704 124.788 84.6237 125.594 84.6237H148.366C149.172 84.6237 149.826 83.9704 149.826 83.1644V78.3209C149.826 77.5149 149.172 76.8616 148.366 76.8616Z" fill="#F2F2F2"/>
<path opacity="0.3" d="M175.253 84.6257H152.481C151.675 84.6257 151.021 85.279 151.021 86.085V90.9285C151.021 91.7345 151.675 92.3878 152.481 92.3878H175.253C176.059 92.3878 176.713 91.7345 176.713 90.9285V86.085C176.713 85.279 176.059 84.6257 175.253 84.6257Z" fill="#F2F2F2"/>
<path opacity="0.3" d="M202.141 92.3878H179.37C178.563 92.3878 177.91 93.0412 177.91 93.8472V98.6907C177.91 99.4966 178.563 100.15 179.37 100.15H202.141C202.948 100.15 203.602 99.4966 203.602 98.6907V93.8472C203.602 93.0412 202.948 92.3878 202.141 92.3878Z" fill="#F2F2F2"/>
<path opacity="0.3" d="M148.366 61.3372H125.594C124.788 61.3372 124.134 61.9906 124.134 62.7966V67.6401C124.134 68.446 124.788 69.0994 125.594 69.0994H148.366C149.172 69.0994 149.826 68.446 149.826 67.6401V62.7966C149.826 61.9906 149.172 61.3372 148.366 61.3372Z" fill="#F2F2F2"/>
<path opacity="0.3" d="M175.253 69.0994H152.481C151.675 69.0994 151.021 69.7527 151.021 70.5587V75.4022C151.021 76.2082 151.675 76.8615 152.481 76.8615H175.253C176.059 76.8615 176.713 76.2082 176.713 75.4022V70.5587C176.713 69.7527 176.059 69.0994 175.253 69.0994Z" fill="#F2F2F2"/>
<path opacity="0.3" d="M202.141 76.8616H179.37C178.563 76.8616 177.91 77.5149 177.91 78.3209V83.1644C177.91 83.9704 178.563 84.6237 179.37 84.6237H202.141C202.948 84.6237 203.602 83.9704 203.602 83.1644V78.3209C203.602 77.5149 202.948 76.8616 202.141 76.8616Z" fill="#F2F2F2"/>
<path opacity="0.3" d="M148.366 49.692H125.594C124.788 49.692 124.134 50.3454 124.134 51.1513V55.9948C124.134 56.8008 124.788 57.4542 125.594 57.4542H148.366C149.172 57.4542 149.826 56.8008 149.826 55.9948V51.1513C149.826 50.3454 149.172 49.692 148.366 49.692Z" fill="#F2F2F2"/>
<path opacity="0.3" d="M175.253 57.4542H152.481C151.675 57.4542 151.021 58.1076 151.021 58.9136V63.7571C151.021 64.563 151.675 65.2164 152.481 65.2164H175.253C176.059 65.2164 176.713 64.563 176.713 63.7571V58.9136C176.713 58.1076 176.059 57.4542 175.253 57.4542Z" fill="#F2F2F2"/>
<path opacity="0.3" d="M202.141 65.2183H179.37C178.563 65.2183 177.91 65.8716 177.91 66.6776V71.5211C177.91 72.3271 178.563 72.9804 179.37 72.9804H202.141C202.948 72.9804 203.602 72.3271 203.602 71.5211V66.6776C203.602 65.8716 202.948 65.2183 202.141 65.2183Z" fill="#F2F2F2"/>
<path opacity="0.1" d="M148.366 88.5068H125.594C124.788 88.5068 124.134 89.1601 124.134 89.9661V94.8096C124.134 95.6156 124.788 96.269 125.594 96.269H148.366C149.172 96.269 149.826 95.6156 149.826 94.8096V89.9661C149.826 89.1601 149.172 88.5068 148.366 88.5068Z" fill="#61A199"/>
<path opacity="0.1" d="M175.253 96.2689H152.481C151.675 96.2689 151.021 96.9223 151.021 97.7283V102.572C151.021 103.378 151.675 104.031 152.481 104.031H175.253C176.059 104.031 176.713 103.378 176.713 102.572V97.7283C176.713 96.9223 176.059 96.2689 175.253 96.2689Z" fill="#61A199"/>
<path opacity="0.1" d="M202.141 104.033H179.37C178.563 104.033 177.91 104.686 177.91 105.492V110.336C177.91 111.142 178.563 111.795 179.37 111.795H202.141C202.948 111.795 203.602 111.142 203.602 110.336V105.492C203.602 104.686 202.948 104.033 202.141 104.033Z" fill="#61A199"/>
<path opacity="0.1" d="M148.366 76.8616H125.594C124.788 76.8616 124.134 77.5149 124.134 78.3209V83.1644C124.134 83.9704 124.788 84.6237 125.594 84.6237H148.366C149.172 84.6237 149.826 83.9704 149.826 83.1644V78.3209C149.826 77.5149 149.172 76.8616 148.366 76.8616Z" fill="#61A199"/>
<path opacity="0.1" d="M175.253 84.6257H152.481C151.675 84.6257 151.021 85.279 151.021 86.085V90.9285C151.021 91.7345 151.675 92.3878 152.481 92.3878H175.253C176.059 92.3878 176.713 91.7345 176.713 90.9285V86.085C176.713 85.279 176.059 84.6257 175.253 84.6257Z" fill="#61A199"/>
<path opacity="0.1" d="M202.141 92.3878H179.37C178.563 92.3878 177.91 93.0412 177.91 93.8472V98.6907C177.91 99.4966 178.563 100.15 179.37 100.15H202.141C202.948 100.15 203.602 99.4966 203.602 98.6907V93.8472C203.602 93.0412 202.948 92.3878 202.141 92.3878Z" fill="#61A199"/>
<path opacity="0.1" d="M148.366 61.3372H125.594C124.788 61.3372 124.134 61.9906 124.134 62.7966V67.6401C124.134 68.446 124.788 69.0994 125.594 69.0994H148.366C149.172 69.0994 149.826 68.446 149.826 67.6401V62.7966C149.826 61.9906 149.172 61.3372 148.366 61.3372Z" fill="#61A199"/>
<path opacity="0.1" d="M175.253 69.0994H152.481C151.675 69.0994 151.021 69.7527 151.021 70.5587V75.4022C151.021 76.2082 151.675 76.8615 152.481 76.8615H175.253C176.059 76.8615 176.713 76.2082 176.713 75.4022V70.5587C176.713 69.7527 176.059 69.0994 175.253 69.0994Z" fill="#61A199"/>
<path opacity="0.1" d="M202.141 76.8616H179.37C178.563 76.8616 177.91 77.5149 177.91 78.3209V83.1644C177.91 83.9704 178.563 84.6237 179.37 84.6237H202.141C202.948 84.6237 203.602 83.9704 203.602 83.1644V78.3209C203.602 77.5149 202.948 76.8616 202.141 76.8616Z" fill="#61A199"/>
<path opacity="0.1" d="M148.366 49.692H125.594C124.788 49.692 124.134 50.3454 124.134 51.1513V55.9948C124.134 56.8008 124.788 57.4542 125.594 57.4542H148.366C149.172 57.4542 149.826 56.8008 149.826 55.9948V51.1513C149.826 50.3454 149.172 49.692 148.366 49.692Z" fill="#61A199"/>
<path opacity="0.1" d="M175.253 57.4542H152.481C151.675 57.4542 151.021 58.1076 151.021 58.9136V63.7571C151.021 64.563 151.675 65.2164 152.481 65.2164H175.253C176.059 65.2164 176.713 64.563 176.713 63.7571V58.9136C176.713 58.1076 176.059 57.4542 175.253 57.4542Z" fill="#61A199"/>
<path opacity="0.1" d="M202.141 65.2183H179.37C178.563 65.2183 177.91 65.8716 177.91 66.6776V71.5211C177.91 72.3271 178.563 72.9804 179.37 72.9804H202.141C202.948 72.9804 203.602 72.3271 203.602 71.5211V66.6776C203.602 65.8716 202.948 65.2183 202.141 65.2183Z" fill="#61A199"/>
</g>
<g opacity="0.3">
<path opacity="0.3" d="M47.7439 38.8148H24.9724C24.166 38.8148 23.5122 39.4681 23.5122 40.2741V45.1176C23.5122 45.9236 24.166 46.5769 24.9724 46.5769H47.7439C48.5504 46.5769 49.2041 45.9236 49.2041 45.1176V40.2741C49.2041 39.4681 48.5504 38.8148 47.7439 38.8148Z" fill="#F2F2F2"/>
<path opacity="0.3" d="M74.6306 46.577H51.8591C51.0527 46.577 50.3989 47.2303 50.3989 48.0363V52.8798C50.3989 53.6858 51.0527 54.3391 51.8591 54.3391H74.6306C75.4371 54.3391 76.0908 53.6858 76.0908 52.8798V48.0363C76.0908 47.2303 75.4371 46.577 74.6306 46.577Z" fill="#F2F2F2"/>
<path opacity="0.3" d="M101.519 54.3411H78.7478C77.9414 54.3411 77.2876 54.9944 77.2876 55.8004V60.6439C77.2876 61.4499 77.9414 62.1032 78.7478 62.1032H101.519C102.326 62.1032 102.98 61.4499 102.98 60.6439V55.8004C102.98 54.9944 102.326 54.3411 101.519 54.3411Z" fill="#F2F2F2"/>
<path opacity="0.3" d="M47.7439 27.1696H24.9724C24.166 27.1696 23.5122 27.8229 23.5122 28.6289V33.4724C23.5122 34.2784 24.166 34.9317 24.9724 34.9317H47.7439C48.5504 34.9317 49.2041 34.2784 49.2041 33.4724V28.6289C49.2041 27.8229 48.5504 27.1696 47.7439 27.1696Z" fill="#F2F2F2"/>
<path opacity="0.3" d="M74.6306 34.9337H51.8591C51.0527 34.9337 50.3989 35.5871 50.3989 36.393V41.2366C50.3989 42.0425 51.0527 42.6959 51.8591 42.6959H74.6306C75.4371 42.6959 76.0908 42.0425 76.0908 41.2366V36.393C76.0908 35.5871 75.4371 34.9337 74.6306 34.9337Z" fill="#F2F2F2"/>
<path opacity="0.3" d="M101.519 42.6959H78.7478C77.9414 42.6959 77.2876 43.3492 77.2876 44.1552V48.9987C77.2876 49.8047 77.9414 50.458 78.7478 50.458H101.519C102.326 50.458 102.98 49.8047 102.98 48.9987V44.1552C102.98 43.3492 102.326 42.6959 101.519 42.6959Z" fill="#F2F2F2"/>
<path opacity="0.3" d="M47.7439 11.6452H24.9724C24.166 11.6452 23.5122 12.2986 23.5122 13.1045V17.948C23.5122 18.754 24.166 19.4074 24.9724 19.4074H47.7439C48.5504 19.4074 49.2041 18.754 49.2041 17.948V13.1045C49.2041 12.2986 48.5504 11.6452 47.7439 11.6452Z" fill="#F2F2F2"/>
<path opacity="0.3" d="M74.6306 19.4073H51.8591C51.0527 19.4073 50.3989 20.0607 50.3989 20.8667V25.7102C50.3989 26.5161 51.0527 27.1695 51.8591 27.1695H74.6306C75.4371 27.1695 76.0908 26.5161 76.0908 25.7102V20.8667C76.0908 20.0607 75.4371 19.4073 74.6306 19.4073Z" fill="#F2F2F2"/>
<path opacity="0.3" d="M101.519 27.1696H78.7478C77.9414 27.1696 77.2876 27.8229 77.2876 28.6289V33.4724C77.2876 34.2784 77.9414 34.9317 78.7478 34.9317H101.519C102.326 34.9317 102.98 34.2784 102.98 33.4724V28.6289C102.98 27.8229 102.326 27.1696 101.519 27.1696Z" fill="#F2F2F2"/>
<path opacity="0.3" d="M47.7439 0H24.9724C24.166 0 23.5122 0.653366 23.5122 1.45933V6.30283C23.5122 7.1088 24.166 7.76217 24.9724 7.76217H47.7439C48.5504 7.76217 49.2041 7.1088 49.2041 6.30283V1.45933C49.2041 0.653366 48.5504 0 47.7439 0Z" fill="#F2F2F2"/>
<path opacity="0.3" d="M74.6306 7.76215H51.8591C51.0527 7.76215 50.3989 8.41551 50.3989 9.22148V14.065C50.3989 14.8709 51.0527 15.5243 51.8591 15.5243H74.6306C75.4371 15.5243 76.0908 14.8709 76.0908 14.065V9.22148C76.0908 8.41551 75.4371 7.76215 74.6306 7.76215Z" fill="#F2F2F2"/>
<path opacity="0.3" d="M101.519 15.5263H78.7478C77.9414 15.5263 77.2876 16.1797 77.2876 16.9856V21.8291C77.2876 22.6351 77.9414 23.2885 78.7478 23.2885H101.519C102.326 23.2885 102.98 22.6351 102.98 21.8291V16.9856C102.98 16.1797 102.326 15.5263 101.519 15.5263Z" fill="#F2F2F2"/>
<path opacity="0.1" d="M47.7439 38.8148H24.9724C24.166 38.8148 23.5122 39.4681 23.5122 40.2741V45.1176C23.5122 45.9236 24.166 46.5769 24.9724 46.5769H47.7439C48.5504 46.5769 49.2041 45.9236 49.2041 45.1176V40.2741C49.2041 39.4681 48.5504 38.8148 47.7439 38.8148Z" fill="#61A199"/>
<path opacity="0.1" d="M74.6306 46.577H51.8591C51.0527 46.577 50.3989 47.2303 50.3989 48.0363V52.8798C50.3989 53.6858 51.0527 54.3391 51.8591 54.3391H74.6306C75.4371 54.3391 76.0908 53.6858 76.0908 52.8798V48.0363C76.0908 47.2303 75.4371 46.577 74.6306 46.577Z" fill="#61A199"/>
<path opacity="0.1" d="M101.519 54.3411H78.7478C77.9414 54.3411 77.2876 54.9944 77.2876 55.8004V60.6439C77.2876 61.4499 77.9414 62.1032 78.7478 62.1032H101.519C102.326 62.1032 102.98 61.4499 102.98 60.6439V55.8004C102.98 54.9944 102.326 54.3411 101.519 54.3411Z" fill="#61A199"/>
<path opacity="0.1" d="M47.7439 27.1696H24.9724C24.166 27.1696 23.5122 27.8229 23.5122 28.6289V33.4724C23.5122 34.2784 24.166 34.9317 24.9724 34.9317H47.7439C48.5504 34.9317 49.2041 34.2784 49.2041 33.4724V28.6289C49.2041 27.8229 48.5504 27.1696 47.7439 27.1696Z" fill="#61A199"/>
<path opacity="0.1" d="M74.6306 34.9337H51.8591C51.0527 34.9337 50.3989 35.5871 50.3989 36.393V41.2366C50.3989 42.0425 51.0527 42.6959 51.8591 42.6959H74.6306C75.4371 42.6959 76.0908 42.0425 76.0908 41.2366V36.393C76.0908 35.5871 75.4371 34.9337 74.6306 34.9337Z" fill="#61A199"/>
<path opacity="0.1" d="M101.519 42.6959H78.7478C77.9414 42.6959 77.2876 43.3492 77.2876 44.1552V48.9987C77.2876 49.8047 77.9414 50.458 78.7478 50.458H101.519C102.326 50.458 102.98 49.8047 102.98 48.9987V44.1552C102.98 43.3492 102.326 42.6959 101.519 42.6959Z" fill="#61A199"/>
<path opacity="0.1" d="M47.7439 11.6452H24.9724C24.166 11.6452 23.5122 12.2986 23.5122 13.1045V17.948C23.5122 18.754 24.166 19.4074 24.9724 19.4074H47.7439C48.5504 19.4074 49.2041 18.754 49.2041 17.948V13.1045C49.2041 12.2986 48.5504 11.6452 47.7439 11.6452Z" fill="#61A199"/>
<path opacity="0.1" d="M74.6306 19.4073H51.8591C51.0527 19.4073 50.3989 20.0607 50.3989 20.8667V25.7102C50.3989 26.5161 51.0527 27.1695 51.8591 27.1695H74.6306C75.4371 27.1695 76.0908 26.5161 76.0908 25.7102V20.8667C76.0908 20.0607 75.4371 19.4073 74.6306 19.4073Z" fill="#61A199"/>
<path opacity="0.1" d="M101.519 27.1696H78.7478C77.9414 27.1696 77.2876 27.8229 77.2876 28.6289V33.4724C77.2876 34.2784 77.9414 34.9317 78.7478 34.9317H101.519C102.326 34.9317 102.98 34.2784 102.98 33.4724V28.6289C102.98 27.8229 102.326 27.1696 101.519 27.1696Z" fill="#61A199"/>
<path opacity="0.1" d="M47.7439 0H24.9724C24.166 0 23.5122 0.653366 23.5122 1.45933V6.30283C23.5122 7.1088 24.166 7.76217 24.9724 7.76217H47.7439C48.5504 7.76217 49.2041 7.1088 49.2041 6.30283V1.45933C49.2041 0.653366 48.5504 0 47.7439 0Z" fill="#61A199"/>
<path opacity="0.1" d="M74.6306 7.76215H51.8591C51.0527 7.76215 50.3989 8.41551 50.3989 9.22148V14.065C50.3989 14.8709 51.0527 15.5243 51.8591 15.5243H74.6306C75.4371 15.5243 76.0908 14.8709 76.0908 14.065V9.22148C76.0908 8.41551 75.4371 7.76215 74.6306 7.76215Z" fill="#61A199"/>
<path opacity="0.1" d="M101.519 15.5263H78.7478C77.9414 15.5263 77.2876 16.1797 77.2876 16.9856V21.8291C77.2876 22.6351 77.9414 23.2885 78.7478 23.2885H101.519C102.326 23.2885 102.98 22.6351 102.98 21.8291V16.9856C102.98 16.1797 102.326 15.5263 101.519 15.5263Z" fill="#61A199"/>
</g>
<g opacity="0.1">
<path opacity="0.1" d="M58.0949 108.458C58.0979 109.572 57.9833 110.682 57.753 111.772C57.7098 111.968 57.6626 112.178 57.6154 112.375C56.4029 117.24 52.9774 120.799 48.8916 121.017C48.756 121.017 48.6184 121.029 48.4769 121.029C44.1534 121.029 40.5019 117.297 39.2972 112.174C39.2618 112.037 39.2323 111.901 39.2029 111.764C38.9725 110.674 38.8579 109.564 38.8609 108.45C38.8609 101.499 43.1648 95.8801 48.4769 95.8801C53.7891 95.8801 58.0949 101.507 58.0949 108.458Z" fill="#3F3D56"/>
<path opacity="0.1" d="M58.0949 108.458C58.0979 109.572 57.9833 110.682 57.7529 111.772C57.7097 111.968 57.6625 112.178 57.6154 112.375C57.4699 112.375 57.3284 112.375 57.185 112.357C56.1269 112.299 55.0753 112.155 54.0406 111.927C53.1229 112.209 52.1855 112.424 51.2361 112.567C50.508 112.674 49.7744 112.739 49.039 112.764C48.7913 112.764 48.5437 112.777 48.2961 112.777C47.4154 112.777 46.5357 112.718 45.6626 112.602C44.2536 112.412 42.8696 112.069 41.5356 111.577C40.8045 111.818 40.0596 112.015 39.305 112.166C39.2696 112.029 39.2401 111.893 39.2107 111.756C38.9803 110.667 38.8657 109.556 38.8687 108.442C38.8687 101.492 43.1726 95.8722 48.4847 95.8722C53.7969 95.8722 58.0949 101.507 58.0949 108.458Z" fill="black"/>
<path opacity="0.1" d="M78.6106 85.0205C78.6147 81.9625 77.8977 78.9466 76.5176 76.2173L65.2075 79.7311L75.134 73.8977C73.4696 71.4932 71.2859 69.493 68.7442 68.0452C66.2025 66.5973 63.3678 65.7386 60.4495 65.5326C59.9858 64.8281 59.4771 64.1543 58.9265 63.5154L42.6678 68.5691L55.9904 60.7402C53.4424 58.7891 50.4529 57.4951 47.2858 56.9724C44.1188 56.4498 40.8717 56.7146 37.8314 57.7435C34.7911 58.7724 32.051 60.5337 29.8533 62.8719C27.6555 65.21 26.0677 68.0531 25.23 71.1499L39.1461 87.1594L24.0293 76.2547C20.2065 78.9645 17.4851 82.9567 16.3606 87.5038C15.2362 92.051 15.7836 96.8505 17.9031 101.028C20.0227 105.206 23.5733 108.483 27.9082 110.264C32.2431 112.044 37.0737 112.209 41.5201 110.729C45.5457 112.206 49.9442 112.327 54.0448 111.072C56.9018 111.704 59.8642 111.686 62.7136 111.021C65.563 110.356 68.2268 109.061 70.5087 107.23C72.7906 105.4 74.6325 103.081 75.8986 100.444C77.1648 97.808 77.8229 94.9213 77.8245 91.997C77.8245 91.5629 77.8087 91.1328 77.7812 90.7046C78.3364 88.8611 78.6159 86.9457 78.6106 85.0205Z" fill="#61A199"/>
<path opacity="0.1" d="M78.2743 88.6443C72.3012 87.5126 66.1761 87.4348 60.1762 88.4145C53.3862 89.5379 46.4449 92.0068 39.8023 90.2018C35.9051 89.1412 32.5308 86.69 28.728 85.3308C25.0543 84.0461 21.0956 83.8074 17.2941 84.6414C15.8441 88.1048 15.4227 91.9122 16.0804 95.6085C16.7381 99.3048 18.4469 102.734 21.0027 105.485C23.5584 108.237 26.853 110.194 30.4924 111.124C34.1319 112.054 37.9623 111.917 41.5258 110.729C45.5496 112.205 49.9458 112.325 54.0445 111.072C56.9016 111.704 59.864 111.686 62.7134 111.021C65.5628 110.356 68.2266 109.061 70.5085 107.23C72.7904 105.4 74.6323 103.081 75.8984 100.444C77.1645 97.8081 77.8226 94.9213 77.8242 91.997C77.8242 91.563 77.8085 91.1328 77.781 90.7046C77.983 90.0274 78.1476 89.3396 78.2743 88.6443Z" fill="black"/>
</g>
<path opacity="0.1" d="M107.5 156.952C166.871 156.952 215 148.202 215 137.409C215 126.616 166.871 117.866 107.5 117.866C48.1294 117.866 0 126.616 0 137.409C0 148.202 48.1294 156.952 107.5 156.952Z" fill="#61A199"/>
<path d="M142.812 139.662C142.957 139.071 143.244 138.525 143.648 138.07C144.052 137.616 144.561 137.267 145.131 137.054C145.701 136.841 146.315 136.77 146.918 136.848C147.522 136.926 148.097 137.151 148.594 137.501L148.747 137.613C152.035 140.076 150.083 144.594 148.747 144.696C147.411 144.798 144.84 144.908 144.84 144.908C144.84 144.908 141.812 143.659 142.812 139.662Z" fill="#192534"/>
<path d="M172.476 136.592V137.413C172.476 137.413 159.112 138.336 157.685 138.336H155.015C155.015 138.336 154.975 138.378 154.91 138.452C154.8 138.576 154.614 138.794 154.407 139.065C153.987 139.611 153.486 140.373 153.37 141.006C153.173 142.135 152.446 142.545 152.446 142.545L149.775 141.828L147.199 138.749L146.823 138.387L145.754 137.368L144.84 136.494L144.886 136.003V135.928C145.104 134.873 145.384 133.832 145.723 132.809C145.723 132.782 145.74 132.752 145.75 132.725C146.491 130.501 147.727 127.801 149.508 126.997C149.643 126.937 149.785 126.878 149.936 126.825L150.117 126.762C153.533 125.619 159.987 126.072 159.987 126.072C159.987 126.072 164.916 127.51 165.328 128.127C165.741 128.744 170.412 133.823 170.412 133.823C170.822 134.132 171.2 134.481 171.54 134.866C171.979 135.351 172.385 135.962 172.476 136.592Z" fill="#61A199"/>
<path opacity="0.1" d="M144.433 143.368C145.228 143.368 145.872 142.357 145.872 141.11C145.872 139.862 145.228 138.851 144.433 138.851C143.639 138.851 142.995 139.862 142.995 141.11C142.995 142.357 143.639 143.368 144.433 143.368Z" fill="white"/>
<path opacity="0.1" d="M150.392 127.763C150.392 127.763 149.213 129.57 147.967 131.888C147.966 131.894 147.966 131.9 147.967 131.906C147.635 132.523 147.297 133.173 146.974 133.838L146.961 133.87C146.961 133.87 146.279 133.33 145.742 132.803C145.742 132.776 145.76 132.746 145.77 132.719C146.511 130.496 147.747 127.795 149.527 126.992C149.663 126.931 149.804 126.872 149.956 126.819L150.392 127.763Z" fill="black"/>
<path opacity="0.1" d="M146.9 133.821C146.9 133.821 154.193 135.981 155.63 135.052C155.63 135.052 156.145 128.482 152.754 128.072C152.754 128.072 150.803 127.557 150.396 127.875C149.989 128.194 146.9 133.821 146.9 133.821Z" fill="white"/>
<path opacity="0.1" d="M156.349 128.995C156.349 128.995 157.787 134.436 158.815 134.54C159.843 134.644 170.214 134.436 169.805 133.717C169.396 132.998 164.874 128.38 164.874 128.38L156.349 128.995Z" fill="white"/>
<path d="M154.584 138.839C154.584 138.839 156.451 136.386 159.739 138.851C163.027 141.316 161.073 145.831 159.739 145.934C158.404 146.036 155.846 146.14 155.846 146.14C155.846 146.14 151.791 144.474 154.584 138.839Z" fill="#192534"/>
<path d="M173.975 139.464C173.838 139.076 173.622 138.721 173.341 138.421C173.06 138.121 172.72 137.882 172.342 137.72C171.964 137.558 171.556 137.476 171.145 137.479C170.734 137.483 170.328 137.571 169.952 137.739C169.585 137.912 169.237 138.124 168.914 138.37C165.988 140.562 167.735 144.582 168.914 144.674C169.341 144.706 169.909 144.739 170.461 144.769C171.027 144.799 171.591 144.697 172.111 144.472C172.63 144.247 173.09 143.905 173.455 143.472C173.819 143.039 174.079 142.527 174.212 141.977C174.345 141.427 174.349 140.854 174.223 140.302C174.156 140.018 174.073 139.738 173.975 139.464Z" fill="#192534"/>
<path opacity="0.1" d="M155.425 144.6C156.219 144.6 156.863 143.589 156.863 142.341C156.863 141.094 156.219 140.082 155.425 140.082C154.63 140.082 153.986 141.094 153.986 142.341C153.986 143.589 154.63 144.6 155.425 144.6Z" fill="white"/>
<path opacity="0.1" d="M159.43 138.03C159.43 138.03 159.234 135.052 162.409 136.284C165.585 137.515 163.539 138.851 163.539 138.851L159.43 138.03Z" fill="white"/>
<path opacity="0.1" d="M172.475 136.592V137.003L171.962 137.199L170.915 137.003C170.915 137.003 170.691 135.321 171.55 134.842C171.978 135.351 172.385 135.962 172.475 136.592Z" fill="white"/>
<path opacity="0.1" d="M172.476 136.612V137.413C172.476 137.413 159.112 138.336 157.685 138.336H157.674C156.935 137.943 156.196 137.769 155.575 138.03C155.386 138.108 155.208 138.211 155.046 138.336C154.999 138.374 154.954 138.413 154.91 138.452C154.714 138.632 154.545 138.838 154.407 139.065C153.487 140.552 153.684 142.854 153.684 142.854C151.013 143.675 148.24 141.52 148.24 141.52C147.737 140.012 147.267 139.028 146.837 138.378C146.444 137.788 146.086 137.5 145.768 137.358L144.84 136.494L144.886 136.003L152.34 141.42C152.34 141.42 153.059 136.8 154.698 137.109C156.337 137.417 159.629 137.417 159.629 137.417L172.476 136.612Z" fill="black"/>
<path d="M144.433 135.975C144.433 135.975 143.816 137.515 144.433 137.619C145.05 137.723 146.436 136.441 148.234 141.828C148.234 141.828 151.007 143.989 153.678 143.162C153.678 143.162 153.359 139.261 155.574 138.336C157.789 137.411 161.484 142.033 161.484 142.033V143.06L170.215 142.135C170.215 142.135 172.886 140.082 172.784 136.9L159.636 137.721C159.636 137.721 156.348 137.721 154.705 137.413C153.062 137.105 152.347 141.734 152.347 141.734L144.433 135.975Z" fill="#61A199"/>
<path d="M107.457 107.898H107.455C104.42 107.898 101.96 110.357 101.96 113.39V113.392C101.96 116.425 104.42 118.884 107.455 118.884H107.457C110.492 118.884 112.952 116.425 112.952 113.392V113.39C112.952 110.357 110.492 107.898 107.457 107.898Z" fill="#192534"/>
<path d="M104.577 127.526C105.314 126.88 106.063 126.222 106.594 125.399C107.081 124.644 107.368 123.782 107.637 122.926C108.406 120.479 109.069 118.001 109.624 115.492C106.6 115.03 104.342 112.361 101.384 111.577C101.313 111.558 99.0511 125.141 98.886 126.383C98.7504 127.408 97.5791 132.304 98.9135 132.332C99.6269 132.348 101.117 130.564 101.643 130.095L104.577 127.526Z" fill="#3F3D56"/>
<path opacity="0.1" d="M104.577 127.526C105.314 126.88 106.063 126.222 106.594 125.399C107.081 124.644 107.368 123.782 107.637 122.926C108.406 120.479 109.069 118.001 109.624 115.492C106.6 115.03 104.342 112.361 101.384 111.577C101.313 111.558 99.0511 125.141 98.886 126.383C98.7504 127.408 97.5791 132.304 98.9135 132.332C99.6269 132.348 101.117 130.564 101.643 130.095L104.577 127.526Z" fill="black"/>
<path d="M67.2001 93.252C66.866 93.3031 66.5123 93.3286 66.2371 93.5231C65.8441 93.7981 65.7438 94.3087 65.5571 94.7526C65.3119 95.3224 64.8967 95.8025 64.3682 96.1275C63.9181 96.4025 63.3698 96.5871 63.1006 97.0388C62.9484 97.3431 62.8761 97.681 62.8903 98.0209C62.8548 99.0272 62.9002 100.035 63.0259 101.034C63.0888 101.535 63.1713 102.045 63.0671 102.538C62.9473 103.114 62.5857 103.603 62.2417 104.08C61.4163 105.221 60.6086 106.474 60.5418 107.881C60.5084 108.588 60.6656 109.313 60.4868 109.998C60.1703 111.214 58.8811 112.007 58.6296 113.237C58.5549 113.6 58.5745 113.985 58.433 114.325C58.1854 114.914 57.5035 115.236 57.3286 115.843C57.1969 116.299 57.3895 116.78 57.4033 117.253C57.4229 117.947 57.0593 118.587 56.7095 119.184L54.6637 122.661C53.9994 123.788 53.3194 124.967 53.2074 126.271C53.1072 127.428 53.4668 128.573 53.8618 129.665C54.7403 132.09 56.0453 134.659 58.4527 135.592C59.8697 136.142 61.4478 136.024 62.963 135.899C65.0383 135.728 67.1274 135.553 69.13 134.985C70.1225 134.705 71.0953 134.329 72.0975 134.129C72.7657 133.998 73.4516 133.933 74.0962 133.719C74.7928 133.468 75.4091 133.035 75.8808 132.465C76.3524 131.895 76.6619 131.209 76.7768 130.478C77.6337 130.816 78.4277 129.692 78.3058 128.781C78.184 127.869 77.5708 127.098 77.3232 126.214C76.9694 124.994 77.3232 123.67 77.9128 122.547C78.5023 121.423 79.316 120.429 79.9586 119.335C80.6746 118.111 81.172 116.771 81.4286 115.376C81.7725 113.492 81.6684 111.558 81.5623 109.646L81.1574 102.342C81.0827 101.004 80.9982 99.6236 80.4086 98.4137C79.7621 97.0958 78.5829 96.1295 77.4057 95.2515C75.6685 93.9307 73.8467 92.7248 71.9521 91.6415C70.7297 90.958 70.8162 91.2231 69.8434 92.0343C69.0899 92.6735 68.1758 93.0946 67.2001 93.252Z" fill="#3F3D56"/>
<path d="M83.7204 113.575C82.3309 114.671 80.9238 115.782 79.8547 117.193C78.5633 118.907 77.8306 120.977 77.7558 123.122C77.7434 124.126 77.8137 125.129 77.9661 126.121C78.1764 127.742 78.5557 129.547 79.9215 130.442C80.7823 131.006 81.9654 131.148 82.553 131.992C82.7377 132.257 82.8458 132.581 83.062 132.815C83.4551 133.239 84.0682 133.332 84.6342 133.363C85.48 133.411 86.3282 133.384 87.1694 133.285C88.1304 133.169 89.1072 132.959 90.0584 133.139C91.9096 133.487 93.2912 135.233 95.168 135.467C96.7265 135.663 98.1867 134.758 99.4916 133.895C100.838 133.006 102.243 132.053 102.972 130.613C103.682 129.215 103.642 127.569 103.587 126C103.526 124.257 103.463 122.494 102.998 120.812C102.853 120.372 102.742 119.922 102.666 119.465C102.526 118.287 103.059 117.128 103.452 116C104.063 114.286 104.33 112.172 103.116 110.817C102.603 110.244 101.889 109.89 101.166 109.639C97.9725 108.492 94.4468 108.928 91.1707 109.442C88.044 109.916 86.173 111.644 83.7204 113.575Z" fill="#3F3D56"/>
<path d="M110.802 106.787C109.536 108.686 108.267 110.599 107.353 112.679C106.73 114.189 106.204 115.737 105.781 117.314C104.519 121.673 103.267 126.125 100.748 129.898C100.386 130.441 99.9851 131.004 99.9478 131.654C99.9124 132.263 100.203 132.833 100.484 133.375C101.074 134.522 101.691 135.681 102.532 136.667C103.373 137.653 104.379 138.399 105.394 139.161C107.498 140.732 109.837 142.398 112.468 142.28C113.013 142.255 113.595 142.129 113.958 141.722C114.322 141.316 114.373 140.754 114.308 140.232C114.111 138.615 112.893 137.344 111.788 136.146C110.684 134.948 109.574 133.548 109.662 131.914C109.731 130.564 110.615 129.413 111.462 128.361C112.431 127.155 113.402 125.951 114.316 124.703C118.268 119.312 121.122 113.182 123.384 106.891C124.337 104.235 125.203 101.446 124.907 98.6416C122.745 98.1113 118.421 96.3397 116.596 98.1682C115.489 99.276 114.707 100.918 113.844 102.224L110.802 106.787Z" fill="#FBBEBE"/>
<path d="M129.055 88.3457C127.685 90.7331 126.614 93.2793 125.863 95.9272C125.681 96.5675 125.518 97.2431 125.657 97.8913C125.808 98.5866 126.282 99.1581 126.64 99.7709C126.997 100.384 127.249 101.16 126.925 101.792C125.392 101.912 123.873 101.493 122.391 101.079L117.745 99.7827C117.36 99.7087 116.999 99.5414 116.694 99.2956C116.155 98.7869 116.196 97.9325 116.3 97.2019C117.21 91.2192 120.133 85.704 121.227 79.7547C121.387 78.8963 121.554 77.9457 122.238 77.3977C124.203 75.8461 128.652 77.1601 129.67 79.407C130.808 81.9014 130.342 86.1046 129.055 88.3457Z" fill="#61A199"/>
<path d="M104.185 67.8993C104.01 67.9897 103.813 68.0958 103.76 68.2804C103.748 68.3809 103.759 68.4828 103.791 68.5788C103.823 68.6749 103.875 68.7627 103.945 68.8362L105.928 71.6253C107.883 74.375 109.843 77.1425 112.105 79.6506C113.812 81.5429 115.682 83.2819 117.694 84.8477C118.26 85.2876 118.863 85.7453 119.14 86.4072C117.904 82.7496 118.124 78.7571 119.753 75.2569C120.402 73.882 121.259 72.6073 121.933 71.2403C121.996 71.1652 122.04 71.075 122.058 70.9783C122.076 70.8817 122.07 70.7819 122.038 70.6887C122.007 70.5955 121.952 70.5119 121.879 70.4462C121.805 70.3804 121.716 70.3346 121.62 70.3132C119.903 69.4294 118.024 68.8952 116.314 67.9956C114.972 67.2885 113.759 66.3693 112.555 65.4638C111.48 64.6566 110.049 63.2307 108.722 62.8909C107.29 62.5216 107.347 63.8277 106.885 64.9178C106.354 66.1919 105.4 67.2446 104.185 67.8993Z" fill="#FBBEBE"/>
<path opacity="0.1" d="M104.185 67.8993C104.01 67.9897 103.813 68.0958 103.76 68.2804C103.748 68.3809 103.759 68.4828 103.791 68.5788C103.823 68.6749 103.875 68.7627 103.945 68.8362L105.928 71.6253C107.883 74.375 109.843 77.1425 112.105 79.6506C113.812 81.5429 115.682 83.2819 117.694 84.8477C118.26 85.2876 118.863 85.7453 119.14 86.4072C117.904 82.7496 118.124 78.7571 119.753 75.2569C120.402 73.882 121.259 72.6073 121.933 71.2403C121.996 71.1652 122.04 71.075 122.058 70.9783C122.076 70.8817 122.07 70.7819 122.038 70.6887C122.007 70.5955 121.952 70.5119 121.879 70.4462C121.805 70.3804 121.716 70.3346 121.62 70.3132C119.903 69.4294 118.024 68.8952 116.314 67.9956C114.972 67.2885 113.759 66.3693 112.555 65.4638C111.48 64.6566 110.049 63.2307 108.722 62.8909C107.29 62.5216 107.347 63.8277 106.885 64.9178C106.354 66.1919 105.4 67.2446 104.185 67.8993Z" fill="black"/>
<path d="M116.344 79.0142C115.445 78.0007 114.233 77.3309 113.17 76.4903C111.641 75.2804 110.432 73.7209 109.265 72.1594C107.123 69.2859 104.963 65.7663 106.03 62.3389C104.896 62.2289 103.917 63.1599 103.383 64.1635C102.848 65.1672 102.573 66.3103 101.907 67.2315C100.895 68.6319 99.1731 69.284 97.5694 69.9243C94.0443 71.3341 90.6387 73.0254 87.3854 74.9819C86.0785 75.7675 84.7775 76.6101 83.7792 77.7611C82.71 78.9886 82.0399 80.5108 81.1319 81.8562C79.3632 84.5019 76.6747 86.4876 73.6914 87.6111C72.7088 87.9843 71.6554 88.275 70.777 88.8681C68.8942 90.1389 68.1101 92.6726 68.5562 94.8999C69.0023 97.1272 70.5215 99.0245 72.3472 100.372C74.1729 101.719 76.2522 102.515 78.359 103.3C80.1251 103.949 81.9023 104.567 83.6907 105.155C85.0066 105.61 86.352 105.974 87.7175 106.247C90.2311 106.708 92.8154 106.594 95.3565 106.875C97.6795 107.13 99.9612 107.718 102.294 107.881C104.627 108.044 107.097 107.733 108.997 106.376C110.509 105.298 111.515 103.67 112.445 102.055C114.858 97.8923 117.013 93.5855 118.898 89.1588C119.455 87.8487 124.615 80.4283 123.33 79.4699C116.858 74.644 119.007 82.3119 118.389 81.7227C117.564 80.9331 117.09 79.8568 116.344 79.0142Z" fill="#61A199"/>
<path d="M108.327 74.5754C106.938 71.7824 105.999 68.793 105.065 65.8194C104.808 64.9944 104.548 64.1027 104.825 63.2856C105.159 62.3036 106.229 61.4649 105.914 60.4809C103.414 61.2665 100.512 62.498 100.018 65.073C99.9102 65.6347 99.9299 66.2338 99.6685 66.7405C99.1595 67.7344 97.8624 67.9465 96.7599 68.1154C93.5526 68.628 90.3649 69.9204 88.1678 72.3107C87.7983 72.7036 87.4505 73.1494 86.9886 73.444C86.6545 73.6407 86.2992 73.7989 85.9293 73.9154C83.7793 74.6873 81.5684 75.6497 80.1849 77.4665C79.4715 78.4014 79.0155 79.5229 78.2196 80.3911C77.1426 81.5695 75.5567 82.1588 74.3913 83.2567C73.6052 83.9874 73.0451 84.9144 72.5262 85.8513C70.5295 89.4574 69.0654 93.6861 70.1247 97.6713C70.6769 99.7553 71.8934 101.611 72.5479 103.666C73.4499 106.465 73.3615 109.656 75.0536 112.062C76.1207 113.575 77.7715 114.574 79.4617 115.329C83.2224 117.001 87.354 117.666 91.4498 117.257C92.9685 117.081 94.4772 116.827 95.9699 116.495C99.5329 115.761 103.133 114.961 106.37 113.3C111.89 110.466 115.862 105.4 119.655 100.49C120.377 99.5549 121.104 98.6121 121.621 97.5437C122.126 96.5243 122.43 95.4205 122.77 94.3363C123.92 90.6811 125.537 87.0416 125.386 83.2155C125.392 82.7573 125.302 82.3029 125.121 81.8818C124.967 81.5676 124.728 81.2926 124.592 80.9764C124.352 80.4107 124.46 79.7567 124.291 79.1655C123.822 77.5156 121.652 77.2014 119.934 77.2151L119.384 86.8962C119.3 88.3497 119.144 89.9622 118.061 90.9364C117.598 91.3347 117.02 91.5751 116.411 91.6228C115.802 91.6705 115.193 91.5229 114.673 91.2015C113.518 90.4532 113.355 89.1471 113.362 87.896C113.374 86.3247 113.247 84.885 112.745 83.3785C111.708 80.2536 109.786 77.5117 108.327 74.5754Z" fill="#192534"/>
<path d="M109.011 102.163C115.854 105.63 122.736 109.122 128.86 113.738C130.275 114.802 131.651 115.93 133.146 116.88C137.433 119.603 142.751 120.928 146.058 124.778C146.754 125.585 147.343 126.493 148.145 127.192C148.841 127.763 149.619 128.226 150.453 128.567C153.11 129.739 155.987 130.329 158.891 130.297C159.652 130.287 160.434 130.23 161.118 129.904C162.959 129.013 163.378 126.624 163.565 124.587C163.628 123.898 163.641 123.085 163.099 122.657C162.806 122.427 162.419 122.368 162.052 122.311C156.075 121.368 150.561 118.493 145.567 115.077C140.573 111.662 135.996 107.675 131.071 104.161C129.34 102.925 127.567 101.749 125.794 100.572L120.058 96.7658C117.023 94.7526 113.828 92.6785 110.204 92.2994C109.998 92.2637 109.786 92.2778 109.587 92.3407C109.268 92.4644 109.092 92.7944 108.936 93.0969C107.873 95.167 106.578 97.0467 105.275 98.9637C104.577 99.9889 104.499 100.254 105.701 100.802C106.784 101.297 107.932 101.617 109.011 102.163Z" fill="#FBBEBE"/>
<path d="M122.458 159.364C122.536 159.364 122.611 159.333 122.666 159.278C122.722 159.222 122.753 159.148 122.753 159.069C122.753 158.991 122.722 158.916 122.666 158.861C122.611 158.806 122.536 158.775 122.458 158.775C122.38 158.775 122.305 158.806 122.249 158.861C122.194 158.916 122.163 158.991 122.163 159.069C122.163 159.148 122.194 159.222 122.249 159.278C122.305 159.333 122.38 159.364 122.458 159.364Z" fill="black"/>
<path d="M124.608 81.1571C134.99 81.1571 143.406 72.746 143.406 62.3703C143.406 51.9947 134.99 43.5836 124.608 43.5836C114.226 43.5836 105.81 51.9947 105.81 62.3703C105.81 72.746 114.226 81.1571 124.608 81.1571Z" fill="#FBBEBE"/>
<path d="M109.833 69.6965C110.167 68.0093 112.105 67.1569 113.82 67.0429C115.557 66.9497 117.287 67.3152 118.836 68.1028C120.386 68.8903 121.701 70.072 122.648 71.529C123.046 70.4759 123.314 69.3784 123.446 68.2607L126.591 68.4944C126.942 68.5487 127.301 68.5163 127.636 68.4002C128.041 68.2195 128.291 67.8109 128.501 67.4181C129.877 64.851 130.796 61.7006 133.379 60.3473V63.8827C134.086 63.7452 134.752 63.4472 135.325 63.0116C135.899 62.576 136.364 62.0146 136.686 61.3706C136.864 62.3492 137.146 63.306 137.527 64.2245C137.59 64.3777 137.679 64.5466 137.838 64.5859C137.916 64.5915 137.994 64.5806 138.067 64.5538C138.14 64.5271 138.207 64.4851 138.262 64.4307C139.467 63.5174 140.556 62.4623 141.507 61.2881L145.241 67.7579C147.398 62.3133 147.516 56.2733 145.573 50.7489C143.63 45.2244 139.756 40.5869 134.664 37.6893C133.801 37.1922 132.9 36.7634 131.97 36.4068C129.539 35.4915 126.919 35.1988 124.327 35.0221C120.642 34.7707 116.753 34.7805 113.518 36.5462C111.779 37.4949 110.334 38.8933 108.939 40.2996C107.052 42.197 105.165 44.2023 104.161 46.683C103.467 48.3957 103.23 50.2518 103.019 52.0863C102.892 53.196 102.774 54.343 103.09 55.4135C103.31 56.1539 103.725 56.8198 104.004 57.5406C104.468 58.7387 104.54 60.0468 104.719 61.3195C105.116 64.1322 106.035 66.846 107.429 69.3213C107.724 69.8457 108.102 70.4035 108.689 70.5371C109.277 70.6707 109.982 70.0225 109.672 69.5118" fill="#192534"/>
<path d="M109.833 69.6965C110.167 68.0093 112.105 67.1569 113.82 67.043C115.557 66.9497 117.287 67.3152 118.836 68.1028C120.386 68.8903 121.701 70.072 122.648 71.529C123.046 70.4759 123.314 69.3784 123.446 68.2607L126.591 68.4944C126.942 68.5487 127.301 68.5163 127.636 68.4002C128.041 68.2195 128.291 67.8109 128.501 67.4181C129.877 64.851 130.796 61.7006 133.379 60.3473V63.8827C134.086 63.7452 134.752 63.4472 135.325 63.0116C135.899 62.576 136.364 62.0146 136.686 61.3706C136.864 62.3492 137.146 63.306 137.527 64.2245C137.59 64.3777 137.679 64.5466 137.838 64.5859C137.916 64.5915 137.994 64.5806 138.067 64.5538C138.14 64.5271 138.207 64.4851 138.262 64.4307C139.467 63.5174 140.556 62.4623 141.507 61.2881L145.241 67.7579C147.398 62.3133 147.516 56.2733 145.573 50.7489C143.63 45.2244 139.756 40.5869 134.664 37.6893C133.801 37.1922 132.9 36.7634 131.97 36.4068C129.539 35.4915 126.919 35.1988 124.327 35.0221C120.642 34.7707 116.753 34.7805 113.518 36.5462C111.779 37.4949 110.334 38.8933 108.939 40.2996C107.052 42.197 105.165 44.2023 104.161 46.683C103.467 48.3957 103.23 50.2518 103.019 52.0863C102.892 53.196 102.774 54.343 103.09 55.4135C103.31 56.1539 103.725 56.8198 104.004 57.5406C104.468 58.7387 104.54 60.0468 104.719 61.3195C105.116 64.1322 106.035 66.846 107.429 69.3213C107.724 69.8457 108.102 70.4035 108.689 70.5371C109.277 70.6707 109.982 70.0225 109.672 69.5118" stroke="black" stroke-miterlimit="10"/>
<path d="M88.2578 87.727C89.0164 89.8109 90.9227 91.2251 92.7307 92.5135L97.4474 95.8761C98.7012 96.7698 99.9885 97.6968 100.804 99.001C99.6111 99.4527 99.0668 100.985 99.4578 102.199C99.8489 103.412 100.971 104.282 102.193 104.675C103.416 105.068 104.713 105.054 105.988 104.982C107.453 104.901 108.985 104.724 110.194 103.894L107.539 102.259C106.839 101.825 106.036 101.134 106.291 100.354L109.092 100.327C109.386 100.327 109.707 100.313 109.941 100.13C110.174 99.9477 110.255 99.6668 110.353 99.3997C110.77 98.3196 111.48 97.3777 112.405 96.6806C113.33 95.9835 114.431 95.5592 115.585 95.4558C116.277 95.4047 117.073 95.4342 117.55 94.9196C117.861 94.5778 117.927 94.0868 117.982 93.6292C118.087 92.7571 118.189 91.8615 118.016 91.0071C117.843 90.1527 117.344 89.3042 116.542 88.9447C115.952 88.6776 115.27 88.7032 114.626 88.6167C111.66 88.2239 109.605 85.537 108.013 83.0053C106.421 80.4735 104.713 77.6727 101.875 76.7299C100.989 76.4648 100.07 76.324 99.1454 76.3116C97.0995 76.2271 94.9928 76.3941 93.1297 77.2426C89.6571 78.8237 86.9057 84.0188 88.2578 87.727Z" fill="#61A199"/>
<path opacity="0.1" d="M145.259 64.2618L141.525 57.792C140.574 58.9666 139.485 60.0218 138.28 60.9346C138.225 60.9897 138.158 61.0322 138.085 61.0594C138.012 61.0865 137.933 61.0975 137.855 61.0917C137.696 61.0524 137.608 60.8835 137.545 60.7303C137.163 59.8112 136.881 58.8538 136.704 57.8745C136.382 58.519 135.917 59.0809 135.343 59.5168C134.77 59.9527 134.104 60.251 133.396 60.3886V56.8532C130.814 58.2104 129.902 61.3608 128.518 63.924C128.308 64.3168 128.059 64.7194 127.654 64.906C127.318 65.0222 126.959 65.0546 126.608 65.0003L123.464 64.7666C123.331 65.8843 123.063 66.9818 122.666 68.0349C121.719 66.5779 120.404 65.3962 118.854 64.6086C117.304 63.8211 115.574 63.4556 113.838 63.5488C112.122 63.6627 110.185 64.5152 109.85 66.2023L109.683 66.0177C110 66.5304 109.29 67.1785 108.701 67.045C108.111 66.9114 107.736 66.3536 107.441 65.8292C106.051 63.3511 105.135 60.6353 104.743 57.8215C104.564 56.5487 104.491 55.2406 104.027 54.0425C103.748 53.3217 103.334 52.6559 103.114 51.9154C103.114 51.8899 103.1 51.8663 103.094 51.8408C103.076 51.9881 103.058 52.1354 103.043 52.2827C102.915 53.3944 102.797 54.5394 103.114 55.6217C103.334 56.3621 103.748 57.028 104.027 57.7468C104.491 58.9469 104.564 60.2531 104.743 61.5278C105.135 64.3411 106.05 67.0563 107.441 69.5335C107.736 70.0579 108.113 70.6177 108.701 70.7512C109.288 70.8848 109.994 70.2366 109.683 69.724L109.85 69.9067C110.185 68.2215 112.122 67.3671 113.838 67.2551C115.574 67.161 117.304 67.526 118.854 68.3133C120.404 69.1005 121.719 70.2822 122.666 71.7392C123.064 70.6868 123.332 69.59 123.464 68.4729L126.608 68.7046C126.959 68.7595 127.318 68.7272 127.654 68.6104C128.059 68.4297 128.308 68.0211 128.518 67.6283C129.894 65.0592 130.814 61.9108 133.396 60.5575V64.0929C134.104 63.9553 134.77 63.6571 135.343 63.2211C135.917 62.7852 136.382 62.2233 136.704 61.5788C136.881 62.558 137.163 63.5154 137.545 64.4346C137.608 64.5859 137.696 64.7568 137.855 64.7941C137.933 64.8006 138.012 64.7902 138.085 64.7634C138.158 64.7366 138.225 64.6941 138.28 64.6389C139.485 63.7262 140.574 62.671 141.525 61.4963L145.259 67.9661C146.605 64.533 147.159 60.8404 146.88 57.1635C146.699 59.5976 146.153 61.9905 145.259 64.2618Z" fill="black"/>
</g>
<defs>
<clipPath id="clip0">
<rect width="215" height="159.364" fill="white"/>
</clipPath>
</defs>
</svg>
