<svg width="242" height="125" viewBox="0 0 242 125" fill="none" xmlns="http://www.w3.org/2000/svg">
<g clip-path="url(#clip0)">
<path d="M152.949 69.7249H72.0337V125H152.949V69.7249Z" fill="#61A199"/>
<path d="M157.462 63.2595H77.8367C77.5802 63.2599 77.3343 63.3623 77.153 63.5441C76.9716 63.726 76.8695 63.9725 76.8691 64.2297V118.211C76.8691 118.339 76.8942 118.465 76.9428 118.583C76.9914 118.7 77.0627 118.807 77.1525 118.897C77.2424 118.987 77.349 119.059 77.4664 119.108C77.5838 119.156 77.7096 119.181 77.8367 119.181H157.462C157.589 119.181 157.715 119.156 157.832 119.108C157.95 119.059 158.056 118.987 158.146 118.897C158.236 118.807 158.307 118.7 158.356 118.583C158.404 118.465 158.429 118.339 158.429 118.211V64.2297C158.429 63.9725 158.327 63.726 158.146 63.5441C157.964 63.3623 157.718 63.2599 157.462 63.2595ZM157.784 118.211C157.785 118.254 157.776 118.296 157.76 118.335C157.744 118.374 157.72 118.41 157.69 118.44C157.66 118.47 157.625 118.494 157.585 118.51C157.546 118.527 157.504 118.535 157.462 118.535H77.8367C77.7943 118.535 77.7523 118.527 77.7131 118.51C77.6739 118.494 77.6383 118.47 77.6083 118.44C77.5784 118.41 77.5546 118.374 77.5385 118.335C77.5223 118.296 77.514 118.254 77.5142 118.211V64.2297C77.5143 64.144 77.5483 64.0618 77.6088 64.0012C77.6692 63.9405 77.7512 63.9064 77.8367 63.9063H157.462C157.547 63.9064 157.629 63.9405 157.69 64.0012C157.75 64.0618 157.784 64.144 157.784 64.2297V118.211Z" fill="#3F3D56"/>
<path d="M117.017 101.403H81.5309C81.2709 101.403 81.0601 101.614 81.0601 101.875V105.133C81.0601 105.394 81.2709 105.605 81.5309 105.605H117.017C117.277 105.605 117.488 105.394 117.488 105.133V101.875C117.488 101.614 117.277 101.403 117.017 101.403Z" fill="#3F3D56"/>
<path d="M150.691 97.8475H139.088C138.961 97.8475 138.835 97.8726 138.717 97.9214C138.6 97.9701 138.493 98.0416 138.404 98.1317C138.314 98.2218 138.242 98.3287 138.194 98.4464C138.145 98.5641 138.12 98.6903 138.12 98.8177V107.868C138.12 107.995 138.145 108.121 138.194 108.239C138.242 108.357 138.314 108.464 138.403 108.554C138.493 108.644 138.6 108.715 138.717 108.764C138.835 108.813 138.961 108.838 139.088 108.838H150.691C150.818 108.838 150.944 108.813 151.061 108.764C151.179 108.715 151.285 108.644 151.375 108.554C151.465 108.464 151.536 108.357 151.585 108.239C151.634 108.121 151.659 107.995 151.659 107.868V98.8177C151.659 98.6903 151.634 98.5641 151.585 98.4464C151.536 98.3287 151.465 98.2218 151.375 98.1317C151.285 98.0416 151.179 97.9701 151.061 97.9214C150.944 97.8726 150.818 97.8475 150.691 97.8475ZM151.014 107.868C151.013 107.953 150.979 108.036 150.919 108.096C150.859 108.157 150.777 108.191 150.691 108.191H139.088C139.002 108.191 138.92 108.157 138.86 108.096C138.799 108.036 138.765 107.953 138.765 107.868V98.8177C138.765 98.7752 138.773 98.7331 138.789 98.6938C138.806 98.6545 138.829 98.6188 138.859 98.5887C138.889 98.5587 138.925 98.5349 138.964 98.5186C139.003 98.5024 139.045 98.4942 139.088 98.4943H150.691C150.733 98.4942 150.775 98.5024 150.815 98.5186C150.854 98.5349 150.889 98.5587 150.919 98.5887C150.949 98.6188 150.973 98.6545 150.989 98.6938C151.005 98.7331 151.014 98.7752 151.014 98.8177V107.868Z" fill="#3F3D56"/>
<path d="M148.374 99.9358H141.405C141.145 99.9358 140.935 100.147 140.935 100.408V101.105C140.935 101.366 141.145 101.577 141.405 101.577H148.374C148.634 101.577 148.845 101.366 148.845 101.105V100.408C148.845 100.147 148.634 99.9358 148.374 99.9358Z" fill="#3F3D56"/>
<path d="M148.374 102.522H141.405C141.145 102.522 140.935 102.733 140.935 102.994V103.691C140.935 103.951 141.145 104.163 141.405 104.163H148.374C148.634 104.163 148.845 103.951 148.845 103.691V102.994C148.845 102.733 148.634 102.522 148.374 102.522Z" fill="#3F3D56"/>
<path d="M148.374 105.108H141.405C141.145 105.108 140.935 105.319 140.935 105.58V106.277C140.935 106.537 141.145 106.749 141.405 106.749H148.374C148.634 106.749 148.845 106.537 148.845 106.277V105.58C148.845 105.319 148.634 105.108 148.374 105.108Z" fill="#3F3D56"/>
<path d="M98.3198 67.139H82.4982C82.2381 67.139 82.0273 67.3503 82.0273 67.6111V73.7782C82.0273 74.039 82.2381 74.2503 82.4982 74.2503H98.3198C98.5799 74.2503 98.7907 74.039 98.7907 73.7782V67.6111C98.7907 67.3503 98.5799 67.139 98.3198 67.139Z" fill="#3F3D56"/>
<path d="M91.6986 70.6946C91.6986 71.9443 91.1213 72.9574 90.4091 72.9574C89.6969 72.9574 89.1196 71.9443 89.1196 70.6946C89.1196 69.445 90.4091 68.4319 90.4091 68.4319C90.4091 68.4319 91.6986 69.445 91.6986 70.6946Z" fill="#61A199"/>
<path d="M212.339 38.2012H211.868V90.9846H158.43V91.4567H212.339V38.2012Z" fill="#3F3D56"/>
<path d="M72.0335 91.4567H18.1245V38.2012H18.5953V90.9846H72.0335V91.4567Z" fill="#3F3D56"/>
<path d="M241.849 8.92485H241.547V8.3954H241.773C241.813 8.3954 241.852 8.37947 241.88 8.3511C241.908 8.32273 241.924 8.28426 241.924 8.24414V5.52131C241.924 5.48119 241.908 5.44271 241.88 5.41434C241.852 5.38597 241.813 5.37004 241.773 5.37004H241.547V3.82369C241.547 3.39108 241.462 2.96271 241.297 2.56303C241.132 2.16335 240.89 1.80019 240.585 1.49429C240.28 1.18839 239.917 0.945741 239.519 0.780191C239.12 0.614641 238.693 0.529437 238.262 0.529442H237.926V0.151268C237.926 0.111149 237.91 0.0726738 237.882 0.0443056C237.854 0.0159375 237.815 6.26018e-07 237.775 0H235.06C235.02 6.26018e-07 234.982 0.0159375 234.953 0.0443056C234.925 0.0726738 234.909 0.111149 234.909 0.151268V0.529442H185.846C185.414 0.529437 184.987 0.614641 184.589 0.780191C184.19 0.945741 183.828 1.18839 183.523 1.49429C183.218 1.80019 182.976 2.16335 182.811 2.56303C182.646 2.96271 182.561 3.39108 182.561 3.82369V73.9283C182.561 74.3609 182.646 74.7893 182.811 75.189C182.976 75.5886 183.218 75.9518 183.523 76.2577C183.828 76.5636 184.19 76.8063 184.589 76.9718C184.987 77.1374 185.414 77.2226 185.846 77.2226H238.262C238.693 77.2226 239.12 77.1374 239.519 76.9718C239.917 76.8063 240.28 76.5636 240.585 76.2577C240.89 75.9518 241.132 75.5886 241.297 75.189C241.462 74.7893 241.547 74.3609 241.547 73.9283V11.9502H241.849C241.889 11.9502 241.927 11.9343 241.955 11.9059C241.984 11.8775 242 11.8391 242 11.7989V9.07611C242 9.05625 241.996 9.03658 241.988 9.01822C241.98 8.99987 241.969 8.9832 241.955 8.96915C241.941 8.9551 241.925 8.94396 241.906 8.93636C241.888 8.92876 241.869 8.92485 241.849 8.92485Z" fill="#3F3D56"/>
<path d="M238.837 2.68427H185.725C185.477 2.68427 185.276 2.88557 185.276 3.13389V74.0887C185.276 74.337 185.477 74.5383 185.725 74.5383H238.837C239.084 74.5383 239.285 74.337 239.285 74.0887V3.13389C239.285 2.88557 239.084 2.68427 238.837 2.68427Z" fill="#D0CDE1"/>
<path d="M214.873 37.8993H206.549C206.289 37.8993 206.079 38.1107 206.079 38.3714V40.1802C206.079 40.4409 206.289 40.6523 206.549 40.6523H214.873C215.133 40.6523 215.344 40.4409 215.344 40.1802V38.3714C215.344 38.1107 215.133 37.8993 214.873 37.8993Z" fill="#3F3D56"/>
<path d="M226.073 16.4651H195.348C195.088 16.4651 194.877 16.6765 194.877 16.9372V17.1729C194.877 17.4336 195.088 17.645 195.348 17.645H226.073C226.333 17.645 226.544 17.4336 226.544 17.1729V16.9372C226.544 16.6765 226.333 16.4651 226.073 16.4651Z" fill="#3F3D56"/>
<path d="M226.073 20.2014H195.348C195.088 20.2014 194.877 20.4128 194.877 20.6735V20.9092C194.877 21.1699 195.088 21.3813 195.348 21.3813H226.073C226.333 21.3813 226.544 21.1699 226.544 20.9092V20.6735C226.544 20.4128 226.333 20.2014 226.073 20.2014Z" fill="#3F3D56"/>
<path d="M226.073 23.9376H195.348C195.088 23.9376 194.877 24.149 194.877 24.4097V24.6454C194.877 24.9061 195.088 25.1175 195.348 25.1175H226.073C226.333 25.1175 226.544 24.9061 226.544 24.6454V24.4097C226.544 24.149 226.333 23.9376 226.073 23.9376Z" fill="#3F3D56"/>
<path d="M226.073 27.6738H195.348C195.088 27.6738 194.877 27.8852 194.877 28.1459V28.3816C194.877 28.6423 195.088 28.8537 195.348 28.8537H226.073C226.333 28.8537 226.544 28.6423 226.544 28.3816V28.1459C226.544 27.8852 226.333 27.6738 226.073 27.6738Z" fill="#3F3D56"/>
<path d="M226.073 31.41H195.348C195.088 31.41 194.877 31.6214 194.877 31.8821V32.1178C194.877 32.3785 195.088 32.5899 195.348 32.5899H226.073C226.333 32.5899 226.544 32.3785 226.544 32.1178V31.8821C226.544 31.6214 226.333 31.41 226.073 31.41Z" fill="#3F3D56"/>
<path d="M209.59 71.7012C215.022 71.7012 219.426 67.2858 219.426 61.8392C219.426 56.3926 215.022 51.9772 209.59 51.9772C204.158 51.9772 199.755 56.3926 199.755 61.8392C199.755 67.2858 204.158 71.7012 209.59 71.7012Z" fill="#61A199"/>
<path d="M212.489 69.446C210.05 69.446 207.666 68.7208 205.638 67.3622C203.61 66.0036 202.03 64.0725 201.096 61.8131C200.163 59.5538 199.919 57.0677 200.395 54.6692C200.87 52.2707 202.045 50.0675 203.769 48.3383C205.494 46.6091 207.691 45.4315 210.083 44.9544C212.475 44.4773 214.955 44.7222 217.208 45.658C219.461 46.5938 221.387 48.1787 222.742 50.212C224.097 52.2453 224.82 54.6359 224.82 57.0814C224.817 60.3596 223.516 63.5024 221.204 65.8204C218.893 68.1384 215.758 69.4423 212.489 69.446ZM212.489 45.1664C210.139 45.1664 207.841 45.8652 205.887 47.1745C203.933 48.4837 202.41 50.3446 201.511 52.5217C200.611 54.6989 200.376 57.0946 200.834 59.4059C201.293 61.7172 202.425 63.8402 204.087 65.5066C205.748 67.1729 207.866 68.3077 210.171 68.7674C212.476 69.2272 214.865 68.9912 217.036 68.0894C219.208 67.1876 221.063 65.6604 222.369 63.701C223.675 61.7416 224.372 59.438 224.372 57.0814C224.368 53.9224 223.115 50.8939 220.888 48.6602C218.66 46.4264 215.639 45.17 212.489 45.1664Z" fill="#3F3D56"/>
<path d="M36.6044 20.7512H36.2011V9.67158C36.2011 8.82947 36.0357 7.99559 35.7143 7.21758C35.3929 6.43956 34.9218 5.73264 34.3279 5.13718C33.7341 4.54171 33.029 4.06936 32.2531 3.7471C31.4772 3.42483 30.6456 3.25897 29.8057 3.25897H6.39532C5.55548 3.25897 4.72386 3.42483 3.94794 3.7471C3.17202 4.06936 2.46701 4.54171 1.87315 5.13718C1.27929 5.73264 0.808209 6.43957 0.486814 7.21758C0.16542 7.9956 -9.27436e-07 8.82947 0 9.67158V70.4555C-9.27439e-07 71.2976 0.165419 72.1314 0.486814 72.9095C0.80821 73.6875 1.27929 74.3944 1.87315 74.9899C2.46701 75.5853 3.17203 76.0577 3.94794 76.38C4.72386 76.7022 5.55548 76.8681 6.39533 76.8681H29.8058C30.6456 76.8681 31.4772 76.7022 32.2531 76.38C33.0291 76.0577 33.7341 75.5853 34.3279 74.9899C34.9218 74.3944 35.3929 73.6875 35.7143 72.9095C36.0357 72.1314 36.2011 71.2976 36.2011 70.4555V28.6379H36.6044V20.7512Z" fill="#3F3D56"/>
<path d="M34.8391 10.0485V70.7438C34.8393 72.0139 34.3363 73.2321 33.4408 74.1303C32.5452 75.0286 31.3305 75.5334 30.0638 75.5336H6.54038C5.27368 75.5334 4.05896 75.0286 3.16343 74.1303C2.2679 73.2321 1.76492 72.0139 1.76514 70.7438V10.0485C1.76527 8.77866 2.26842 7.56086 3.16392 6.66294C4.05942 5.76501 5.27395 5.26051 6.54038 5.26038H9.39432C9.25387 5.60582 9.2003 5.98059 9.23832 6.35169C9.27635 6.72278 9.4048 7.0788 9.61237 7.38839C9.81994 7.69798 10.1002 7.95164 10.4286 8.12702C10.757 8.3024 11.1233 8.39411 11.4954 8.39409H24.9071C25.2791 8.39412 25.6454 8.30241 25.9738 8.12703C26.3022 7.95165 26.5825 7.698 26.7901 7.3884C26.9976 7.07881 27.1261 6.72279 27.1641 6.35169C27.2021 5.98059 27.1485 5.60582 27.0081 5.26038H30.0638C31.3303 5.26051 32.5448 5.76502 33.4403 6.66294C34.3358 7.56086 34.8389 8.77866 34.8391 10.0485Z" fill="#D0CDE1"/>
<path d="M20.9821 41.0186H15.6222C15.3622 41.0186 15.1514 41.23 15.1514 41.4907V42.419C15.1514 42.6797 15.3622 42.8911 15.6222 42.8911H20.9821C21.2421 42.8911 21.4529 42.6797 21.4529 42.419V41.4907C21.4529 41.23 21.2421 41.0186 20.9821 41.0186Z" fill="#3F3D56"/>
<path d="M28.6712 26.4401H7.93336C7.71236 26.4401 7.5332 26.6198 7.5332 26.8414C7.5332 27.063 7.71236 27.2426 7.93336 27.2426H28.6712C28.8922 27.2426 29.0714 27.063 29.0714 26.8414C29.0714 26.6198 28.8922 26.4401 28.6712 26.4401Z" fill="#3F3D56"/>
<path d="M28.6712 28.9814H7.93336C7.71236 28.9814 7.5332 29.161 7.5332 29.3826C7.5332 29.6042 7.71236 29.7839 7.93336 29.7839H28.6712C28.8922 29.7839 29.0714 29.6042 29.0714 29.3826C29.0714 29.161 28.8922 28.9814 28.6712 28.9814Z" fill="#3F3D56"/>
<path d="M28.6712 31.5225H7.93336C7.71236 31.5225 7.5332 31.7022 7.5332 31.9238C7.5332 32.1454 7.71236 32.325 7.93336 32.325H28.6712C28.8922 32.325 29.0714 32.1454 29.0714 31.9238C29.0714 31.7022 28.8922 31.5225 28.6712 31.5225Z" fill="#3F3D56"/>
<path d="M28.6712 34.0637H7.93336C7.71236 34.0637 7.5332 34.2434 7.5332 34.465C7.5332 34.6866 7.71236 34.8662 7.93336 34.8662H28.6712C28.8922 34.8662 29.0714 34.6866 29.0714 34.465C29.0714 34.2434 28.8922 34.0637 28.6712 34.0637Z" fill="#3F3D56"/>
<path d="M28.6712 36.605H7.93336C7.71236 36.605 7.5332 36.7846 7.5332 37.0062C7.5332 37.2278 7.71236 37.4075 7.93336 37.4075H28.6712C28.8922 37.4075 29.0714 37.2278 29.0714 37.0062C29.0714 36.7846 28.8922 36.605 28.6712 36.605Z" fill="#3F3D56"/>
<path d="M16.4494 67.313C20.1954 67.313 23.2322 64.268 23.2322 60.5118C23.2322 56.7556 20.1954 53.7106 16.4494 53.7106C12.7033 53.7106 9.6665 56.7556 9.6665 60.5118C9.6665 64.268 12.7033 67.313 16.4494 67.313Z" fill="#61A199"/>
<path d="M18.4485 65.7577C16.7665 65.7577 15.1223 65.2576 13.7238 64.3206C12.3253 63.3837 11.2353 62.0519 10.5917 60.4938C9.94802 58.9357 9.77961 57.2212 10.1077 55.5671C10.4359 53.913 11.2458 52.3936 12.4351 51.201C13.6245 50.0085 15.1397 49.1964 16.7894 48.8673C18.439 48.5383 20.1489 48.7072 21.7028 49.3526C23.2568 49.998 24.5849 51.0909 25.5194 52.4932C26.4538 53.8955 26.9526 55.5441 26.9526 57.2306C26.95 59.4914 26.0532 61.6588 24.459 63.2574C22.8647 64.8559 20.7031 65.7552 18.4485 65.7577ZM18.4485 49.0136C16.8277 49.0136 15.2433 49.4955 13.8956 50.3984C12.548 51.3013 11.4976 52.5846 10.8774 54.0861C10.2571 55.5876 10.0949 57.2397 10.4111 58.8337C10.7273 60.4276 11.5077 61.8918 12.6538 63.0409C13.7999 64.1901 15.2601 64.9727 16.8497 65.2898C18.4394 65.6068 20.0871 65.4441 21.5845 64.8222C23.0819 64.2002 24.3618 63.147 25.2622 61.7957C26.1627 60.4445 26.6433 58.8558 26.6433 57.2306C26.6409 55.0521 25.7767 52.9635 24.2404 51.423C22.7041 49.8825 20.6211 49.016 18.4485 49.0136Z" fill="#3F3D56"/>
<path d="M41.3156 88.5624H34.7241V95.1717H41.3156V88.5624Z" fill="#D0CDE1"/>
<path d="M45.3174 91.395H37.3135V83.3694H45.3174V91.395ZM37.6615 91.046H44.9694V83.7183H37.6615V91.046Z" fill="#3F3D56"/>
<path d="M188.918 88.5624H182.327V95.1717H188.918V88.5624Z" fill="#D0CDE1"/>
<path d="M192.92 91.395H184.916V83.3694H192.92V91.395ZM185.264 91.046H192.572V83.7183H185.264V91.046Z" fill="#3F3D56"/>
</g>
<defs>
<clipPath id="clip0">
<rect width="242" height="125" fill="white"/>
</clipPath>
</defs>
</svg>
