<svg width="246" height="131" viewBox="0 0 246 131" fill="none" xmlns="http://www.w3.org/2000/svg">
<g clip-path="url(#clip0)">
<path opacity="0.1" d="M123 131C190.931 131 246 113.828 246 92.6462C246 71.464 190.931 54.2924 123 54.2924C55.069 54.2924 0 71.464 0 92.6462C0 113.828 55.069 131 123 131Z" fill="#61A199"/>
<g opacity="0.8">
<path opacity="0.8" d="M89.3882 7.80908C91.4734 10.7316 93.0731 19.2431 93.519 21.8078L97.2464 21.7318C97.0535 19.5284 92.7174 10.5658 91.512 8.10668C90.8412 8.00158 90.1253 7.89893 89.3882 7.80908Z" fill="#65617D"/>
<path opacity="0.8" d="M42.8691 5.9075L42.8252 8.23193L44.4762 8.2631L44.5201 5.93866L42.8691 5.9075Z" fill="#DCE0ED"/>
<path opacity="0.1" d="M42.8693 5.90747L42.855 6.66431C42.971 6.69982 43.0915 6.7184 43.2129 6.71949L44.5052 6.73288L44.5203 5.93863L42.8693 5.90747Z" fill="black"/>
<path opacity="0.8" d="M45.3289 0.0297509L43.77 0.000326845C43.3978 -0.00662924 43.0319 0.0975862 42.7192 0.299643C42.4065 0.501699 42.1613 0.792404 42.0148 1.13456C41.537 2.2491 41.1169 4.02779 42.0989 5.82815C42.2086 6.0293 42.37 6.19756 42.5664 6.31559C42.7629 6.43361 42.9873 6.49713 43.2165 6.4996L45.2062 6.52013L45.3289 0.0297509Z" fill="#DCE0ED"/>
<path opacity="0.8" d="M46.9371 3.30648C46.9709 1.51421 46.251 0.0471851 45.3291 0.0297821C44.4071 0.0123791 43.6323 1.45119 43.5984 3.24346C43.5646 5.03573 44.2845 6.50276 45.2064 6.52016C46.1284 6.53756 46.9032 5.09875 46.9371 3.30648Z" fill="#F0F0F4"/>
<path opacity="0.8" d="M57.5346 6.21183L57.4961 8.24695L59.1471 8.27811L59.1855 6.243L57.5346 6.21183Z" fill="#DCE0ED"/>
<path opacity="0.1" d="M57.5347 6.21179L57.5225 6.85863C57.6385 6.89414 57.759 6.91272 57.8804 6.91381L59.1727 6.92719L59.1857 6.24296L57.5347 6.21179Z" fill="black"/>
<path opacity="0.8" d="M59.9949 0.334072L58.4361 0.304648C58.0638 0.297692 57.6979 0.40191 57.3852 0.603967C57.0725 0.806024 56.8273 1.09673 56.6808 1.43888C56.2031 2.55342 55.7829 4.33211 56.7649 6.13247C56.8746 6.33362 57.036 6.50188 57.2324 6.61991C57.4289 6.73793 57.6533 6.80146 57.8825 6.80392L59.8722 6.82445L59.9949 0.334072Z" fill="#DCE0ED"/>
<path opacity="0.8" d="M61.6026 3.6108C61.6364 1.81853 60.9165 0.351509 59.9946 0.334109C59.0726 0.316709 58.2978 1.75552 58.2639 3.54779C58.2301 5.34005 58.95 6.80707 59.8719 6.82447C60.7939 6.84187 61.5687 5.40306 61.6026 3.6108Z" fill="#F0F0F4"/>
<path opacity="0.8" d="M59.5557 1.51257C59.5557 1.51257 60.1696 1.62267 59.834 2.429C59.6567 2.8206 59.5249 3.23126 59.4413 3.65291C59.4413 3.65291 58.8195 3.96131 58.8641 2.90322C58.9087 1.84513 59.5557 1.51257 59.5557 1.51257Z" fill="#DCE0ED"/>
<path opacity="0.8" d="M130.986 49.2507C131.098 43.3575 126.827 38.4978 121.447 38.3962C116.068 38.2947 111.616 42.9897 111.505 48.883C111.393 54.7762 115.664 59.6359 121.044 59.7375C126.424 59.839 130.875 55.1439 130.986 49.2507Z" fill="#636780"/>
<path opacity="0.1" d="M117.785 38.9929C122.876 39.4318 126.826 44.1445 126.719 49.8148C126.633 54.3855 123.936 58.2347 120.22 59.6852C115.129 59.2463 111.179 54.5336 111.286 48.8633C111.372 44.2926 114.069 40.4434 117.785 38.9929Z" fill="black"/>
<path opacity="0.8" d="M53.3545 24.4555C53.462 18.7648 50.0094 14.0847 45.6429 14.0023C41.2764 13.9199 37.6494 18.4663 37.5419 24.157C37.4343 29.8477 40.8869 34.5278 45.2535 34.6102C49.62 34.6926 53.247 30.1462 53.3545 24.4555Z" fill="#636780"/>
<path opacity="0.1" d="M47.8449 14.4757C51.1002 15.7936 53.4198 19.7893 53.3314 24.4693C53.2369 29.4704 50.424 33.5872 46.7799 34.4557C43.5246 33.1378 41.205 29.1421 41.2935 24.4621C41.388 19.4609 44.2008 15.3441 47.8449 14.4757Z" fill="black"/>
<path opacity="0.8" d="M75.1889 22.6668L75.1128 18.9238C75.1128 18.9238 75.877 17.3242 76.6136 17.1914C77.3501 17.0586 79.0395 16.9988 79.0395 16.9988C79.0395 16.9988 80.2587 22.3957 79.3477 23.9925C78.4367 25.5893 75.1889 22.6668 75.1889 22.6668Z" fill="#65617D"/>
<path opacity="0.1" d="M75.1889 22.6668L75.1128 18.9238C75.1128 18.9238 75.877 17.3242 76.6136 17.1914C77.3501 17.0586 79.0395 16.9988 79.0395 16.9988C79.0395 16.9988 80.2587 22.3957 79.3477 23.9925C78.4367 25.5893 75.1889 22.6668 75.1889 22.6668Z" fill="black"/>
<path opacity="0.8" d="M88.7346 22.519C88.7346 22.519 89.2875 17.3413 86.4371 17.1942C86.0704 17.1752 85.7036 17.1595 85.3388 17.1172C83.3658 16.8886 77.9835 16.3712 78.6059 17.6141C78.6059 17.6141 79.8048 22.1486 78.9028 23.2687L88.7346 22.519Z" fill="#65617D"/>
<path opacity="0.8" d="M48.1405 31.3726L44.3137 31.4104C44.3137 31.4104 43.7863 24.3575 43.5766 23.8033C43.3669 23.2491 43.3067 20.6069 44.0294 20.2354C44.7521 19.8639 47.1548 19.4415 47.1548 19.4415L48.84 23.49L48.909 27.1228L48.1405 31.3726Z" fill="#65617D"/>
<path opacity="0.1" d="M48.1405 31.3726L44.3137 31.4104C44.3137 31.4104 43.7863 24.3575 43.5766 23.8033C43.3669 23.2491 43.3067 20.6069 44.0294 20.2354C44.7521 19.8639 47.1548 19.4415 47.1548 19.4415L48.84 23.49L48.909 27.1228L48.1405 31.3726Z" fill="black"/>
<path opacity="0.8" d="M57.6073 19.8588L57.6392 19.0751C57.6417 19.0133 57.6315 18.9517 57.6093 18.894C57.587 18.8363 57.5531 18.7837 57.5097 18.7396C57.4664 18.6955 57.4144 18.6608 57.3571 18.6375C57.2997 18.6143 57.2382 18.603 57.1764 18.6045C55.2791 18.6487 48.3751 18.8487 47.1554 19.4415C47.1554 19.4415 48.2906 29.2845 46.7881 31.5946L47.1347 39.4694L64.0536 38.5232L57.6073 19.8588Z" fill="#65617D"/>
<path opacity="0.1" d="M59.1625 7.48497C58.6945 7.42991 58.1375 7.36878 57.5143 7.30859L57.4966 8.24695L59.1476 8.27811L59.1625 7.48497Z" fill="black"/>
<path opacity="0.1" d="M42.8274 8.11316L42.8252 8.23197L44.4762 8.26314L44.4897 7.54919C43.9142 7.66726 43.3558 7.85672 42.8274 8.11316Z" fill="black"/>
<path opacity="0.8" d="M34.103 31.3551L36.5975 31.4386L41.93 22.1721L42.8201 20.6251L42.2345 16.6526L41.7092 17.6023L34.103 31.3551Z" fill="#DCE0ED"/>
<path opacity="0.8" d="M56.8838 20.2667L57.8817 21.8262L61.0309 17.7347L62.4722 15.8602L61.6497 14.7081L60.9887 15.4791L56.8838 20.2667Z" fill="#DCE0ED"/>
<path opacity="0.1" d="M60.9886 15.4791C60.9827 15.5582 60.9768 15.6395 60.9697 15.7219L61.0308 17.7347L62.4722 15.8603L61.6495 14.708L60.9886 15.4791Z" fill="black"/>
<path opacity="0.1" d="M41.709 17.6023L41.9298 22.1721L42.82 20.6251L42.2343 16.6526L41.709 17.6023Z" fill="black"/>
<path opacity="0.8" d="M63.8543 18.4545C63.8543 18.4545 65.2599 9.28073 60.8014 7.82098C60.7442 7.80261 60.6854 7.78937 60.6258 7.7814C59.5962 7.63739 49.9959 6.3471 44.9753 7.5704C44.9753 7.5704 41.5536 8.01936 41.5557 9.85349L42.6365 32.2865L45.0946 32.3329L44.5674 17.5035C44.5674 17.5035 43.5153 11.0276 45.4681 10.6243C47.4209 10.221 56.2766 9.6545 59.3785 10.5934C59.3785 10.5934 61.6629 10.123 61.19 15.7264L61.2799 18.736L63.8543 18.4545Z" fill="#DCE0ED"/>
<path opacity="0.8" d="M56.3185 21.0451C56.3025 20.802 56.3496 20.5589 56.455 20.3393C56.5604 20.1196 56.7206 19.9308 56.9202 19.791C57.618 19.2814 59.758 18.1938 59.758 18.1938L60.4449 18.2618L62.4119 23.4161L62.0691 34.2766L58.2676 38.7993L56.3185 21.0451Z" fill="#65617D"/>
<path opacity="0.1" d="M56.3185 21.0451C56.3025 20.802 56.3496 20.5589 56.455 20.3393C56.5604 20.1196 56.7206 19.9308 56.9202 19.791C57.618 19.2814 59.758 18.1938 59.758 18.1938L60.4449 18.2618L62.4119 23.4161L62.0691 34.2766L58.2676 38.7993L56.3185 21.0451Z" fill="black"/>
<path opacity="0.8" d="M70.9253 32.7104L71.0626 21.5617C71.0626 21.5617 71.4745 17.241 68.8894 17.1189C68.8894 17.1189 62.7882 17.0481 60.1225 17.8581C60.0384 17.8834 59.9609 17.9271 59.8957 17.9861C59.8306 18.0451 59.7794 18.1179 59.7459 18.1991C59.7124 18.2803 59.6974 18.368 59.702 18.4557C59.7066 18.5435 59.7307 18.6291 59.7725 18.7063C60.2828 19.6343 61.1267 22.081 61.4384 28.3221L61.3121 35.005L70.9253 32.7104Z" fill="#65617D"/>
<path opacity="0.8" d="M57.9224 39.5904L69.0262 39.5414L69.0372 39.5416L74.4943 39.5182L73.9992 32.2183L70.9703 32.2712L61.299 34.2344L58.2675 38.7992L57.9224 39.5904Z" fill="#65617D"/>
<path opacity="0.1" d="M57.9224 39.5904L69.0262 39.5414L69.0372 39.5416L74.4943 39.5182L73.9992 32.2183L70.9703 32.2712L61.299 34.2344L58.2675 38.7992L57.9224 39.5904Z" fill="black"/>
<path opacity="0.8" d="M57.9224 39.5905L69.0262 39.5415L69.3011 34.6607L61.299 34.2345L58.2675 38.7992L57.9224 39.5905Z" fill="#65617D"/>
<path opacity="0.1" d="M69.0371 39.5417L74.4943 39.5181L73.9992 32.2183C73.9992 32.2183 72.2417 34.9087 69.3011 34.6606L69.0371 39.5417Z" fill="white"/>
<path opacity="0.8" d="M29.7769 44.6991C29.9576 46.7933 31.4497 46.4914 31.4497 46.4914L31.7275 46.4713L34.4817 46.2735L34.4329 43.0262C33.5009 42.9551 32.5638 42.9936 31.6407 43.1408C30.6054 43.3347 29.6965 43.7688 29.7769 44.6991Z" fill="#DCE0ED"/>
<path opacity="0.1" d="M29.7769 44.699C29.9576 46.7933 31.4497 46.4913 31.4497 46.4913L31.7275 46.4713C32.0344 46.0084 32.1972 45.465 32.1952 44.9097C32.2303 44.2725 32.0333 43.6441 31.6407 43.1407C30.6054 43.3347 29.6965 43.7687 29.7769 44.699Z" fill="black"/>
<path opacity="0.8" d="M68.1509 24.1663C68.0868 27.5584 70.0717 30.3467 72.5842 30.3942C75.0967 30.4416 77.1855 27.7302 77.2496 24.338C77.3137 20.9459 75.3289 18.1575 72.8163 18.1101C70.3038 18.0627 68.215 20.7741 68.1509 24.1663ZM69.8677 24.6022C69.9142 22.1416 71.5041 20.1762 73.4189 20.2123C75.3337 20.2485 76.8482 22.2725 76.8017 24.7331C76.7552 27.1936 75.1653 29.159 73.2505 29.1229C71.3357 29.0867 69.8212 27.0627 69.8677 24.6022V24.6022Z" fill="#636780"/>
<path opacity="0.8" d="M72.444 26.1364L70.2766 28.1864L69.5415 26.3018L72.6574 24.5632L72.444 26.1364Z" fill="#636780"/>
<path opacity="0.8" d="M69.6983 5.39062L67.8413 5.5811L67.1387 6.38426L68.0922 11.0902L70.1635 18.6822L71.5183 23.8931L72.4809 27.0601L73.0533 31.2381L73.6504 34.1142L75.5671 36.1036L79.6281 31.4924L80.3089 29.9425L81.9322 26.7829L77.9302 24.819L73.5093 24.3449L71.5263 18.9684L69.95 12.753L69.6983 5.39062Z" fill="#61A199"/>
<path opacity="0.8" d="M106.753 28.4347L108.791 48.7951L78.3273 46.9361L82.0378 37.0287L87.98 33.3258L74.5479 33.2925L74.5799 27.7174L80.0318 26.6465L90.9815 25.9729L99.2066 25.7612L107.009 28.4764" fill="#65617D"/>
<path opacity="0.1" d="M106.753 28.4347L108.791 48.7951L78.3273 46.9361L82.0378 37.0287L87.98 33.3258L74.5479 33.2925L74.5799 27.7174L80.0318 26.6465L90.9815 25.9729L99.2066 25.7612L107.009 28.4764" fill="black"/>
<path opacity="0.8" d="M64.7179 47.8942C64.6225 52.9423 66.2137 57.5694 70.8797 57.1541C76.7551 57.1392 77.2915 53.1814 77.3869 48.1333C77.4823 43.0852 74.7173 39.2748 71.2188 39.2088C67.7203 39.1427 64.8133 42.8461 64.7179 47.8942Z" fill="#636780"/>
<path opacity="0.1" d="M64.6813 47.902C64.7551 43.9937 66.5145 40.8921 68.9286 39.7211C71.9882 40.3626 74.2823 43.9374 74.1953 48.543C74.1171 52.68 73.742 56.084 70.3757 57.1865C66.0706 57.2599 64.5891 52.7776 64.6813 47.902Z" fill="black"/>
<path opacity="0.8" d="M58.8845 39.8584L60.6366 41.9423L57.4236 41.3283L55.0559 39.0698L52.9881 34.7335L49.9948 32.8213L42.5518 33.69L35.6764 33.8206L33.1826 31.5213L36.0193 31.19L38.8859 31.1792L46.085 31.1523L54.6529 31.0861L56.3227 35.8057L57.5969 39.0526L58.8845 39.8584Z" fill="#61A199"/>
<path opacity="0.8" d="M34.0874 47.7517C34.2296 47.9744 39.0223 48.7989 39.0223 48.7989L52.257 51.4697L75.0715 52.2305L77.7924 50.0072L79.1943 50.2835L79.2513 50.2945L97.9763 53.9834L98.2832 53.9452L103.418 53.3125L130.238 50.0068L130.012 46.1201L129.878 43.8265L129.602 39.064L129.368 37.8116L126.99 37.5489L125.879 37.4256L108.549 35.5061L106.283 35.2553L105.013 35.1147L92.6438 33.1942L74.5485 33.2928L74.5801 27.7174L67.8417 5.58105C66.2596 5.80759 66.2758 6.87204 66.2758 6.87204L71.9742 27.7045L71.8075 40.4303C59.1171 41.4695 58.7609 38.704 56.739 39.5957L54.4638 31.8132L33.1829 31.5216C32.3194 32.532 34.0874 47.7517 34.0874 47.7517Z" fill="#65617D"/>
<path opacity="0.8" d="M87.0996 37.1975L80.0751 51.5544L77.7862 52.2444L77.2808 49.8876L79.964 41.9048L82.6568 37.2971L87.0996 37.1975Z" fill="#65617D"/>
<path opacity="0.15" d="M87.0996 37.1975L80.0751 51.5544L77.7862 52.2444L77.2808 49.8876L79.964 41.9048L82.6568 37.2971L87.0996 37.1975Z" fill="black"/>
<path opacity="0.8" d="M103.417 53.462C103.562 45.8069 98.2055 39.498 91.4533 39.3705C84.7011 39.2431 79.1101 45.3454 78.9655 53.0005C78.8209 60.6556 84.1774 66.9646 90.9296 67.0921C97.6818 67.2195 103.273 61.1171 103.417 53.462Z" fill="#636780"/>
<path opacity="0.1" d="M87.076 40.153C93.4656 40.7188 98.4196 46.8372 98.2804 54.2028C98.1683 60.1398 94.7797 65.1421 90.1145 67.0292C83.7249 66.4633 78.7709 60.345 78.9101 52.9794C79.0223 47.0423 82.4109 42.0401 87.076 40.153Z" fill="black"/>
<path opacity="0.8" d="M124.421 29.6123L124.972 32.4751L126.66 41.2457L134.636 40.6259C134.636 40.6259 135.141 39.1685 133.904 38.595C133.904 38.595 133.588 33.6226 132.146 32.0317C131.992 31.8505 131.796 31.7087 131.576 31.6181L124.421 29.6123Z" fill="#65617D"/>
<path opacity="0.1" d="M124.973 32.475L126.66 41.2456L134.637 40.6259C134.637 40.6259 135.141 39.1685 133.904 38.5949C133.904 38.5949 133.589 33.6226 132.147 32.0316L124.973 32.475Z" fill="white"/>
<path opacity="0.8" d="M106.466 30.0437C105.406 31.7471 107.6 47.6725 107.6 47.6725L127.217 44.814L126.782 30.9038C126.426 28.4023 124.964 28.082 124.964 28.082C118.132 24.4679 102.297 23.4349 102.297 23.4349C87.8314 23.7121 74.5796 27.7174 74.5796 27.7174C91.0634 25.4975 106.466 30.0437 106.466 30.0437Z" fill="#65617D"/>
<path opacity="0.1" d="M107.6 47.6724L127.217 44.8139L126.782 30.9037C126.426 28.4022 124.964 28.0819 124.964 28.0819C124.964 28.0819 110.718 26.455 106.466 30.0437C105.406 31.747 107.6 47.6724 107.6 47.6724Z" fill="black"/>
<path opacity="0.8" d="M109.685 46.7944L126.088 44.3493L125.729 32.4814C125.432 30.3472 124.21 30.0744 124.21 30.0744C124.21 30.0744 112.298 28.691 108.742 31.7541C107.856 33.2077 109.685 46.7944 109.685 46.7944Z" fill="#65617D"/>
<path opacity="0.1" d="M113.453 37.1081C113.495 34.8602 112.528 33.019 111.292 32.9956C110.056 32.9723 109.019 34.7757 108.977 37.0236C108.934 39.2716 109.902 41.1128 111.138 41.1361C112.374 41.1594 113.41 39.3561 113.453 37.1081Z" fill="black"/>
<path opacity="0.8" d="M113.454 36.9981C113.497 34.7502 112.529 32.909 111.293 32.8857C110.057 32.8623 109.021 34.6657 108.978 36.9136C108.936 39.1616 109.903 41.0028 111.139 41.0261C112.375 41.0495 113.412 39.2461 113.454 36.9981Z" fill="#DCE0ED"/>
<path opacity="0.8" d="M110.98 33.9435C110.98 33.9435 111.894 34.1075 111.394 35.3085C111.13 35.8918 110.934 36.5035 110.809 37.1316C110.809 37.1316 109.883 37.591 109.95 36.0149C110.016 34.4388 110.98 33.9435 110.98 33.9435Z" fill="#F0F0F4"/>
<path opacity="0.1" d="M125.333 35.7184C125.373 33.6178 124.469 31.8974 123.314 31.8756C122.159 31.8538 121.191 33.5389 121.151 35.6394C121.111 37.7399 122.015 39.4604 123.17 39.4822C124.325 39.504 125.294 37.8189 125.333 35.7184Z" fill="black"/>
<path opacity="0.8" d="M125.335 35.6084C125.375 33.5079 124.471 31.7874 123.316 31.7656C122.161 31.7438 121.193 33.4289 121.153 35.5294C121.113 37.63 122.017 39.3504 123.172 39.3722C124.327 39.394 125.296 37.7089 125.335 35.6084Z" fill="#DCE0ED"/>
<path opacity="0.8" d="M123.007 32.5565C123.007 32.5565 123.922 32.7205 123.422 33.9216C123.158 34.5049 122.961 35.1166 122.837 35.7446C122.837 35.7446 121.911 36.204 121.977 34.6279C122.044 33.0519 123.007 32.5565 123.007 32.5565Z" fill="#F0F0F4"/>
<path opacity="0.1" d="M113.848 33.6671C113.966 35.1737 114.49 46.3345 114.49 46.3345L115.738 46.1501L116.433 46.0487L117.358 45.9121L117.47 45.8955L121.114 45.3591L120.62 33.5209C120.604 33.1407 120.442 32.7812 120.168 32.5169C119.894 32.2525 119.529 32.1037 119.149 32.1011C119.112 32.1015 119.075 32.1019 119.037 32.1045C118.786 32.1217 118.515 32.143 118.232 32.1685C118.113 32.1795 117.993 32.1904 117.871 32.2035C117.521 32.2387 117.16 32.2825 116.806 32.3342C116.624 32.3616 116.447 32.3901 116.271 32.4209C115.974 32.4747 115.686 32.5342 115.421 32.603C115.241 32.6491 115.069 32.6997 114.911 32.7551C114.251 32.9803 113.817 33.2781 113.848 33.6671Z" fill="black"/>
<path opacity="0.8" d="M119.148 32.1011L119.608 45.4044L120.013 45.3757L119.558 32.1616C119.425 32.1225 119.287 32.1021 119.148 32.1011Z" fill="#65617D"/>
<path opacity="0.8" d="M117.871 32.2034L118.283 45.6357L118.907 45.6475L118.232 32.1685C118.113 32.1794 117.993 32.1904 117.871 32.2034Z" fill="#65617D"/>
<path opacity="0.8" d="M116.271 32.4209L117.067 45.9066L117.471 45.9142L117.47 45.8955L116.806 32.3341C116.624 32.3615 116.447 32.3901 116.271 32.4209Z" fill="#65617D"/>
<path opacity="0.8" d="M114.911 32.7551L115.738 46.15L115.74 46.1754L116.438 46.1148L116.433 46.0487L115.42 32.6029C115.24 32.649 115.069 32.6997 114.911 32.7551Z" fill="#65617D"/>
<path opacity="0.1" d="M129.638 43.3927C129.638 43.3927 131.118 36.4603 128.043 36.0446C124.968 35.6289 114.828 36.1803 115.077 39.0462C115.325 41.9121 115.573 46.2635 115.573 46.2635L117.674 45.8355C117.674 45.8355 116.229 39.2605 118.682 39.0592C121.136 38.8579 127.148 38.2836 127.148 38.2836C127.148 38.2836 128.776 38.0393 127.732 43.7694L129.638 43.3927Z" fill="black"/>
<path opacity="0.8" d="M129.626 44.0527C129.626 44.0527 131.114 36.6803 128.039 36.2646C124.964 35.8489 114.824 36.4003 115.072 39.2662C115.321 42.132 115.569 46.4835 115.569 46.4835L117.669 46.0555C117.669 46.0555 116.224 39.4805 118.678 39.2792C121.132 39.0779 127.143 38.5036 127.143 38.5036C127.143 38.5036 128.763 38.6993 127.719 44.4294L129.626 44.0527Z" fill="#DCE0ED"/>
<path opacity="0.8" d="M75.0713 52.2305L77.7862 52.2443C79.9323 43.5549 83.3004 38.1899 83.3004 38.1899C84.4122 37.6233 96.4441 37.9241 96.4441 37.9241C97.6881 38.1677 97.9435 42.1342 97.9435 42.1342C97.9435 42.1342 96.8618 43.0304 97.8776 43.6372C98.3317 43.9077 99.8408 43.9857 101.583 43.9295C103.745 43.8581 106.268 43.5777 107.575 43.1963C109.938 42.5069 108.092 41.1152 108.092 41.1152C108.092 41.1152 107.77 40.669 107.596 38.2447C107.472 36.829 107.04 35.4573 106.332 34.2251C106.234 34.0548 106.172 33.9623 106.172 33.9623C106.05 33.8426 105.906 33.7486 105.748 33.6858C102.662 32.329 87.3933 33.2777 87.3933 33.2777L81.7097 34.9686C81.5523 35.0283 81.3037 35.422 80.9945 36.0522C79.1369 39.8457 75.0713 52.2305 75.0713 52.2305Z" fill="#65617D"/>
<path opacity="0.1" d="M75.0713 52.2305L77.7862 52.2443C79.9323 43.5549 83.3004 38.1899 83.3004 38.1899C84.4122 37.6233 96.4441 37.9241 96.4441 37.9241C97.6881 38.1677 97.9435 42.1342 97.9435 42.1342C97.9435 42.1342 96.8618 43.0304 97.8776 43.6372C98.3317 43.9077 99.8408 43.9857 101.583 43.9295C103.745 43.8581 106.268 43.5777 107.575 43.1963C109.938 42.5069 108.092 41.1152 108.092 41.1152C108.092 41.1152 107.77 40.669 107.596 38.2447C107.472 36.829 107.04 35.4573 106.332 34.2251C106.234 34.0548 106.172 33.9623 106.172 33.9623C106.05 33.8426 105.906 33.7486 105.748 33.6858C102.662 32.329 87.3933 33.2777 87.3933 33.2777L81.7097 34.9686C81.5523 35.0283 81.3037 35.422 80.9945 36.0522C79.1369 39.8457 75.0713 52.2305 75.0713 52.2305Z" fill="black"/>
<path opacity="0.8" d="M80.9941 36.0522C86.2484 34.1255 100.601 35.4716 100.601 35.4716C102.153 34.1957 105.026 34.1641 106.332 34.2251C106.234 34.0548 106.171 33.9623 106.171 33.9623C106.05 33.8426 105.906 33.7486 105.747 33.6858C102.661 32.329 87.393 33.2777 87.393 33.2777L81.7094 34.9686C81.5519 35.0283 81.3033 35.422 80.9941 36.0522Z" fill="#65617D"/>
<path opacity="0.8" d="M99.7472 36.0058C100.056 37.1484 101.327 41.7216 101.327 41.7216C101.455 42.4521 101.54 43.1893 101.583 43.9296C103.745 43.8581 106.268 43.5778 107.575 43.1964C109.938 42.507 108.092 41.1153 108.092 41.1153C108.092 41.1153 107.77 40.6691 107.596 38.2448C107.463 36.7256 106.975 35.2588 106.172 33.9624C106.05 33.8427 105.906 33.7487 105.748 33.6859C103.699 34.1281 99.5136 35.1408 99.7472 36.0058Z" fill="#65617D"/>
<path opacity="0.1" d="M99.7472 36.0058C100.056 37.1484 101.327 41.7216 101.327 41.7216C101.455 42.4521 101.54 43.1893 101.583 43.9296C103.745 43.8581 106.268 43.5778 107.575 43.1964C109.938 42.507 108.092 41.1153 108.092 41.1153C108.092 41.1153 107.77 40.6691 107.596 38.2448C107.463 36.7256 106.975 35.2588 106.172 33.9624C106.05 33.8427 105.906 33.7487 105.748 33.6859C103.699 34.1281 99.5136 35.1408 99.7472 36.0058Z" fill="white"/>
<path opacity="0.8" d="M67.8413 5.58098L74.5798 27.7173L102.678 23.6533L98.9656 10.3502C98.9656 10.3502 98.3899 7.31312 96.9357 7.06557C96.9357 7.06557 74.4738 2.73494 67.8413 5.58098ZM70.9687 9.05143C70.0618 6.06308 83.4113 7.55308 83.4113 7.55308C85.2086 7.41424 87.3748 7.56517 89.3884 7.80897C90.1255 7.89881 90.8414 8.00147 91.5122 8.10657C93.0084 8.3417 94.2787 8.59237 95.0387 8.75088C95.5224 8.85134 95.7997 8.9149 95.7997 8.9149C98.4532 9.79033 99.7587 20.8195 99.7587 20.8195C99.957 21.9788 98.5859 21.7053 98.5859 21.7053L98.4967 21.7069L97.2465 21.7317L93.5192 21.8077L75.3451 22.1744C74.2741 22.0442 74.1329 20.776 74.1329 20.776C73.5722 19.8575 70.9687 9.05143 70.9687 9.05143H70.9687Z" fill="#65617D"/>
<path opacity="0.8" d="M98.497 21.707L98.5862 21.7054C98.5862 21.7054 99.9574 21.9789 99.7591 20.8196C99.7591 20.8196 98.4536 9.79043 95.8001 8.915C95.8001 8.915 95.5227 8.85144 95.0391 8.75098C95.973 10.6592 98.9601 17.1896 98.497 21.707Z" fill="#65617D"/>
<path opacity="0.1" d="M98.497 21.707L98.5862 21.7054C98.5862 21.7054 99.9574 21.9789 99.7591 20.8196C99.7591 20.8196 98.4536 9.79043 95.8001 8.915C95.8001 8.915 95.5227 8.85144 95.0391 8.75098C95.973 10.6592 98.9601 17.1896 98.497 21.707Z" fill="black"/>
<path opacity="0.1" d="M95.5187 48.7924C95.6725 49.0919 95.9086 49.3414 96.1993 49.5116C96.4899 49.6818 96.8231 49.7656 97.1598 49.7532L97.7205 49.7396L103.014 49.6117L104.922 49.5652L106.686 49.4522L130.012 46.1201L129.878 43.8264L127.196 44.1588L126.087 44.2963L109.624 46.3339L107.458 46.6022L106.407 46.7321L101.968 46.6163L97.162 46.4904C96.919 46.4834 96.6771 46.5252 96.4506 46.6134C96.0349 46.7698 95.6954 47.0803 95.5027 47.4803C95.4019 47.6848 95.3509 47.9103 95.3536 48.1382C95.3564 48.3662 95.4129 48.5903 95.5187 48.7924Z" fill="black"/>
<path opacity="0.8" d="M95.5143 49.0124C95.6681 49.3119 95.9042 49.5614 96.1949 49.7316C96.4855 49.9018 96.8187 49.9856 97.1554 49.9733L104.918 49.7852L106.682 49.6722L131.556 46.1185L133.512 45.8395L134.577 45.6869C136.677 45.2863 136.092 43.1844 136.092 43.1844C135.964 42.2279 132.384 41.28 131.21 41.2952C130.421 41.3045 130.288 42.518 130.286 43.3136C130.285 43.7032 130.315 43.992 130.315 43.992L129.152 44.1362L106.403 46.9521L97.1576 46.7104C96.8149 46.6978 96.476 46.7846 96.1815 46.9602C95.8871 47.1359 95.6498 47.3929 95.4983 47.7003C95.3975 47.9049 95.3465 48.1303 95.3492 48.3583C95.352 48.5862 95.4085 48.8104 95.5143 49.0124Z" fill="#DCE0ED"/>
<path opacity="0.1" d="M132.873 42.6469C132.873 42.6469 131.859 43.8382 130.315 43.9925C130.315 43.9925 130.964 42.6475 132.873 42.6469Z" fill="black"/>
<path opacity="0.1" d="M133.065 46.0619C133.065 46.0619 136.332 46.0502 136.299 47.8103C136.265 49.5704 134.205 49.825 134.205 49.825L104.932 54.8847L96.6379 54.8749C96.6379 54.8749 93.7832 52.51 96.8111 51.5401L105.172 51.918L133.078 47.346C133.078 47.346 132.363 46.3421 133.065 46.0619Z" fill="black"/>
<path opacity="0.8" d="M96.6339 55.0948L104.928 55.105L130.957 50.6058L132.861 50.2764L134.201 50.0453C134.201 50.0453 136.261 49.7904 136.295 48.0303C136.319 46.7674 134.642 46.4166 133.693 46.3195C133.321 46.2816 133.061 46.2822 133.061 46.2822C132.359 46.5617 133.074 47.5656 133.074 47.5656L132.058 47.7324L105.168 52.1383L96.807 51.7604C93.7795 52.73 96.6339 55.0948 96.6339 55.0948Z" fill="#DCE0ED"/>
<path opacity="0.8" d="M130.634 44.5854L128.924 43.7828L128.045 43.7295L127.978 51.138L130.703 50.6392L131.855 49.9273L132.463 46.8575C132.463 46.8575 132.267 45.5699 132.159 45.4579C132.051 45.3458 130.634 44.5854 130.634 44.5854Z" fill="#DCE0ED"/>
<path opacity="0.1" d="M130.634 44.5854L128.924 43.7828L128.045 43.7295L127.978 51.138L130.703 50.6392L131.855 49.9273L132.463 46.8575C132.463 46.8575 132.267 45.5699 132.159 45.4579C132.051 45.3458 130.634 44.5854 130.634 44.5854Z" fill="black"/>
<path opacity="0.1" d="M130.956 50.6058C130.935 50.6307 130.924 50.6437 130.924 50.6437L132.838 50.3123C132.846 50.3003 132.854 50.2884 132.861 50.2764C133.898 48.675 134.008 47.3609 133.693 46.3195C133.321 46.2816 133.061 46.2822 133.061 46.2822C132.359 46.5617 133.074 47.5656 133.074 47.5656L132.058 47.7324C132.099 49.1836 131.147 50.3805 130.956 50.6058Z" fill="black"/>
<path opacity="0.1" d="M128.265 43.7333C128.585 43.8637 128.881 43.9981 129.152 44.1363C130.375 44.7537 131.125 45.4347 131.557 46.1185L133.512 45.8396C132.7 44.068 130.696 43.229 130.696 43.229L130.286 43.3137L128.265 43.7333Z" fill="black"/>
<path opacity="0.8" d="M130.476 43.2252C130.476 43.2252 135.793 45.4531 132.618 50.3086L130.703 50.6392C130.703 50.6392 134.564 46.3837 128.044 43.7295L130.476 43.2252Z" fill="#DCE0ED"/>
<path opacity="0.8" d="M117.664 45.3676L115.684 45.2568L115.864 53.2202L119.067 52.6938L120.437 52.0593L121.09 50.4945L121.56 48.9259L120.523 47.4758L119.328 46.6462L117.664 45.3676Z" fill="#DCE0ED"/>
<path opacity="0.1" d="M117.664 45.3676L115.684 45.2568L115.864 53.2202L119.067 52.6938L120.437 52.0593L121.09 50.4945L121.56 48.9259L120.523 47.4758L119.328 46.6462L117.664 45.3676Z" fill="black"/>
<path opacity="0.8" d="M118.761 49.4967C118.777 48.6056 118.364 47.8752 117.837 47.8653C117.31 47.8553 116.87 48.5696 116.853 49.4607C116.836 50.3517 117.249 51.0822 117.776 51.0921C118.303 51.102 118.744 50.3877 118.761 49.4967Z" fill="#DCE0ED"/>
<path opacity="0.8" d="M126.863 51.8408C126.929 51.8695 126.989 51.9119 127.038 51.9652C127.087 52.0185 127.124 52.0814 127.147 52.15C127.171 52.2186 127.179 52.2913 127.172 52.3634C127.166 52.4354 127.144 52.5053 127.109 52.5685C126.885 52.9687 126.615 53.4867 126.637 53.6254C126.674 53.86 126.155 53.6576 126.087 53.6013C126.019 53.545 125.069 53.5821 125.026 52.9348C125.021 52.7395 125.067 52.5463 125.159 52.3743C125.252 52.2023 125.388 52.0575 125.554 51.9543L125.361 50.5338L126.67 50.4485L126.632 51.7408L126.863 51.8408Z" fill="#636780"/>
<path opacity="0.1" d="M126.863 51.8408C126.929 51.8695 126.989 51.9119 127.038 51.9652C127.087 52.0185 127.124 52.0814 127.147 52.15C127.171 52.2186 127.179 52.2913 127.172 52.3634C127.166 52.4354 127.144 52.5053 127.109 52.5685C126.885 52.9687 126.615 53.4867 126.637 53.6254C126.674 53.86 126.155 53.6576 126.087 53.6013C126.019 53.545 125.069 53.5821 125.026 52.9348C125.021 52.7395 125.067 52.5463 125.159 52.3743C125.252 52.2023 125.388 52.0575 125.554 51.9543L125.361 50.5338L126.67 50.4485L126.632 51.7408L126.863 51.8408Z" fill="black"/>
<path opacity="0.1" d="M126.506 51.8071C126.506 51.8071 126.038 53.3114 126.229 53.3701C126.421 53.4287 126.506 51.8071 126.506 51.8071Z" fill="black"/>
<path opacity="0.1" d="M126.018 51.4403C126.018 51.4403 125.549 52.9446 125.741 53.0032C125.932 53.0618 126.018 51.4403 126.018 51.4403Z" fill="black"/>
<path opacity="0.8" d="M120.83 46.7843L121.478 51.3458C121.478 51.3458 122.388 51.2386 122.891 51.1403C123.001 51.1274 123.109 51.0963 123.209 51.0484C123.235 51.0235 123.288 51.0267 123.36 51.0424L123.361 51.0424C123.604 51.0965 124.036 51.3072 124.124 51.1383C124.131 51.1252 124.139 51.1131 124.149 51.1024L124.15 51.1013C124.238 51.0095 124.404 51.0808 124.565 51.1081C124.651 51.1314 124.743 51.1209 124.822 51.0788C124.959 50.9912 125.231 51.1415 125.454 51.1942C125.596 51.2277 125.718 51.2234 125.777 51.0968C125.799 51.0558 125.831 51.0207 125.869 50.9943C125.908 50.9679 125.952 50.9509 125.999 50.9448L126 50.9448C126.212 50.896 126.507 50.9379 126.679 50.9048C126.746 50.8928 126.793 50.8684 126.809 50.8225C126.844 50.7241 127.034 50.6804 127.237 50.6457C127.484 50.603 127.748 50.5739 127.77 50.4742C127.776 50.4413 127.801 50.4275 127.837 50.427C127.973 50.45 128.107 50.4857 128.237 50.5336L128.238 50.5337C128.348 50.5632 128.439 50.5661 128.467 50.4874C128.497 50.401 128.624 50.4133 128.767 50.4512C128.883 50.482 129.011 50.5295 129.11 50.5545C129.198 50.576 129.262 50.5805 129.274 50.5389C129.313 50.3933 129.784 50.7323 129.899 50.4407C130.015 50.149 131.556 48.2347 129.659 45.6678C129.659 45.6678 129.132 45.6942 128.729 45.7592C128.595 45.7748 128.464 45.809 128.34 45.8608C128.337 45.8608 128.336 45.8619 128.334 45.8629C128.103 45.9229 127.864 45.9458 127.626 45.931C127.489 45.9301 127.354 45.9595 127.23 46.0171C127.181 46.0427 127.142 46.0832 127.118 46.1327C127.054 46.2712 126.912 46.2972 126.758 46.2855C126.55 46.2694 126.321 46.1859 126.235 46.2261C126.233 46.2273 126.23 46.2284 126.227 46.2292C126.072 46.2923 125.498 46.2177 125.398 46.3115C125.395 46.3141 125.392 46.317 125.39 46.3202C125.347 46.381 125.123 46.3118 124.893 46.2767L124.892 46.2767C124.816 46.2541 124.736 46.2481 124.657 46.2589C124.578 46.2698 124.502 46.2973 124.435 46.3396C124.332 46.4178 124.204 46.4532 124.075 46.4384C123.92 46.424 123.763 46.4273 123.608 46.4483C123.572 46.4574 123.54 46.4771 123.515 46.5049C123.419 46.6186 123.196 46.599 122.997 46.6051C122.894 46.5989 122.792 46.6226 122.703 46.6733C122.672 46.695 122.635 46.7094 122.597 46.7153C122.301 46.7368 122.003 46.7164 121.713 46.6546L120.83 46.7843Z" fill="#636780"/>
<path opacity="0.1" d="M128.767 50.4511C128.883 50.4819 129.011 50.5295 129.11 50.5544C130.644 48.2724 129.422 46.4941 128.729 45.7592C128.595 45.7748 128.464 45.809 128.34 45.8607C129.803 47.615 129.068 49.758 128.767 50.4511Z" fill="black"/>
<path opacity="0.1" d="M127.837 50.427C127.974 50.45 128.108 50.4856 128.237 50.5336L128.238 50.5336C129.557 48.3036 128.277 46.5936 127.626 45.9309C127.49 45.93 127.354 45.9594 127.23 46.017C128.629 47.6038 128.168 49.5363 127.837 50.427Z" fill="black"/>
<path opacity="0.1" d="M126.679 50.9047C126.746 50.8928 126.793 50.8684 126.809 50.8225C126.844 50.7241 127.034 50.6804 127.237 50.6457C128.394 48.6251 127.423 47.0386 126.758 46.2854C126.55 46.2694 126.321 46.1858 126.235 46.226C126.233 46.2273 126.23 46.2283 126.228 46.2292C127.772 48.0279 126.969 50.2521 126.679 50.9047Z" fill="black"/>
<path opacity="0.1" d="M125.455 51.1941C125.596 51.2276 125.718 51.2233 125.777 51.0968C125.799 51.0558 125.831 51.0207 125.87 50.9943C125.908 50.9678 125.953 50.9509 125.999 50.9447L126 50.9447C127.348 48.6955 126.05 46.9708 125.398 46.3115C125.395 46.3141 125.393 46.3169 125.39 46.3201C125.347 46.3809 125.123 46.3118 124.894 46.2766C126.712 48.1817 125.712 50.6477 125.455 51.1941Z" fill="black"/>
<path opacity="0.1" d="M124.15 51.1013C124.238 51.0094 124.404 51.0808 124.565 51.108C125.967 48.8763 124.75 47.1477 124.075 46.4383C123.92 46.424 123.763 46.4273 123.608 46.4482C125.163 48.1855 124.467 50.3479 124.15 51.1013Z" fill="black"/>
<path opacity="0.1" d="M122.891 51.1403C123.001 51.1274 123.109 51.0963 123.209 51.0484C123.235 51.0235 123.289 51.0268 123.36 51.0424L123.361 51.0424C124.605 49.0037 123.673 47.3926 122.997 46.6051C122.894 46.5989 122.793 46.6226 122.704 46.6733C122.672 46.695 122.635 46.7093 122.597 46.7153C123.883 48.4398 123.181 50.4734 122.891 51.1403Z" fill="black"/>
<path opacity="0.8" d="M93.2424 53.9304C93.3342 49.07 90.7313 45.0793 87.4285 45.017C84.1257 44.9546 81.3739 48.8442 81.282 53.7046C81.1902 58.565 83.7931 62.5557 87.0959 62.618C90.3987 62.6804 93.1505 58.7908 93.2424 53.9304Z" fill="#636780"/>
<path opacity="0.1" d="M91.8094 54.0317C91.8838 50.0927 89.9977 46.8629 87.5966 46.8175C85.1955 46.7722 83.1887 49.9286 83.1143 53.8676C83.0398 57.8065 84.926 61.0364 87.327 61.0817C89.7281 61.127 91.7349 57.9706 91.8094 54.0317Z" fill="black"/>
<path opacity="0.8" d="M91.8137 53.8117C91.8882 49.8728 90.0021 46.6429 87.601 46.5976C85.1999 46.5523 83.1931 49.7087 83.1187 53.6476C83.0442 57.5865 84.9303 60.8164 87.3314 60.8617C89.7325 60.9071 91.7393 57.7507 91.8137 53.8117Z" fill="#F0F0F4"/>
<path opacity="0.8" d="M87.2812 48.9391C87.2904 48.4531 87.0679 48.0547 86.7842 48.0494C86.5005 48.044 86.2631 48.4337 86.2539 48.9197C86.2448 49.4058 86.4673 49.8041 86.7509 49.8095C87.0346 49.8149 87.272 49.4252 87.2812 48.9391Z" fill="#636780"/>
<path opacity="0.8" d="M85.081 56.6008C85.0902 56.1147 84.8677 55.7164 84.584 55.711C84.3003 55.7057 84.0629 56.0953 84.0537 56.5814C84.0446 57.0674 84.2671 57.4658 84.5507 57.4711C84.8344 57.4765 85.0718 57.0868 85.081 56.6008Z" fill="#636780"/>
<path opacity="0.8" d="M90.6904 53.0385C90.6996 52.5525 90.477 52.1541 90.1934 52.1488C89.9097 52.1434 89.6723 52.5331 89.6631 53.0191C89.6539 53.5052 89.8764 53.9035 90.1601 53.9089C90.4438 53.9142 90.6812 53.5245 90.6904 53.0385Z" fill="#636780"/>
<path opacity="0.8" d="M89.0893 58.1439C89.0985 57.6578 88.876 57.2595 88.5923 57.2541C88.3086 57.2488 88.0712 57.6384 88.062 58.1245C88.0529 58.6105 88.2754 59.0089 88.559 59.0142C88.8427 59.0196 89.0801 58.6299 89.0893 58.1439Z" fill="#636780"/>
<path opacity="0.8" d="M43.8006 36.7103C43.8006 36.7103 39.2919 48.07 39.4985 48.7892C39.4985 48.7892 37.6617 49.855 37.2266 49.5716C36.7915 49.2883 37.2724 44.2353 37.2724 44.2353L38.1821 39.7956L39.1675 37.1731L43.8006 36.7103Z" fill="#65617D"/>
<path opacity="0.15" d="M43.8006 36.7103C43.8006 36.7103 39.2919 48.07 39.4985 48.7892C39.4985 48.7892 37.6617 49.855 37.2266 49.5716C36.7915 49.2883 37.2724 44.2353 37.2724 44.2353L38.1821 39.7956L39.1675 37.1731L43.8006 36.7103Z" fill="black"/>
<path opacity="0.8" d="M84.4374 51.82C84.4466 51.334 84.2241 50.9356 83.9404 50.9303C83.6568 50.9249 83.4194 51.3146 83.4102 51.8006C83.401 52.2866 83.6235 52.685 83.9072 52.6904C84.1909 52.6957 84.4283 52.306 84.4374 51.82Z" fill="#636780"/>
<path opacity="0.8" d="M88.1759 54.0182C88.1977 52.8638 87.5419 51.9153 86.7111 51.8997C85.8804 51.884 85.1892 52.807 85.1674 53.9614C85.1456 55.1157 85.8014 56.0642 86.6321 56.0799C87.4629 56.0956 88.154 55.1725 88.1759 54.0182Z" fill="#636780"/>
<path opacity="0.8" d="M38.724 51.9109C38.5989 58.5332 40.6863 64.6032 46.8073 64.0585C54.515 64.0389 55.2186 58.847 55.3438 52.2247C55.4689 45.6024 51.8416 40.6038 47.2522 40.5171C42.6628 40.4305 38.8492 45.2887 38.724 51.9109Z" fill="#636780"/>
<path opacity="0.1" d="M38.6757 51.9212C38.7726 46.7941 41.0806 42.7252 44.2476 41.1891C48.2613 42.0307 51.2707 46.7202 51.1566 52.762C51.054 58.189 50.5619 62.6547 46.1458 64.1009C40.4983 64.1972 38.5548 58.3171 38.6757 51.9212Z" fill="black"/>
<path opacity="0.1" d="M35.5303 49.0445C35.5303 49.0445 36.6133 50.0003 37.2311 49.3517C37.2311 49.3517 38.9414 37.4991 40.8136 37.4794L47.2534 37.5459C47.2534 37.5459 48.0176 37.8905 48.3208 39.3268L52.2607 51.2498L75.0753 52.0106L76.8865 48.3946L58.0094 48.0932L58.0074 48.0844C57.9119 47.7172 54.9713 36.4019 52.8779 34.9615C52.8768 34.9603 52.8757 34.9603 52.8746 34.9592C52.8039 34.9093 52.7264 34.8697 52.6445 34.8415C52.6445 34.8415 44.7947 33.6479 42.1946 34.3141C42.1946 34.3141 39.4866 34.8683 38.8106 35.6808C38.8086 35.6829 38.8067 35.685 38.805 35.6873C38.7152 35.7781 37.6721 36.9084 37.2935 40.2191L35.5303 49.0445Z" fill="black"/>
<path opacity="0.8" d="M35.5264 49.2645C35.5264 49.2645 36.6093 50.2203 37.2272 49.5717C37.2272 49.5717 38.9375 37.719 40.8097 37.6994L47.2495 37.7659C47.2495 37.7659 48.0137 38.1105 48.3169 39.5468L52.2568 51.4698L75.0714 52.2306L76.8826 48.6145L58.0055 48.3132L58.0035 48.3044C57.908 47.9372 54.9674 36.6218 52.874 35.1814C52.8729 35.1803 52.8718 35.1803 52.8707 35.1792C52.8 35.1293 52.7225 35.0897 52.6406 35.0615C52.6406 35.0615 44.7908 33.8679 42.1907 34.5341C42.1907 34.5341 39.4827 35.0882 38.8067 35.9008C38.8047 35.9029 38.8028 35.905 38.8011 35.9073C38.7113 35.998 37.6682 37.1283 37.2896 40.4391L35.5264 49.2645Z" fill="#65617D"/>
<path opacity="0.1" d="M35.5264 49.2645C35.5264 49.2645 36.6093 50.2203 37.2272 49.5717C37.2272 49.5717 38.9375 37.719 40.8097 37.6994L47.2495 37.7659C47.2495 37.7659 48.0137 38.1105 48.3169 39.5468L52.2568 51.4698L75.0714 52.2306L76.8826 48.6145L58.0055 48.3132L58.0035 48.3044C57.908 47.9372 54.9674 36.6218 52.874 35.1814C52.8729 35.1803 52.8718 35.1803 52.8707 35.1792C52.8 35.1293 52.7225 35.0897 52.6406 35.0615C52.6406 35.0615 44.7908 33.8679 42.1907 34.5341C42.1907 34.5341 39.4827 35.0882 38.8067 35.9008C38.8047 35.9029 38.8028 35.905 38.8011 35.9073C38.7113 35.998 37.6682 37.1283 37.2896 40.4391L35.5264 49.2645Z" fill="black"/>
<path opacity="0.8" d="M49.7495 36.5476C50.2801 37.603 54.7697 50.5631 54.7697 50.5631L58.0052 48.3132L58.0032 48.3044C57.9077 47.9372 54.964 36.6097 52.8704 35.1792C51.488 35.3886 49.3887 35.831 49.7495 36.5476Z" fill="#65617D"/>
<path opacity="0.8" d="M56.0248 30.7785L58.4513 39.2978L71.9415 39.1673L71.8075 40.4303C71.8075 40.4303 61.2122 41.7709 56.7391 39.5956L54.4638 31.8128L33.1826 31.5212L37.2547 30.6443L56.0248 30.7785Z" fill="#65617D"/>
<path opacity="0.1" d="M56.0248 30.7785L58.4513 39.2978L71.9415 39.1673L71.8075 40.4303C71.8075 40.4303 61.2122 41.7709 56.7391 39.5956L54.4638 31.8128L33.1826 31.5212L37.2547 30.6443L56.0248 30.7785Z" fill="white"/>
<path opacity="0.1" d="M118.986 45.3192C118.986 45.3192 126.145 49.0858 120.724 52.3949L119.287 52.6979C119.287 52.6979 124.605 49.0201 115.904 45.261L118.986 45.3192Z" fill="black"/>
<path opacity="0.8" d="M118.766 45.3151C118.766 45.3151 125.925 49.0818 120.504 52.3909L119.067 52.6939C119.067 52.6939 124.385 49.016 115.684 45.257L118.766 45.3151Z" fill="#DCE0ED"/>
<path opacity="0.8" d="M47.8419 53.0183C47.9136 49.2212 46.1732 46.109 43.9544 46.0671C41.7357 46.0252 39.8789 49.0695 39.8072 52.8667C39.7354 56.6638 41.4759 59.776 43.6946 59.8179C45.9133 59.8598 47.7701 56.8155 47.8419 53.0183Z" fill="#636780"/>
<path opacity="0.1" d="M46.8781 53.1487C46.9363 50.0714 45.6758 47.5521 44.0628 47.5216C42.4498 47.4912 41.0951 49.9611 41.0369 53.0384C40.9788 56.1157 42.2392 58.635 43.8522 58.6655C45.4652 58.6959 46.82 56.226 46.8781 53.1487Z" fill="black"/>
<path opacity="0.8" d="M46.882 52.9286C46.9402 49.8513 45.6797 47.332 44.0667 47.3015C42.4537 47.2711 41.099 49.741 41.0408 52.8183C40.9827 55.8956 42.2431 58.4149 43.8561 58.4454C45.4691 58.4758 46.8239 56.0059 46.882 52.9286Z" fill="#F0F0F4"/>
<path opacity="0.8" d="M43.8471 49.1315C43.8543 48.7518 43.7056 48.441 43.5151 48.4374C43.3245 48.4339 43.1642 48.7388 43.157 49.1185C43.1499 49.4982 43.2985 49.8089 43.4891 49.8125C43.6797 49.8161 43.84 49.5112 43.8471 49.1315Z" fill="#636780"/>
<path opacity="0.8" d="M42.3535 55.1214C42.3607 54.7417 42.212 54.4309 42.0214 54.4273C41.8309 54.4237 41.6706 54.7286 41.6634 55.1084C41.6562 55.4881 41.8049 55.7988 41.9954 55.8024C42.186 55.806 42.3463 55.5011 42.3535 55.1214Z" fill="#636780"/>
<path opacity="0.8" d="M46.1294 52.3269C46.1365 51.9472 45.9879 51.6365 45.7973 51.6329C45.6067 51.6293 45.4464 51.9342 45.4393 52.3139C45.4321 52.6936 45.5808 53.0044 45.7713 53.008C45.9619 53.0116 46.1222 52.7067 46.1294 52.3269Z" fill="#636780"/>
<path opacity="0.8" d="M45.0429 56.3185C45.0501 55.9388 44.9014 55.6281 44.7109 55.6245C44.5203 55.6209 44.36 55.9258 44.3528 56.3055C44.3457 56.6852 44.4943 56.996 44.6849 56.9996C44.8755 57.0032 45.0358 56.6982 45.0429 56.3185Z" fill="#636780"/>
<path opacity="0.8" d="M41.9311 51.388C41.9383 51.0083 41.7896 50.6975 41.5991 50.6939C41.4085 50.6903 41.2482 50.9952 41.241 51.375C41.2338 51.7547 41.3825 52.0654 41.5731 52.069C41.7636 52.0726 41.9239 51.7677 41.9311 51.388Z" fill="#636780"/>
<path opacity="0.8" d="M44.4381 53.0974C44.4551 52.1955 44.0165 51.4559 43.4584 51.4454C42.9004 51.4349 42.4341 52.1574 42.4171 53.0592C42.4 53.9611 42.8386 54.7007 43.3967 54.7112C43.9548 54.7217 44.4211 53.9992 44.4381 53.0974Z" fill="#636780"/>
<path opacity="0.1" d="M102.736 23.4619C102.736 23.4619 90.511 23.6713 74.5796 27.7174L102.736 23.4619Z" fill="black"/>
<path opacity="0.8" d="M44.8501 0.985229C44.8501 0.985229 45.5115 1.10384 45.1499 1.97256C44.9589 2.39445 44.8169 2.83687 44.7268 3.29115C44.7268 3.29115 44.0569 3.62341 44.105 2.48346C44.1531 1.34351 44.8501 0.985229 44.8501 0.985229Z" fill="#DCE0ED"/>
<path opacity="0.8" d="M70.561 21.89L71.5349 25.7641L74.8899 22.8258" stroke="black" stroke-miterlimit="10"/>
<path opacity="0.8" d="M76.357 26.4539L66.438 24.7523L64.7649 34.4952L74.6839 36.1967L76.357 26.4539Z" fill="white"/>
<path opacity="0.8" d="M69.3139 34.8064L69.5005 33.72C68.9186 33.6183 68.3765 33.3566 67.9351 32.9642L68.3171 32.2878C68.7724 32.6742 69.3222 32.9329 69.9104 33.0373C70.6745 33.1684 71.2669 32.8159 71.3722 32.2027C71.4738 31.6111 71.1168 31.1734 70.3758 30.714C69.3519 30.0954 68.8816 29.5054 69.0423 28.5695C69.1956 27.6766 69.8856 27.0974 70.9035 27.1059L71.0901 26.0194L71.6345 26.1128L71.4553 27.1562C71.9456 27.2443 72.4051 27.4566 72.7899 27.7728L72.3989 28.4365C72.0548 28.1242 71.6264 27.9198 71.167 27.8487C70.3383 27.7066 70.064 28.1689 69.9901 28.5991C69.894 29.1585 70.1214 29.4855 70.9913 30.0334C72.0222 30.6753 72.6086 31.3517 72.4442 32.3092C72.2983 33.1589 71.5697 33.8535 70.4297 33.8462L70.2376 34.9649L69.3139 34.8064Z" fill="#636780"/>
<path opacity="0.8" d="M69.1452 70.1121C69.231 70.1091 69.3124 70.0729 69.3721 70.0112C69.4318 69.9494 69.4651 69.8669 69.4651 69.781C69.4651 69.6951 69.4318 69.6126 69.3721 69.5509C69.3124 69.4891 69.231 69.4529 69.1452 69.45C69.0593 69.4529 68.9779 69.4891 68.9182 69.5509C68.8586 69.6126 68.8252 69.6951 68.8252 69.781C68.8252 69.8669 68.8586 69.9494 68.9182 70.0112C68.9779 70.0729 69.0593 70.1091 69.1452 70.1121Z" fill="#65617D"/>
</g>
<path opacity="0.1" d="M146.608 100.376C148.885 100.376 150.732 100.064 150.732 99.6794C150.732 99.2946 148.885 98.9826 146.608 98.9826C144.33 98.9826 142.483 99.2946 142.483 99.6794C142.483 100.064 144.33 100.376 146.608 100.376Z" fill="#61A199"/>
<path d="M143.838 96.4414C143.838 96.4414 146.19 96.369 146.899 95.8644C147.608 95.3598 150.518 94.7572 150.694 95.5665C150.87 96.3758 154.23 99.5915 151.574 99.6129C148.918 99.6343 145.402 99.1994 144.695 98.7686C143.987 98.3377 143.838 96.4414 143.838 96.4414Z" fill="#A8A8A8"/>
<path opacity="0.2" d="M151.621 99.3312C148.965 99.3526 145.45 98.9177 144.742 98.4869C144.203 98.1588 143.988 96.9815 143.916 96.4384C143.867 96.4405 143.838 96.4414 143.838 96.4414C143.838 96.4414 143.987 98.3378 144.695 98.7686C145.402 99.1994 148.918 99.6343 151.574 99.6129C152.34 99.6067 152.605 99.3341 152.591 98.9303C152.484 99.1743 152.192 99.3266 151.621 99.3312Z" fill="black"/>
<path opacity="0.1" d="M170.53 92.096C172.282 92.096 173.703 91.8559 173.703 91.5598C173.703 91.2636 172.282 91.0236 170.53 91.0236C168.777 91.0236 167.356 91.2636 167.356 91.5598C167.356 91.8559 168.777 92.096 170.53 92.096Z" fill="#61A199"/>
<path d="M168.398 89.0681C168.398 89.0681 170.208 89.0124 170.754 88.6241C171.299 88.2358 173.539 87.7722 173.674 88.3949C173.809 89.0177 176.395 91.4922 174.351 91.5086C172.307 91.5251 169.602 91.1904 169.057 90.8589C168.513 90.5274 168.398 89.0681 168.398 89.0681Z" fill="#A8A8A8"/>
<path opacity="0.2" d="M174.387 91.2918C172.343 91.3083 169.638 90.9736 169.094 90.6421C168.679 90.3896 168.514 89.4837 168.458 89.0657C168.42 89.0674 168.398 89.0681 168.398 89.0681C168.398 89.0681 168.513 90.5273 169.057 90.8589C169.602 91.1904 172.307 91.5251 174.351 91.5086C174.941 91.5038 175.144 91.294 175.133 90.9833C175.051 91.171 174.826 91.2883 174.387 91.2918Z" fill="black"/>
<path opacity="0.1" d="M156.13 126.74C160.314 126.74 163.706 126.167 163.706 125.46C163.706 124.753 160.314 124.179 156.13 124.179C151.946 124.179 148.554 124.753 148.554 125.46C148.554 126.167 151.946 126.74 156.13 126.74Z" fill="#61A199"/>
<path d="M151.042 119.511C151.042 119.511 155.364 119.378 156.666 118.451C157.969 117.524 163.314 116.417 163.637 117.904C163.96 119.391 170.132 125.298 165.253 125.337C160.373 125.377 153.916 124.578 152.616 123.786C151.316 122.995 151.042 119.511 151.042 119.511Z" fill="#A8A8A8"/>
<path opacity="0.2" d="M165.34 124.82C160.461 124.859 154.003 124.06 152.703 123.269C151.713 122.666 151.318 120.503 151.186 119.506C151.095 119.51 151.042 119.511 151.042 119.511C151.042 119.511 151.316 122.995 152.616 123.786C153.916 124.578 160.373 125.377 165.253 125.337C166.661 125.326 167.148 124.825 167.121 124.083C166.925 124.532 166.388 124.811 165.34 124.82Z" fill="black"/>
<path d="M236.127 80.3985C236.127 85.481 234.163 90.3673 230.646 94.0376C227.128 97.7079 222.328 99.8787 217.247 100.097C212.167 100.315 207.198 98.5642 203.379 95.2092C199.559 91.8541 197.183 87.1543 196.746 82.0905C196.718 81.7703 196.696 81.45 196.687 81.125V81.1083C196.677 80.8717 196.672 80.6351 196.672 80.3985C196.674 75.1704 198.753 70.1571 202.453 66.4609C206.152 62.7647 211.169 60.6884 216.4 60.6884C221.63 60.6884 226.647 62.7647 230.346 66.4609C234.046 70.1571 236.125 75.1704 236.127 80.3985Z" fill="#65617D"/>
<path opacity="0.2" d="M236.127 80.3985C236.127 85.481 234.163 90.3673 230.646 94.0376C227.128 97.7079 222.328 99.8787 217.247 100.097C212.167 100.315 207.198 98.5642 203.379 95.2092C199.559 91.8541 197.183 87.1543 196.746 82.0905C196.718 81.7703 196.696 81.45 196.687 81.125V81.1083C196.677 80.8717 196.672 80.6351 196.672 80.3985C196.674 75.1704 198.753 70.1571 202.453 66.4609C206.152 62.7647 211.169 60.6884 216.4 60.6884C221.63 60.6884 226.647 62.7647 230.346 66.4609C234.046 70.1571 236.125 75.1704 236.127 80.3985Z" fill="black"/>
<path d="M216.399 91.1531C222.342 91.1531 227.159 86.3381 227.159 80.3985C227.159 74.4589 222.342 69.6439 216.399 69.6439C210.456 69.6439 205.639 74.4589 205.639 80.3985C205.639 86.3381 210.456 91.1531 216.399 91.1531Z" fill="#DCE0ED"/>
<path d="M216.399 86.8513C219.965 86.8513 222.855 83.9623 222.855 80.3986C222.855 76.8348 219.965 73.9458 216.399 73.9458C212.833 73.9458 209.943 76.8348 209.943 80.3986C209.943 83.9623 212.833 86.8513 216.399 86.8513Z" fill="#65617D"/>
<path d="M130.812 80.3985C130.812 85.481 128.849 90.3673 125.331 94.0376C121.813 97.7079 117.014 99.8787 111.933 100.097C106.853 100.315 101.884 98.5642 98.0641 95.2092C94.2442 91.8541 91.8683 87.1543 91.432 82.0905C91.4033 81.7703 91.3818 81.45 91.3723 81.125V81.1083C91.3627 80.8717 91.3579 80.6351 91.3579 80.3985C91.3597 75.1704 93.4388 70.1571 97.1382 66.4609C100.838 62.7647 105.854 60.6884 111.085 60.6884C116.316 60.6884 121.333 62.7647 125.032 66.4609C128.731 70.1571 130.81 75.1704 130.812 80.3985Z" fill="#65617D"/>
<path opacity="0.2" d="M130.812 80.3985C130.812 85.481 128.849 90.3673 125.331 94.0376C121.813 97.7079 117.014 99.8787 111.933 100.097C106.853 100.315 101.884 98.5642 98.0641 95.2092C94.2442 91.8541 91.8683 87.1543 91.432 82.0905C91.4033 81.7703 91.3818 81.45 91.3723 81.125V81.1083C91.3627 80.8717 91.3579 80.6351 91.3579 80.3985C91.3597 75.1704 93.4388 70.1571 97.1382 66.4609C100.838 62.7647 105.854 60.6884 111.085 60.6884C116.316 60.6884 121.333 62.7647 125.032 66.4609C128.731 70.1571 130.81 75.1704 130.812 80.3985Z" fill="black"/>
<path d="M111.084 91.1531C117.027 91.1531 121.845 86.3381 121.845 80.3985C121.845 74.4589 117.027 69.6439 111.084 69.6439C105.142 69.6439 100.324 74.4589 100.324 80.3985C100.324 86.3381 105.142 91.1531 111.084 91.1531Z" fill="#DCE0ED"/>
<path d="M111.085 86.8513C114.65 86.8513 117.541 83.9623 117.541 80.3986C117.541 76.8348 114.65 73.9458 111.085 73.9458C107.519 73.9458 104.628 76.8348 104.628 80.3986C104.628 83.9623 107.519 86.8513 111.085 86.8513Z" fill="#65617D"/>
<path d="M242.28 76.704L235.698 76.418L229.688 65.2629L208.51 63.5467L198.208 76.9901L198.78 80.7084L197.349 84.1408L130.097 84.7129V82.9967H129.525L128.952 80.4224H134.103L130.383 76.418L117.219 65.2629C117.219 65.2629 94.6105 65.8349 94.3243 65.2629C94.0381 64.6908 95.6121 58.8272 95.6121 58.8272L105.342 55.9669L138.539 53.3926C145.837 41.8085 152.419 36.3739 152.419 36.3739H237.701L241.707 56.968V57.0166L242.28 76.704Z" fill="#444053"/>
<path d="M194.774 78.1341C194.774 78.1341 203.359 62.1165 209.941 62.1165H225.967C225.967 62.1165 229.974 62.1165 231.691 65.2628L238.273 78.1341H233.122C233.122 78.1341 228.829 66.1209 223.964 65.8348C219.099 65.5488 210.8 65.8348 210.8 65.8348C210.8 65.8348 207.938 65.8348 206.221 69.2672C204.504 72.6995 198.698 80.1762 198.698 80.1762C198.698 80.1762 192.484 82.1385 194.774 78.1341Z" fill="#33323D"/>
<path d="M246 75.5599H235.235L235.125 84.1407L246 81.5665V75.5599Z" fill="#33323D"/>
<path d="M90.3179 70.4114C90.3179 70.4114 90.8902 66.1209 94.8968 64.4048L121.225 62.9746C121.225 62.9746 125.518 63.2607 127.808 68.6952L135.248 79.8503V81.5665H126.949C126.949 81.5665 122.942 66.407 111.495 66.979H97.7586C97.7586 66.979 94.6106 66.979 93.4659 72.1275L90.3179 70.4114Z" fill="#33323D"/>
<path d="M152.132 38.09H239.99C239.99 37.2556 239.658 36.4553 239.068 35.8653C238.477 35.2752 237.677 34.9437 236.842 34.9437H155.28C154.867 34.9437 154.458 35.0251 154.076 35.1832C153.694 35.3413 153.347 35.5731 153.054 35.8653C152.762 36.1574 152.53 36.5043 152.372 36.886C152.214 37.2677 152.132 37.6769 152.132 38.09Z" fill="#33323D"/>
<path opacity="0.3" d="M170.961 54.9657H146.649C146.375 54.9657 146.106 54.8973 145.865 54.7668C145.624 54.6362 145.42 54.4476 145.271 54.2181C145.122 53.9886 145.032 53.7255 145.011 53.4526C144.989 53.1797 145.036 52.9058 145.147 52.6557L148.994 44.0043C149.588 42.6696 150.556 41.5356 151.781 40.7397C153.006 39.9438 154.437 39.5201 155.898 39.5201H170.669C170.941 39.5201 171.21 39.5736 171.461 39.6775C171.712 39.7814 171.94 39.9337 172.132 40.1257C172.324 40.3177 172.476 40.5456 172.58 40.7965C172.684 41.0473 172.738 41.3162 172.738 41.5877V53.1899C172.738 53.4231 172.692 53.654 172.603 53.8695C172.513 54.0849 172.382 54.2807 172.217 54.4456C172.052 54.6105 171.857 54.7413 171.641 54.8305C171.425 54.9198 171.194 54.9657 170.961 54.9657Z" fill="#61A199"/>
<path opacity="0.3" d="M201.563 39.5201H180.257C179.581 39.5201 179.034 40.0675 179.034 40.7427V53.7431C179.034 54.4184 179.581 54.9657 180.257 54.9657H201.563C202.239 54.9657 202.787 54.4184 202.787 53.7431V40.7427C202.787 40.0675 202.239 39.5201 201.563 39.5201Z" fill="#61A199"/>
<path d="M241.708 56.968V57.0167L204.79 57.54L203.829 36.374H237.701L241.708 56.968Z" fill="#33323D"/>
<path opacity="0.3" d="M233.902 39.5201H209.161C208.486 39.5201 207.938 40.0675 207.938 40.7427V53.7431C207.938 54.4184 208.486 54.9657 209.161 54.9657H233.902C234.578 54.9657 235.125 54.4184 235.125 53.7431V40.7427C235.125 40.0675 234.578 39.5201 233.902 39.5201Z" fill="#61A199"/>
<path d="M174.067 60.4004H165.686C165.471 60.4004 165.297 60.5743 165.297 60.7888V61.7282C165.297 61.9427 165.471 62.1166 165.686 62.1166H174.067C174.281 62.1166 174.455 61.9427 174.455 61.7282V60.7888C174.455 60.5743 174.281 60.4004 174.067 60.4004Z" fill="#33323D"/>
<path d="M200.395 60.4004H192.014C191.799 60.4004 191.625 60.5743 191.625 60.7888V61.7282C191.625 61.9427 191.799 62.1166 192.014 62.1166H200.395C200.609 62.1166 200.783 61.9427 200.783 61.7282V60.7888C200.783 60.5743 200.609 60.4004 200.395 60.4004Z" fill="#33323D"/>
<path d="M220.768 37.812H210.17V48.2213H220.768V37.812Z" fill="white"/>
<path d="M214.947 47.7346V46.5738C214.325 46.5718 213.716 46.3967 213.188 46.0681L213.464 45.2981C214.005 45.6181 214.622 45.7887 215.251 45.7923C216.067 45.7923 216.619 45.3211 216.619 44.6659C216.619 44.0339 216.171 43.6431 215.32 43.2983C214.147 42.8386 213.554 42.3099 213.554 41.31C213.554 40.3561 214.167 39.6321 215.225 39.4597V38.299H215.806V39.4137C216.331 39.4179 216.846 39.5564 217.301 39.816L217.014 40.5745C216.601 40.3116 216.12 40.1757 215.63 40.1838C214.745 40.1838 214.543 40.7124 214.543 41.1721C214.543 41.7697 214.837 42.0686 215.837 42.4824C217.022 42.965 217.751 43.5626 217.751 44.5855C217.751 45.4934 217.119 46.344 215.934 46.5393V47.7346L214.947 47.7346Z" fill="#636780"/>
<path d="M93.6126 102.635C93.6127 105.693 92.4312 108.634 90.3145 110.842C88.1978 113.051 85.3095 114.357 82.2523 114.489C79.1952 114.62 76.2054 113.566 73.9068 111.547C71.6083 109.528 70.1786 106.7 69.9162 103.653C69.8989 103.461 69.886 103.268 69.8802 103.072V103.062C69.8745 102.92 69.8716 102.778 69.8716 102.635C69.8757 99.4912 71.1281 96.4774 73.3538 94.2558C75.5795 92.0341 78.5965 90.7863 81.7421 90.7863C84.8877 90.7863 87.9046 92.0341 90.1303 94.2558C92.3561 96.4774 93.6085 99.4912 93.6126 102.635Z" fill="#65617D"/>
<path d="M81.7419 109.107C85.3178 109.107 88.2167 106.209 88.2167 102.635C88.2167 99.0611 85.3178 96.1638 81.7419 96.1638C78.166 96.1638 75.2671 99.0611 75.2671 102.635C75.2671 106.209 78.166 109.107 81.7419 109.107Z" fill="#DCE0ED"/>
<path d="M81.7418 106.518C83.8874 106.518 85.6267 104.78 85.6267 102.635C85.6267 100.491 83.8874 98.7523 81.7418 98.7523C79.5963 98.7523 77.8569 100.491 77.8569 102.635C77.8569 104.78 79.5963 106.518 81.7418 106.518Z" fill="#65617D"/>
<path d="M50.568 80.1046L21.9839 80.6799V76.462C22.24 73.0724 25.7177 71.8831 28.8918 71.5106C31.3666 71.2298 33.8722 71.4176 36.2774 72.0643C42.3421 73.6692 46.2097 73.9798 48.109 74.01C48.5268 74.0164 48.9297 74.1667 49.2495 74.4355C49.5693 74.7043 49.7865 75.0752 49.8644 75.4855C49.9551 75.9673 50.0443 76.4921 50.1277 77.0099C50.191 77.4154 50.2515 77.8152 50.3062 78.1877C50.463 79.2677 50.568 80.1046 50.568 80.1046Z" fill="#65617D"/>
<path d="M73.372 103.402H13.9923C13.5338 103.406 13.0841 103.276 12.699 103.027C12.314 102.779 12.0107 102.422 11.8268 102.002C11.3793 100.934 12.0052 100.252 12.6729 99.8524C14.0391 99.0431 15.0748 97.7767 15.5966 96.2774C16.2297 94.4151 16.8484 91.4828 17.0915 86.9126C17.3419 82.1856 19.0541 79.8487 20.9045 78.7169H20.9059C23.2959 77.2558 25.916 77.8037 25.916 77.8037L49.9922 77.9964C50.4208 78.1907 50.8172 78.4492 51.1678 78.7629C53.3131 80.759 50.185 83.3648 50.185 83.3648C43.4699 90.4589 48.5534 97.6493 48.5534 97.6493H60.8728C63.1745 97.6612 65.4254 96.9725 67.326 95.6748C68.9908 94.5258 69.6353 93.4127 69.8843 92.7397C70.0742 92.2248 70.267 91.7114 70.4972 91.2139C73.7289 84.209 69.831 72.8136 68.149 68.5525C67.7318 67.4926 67.4512 66.8743 67.4512 66.8743L71.3145 66.5823L73.7576 66.3968L73.7821 66.3954C79.1663 75.6768 81.1677 85.2142 81.8411 92.2809C81.9044 92.9468 81.9562 93.5925 81.9979 94.2123C82.0745 95.391 81.9082 96.5729 81.5093 97.6848C81.1103 98.7967 80.4873 99.8149 79.6786 100.676C78.87 101.538 77.893 102.224 76.8082 102.693C75.7234 103.162 74.5539 103.403 73.372 103.402Z" fill="#61A199"/>
<path opacity="0.1" d="M50.3061 78.1877H21.9839V77.0099H50.1277C50.191 77.4154 50.2515 77.8152 50.3061 78.1877Z" fill="black"/>
<path opacity="0.1" d="M51.1681 78.763H21.1336C21.0554 78.7634 20.9781 78.7478 20.9062 78.717C23.2962 77.2559 25.9163 77.8038 25.9163 77.8038L49.9925 77.9965C50.4211 78.1907 50.8175 78.4492 51.1681 78.763Z" fill="black"/>
<path d="M51.4184 77.2981H10.625C10.2998 77.2981 10.0361 77.5616 10.0361 77.8867C10.0361 78.2118 10.2998 78.4753 10.625 78.4753H51.4184C51.7436 78.4753 52.0073 78.2118 52.0073 77.8867C52.0073 77.5616 51.7436 77.2981 51.4184 77.2981Z" fill="#DCE0ED"/>
<path opacity="0.1" d="M81.8416 92.2809C80.4732 93.7679 79.466 94.3532 79.5135 92.7843C79.6574 88.0386 71.3149 66.5823 71.3149 66.5823L73.7826 66.3954C79.1667 75.6768 81.1682 85.2142 81.8416 92.2809Z" fill="black"/>
<path opacity="0.1" d="M93.5408 101.335C92.1235 101.674 90.371 102.02 88.2098 102.336C87.407 102.454 86.5456 102.567 85.6257 102.675C83.4199 102.937 80.8688 103.166 77.9221 103.341C77.0876 103.392 76.2209 103.437 75.3221 103.478C73.6386 103.554 71.8367 103.613 69.9163 103.653L69.8804 103.072V103.062C72.5638 101.979 76.7854 99.0903 77.466 91.5648C79.1619 90.9116 80.9851 90.6562 82.7953 90.8182C84.6055 90.9802 86.3544 91.5553 87.9073 92.4991C89.4601 93.4429 90.7755 94.7304 91.7522 96.2623C92.7289 97.7942 93.3408 99.5297 93.5408 101.335Z" fill="black"/>
<path d="M67.6431 103.402C67.6431 103.402 81.2689 101.926 76.5783 81.1736C76.5783 81.1736 83.3114 87.342 87.4991 90.7709C91.6869 94.1998 99.151 98.9264 99.151 98.9264C99.151 98.9264 94.6934 103.09 67.6431 103.402Z" fill="#61A199"/>
<path opacity="0.1" d="M67.6431 103.402C67.6431 103.402 81.2689 101.926 76.5783 81.1736C76.5783 81.1736 83.3114 87.342 87.4991 90.7709C91.6869 94.1998 99.151 98.9264 99.151 98.9264C99.151 98.9264 94.6934 103.09 67.6431 103.402Z" fill="white"/>
<path d="M31.2401 114.499C37.796 114.499 43.1106 109.188 43.1106 102.635C43.1106 96.0827 37.796 90.7709 31.2401 90.7709C24.6842 90.7709 19.3696 96.0827 19.3696 102.635C19.3696 109.188 24.6842 114.499 31.2401 114.499Z" fill="#65617D"/>
<path d="M31.2399 109.107C34.8159 109.107 37.7148 106.209 37.7148 102.635C37.7148 99.0611 34.8159 96.1638 31.2399 96.1638C27.664 96.1638 24.7651 99.0611 24.7651 102.635C24.7651 106.209 27.664 109.107 31.2399 109.107Z" fill="#DCE0ED"/>
<path d="M31.2399 106.518C33.3854 106.518 35.1247 104.78 35.1247 102.635C35.1247 100.491 33.3854 98.7523 31.2399 98.7523C29.0943 98.7523 27.355 100.491 27.355 102.635C27.355 104.78 29.0943 106.518 31.2399 106.518Z" fill="#65617D"/>
<path opacity="0.1" d="M44.5492 99.0722C44.5492 91.4104 38.4616 85.1993 30.9521 85.1993C23.4426 85.1993 17.355 91.4104 17.355 99.0722C17.355 99.3955 17.3667 99.7159 17.388 100.034H44.5161C44.5374 99.7159 44.5492 99.3955 44.5492 99.0722Z" fill="black"/>
<path d="M44.0459 98.8331C44.0459 91.4551 38.1837 85.474 30.9524 85.474C23.721 85.474 17.8589 91.4551 17.8589 98.8331C17.8589 99.1444 17.8702 99.453 17.8907 99.759H44.014C44.0346 99.453 44.0459 99.1444 44.0459 98.8331Z" fill="#61A199"/>
<path opacity="0.1" d="M44.0459 98.8329C44.0459 99.0471 44.0401 99.26 44.0301 99.4714C44.0257 99.5677 44.02 99.6626 44.0142 99.759H17.8905C17.8848 99.6626 17.879 99.5677 17.8747 99.4714C17.8646 99.26 17.8589 99.0471 17.8589 98.8329C17.8589 91.4555 23.7207 85.4745 30.9524 85.4745C38.184 85.4745 44.0459 91.4555 44.0459 98.8329Z" fill="white"/>
<path opacity="0.1" d="M44.0299 99.4713C44.0255 99.5677 44.0198 99.6626 44.014 99.7589H17.8903C17.8846 99.6626 17.8788 99.5677 17.8745 99.4713H44.0299Z" fill="black"/>
<path opacity="0.1" d="M79.501 79.746C80.3681 79.354 80.2705 77.2668 79.2829 75.0841C78.2953 72.9013 76.7918 71.4496 75.9246 71.8415C75.0575 72.2334 75.1551 74.3206 76.1427 76.5034C77.1303 78.6861 78.6338 80.1379 79.501 79.746Z" fill="black"/>
<path d="M79.645 79.6022C80.5122 79.2102 80.4145 77.123 79.427 74.9403C78.4394 72.7575 76.9358 71.3058 76.0687 71.6977C75.2015 72.0896 75.2991 74.1768 76.2867 76.3596C77.2743 78.5423 78.7779 79.9941 79.645 79.6022Z" fill="#DCE0ED"/>
<path opacity="0.1" d="M73.7581 66.3969V68.6503H69.3696C68.9609 68.6507 68.5529 68.618 68.1495 68.5525C67.7322 67.4927 67.4517 66.8743 67.4517 66.8743L71.315 66.5824L73.7581 66.3969Z" fill="black"/>
<path d="M73.758 68.3624H69.3695C65.5154 68.3624 62.3911 65.4804 62.3911 61.9252V61.3279C62.3911 57.7727 65.5154 54.8906 69.3695 54.8906L73.758 55.2888V68.3624Z" fill="#61A199"/>
<path d="M66.5276 58.7017C66.5276 58.7017 69.1535 60.1038 67.6428 62.4766C67.6428 62.4766 65.7902 65.5146 62.8766 65.227L61.8154 58.7017C61.8154 58.7017 65.3046 58.3781 66.5276 58.7017Z" fill="#61A199"/>
<path opacity="0.1" d="M65.5197 58.5749C65.9365 58.5912 66.3445 58.7006 66.7134 58.8952C67.0824 59.0898 67.403 59.3646 67.6518 59.6994C68.1194 60.3465 68.3981 61.2902 67.6428 62.4766C67.6428 62.4766 65.7902 65.5146 62.8766 65.227L61.8154 58.7017C63.0468 58.589 64.2835 58.5466 65.5197 58.5749Z" fill="black"/>
<path opacity="0.1" d="M73.6138 55.2889C74.0767 55.2889 74.5351 55.3801 74.9628 55.5571C75.3905 55.7342 75.7791 55.9937 76.1065 56.3209C76.4338 56.6481 76.6935 57.0365 76.8706 57.4639C77.0478 57.8914 77.139 58.3496 77.139 58.8122V64.8392C77.139 65.7737 76.7676 66.6699 76.1065 67.3306C75.4454 67.9913 74.5487 68.3626 73.6138 68.3626V55.2889Z" fill="black"/>
<path d="M73.7578 55.2889C74.6927 55.2889 75.5894 55.6601 76.2505 56.3209C76.9116 56.9816 77.283 57.8778 77.283 58.8122V64.8392C77.283 65.7737 76.9116 66.6699 76.2505 67.3306C75.5894 67.9913 74.6927 68.3626 73.7578 68.3626V55.2889Z" fill="#DCE0ED"/>
<path d="M61.5117 65.6404C63.122 65.6404 64.4273 64.0533 64.4273 62.0954C64.4273 60.1375 63.122 58.5503 61.5117 58.5503C59.9015 58.5503 58.5962 60.1375 58.5962 62.0954C58.5962 64.0533 59.9015 65.6404 61.5117 65.6404Z" fill="#61A199"/>
<path d="M30.4634 78.4835L31.7373 81.3188L33.8663 78.4835" stroke="black" stroke-miterlimit="10"/>
<path d="M36.8218 81.4371H26.4336V91.6408H36.8218V81.4371Z" fill="white"/>
<path d="M31.1157 91.1636V90.0258C30.5059 90.0239 29.9088 89.8522 29.3911 89.5301L29.6616 88.7753C30.1923 89.089 30.7969 89.2562 31.4134 89.2597C32.2137 89.2597 32.7547 88.7978 32.7547 88.1556C32.7547 87.536 32.3152 87.153 31.481 86.815C30.3313 86.3644 29.7498 85.8461 29.7498 84.866C29.7498 83.9309 30.3505 83.2212 31.3876 83.0522V81.9144H31.9577V83.0071C32.4719 83.0112 32.9764 83.147 33.4231 83.4015L33.1413 84.145C32.7366 83.8873 32.2651 83.7541 31.7853 83.762C30.9174 83.762 30.7191 84.2801 30.7191 84.7308C30.7191 85.3166 31.0076 85.6096 31.9882 86.0152C33.1492 86.4883 33.864 87.0741 33.864 88.0768C33.864 88.9667 33.244 89.8005 32.0831 89.992V91.1636L31.1157 91.1636Z" fill="#636780"/>
<path d="M12.808 54.4645H11.2622V78.3011H12.808V54.4645Z" fill="#DCE0ED"/>
<path d="M11.2621 54.4645C11.2621 54.4645 5.52065 54.6852 4.41652 55.1266C3.31239 55.568 0 55.3473 0 55.3473V61.5272C0 61.5272 3.75404 60.6443 5.74147 61.3065C7.72891 61.9686 11.9246 60.4236 11.9246 60.4236L11.2621 54.4645Z" fill="#DCE0ED"/>
</g>
<defs>
<clipPath id="clip0">
<rect width="246" height="131" fill="white"/>
</clipPath>
</defs>
</svg>
