<svg width="240" height="164" viewBox="0 0 240 164" fill="none" xmlns="http://www.w3.org/2000/svg">
<g clip-path="url(#clip0)">
<path d="M88.1999 45.8892H117.969V39.4469C117.969 39.0383 118.132 38.6463 118.42 38.3573C118.709 38.0684 119.101 37.906 119.509 37.906H128.251V31.0438C128.251 30.7865 128.353 30.5398 128.535 30.3578C128.717 30.1759 128.964 30.0737 129.221 30.0737H140.481C140.739 30.0737 140.985 30.1759 141.167 30.3578C141.349 30.5398 141.451 30.7865 141.451 31.0438V37.9083H151.728C152.137 37.9083 152.528 38.0707 152.817 38.3597C153.106 38.6487 153.268 39.0406 153.268 39.4493V45.8915H181.656C181.738 45.8921 181.817 45.9254 181.875 45.984C181.934 46.0427 181.966 46.1221 181.966 46.2048V131.724C181.966 131.807 181.934 131.886 181.875 131.945C181.817 132.003 181.738 132.037 181.656 132.037H162.79C162.706 132.037 162.627 132.004 162.568 131.946C162.509 131.887 162.476 131.807 162.476 131.724V120.218C162.476 120.135 162.443 120.056 162.384 119.997C162.325 119.939 162.246 119.905 162.163 119.905H154.194C154.111 119.905 154.032 119.939 153.973 119.997C153.914 120.056 153.881 120.135 153.881 120.218V131.724C153.881 131.807 153.848 131.886 153.79 131.945C153.732 132.003 153.653 132.037 153.57 132.037H116.29C116.207 132.037 116.128 132.004 116.069 131.945C116.011 131.886 115.978 131.807 115.977 131.724V120.218C115.977 120.135 115.944 120.056 115.886 119.997C115.828 119.939 115.749 119.905 115.666 119.905H107.697C107.614 119.905 107.534 119.938 107.475 119.997C107.417 120.055 107.384 120.135 107.384 120.218V131.724C107.383 131.807 107.35 131.886 107.291 131.945C107.233 132.004 107.153 132.037 107.071 132.037H88.2045C88.1217 132.037 88.0424 132.004 87.9838 131.945C87.9252 131.886 87.892 131.807 87.8914 131.724V46.2024C87.892 46.1203 87.9245 46.0417 87.9821 45.9832C88.0397 45.9247 88.1178 45.891 88.1999 45.8892ZM165.853 115.909C165.853 115.991 165.886 116.07 165.944 116.129C166.003 116.187 166.082 116.22 166.164 116.22H177.817C177.858 116.22 177.899 116.212 177.937 116.197C177.975 116.181 178.009 116.158 178.038 116.129C178.067 116.1 178.09 116.066 178.106 116.028C178.122 115.99 178.13 115.95 178.13 115.909V111.938C178.13 111.897 178.122 111.856 178.106 111.818C178.09 111.78 178.067 111.746 178.038 111.716C178.009 111.687 177.975 111.664 177.937 111.649C177.899 111.633 177.858 111.625 177.817 111.625H166.157C166.075 111.625 165.996 111.659 165.937 111.717C165.879 111.776 165.846 111.855 165.846 111.938L165.853 115.909ZM165.853 105.619C165.853 105.66 165.861 105.7 165.876 105.738C165.892 105.776 165.915 105.811 165.944 105.84C165.973 105.869 166.007 105.892 166.045 105.908C166.083 105.924 166.123 105.932 166.164 105.932H177.817C177.858 105.932 177.899 105.924 177.937 105.909C177.975 105.893 178.01 105.87 178.039 105.841C178.068 105.812 178.091 105.777 178.107 105.739C178.122 105.701 178.13 105.66 178.13 105.619V101.639C178.13 101.598 178.122 101.557 178.107 101.519C178.091 101.48 178.068 101.446 178.039 101.417C178.01 101.387 177.975 101.364 177.937 101.349C177.899 101.333 177.858 101.325 177.817 101.326H166.157C166.116 101.326 166.076 101.334 166.038 101.349C166 101.365 165.966 101.388 165.937 101.417C165.908 101.447 165.885 101.481 165.869 101.519C165.854 101.557 165.846 101.598 165.846 101.639L165.853 105.619ZM165.853 95.3312C165.853 95.4139 165.886 95.4932 165.944 95.5519C166.003 95.6106 166.082 95.6439 166.164 95.6445H177.817C177.858 95.6445 177.899 95.6364 177.937 95.6206C177.975 95.6049 178.009 95.5818 178.038 95.5527C178.067 95.5236 178.09 95.4891 178.106 95.4511C178.122 95.4131 178.13 95.3723 178.13 95.3312V91.3489C178.13 91.3078 178.122 91.267 178.106 91.229C178.09 91.191 178.067 91.1565 178.038 91.1274C178.009 91.0983 177.975 91.0752 177.937 91.0595C177.899 91.0437 177.858 91.0356 177.817 91.0356H166.157C166.075 91.0362 165.996 91.0695 165.937 91.1282C165.879 91.1869 165.846 91.2662 165.846 91.3489L165.853 95.3312ZM165.853 85.0413C165.853 85.0823 165.861 85.123 165.876 85.161C165.892 85.199 165.915 85.2336 165.944 85.2627C165.973 85.2918 166.007 85.3149 166.045 85.3307C166.083 85.3465 166.123 85.3546 166.164 85.3546H177.817C177.858 85.3549 177.899 85.347 177.937 85.3314C177.975 85.3158 178.01 85.2927 178.039 85.2635C178.068 85.2344 178.091 85.1997 178.107 85.1616C178.122 85.1234 178.13 85.0825 178.13 85.0413V81.073C178.13 81.0317 178.122 80.9908 178.107 80.9527C178.091 80.9146 178.068 80.8799 178.039 80.8507C178.01 80.8216 177.975 80.7985 177.937 80.7829C177.899 80.7673 177.858 80.7594 177.817 80.7597H166.157C166.116 80.7597 166.076 80.7678 166.038 80.7836C166 80.7993 165.966 80.8224 165.937 80.8516C165.908 80.8807 165.885 80.9152 165.869 80.9532C165.854 80.9912 165.846 81.0319 165.846 81.073L165.853 85.0413ZM165.853 74.7537C165.853 74.8364 165.886 74.9158 165.944 74.9745C166.003 75.0331 166.082 75.0664 166.164 75.067H177.817C177.858 75.067 177.899 75.0589 177.937 75.0432C177.975 75.0274 178.009 75.0044 178.038 74.9753C178.067 74.9462 178.09 74.9116 178.106 74.8736C178.122 74.8356 178.13 74.7949 178.13 74.7537V70.7715C178.13 70.7304 178.122 70.6898 178.106 70.6519C178.09 70.614 178.067 70.5797 178.038 70.5508C178.009 70.5218 177.975 70.499 177.937 70.4835C177.899 70.468 177.858 70.4602 177.817 70.4605H166.157C166.075 70.4605 165.996 70.4933 165.938 70.5516C165.879 70.6099 165.846 70.689 165.846 70.7715L165.853 74.7537ZM165.853 64.4662C165.853 64.5487 165.886 64.6278 165.944 64.6861C166.003 64.7444 166.082 64.7772 166.164 64.7772H177.817C177.858 64.7775 177.899 64.7696 177.937 64.7541C177.975 64.7387 178.009 64.7158 178.038 64.6869C178.067 64.658 178.09 64.6236 178.106 64.5857C178.122 64.5478 178.13 64.5072 178.13 64.4662V60.4839C178.13 60.4428 178.122 60.402 178.106 60.364C178.09 60.326 178.067 60.2915 178.038 60.2624C178.009 60.2333 177.975 60.2102 177.937 60.1945C177.899 60.1787 177.858 60.1706 177.817 60.1706H166.157C166.075 60.1712 165.996 60.2045 165.937 60.2632C165.879 60.3219 165.846 60.4012 165.846 60.4839L165.853 64.4662ZM165.853 54.1763C165.853 54.2173 165.861 54.258 165.876 54.296C165.892 54.334 165.915 54.3686 165.944 54.3977C165.973 54.4268 166.007 54.4499 166.045 54.4657C166.083 54.4815 166.123 54.4896 166.164 54.4896H177.817C177.858 54.4899 177.899 54.482 177.937 54.4664C177.975 54.4507 178.01 54.4277 178.039 54.3985C178.068 54.3694 178.091 54.3347 178.107 54.2965C178.122 54.2584 178.13 54.2175 178.13 54.1763V50.2079C178.13 50.1667 178.122 50.1258 178.107 50.0877C178.091 50.0495 178.068 50.0149 178.039 49.9857C178.01 49.9566 177.975 49.9335 177.937 49.9179C177.899 49.9022 177.858 49.8943 177.817 49.8946H166.157C166.116 49.8946 166.076 49.9028 166.038 49.9185C166 49.9343 165.966 49.9574 165.937 49.9865C165.908 50.0157 165.885 50.0502 165.869 50.0882C165.854 50.1262 165.846 50.1669 165.846 50.2079L165.853 54.1763ZM138.227 115.906C138.227 115.947 138.235 115.988 138.251 116.026C138.267 116.064 138.29 116.098 138.319 116.127C138.348 116.156 138.383 116.179 138.421 116.194C138.458 116.21 138.499 116.218 138.54 116.217H150.193C150.275 116.217 150.355 116.185 150.413 116.126C150.472 116.068 150.505 115.989 150.506 115.906V111.938C150.505 111.855 150.472 111.776 150.414 111.717C150.355 111.658 150.276 111.625 150.193 111.625H138.54C138.499 111.625 138.458 111.633 138.42 111.649C138.382 111.664 138.348 111.687 138.319 111.716C138.29 111.746 138.267 111.78 138.251 111.818C138.235 111.856 138.227 111.897 138.227 111.938V115.906ZM138.227 105.616C138.227 105.658 138.235 105.699 138.25 105.737C138.266 105.775 138.289 105.81 138.318 105.839C138.347 105.868 138.382 105.891 138.42 105.907C138.458 105.922 138.499 105.93 138.54 105.93H150.193C150.276 105.93 150.356 105.897 150.414 105.838C150.473 105.779 150.506 105.7 150.506 105.616V101.639C150.506 101.556 150.473 101.476 150.414 101.417C150.356 101.359 150.276 101.326 150.193 101.326H138.54C138.499 101.325 138.458 101.333 138.42 101.349C138.382 101.364 138.347 101.387 138.318 101.417C138.289 101.446 138.266 101.48 138.25 101.519C138.235 101.557 138.227 101.598 138.227 101.639V105.616ZM138.227 95.3289C138.227 95.37 138.235 95.4108 138.251 95.4488C138.267 95.4868 138.29 95.5213 138.319 95.5504C138.348 95.5795 138.382 95.6026 138.42 95.6183C138.458 95.6341 138.499 95.6422 138.54 95.6422H150.193C150.276 95.6416 150.355 95.6084 150.414 95.5497C150.472 95.4911 150.505 95.4118 150.506 95.3289V91.3489C150.505 91.266 150.472 91.1867 150.414 91.1281C150.355 91.0694 150.276 91.0362 150.193 91.0356H138.54C138.499 91.0356 138.458 91.0437 138.42 91.0595C138.382 91.0752 138.348 91.0983 138.319 91.1274C138.29 91.1565 138.267 91.191 138.251 91.229C138.235 91.267 138.227 91.3078 138.227 91.3489V95.3289ZM138.227 85.039C138.227 85.0802 138.235 85.1211 138.25 85.1592C138.266 85.1974 138.289 85.2321 138.318 85.2612C138.347 85.2904 138.382 85.3134 138.42 85.3291C138.458 85.3447 138.499 85.3526 138.54 85.3523H150.193C150.276 85.3523 150.356 85.3193 150.414 85.2605C150.473 85.2018 150.506 85.1221 150.506 85.039V81.073C150.506 80.9899 150.473 80.9102 150.414 80.8514C150.356 80.7927 150.276 80.7597 150.193 80.7597H138.54C138.499 80.7594 138.458 80.7673 138.42 80.7829C138.382 80.7985 138.347 80.8216 138.318 80.8507C138.289 80.8799 138.266 80.9146 138.25 80.9527C138.235 80.9908 138.227 81.0317 138.227 81.073V85.039ZM138.227 74.7514C138.227 74.7926 138.235 74.8333 138.251 74.8713C138.267 74.9093 138.29 74.9439 138.319 74.973C138.348 75.002 138.382 75.0251 138.42 75.0409C138.458 75.0566 138.499 75.0647 138.54 75.0647H150.193C150.276 75.0641 150.355 75.0309 150.414 74.9723C150.472 74.9137 150.505 74.8343 150.506 74.7514V70.7715C150.505 70.6888 150.472 70.6097 150.413 70.5514C150.355 70.4932 150.275 70.4605 150.193 70.4605H138.54C138.499 70.4602 138.458 70.468 138.421 70.4835C138.383 70.499 138.348 70.5218 138.319 70.5508C138.29 70.5797 138.267 70.614 138.251 70.6519C138.235 70.6898 138.227 70.7304 138.227 70.7715V74.7514ZM138.227 64.4639C138.227 64.5049 138.235 64.5455 138.251 64.5834C138.267 64.6213 138.29 64.6557 138.319 64.6846C138.348 64.7135 138.383 64.7363 138.421 64.7518C138.458 64.7673 138.499 64.7751 138.54 64.7748H150.193C150.275 64.7748 150.355 64.7421 150.413 64.6839C150.472 64.6256 150.505 64.5465 150.506 64.4639V60.4839C150.505 60.401 150.472 60.3217 150.414 60.263C150.355 60.2044 150.276 60.1712 150.193 60.1706H138.54C138.499 60.1706 138.458 60.1787 138.42 60.1945C138.382 60.2102 138.348 60.2333 138.319 60.2624C138.29 60.2915 138.267 60.326 138.251 60.364C138.235 60.402 138.227 60.4428 138.227 60.4839V64.4639ZM138.227 54.174C138.227 54.2152 138.235 54.2561 138.25 54.2942C138.266 54.3324 138.289 54.367 138.318 54.3962C138.347 54.4253 138.382 54.4484 138.42 54.464C138.458 54.4797 138.499 54.4876 138.54 54.4873H150.193C150.276 54.4873 150.356 54.4543 150.414 54.3955C150.473 54.3367 150.506 54.2571 150.506 54.174V50.2079C150.506 50.1248 150.473 50.0452 150.414 49.9864C150.356 49.9277 150.276 49.8946 150.193 49.8946H138.54C138.499 49.8943 138.458 49.9022 138.42 49.9179C138.382 49.9335 138.347 49.9566 138.318 49.9857C138.289 50.0149 138.266 50.0495 138.25 50.0877C138.235 50.1258 138.227 50.1667 138.227 50.2079V54.174ZM119.349 115.904C119.349 115.945 119.358 115.986 119.373 116.024C119.389 116.061 119.412 116.096 119.441 116.125C119.47 116.154 119.505 116.176 119.543 116.192C119.581 116.207 119.622 116.215 119.663 116.215H131.315C131.398 116.215 131.477 116.182 131.536 116.124C131.594 116.066 131.628 115.987 131.628 115.904V111.938C131.628 111.855 131.595 111.776 131.536 111.717C131.477 111.658 131.398 111.625 131.315 111.625H119.663C119.58 111.625 119.5 111.658 119.441 111.716C119.382 111.775 119.349 111.855 119.349 111.938V115.904ZM119.349 105.614C119.349 105.655 119.357 105.696 119.373 105.734C119.388 105.773 119.411 105.807 119.44 105.836C119.47 105.866 119.504 105.889 119.542 105.904C119.58 105.92 119.621 105.928 119.663 105.927H131.315C131.398 105.927 131.478 105.894 131.537 105.836C131.595 105.777 131.628 105.697 131.628 105.614V101.639C131.628 101.556 131.595 101.476 131.537 101.417C131.478 101.359 131.398 101.326 131.315 101.326H119.663C119.621 101.325 119.58 101.333 119.542 101.349C119.504 101.364 119.47 101.387 119.44 101.417C119.411 101.446 119.388 101.48 119.373 101.519C119.357 101.557 119.349 101.598 119.349 101.639V105.614ZM119.349 95.3266C119.349 95.4097 119.382 95.4893 119.441 95.5481C119.5 95.6068 119.58 95.6398 119.663 95.6398H131.315C131.398 95.6392 131.477 95.606 131.536 95.5474C131.595 95.4888 131.628 95.4095 131.628 95.3266V91.3489C131.628 91.266 131.595 91.1867 131.536 91.1281C131.477 91.0694 131.398 91.0362 131.315 91.0356H119.663C119.58 91.0356 119.5 91.0686 119.441 91.1274C119.382 91.1861 119.349 91.2658 119.349 91.3489V95.3266ZM119.349 85.0367C119.349 85.0779 119.357 85.1188 119.373 85.1569C119.388 85.1951 119.411 85.2297 119.44 85.2589C119.47 85.288 119.504 85.3111 119.542 85.3267C119.58 85.3424 119.621 85.3503 119.663 85.35H131.315C131.398 85.35 131.478 85.317 131.537 85.2582C131.595 85.1995 131.628 85.1198 131.628 85.0367V81.073C131.628 80.9899 131.595 80.9102 131.537 80.8514C131.478 80.7927 131.398 80.7597 131.315 80.7597H119.663C119.621 80.7594 119.58 80.7673 119.542 80.7829C119.504 80.7985 119.47 80.8216 119.44 80.8507C119.411 80.8799 119.388 80.9146 119.373 80.9527C119.357 80.9908 119.349 81.0317 119.349 81.073V85.0367ZM119.349 74.7491C119.349 74.8322 119.382 74.9119 119.441 74.9706C119.5 75.0294 119.58 75.0624 119.663 75.0624H131.315C131.398 75.0618 131.477 75.0286 131.536 74.97C131.595 74.9113 131.628 74.832 131.628 74.7491V70.7715C131.628 70.6888 131.594 70.6097 131.536 70.5514C131.477 70.4932 131.398 70.4605 131.315 70.4605H119.663C119.622 70.4602 119.581 70.468 119.543 70.4835C119.505 70.499 119.47 70.5218 119.441 70.5508C119.412 70.5797 119.389 70.614 119.373 70.6519C119.358 70.6898 119.349 70.7304 119.349 70.7715V74.7491ZM119.349 64.4615C119.349 64.5026 119.358 64.5432 119.373 64.5811C119.389 64.619 119.412 64.6533 119.441 64.6823C119.47 64.7112 119.505 64.734 119.543 64.7495C119.581 64.765 119.622 64.7728 119.663 64.7725H131.315C131.398 64.7725 131.477 64.7398 131.536 64.6816C131.594 64.6233 131.628 64.5442 131.628 64.4615V60.4839C131.628 60.401 131.595 60.3217 131.536 60.263C131.477 60.2044 131.398 60.1712 131.315 60.1706H119.663C119.58 60.1706 119.5 60.2036 119.441 60.2624C119.382 60.3211 119.349 60.4008 119.349 60.4839V64.4615ZM119.349 54.1716C119.349 54.2129 119.357 54.2538 119.373 54.2919C119.388 54.3301 119.411 54.3647 119.44 54.3939C119.47 54.423 119.504 54.4461 119.542 54.4617C119.58 54.4774 119.621 54.4853 119.663 54.4849H131.315C131.398 54.4849 131.478 54.4519 131.537 54.3932C131.595 54.3344 131.628 54.2547 131.628 54.1716V50.2079C131.628 50.1248 131.595 50.0452 131.537 49.9864C131.478 49.9277 131.398 49.8946 131.315 49.8946H119.663C119.621 49.8943 119.58 49.9022 119.542 49.9179C119.504 49.9335 119.47 49.9566 119.44 49.9857C119.411 50.0149 119.388 50.0495 119.373 50.0877C119.357 50.1258 119.349 50.1667 119.349 50.2079V54.1716ZM91.7231 115.902C91.7237 115.984 91.7569 116.063 91.8156 116.122C91.8742 116.18 91.9535 116.213 92.0362 116.213H103.689C103.73 116.213 103.771 116.205 103.808 116.19C103.846 116.174 103.881 116.151 103.91 116.122C103.939 116.093 103.962 116.059 103.978 116.021C103.994 115.983 104.002 115.943 104.002 115.902V111.938C104.002 111.855 103.969 111.775 103.91 111.716C103.852 111.658 103.772 111.625 103.689 111.625H92.0362C91.9533 111.625 91.874 111.658 91.8154 111.717C91.7568 111.776 91.7237 111.855 91.7231 111.938V115.902ZM91.7231 105.612C91.7231 105.695 91.756 105.775 91.8148 105.833C91.8735 105.892 91.9531 105.925 92.0362 105.925H103.689C103.73 105.925 103.771 105.918 103.809 105.902C103.847 105.886 103.882 105.863 103.911 105.834C103.94 105.805 103.963 105.77 103.979 105.732C103.994 105.694 104.002 105.653 104.002 105.612V101.639C104.002 101.598 103.994 101.557 103.979 101.519C103.963 101.48 103.94 101.446 103.911 101.417C103.882 101.387 103.847 101.364 103.809 101.349C103.771 101.333 103.73 101.325 103.689 101.326H92.0362C91.9531 101.326 91.8735 101.359 91.8148 101.417C91.756 101.476 91.7231 101.556 91.7231 101.639V105.612ZM91.7231 95.3242C91.7237 95.4071 91.7568 95.4865 91.8154 95.5451C91.874 95.6037 91.9533 95.6369 92.0362 95.6375H103.689C103.772 95.6375 103.852 95.6045 103.91 95.5458C103.969 95.487 104.002 95.4073 104.002 95.3242V91.3489C104.002 91.2658 103.969 91.1861 103.91 91.1274C103.852 91.0686 103.772 91.0356 103.689 91.0356H92.0362C91.9533 91.0362 91.874 91.0694 91.8154 91.1281C91.7568 91.1867 91.7237 91.266 91.7231 91.3489V95.3242ZM91.7231 85.0344C91.7231 85.1174 91.756 85.1971 91.8148 85.2559C91.8735 85.3146 91.9531 85.3476 92.0362 85.3476H103.689C103.77 85.347 103.848 85.3147 103.905 85.2574C103.963 85.2001 103.996 85.1226 103.997 85.0413V81.073C103.998 81.0317 103.99 80.9908 103.974 80.9527C103.958 80.9146 103.935 80.8799 103.906 80.8507C103.877 80.8216 103.843 80.7985 103.804 80.7829C103.766 80.7673 103.725 80.7594 103.684 80.7597H92.0315C91.9485 80.7597 91.8688 80.7927 91.8101 80.8514C91.7514 80.9102 91.7184 80.9899 91.7184 81.073L91.7231 85.0344ZM91.7231 74.7468C91.7237 74.8297 91.7568 74.909 91.8154 74.9676C91.874 75.0263 91.9533 75.0595 92.0362 75.0601H103.689C103.772 75.0601 103.852 75.0271 103.91 74.9683C103.969 74.9096 104.002 74.8299 104.002 74.7468V70.7715C104.002 70.7304 103.994 70.6898 103.978 70.6519C103.962 70.614 103.939 70.5797 103.91 70.5508C103.881 70.5218 103.846 70.499 103.808 70.4835C103.771 70.468 103.73 70.4602 103.689 70.4605H92.0362C91.9535 70.4605 91.8742 70.4932 91.8156 70.5514C91.7569 70.6097 91.7237 70.6888 91.7231 70.7715V74.7468ZM91.7231 64.4592C91.7237 64.5419 91.7569 64.621 91.8156 64.6792C91.8742 64.7375 91.9535 64.7702 92.0362 64.7702H103.689C103.73 64.7705 103.771 64.7627 103.808 64.7472C103.846 64.7317 103.881 64.7088 103.91 64.6799C103.939 64.651 103.962 64.6166 103.978 64.5788C103.994 64.5409 104.002 64.5003 104.002 64.4592V60.4839C104.002 60.4008 103.969 60.3211 103.91 60.2624C103.852 60.2036 103.772 60.1706 103.689 60.1706H92.0362C91.9533 60.1712 91.874 60.2044 91.8154 60.263C91.7568 60.3217 91.7237 60.401 91.7231 60.4839V64.4592ZM91.7231 54.1693C91.7231 54.2105 91.7311 54.2512 91.7469 54.2892C91.7626 54.3272 91.7857 54.3618 91.8148 54.3909C91.8438 54.42 91.8784 54.443 91.9164 54.4588C91.9543 54.4745 91.995 54.4826 92.0362 54.4826H103.689C103.77 54.482 103.848 54.4496 103.905 54.3924C103.963 54.3351 103.996 54.2576 103.997 54.1763V50.2079C103.998 50.1667 103.99 50.1258 103.974 50.0877C103.958 50.0495 103.935 50.0149 103.906 49.9857C103.877 49.9566 103.843 49.9335 103.804 49.9179C103.766 49.9022 103.725 49.8943 103.684 49.8946H92.0315C91.9485 49.8946 91.8688 49.9277 91.8101 49.9864C91.7514 50.0452 91.7184 50.1248 91.7184 50.2079L91.7231 54.1693Z" fill="#F2F2F2"/>
<path d="M178.037 10.2667L181.637 12.5502L179.452 8.57257C180.071 8.07867 180.836 7.80513 181.628 7.79514H181.686C181.936 7.79889 182.186 7.78025 182.432 7.73945L183.652 8.51223L183.131 7.56075C183.996 7.25892 184.743 6.69013 185.264 5.93628L187.447 7.32869L186.069 4.82003C187.345 3.28607 189.066 2.34619 190.961 2.34619C193.232 2.34619 195.254 3.69683 196.56 5.80168C196.946 6.43369 197.493 6.9516 198.145 7.3023C198.798 7.65301 199.531 7.8239 200.271 7.79746H200.392C202.899 7.79746 204.931 10.6426 204.931 14.1492C204.931 17.6557 202.89 20.5032 200.382 20.5032C199.832 20.5003 199.29 20.3642 198.803 20.1063C197.949 19.6909 197.016 19.4662 196.067 19.4478C195.118 19.4293 194.177 19.6176 193.308 19.9996C192.573 20.3285 191.777 20.4985 190.973 20.4985C190.168 20.4985 189.372 20.3285 188.637 19.9996C187.775 19.6256 186.843 19.4416 185.903 19.46C184.964 19.4784 184.04 19.6988 183.193 20.1063C182.711 20.362 182.174 20.4981 181.628 20.5032C179.12 20.5032 177.089 17.658 177.089 14.1492C177.074 12.7958 177.4 11.4605 178.037 10.2667Z" fill="#F2F2F2"/>
<path opacity="0.03" d="M184.821 19.561C186.131 19.3115 187.485 19.4585 188.711 19.9833C189.446 20.3114 190.241 20.481 191.046 20.481C191.85 20.481 192.645 20.3114 193.38 19.9833C194.249 19.6024 195.19 19.4147 196.139 19.4332C197.088 19.4516 198.021 19.6757 198.875 20.0901C199.362 20.3492 199.905 20.4854 200.457 20.4869C202.683 20.4869 204.536 18.2428 204.921 15.2816C204.476 14.9565 204.098 14.5483 203.808 14.0795C202.502 11.9747 200.48 10.624 198.209 10.624C195.938 10.624 193.941 11.9584 192.642 14.0424C192.254 14.6718 191.708 15.1898 191.06 15.546C190.412 15.9022 189.683 16.0846 188.943 16.0753H188.885C187.104 16.0637 185.568 17.4863 184.821 19.561Z" fill="black"/>
<path d="M51.1708 3.95211L52.9706 5.09157L51.8805 3.10739C52.1893 2.86126 52.5712 2.72492 52.966 2.71983H52.9938C53.1189 2.72229 53.2439 2.71296 53.3672 2.69199L53.9749 3.07954L53.7151 2.6154C54.1457 2.4643 54.5181 2.18184 54.7797 1.80781L55.8675 2.50401L55.1717 1.25317C55.459 0.875641 55.8269 0.567167 56.2487 0.350336C56.6705 0.133505 57.1354 0.0138053 57.6094 0C58.7413 0 59.7502 0.675317 60.3927 1.72426C60.5861 2.03984 60.8598 2.29833 61.1858 2.47326C61.5119 2.6482 61.8785 2.73329 62.2482 2.71983H62.3085C63.5587 2.71983 64.5723 4.13777 64.5723 5.88756C64.5723 7.63735 63.5587 9.05528 62.3085 9.05528C62.0336 9.05439 61.7629 8.9867 61.5199 8.85803C61.0945 8.65116 60.6291 8.53925 60.1562 8.53003C59.6832 8.52082 59.2139 8.61452 58.7807 8.80465C58.414 8.96842 58.0168 9.05306 57.6152 9.05306C57.2136 9.05306 56.8165 8.96842 56.4497 8.80465C56.0196 8.61845 55.5545 8.52685 55.0859 8.53606C54.6173 8.54527 54.1562 8.65507 53.7337 8.85803C53.4931 8.9839 53.2258 9.04996 52.9544 9.05064C51.7042 9.05064 50.6906 7.63271 50.6906 5.88292C50.687 5.2093 50.8521 4.5455 51.1708 3.95211Z" fill="#F2F2F2"/>
<path opacity="0.03" d="M54.5547 8.58644C55.2085 8.46346 55.884 8.53694 56.4961 8.79763C56.8611 8.9601 57.2562 9.04391 57.6558 9.04362C58.0556 9.04156 58.4505 8.9562 58.8155 8.79298C59.2491 8.6028 59.7188 8.50909 60.1921 8.5183C60.6655 8.52752 61.1312 8.63945 61.557 8.84636C61.8 8.9753 62.0706 9.043 62.3456 9.04362C63.4566 9.04362 64.3798 7.92505 64.5723 6.44678C64.3501 6.28469 64.1611 6.08143 64.0156 5.84804C63.3662 4.7991 62.3572 4.12378 61.2323 4.12378C60.1074 4.12378 59.1031 4.78981 58.449 5.82948C58.2541 6.14492 57.9806 6.40425 57.6553 6.58204C57.33 6.75983 56.9641 6.84996 56.5935 6.84361H56.5633C55.6936 6.84361 54.9282 7.55374 54.5547 8.58644Z" fill="black"/>
<path d="M96.2391 24.822L98.3497 26.161L97.0694 23.8404C97.4311 23.5478 97.8801 23.3844 98.3451 23.3762H98.3799C98.5267 23.3783 98.6733 23.3674 98.8182 23.3437L99.5326 23.8079L99.2265 23.2486C99.7333 23.0719 100.172 22.7398 100.479 22.2994L101.759 23.1117L100.95 21.6404C101.29 21.2003 101.724 20.8416 102.221 20.5903C102.717 20.339 103.263 20.2015 103.819 20.1876C105.15 20.1876 106.338 20.9813 107.103 22.2159C107.33 22.5838 107.651 22.8849 108.032 23.0887C108.414 23.2925 108.842 23.3917 109.274 23.3762H109.346C110.816 23.3762 112.006 25.0448 112.006 27.0893C112.006 29.1338 110.816 30.814 109.346 30.814C109.022 30.8134 108.704 30.7338 108.418 30.5819C107.918 30.3387 107.371 30.2071 106.814 30.1962C106.258 30.1854 105.706 30.2956 105.197 30.5193C104.765 30.7113 104.299 30.8105 103.827 30.8105C103.355 30.8105 102.888 30.7113 102.457 30.5193C101.952 30.3001 101.405 30.1923 100.854 30.2031C100.303 30.2139 99.7603 30.3431 99.2636 30.5819C98.9774 30.7327 98.6592 30.8123 98.3358 30.814C96.8653 30.814 95.6731 29.1478 95.6731 27.0893C95.6695 26.2981 95.864 25.5186 96.2391 24.822Z" fill="#F2F2F2"/>
<path opacity="0.03" d="M100.217 30.2732C100.985 30.1276 101.78 30.214 102.499 30.5215C102.93 30.7135 103.397 30.8127 103.869 30.8127C104.341 30.8127 104.807 30.7135 105.238 30.5215C105.748 30.2978 106.3 30.1876 106.856 30.1984C107.412 30.2093 107.96 30.3409 108.46 30.5841C108.746 30.7357 109.064 30.8154 109.388 30.8162C110.694 30.8162 111.781 29.5004 112.006 27.7645C111.746 27.5765 111.525 27.3402 111.355 27.0683C110.589 25.8337 109.402 25.0424 108.07 25.0424C106.739 25.0424 105.565 25.8244 104.8 27.0451C104.572 27.4145 104.253 27.7185 103.873 27.9276C103.493 28.1366 103.065 28.2436 102.631 28.2379H102.606C101.557 28.2217 100.655 29.0571 100.217 30.2732Z" fill="black"/>
<path d="M20.2945 132.093C20.2945 132.492 20.2945 132.891 20.32 133.286C20.3793 134.821 20.564 136.35 20.8721 137.855C22.3959 145.307 26.7958 151.099 32.3229 152.81C33.4223 153.152 34.5671 153.327 35.7186 153.327C44.2377 153.327 51.1426 143.812 51.1426 132.093C51.1426 120.374 44.2377 110.859 35.7186 110.859C27.7282 110.859 21.155 119.227 20.3734 129.946C20.32 130.652 20.2945 131.369 20.2945 132.093Z" fill="#36334A"/>
<path opacity="0.1" d="M20.3204 133.288C20.3797 134.824 20.5643 136.352 20.8724 137.858C22.3963 145.309 26.7962 151.102 32.3233 152.812C36.6026 150.842 39.7778 143.457 39.7778 134.648C39.7778 124.33 35.4174 115.967 30.0364 115.967C25.5205 115.967 21.7213 121.866 20.6196 129.87C20.4665 130.967 20.3668 132.114 20.3204 133.288Z" fill="black"/>
<path d="M97.7627 85.0992C97.7627 85.0992 56.0135 76.5127 33.9792 84.403C33.9792 84.403 30.732 86.0275 33.9792 88.8123C33.9792 88.8123 30.9083 92.0612 36.2708 93.2216L57.5744 94.5328L97.7627 90.4368V85.0992Z" fill="#3F3D56"/>
<path opacity="0.1" d="M90.4565 86.1783C90.4565 86.1783 54.7123 78.8264 35.8462 85.5819C35.8462 85.5819 33.063 86.9743 35.8462 89.3577C35.8462 89.3577 33.2184 92.1425 37.8085 93.1334L56.0482 94.2543L90.4565 90.7524V86.1783Z" fill="black"/>
<path d="M49.7513 99.0233L52.5346 93.4537C52.5346 93.4537 51.3146 87.8191 61.2323 86.1622C61.782 83.7046 64.2731 81.8503 67.2628 81.8503C70.1806 81.8503 72.6206 83.6141 73.2515 85.9811C74.6756 86.1041 76.1925 86.2712 77.816 86.4917L80.0844 98.6613L80.3674 98.0951C80.3674 98.0951 78.927 91.4394 91.9087 90.467C91.2011 89.6088 90.8111 88.5325 90.8047 87.42C90.8047 84.4704 93.5578 82.0824 96.9511 82.0824C100.344 82.0824 103.098 84.4704 103.098 87.42C103.089 88.6317 102.629 89.7966 101.808 90.6875C103.022 90.8035 104.302 90.952 105.649 91.1331L108.2 104.825L96.3713 106.45L77.5841 103.665L79.2471 100.335L68.5384 101.806L49.7513 99.0233Z" fill="#61A199"/>
<path opacity="0.2" d="M49.7513 99.0233L52.5346 93.4537C52.5346 93.4537 51.3146 87.8191 61.2323 86.1622C61.782 83.7046 64.2731 81.8503 67.2628 81.8503C70.1806 81.8503 72.6206 83.6141 73.2515 85.9811C74.6756 86.1041 76.1925 86.2712 77.816 86.4917L80.0844 98.6613L80.3674 98.0951C80.3674 98.0951 78.927 91.4394 91.9087 90.467C91.2011 89.6088 90.8111 88.5325 90.8047 87.42C90.8047 84.4704 93.5578 82.0824 96.9511 82.0824C100.344 82.0824 103.098 84.4704 103.098 87.42C103.089 88.6317 102.629 89.7966 101.808 90.6875C103.022 90.8035 104.302 90.952 105.649 91.1331L108.2 104.825L96.3713 106.45L77.5841 103.665L79.2471 100.335L68.5384 101.806L49.7513 99.0233Z" fill="black"/>
<path d="M89.6498 86.6959C89.6498 86.6959 91.5053 76.2807 82.9236 76.0486C74.3418 75.8166 77.1251 91.133 77.1251 91.133C77.1251 91.133 70.6307 92.5254 70.1668 95.0782C69.703 97.6309 92.665 98.3271 92.665 98.3271L89.6498 86.6959Z" fill="#61A199"/>
<path d="M104.721 141.724C104.721 154.023 113.859 164.002 125.132 164.002C136.404 164.002 145.542 154.023 145.542 141.724C145.542 129.424 136.29 117.473 125.016 117.473C113.741 117.473 104.721 129.42 104.721 141.724Z" fill="#36334A"/>
<path opacity="0.1" d="M125.132 161.447C116.165 161.447 108.896 153.032 108.896 142.652C108.896 132.272 116.165 123.857 125.132 123.857C134.099 123.857 141.368 132.272 141.368 142.652C141.368 153.032 134.099 161.447 125.132 161.447Z" fill="black"/>
<path d="M214.892 161.911C203.62 161.911 194.482 151.937 194.482 139.633C194.482 127.329 203.62 117.354 214.892 117.354C226.165 117.354 235.303 127.329 235.303 139.633C235.303 151.937 226.165 161.911 214.892 161.911Z" fill="#36334A"/>
<path d="M180.101 86.4917C180.101 86.4917 189.611 86.9558 189.147 92.0613C188.683 97.1668 181.029 93.4537 181.029 93.4537L180.101 86.4917Z" fill="#36334A"/>
<path d="M100.982 94.9969L97.0668 68.8545C97.0668 68.8545 96.1391 65.6056 108.664 65.6056C108.664 65.6056 148.789 63.0528 158.995 67.2301C158.995 67.2301 170.824 71.6393 187.292 94.382C187.292 94.382 102.606 96.3893 100.982 94.9969Z" fill="#3F3D56"/>
<path d="M102.401 67.6942L109.591 96.2386L114.1 96.1295L135.439 95.6097L183.031 94.4493C183.163 92.1936 160.625 68.8546 160.625 68.8546L102.401 67.6942Z" fill="#36334A"/>
<path opacity="0.2" d="M135.432 95.6097L133.488 88.0907C133.488 88.0907 135.344 77.6732 126.762 77.4411C118.18 77.209 120.964 92.5255 120.964 92.5255C120.964 92.5255 115.049 93.7949 114.108 96.1295L135.432 95.6097Z" fill="#61A199"/>
<path d="M20.1788 130.469C21.5704 117.009 30.2682 114.108 30.2682 114.108C38.618 113.644 44.1846 145.437 44.1846 145.437L108.432 151.239C108.432 151.239 106.229 124.203 121.769 119.793C137.309 115.384 141.367 147.061 142.063 151.471C142.759 155.88 235.767 151.007 238.318 149.15C240.87 147.293 239.942 129.424 239.246 128.032C238.55 126.639 236.695 120.374 236.695 120.374C236.695 118.879 235.98 116.99 235.387 115.679C234.969 114.751 234.607 114.108 234.607 114.108C232.592 102.671 222.127 99.9029 221.424 99.7195H221.387C218.604 96.9347 192.858 95.0782 192.858 95.0782L183.117 93.2216L103.916 94.7788L100.546 94.8461L60.2812 92.9083L33.0515 91.5972C26.7891 91.5972 23.5419 107.378 23.5419 107.378C17.7434 121.302 20.1788 130.469 20.1788 130.469Z" fill="#3F3D56"/>
<path opacity="0.1" d="M150.75 116.801C144.633 114.338 140.923 109.235 142.464 105.402C144.005 101.57 150.214 100.46 156.332 102.924C162.449 105.387 166.159 110.49 164.618 114.322C163.077 118.154 156.868 119.264 150.75 116.801Z" fill="black"/>
<path d="M151.214 115.872C145.096 113.409 141.387 108.305 142.928 104.473C144.469 100.641 150.678 99.5312 156.795 101.994C162.913 104.457 166.623 109.561 165.082 113.393C163.541 117.225 157.332 118.335 151.214 115.872Z" fill="#F2F2F2"/>
<path opacity="0.1" d="M220.96 100.193C221.078 102.746 222.222 105.967 224.279 109.07C227.589 114.064 232.128 117.004 234.923 116.143C234.505 115.215 234.144 114.572 234.144 114.572C232.128 103.136 221.663 100.367 220.96 100.193Z" fill="black"/>
<path d="M221.656 99.7289C221.774 102.282 222.918 105.503 224.975 108.605C228.285 113.6 232.824 116.54 235.619 115.679C235.201 114.751 234.839 114.108 234.839 114.108C232.824 102.671 222.359 99.9029 221.656 99.7289Z" fill="#F2F2F2"/>
<path d="M189.147 106.679H207.47L208.398 104.126H186.132L189.147 106.679Z" fill="#36334A"/>
<path d="M193.322 125.477H223.474V134.295H193.322V125.477Z" fill="#36334A"/>
<path opacity="0.1" d="M160.85 142.882C158.545 142.882 156.676 141.012 156.676 138.705C156.676 136.398 158.545 134.527 160.85 134.527C163.156 134.527 165.025 136.398 165.025 138.705C165.025 141.012 163.156 142.882 160.85 142.882Z" fill="black"/>
<path d="M161.314 142.186C159.009 142.186 157.139 140.315 157.139 138.008C157.139 135.701 159.009 133.831 161.314 133.831C163.62 133.831 165.489 135.701 165.489 138.008C165.489 140.315 163.62 142.186 161.314 142.186Z" fill="#F2F2F2"/>
<path opacity="0.1" d="M236.695 139.865C235.542 139.865 234.607 137.891 234.607 135.456C234.607 133.02 235.542 131.046 236.695 131.046C237.848 131.046 238.782 133.02 238.782 135.456C238.782 137.891 237.848 139.865 236.695 139.865Z" fill="black"/>
<path d="M237.391 139.633C236.238 139.633 235.303 137.659 235.303 135.224C235.303 132.788 236.238 130.814 237.391 130.814C238.543 130.814 239.478 132.788 239.478 135.224C239.478 137.659 238.543 139.633 237.391 139.633Z" fill="#F2F2F2"/>
<path d="M53.4626 116.66C56.0139 124.551 56.2458 136.85 56.2458 136.85L57.1736 140.099L102.402 145.205C102.402 145.205 102.17 122.462 101.474 111.787C100.985 104.256 102.801 97.8815 103.917 94.7788L100.546 94.8461L60.2816 92.9083C53.5553 97.6263 51.1733 109.575 53.4626 116.66Z" fill="#36334A"/>
<path d="M63.7742 102.435C63.9325 102.445 64.0869 102.489 64.2274 102.563C64.368 102.636 64.4916 102.739 64.5903 102.863C64.689 102.987 64.7607 103.131 64.8006 103.284C64.8406 103.438 64.8481 103.598 64.8225 103.755C64.8005 103.886 64.7467 104.01 64.6659 104.116C64.585 104.221 64.4795 104.305 64.3587 104.361C63.6095 104.735 58.6228 103.897 56.7325 103.563C56.4526 103.517 56.1956 103.38 56.0018 103.173C55.8079 102.966 55.688 102.701 55.6609 102.418C55.6377 102.089 55.7583 101.808 56.2408 101.808L63.7742 102.435Z" fill="#F2F2F2"/>
<path d="M104.025 93.9179C104.025 93.9179 102.865 99.0234 97.2986 97.3989L95.4431 90.2048L99.1542 88.1162L104.025 93.9179Z" fill="#36334A"/>
<path d="M97.2087 83.5514C94.6573 82.0383 90.61 80.7155 86.6067 83.8925C85.7734 84.5508 85.1857 85.4703 84.9379 86.5032C84.6901 87.5362 84.7967 88.6225 85.2406 89.5874C86.551 92.4256 89.6614 95.5052 96.9234 91.8176C97.6362 91.4556 98.2447 90.9172 98.6908 90.2535L98.7279 90.1978C99.0793 89.6661 99.3191 89.0686 99.433 88.4414C99.5468 87.8143 99.5323 87.1705 99.3903 86.5492C99.2483 85.9278 98.9817 85.3417 98.6067 84.8265C98.2317 84.3112 97.7561 83.8774 97.2087 83.5514Z" fill="#36334A"/>
<path d="M125.015 146.247C122.454 146.247 120.377 144.169 120.377 141.605C120.377 139.042 122.454 136.964 125.015 136.964C127.577 136.964 129.654 139.042 129.654 141.605C129.654 144.169 127.577 146.247 125.015 146.247Z" fill="#F2F2F2"/>
<path d="M29.2245 137.892C27.8155 137.892 26.6732 135.814 26.6732 133.251C26.6732 130.688 27.8155 128.61 29.2245 128.61C30.6336 128.61 31.7759 130.688 31.7759 133.251C31.7759 135.814 30.6336 137.892 29.2245 137.892Z" fill="#F2F2F2"/>
<path d="M124.899 127.333H125.363C126.9 127.333 128.146 128.58 128.146 130.118V132.671C128.146 134.209 126.9 135.456 125.363 135.456H124.899C123.362 135.456 122.116 134.209 122.116 132.671V130.118C122.116 128.58 123.362 127.333 124.899 127.333Z" fill="#36334A"/>
<path d="M29.2245 118.399C29.0113 118.399 28.8002 118.441 28.6032 118.522C28.4062 118.604 28.2272 118.724 28.0765 118.874C27.9257 119.025 27.8061 119.204 27.7245 119.401C27.6429 119.599 27.601 119.81 27.601 120.023V123.736C27.601 124.475 27.8942 125.183 28.4162 125.705C28.9381 126.228 29.6461 126.521 30.3842 126.521C30.8148 126.521 31.2278 126.35 31.5323 126.045C31.8368 125.741 32.0078 125.327 32.0078 124.897V121.183C32.0078 120.445 31.7146 119.737 31.1926 119.214C30.6706 118.692 29.9627 118.399 29.2245 118.399Z" fill="#36334A"/>
<path d="M29.2245 148.106C29.9627 148.106 30.6706 147.812 31.1926 147.29C31.7146 146.768 32.0078 146.059 32.0078 145.321V142.768C32.0078 142.03 31.7146 141.321 31.1926 140.799C30.6706 140.277 29.9627 139.983 29.2245 139.983C27.6937 139.983 27.8329 141.236 27.8329 142.768V145.321C27.8352 146.852 27.689 148.106 29.2245 148.106Z" fill="#36334A"/>
<path d="M36.1826 129.074C35.4444 129.074 34.7364 129.367 34.2145 129.889C33.6925 130.412 33.3993 131.12 33.3993 131.859V135.34C33.3993 135.832 33.5948 136.304 33.9427 136.652C34.2907 137.001 34.7627 137.196 35.2548 137.196C35.993 137.196 36.7009 136.903 37.2229 136.38C37.7448 135.858 38.0381 135.15 38.0381 134.411V130.93C38.0381 130.438 37.8426 129.966 37.4946 129.617C37.1466 129.269 36.6747 129.074 36.1826 129.074Z" fill="#36334A"/>
<path d="M20.2944 132.093C20.2944 132.492 20.2944 132.891 20.32 133.286C20.3793 134.821 20.5639 136.35 20.872 137.855C21.0253 137.881 21.1804 137.894 21.3359 137.895C22.074 137.895 22.782 137.601 23.3039 137.079C23.8259 136.557 24.1191 135.848 24.1191 135.11V132.557C24.1191 131.819 23.8259 131.11 23.3039 130.588C22.782 130.066 22.074 129.772 21.3359 129.772C21.093 129.772 20.8512 129.804 20.6168 129.868C20.5334 129.891 20.4498 129.916 20.371 129.946C20.32 130.652 20.2944 131.369 20.2944 132.093Z" fill="#36334A"/>
<path d="M113.186 137.196H113.65C115.187 137.196 116.434 138.443 116.434 139.981V142.534C116.434 144.072 115.187 145.319 113.65 145.319H113.186C111.649 145.319 110.403 144.072 110.403 142.534V139.981C110.403 138.443 111.649 137.196 113.186 137.196Z" fill="#36334A"/>
<path d="M135.917 137.196H136.381C137.918 137.196 139.164 138.443 139.164 139.981V142.534C139.164 144.072 137.918 145.319 136.381 145.319H135.917C134.38 145.319 133.134 144.072 133.134 142.534V139.981C133.134 138.443 134.38 137.196 135.917 137.196Z" fill="#36334A"/>
<path d="M124.784 149.264H125.248C126.785 149.264 128.031 150.51 128.031 152.048V154.601C128.031 156.139 126.785 157.386 125.248 157.386H124.784C123.247 157.386 122.001 156.139 122.001 154.601V152.048C122.001 150.51 123.247 149.264 124.784 149.264Z" fill="#36334A"/>
<path d="M44.0084 47.8083C44.0098 48.2509 44.0883 48.6898 44.2404 49.1055C44.5048 49.8441 44.9884 50.4843 45.6264 50.9405C46.2644 51.3967 47.0264 51.6471 47.8105 51.6582C48.5946 51.6693 49.3634 51.4405 50.014 51.0026C50.6647 50.5647 51.1661 49.9384 51.4514 49.2076C51.6263 48.7642 51.716 48.2919 51.7158 47.8152C51.7158 46.7935 51.3102 45.8137 50.5881 45.0912C49.8661 44.3688 48.8867 43.9629 47.8656 43.9629C46.8445 43.9629 45.8651 44.3688 45.1431 45.0912C44.421 45.8137 44.0154 46.7935 44.0154 47.8152L44.0084 47.8083Z" fill="#FF6584"/>
<path d="M50.934 48.769C51.1793 48.3267 51.3352 47.8403 51.3927 47.3377C51.4502 46.8351 51.4082 46.326 51.269 45.8396C51.1299 45.3533 50.8964 44.8991 50.5818 44.503C50.2672 44.1069 49.8778 43.7767 49.4357 43.5313C49.0062 43.2878 48.5336 43.1302 48.044 43.0671C48.5745 43.0483 49.1032 43.1394 49.5968 43.3348C50.0904 43.5301 50.5383 43.8255 50.9124 44.2023C51.2864 44.5792 51.5786 45.0293 51.7704 45.5245C51.9623 46.0198 52.0498 46.5493 52.0273 47.08C52.0049 47.6106 51.873 48.1309 51.64 48.6081C51.407 49.0853 51.0778 49.5091 50.6733 49.853C50.2687 50.1969 49.7975 50.4533 49.2891 50.6062C48.7808 50.7591 48.2463 50.8052 47.7193 50.7416C48.3793 50.7165 49.0217 50.5218 49.5847 50.1764C50.1477 49.8309 50.6124 49.3462 50.934 48.769Z" fill="#FF6584"/>
<path d="M42.357 53.1737H52.6714V69.2723H42.357V53.1737Z" fill="#FF6584"/>
<path opacity="0.1" d="M42.1251 52.7096H52.4395V68.8081H42.1251V52.7096Z" fill="black"/>
<path d="M68.9744 111.581C68.9744 111.581 70.0738 114.597 72.6854 115.02C75.2971 115.442 76.8047 116.115 76.8047 116.115L70.6165 120.104L67.316 119.691C67.316 119.691 66.9055 115.426 65.5301 114.463C64.1546 113.5 68.9744 111.581 68.9744 111.581Z" fill="#FBBEBE"/>
<path d="M24.2747 111.581C24.2747 111.581 23.1753 114.597 20.5636 115.02C17.952 115.442 16.4397 116.122 16.4397 116.122L22.6279 120.111L25.9284 119.698C25.9284 119.698 26.3389 115.433 27.7143 114.47C29.0897 113.507 24.2747 111.581 24.2747 111.581Z" fill="#FBBEBE"/>
<path d="M54.3899 84.8881C54.3899 84.8881 56.0413 85.7142 56.591 87.3642C56.591 87.3642 59.6062 88.3273 61.2669 90.9427C61.2669 90.9427 63.3289 93.1427 63.6049 94.245C63.8809 95.3474 67.0422 101.959 67.0422 101.959C67.0422 101.959 70.2036 112.277 71.855 113.379C71.855 113.379 66.6294 112.277 65.6668 117.505C65.6668 117.505 64.4283 117.505 63.0529 112.69C61.6775 107.874 58.3793 101.959 58.3793 101.959C58.3793 101.959 57.2776 97.8305 56.315 97.1436C55.3525 96.4567 53.8402 93.2912 52.4648 94.1151C51.0894 94.9389 42.0136 93.9782 42.0136 93.9782C42.0136 93.9782 36.6511 96.4543 36.5143 98.1067C36.3774 99.759 35.4126 99.8936 35.2757 101.27C35.1389 102.646 30.0501 113.516 30.0501 113.516C30.0501 113.516 29.0876 116.533 28.8139 117.229C28.8139 117.229 25.7871 109.937 21.8 114.064C21.8 114.064 21.9369 111.311 23.1754 109.654C24.414 107.997 29.7764 95.0689 29.7764 95.0689C29.7764 95.0689 30.3261 93.1427 30.8758 92.5927C31.4255 92.0427 35.6886 87.6404 37.1985 87.6404C37.1985 87.6404 38.0242 85.575 38.9868 85.3011L54.3899 84.8881Z" fill="#696880"/>
<path d="M66.7662 118.735C67.8407 119.167 69.0087 119.312 70.1562 119.158C71.3037 119.003 72.3916 118.554 73.3139 117.853C74.21 117.165 75.1915 116.597 76.234 116.162C77.6906 115.572 79.4371 115.133 79.9682 116.122C80.9308 117.909 68.2784 122.314 68.2784 122.314C68.2784 122.314 66.6293 121.348 66.7662 118.735Z" fill="#696880"/>
<path d="M26.4758 118.735C25.4013 119.167 24.2333 119.312 23.0858 119.158C21.9383 119.003 20.8504 118.554 19.9282 117.853C19.0321 117.165 18.0505 116.597 17.008 116.162C15.5514 115.572 13.8049 115.133 13.2738 116.122C12.3113 117.909 24.9636 122.314 24.9636 122.314C24.9636 122.314 26.6127 121.348 26.4758 118.735Z" fill="#696880"/>
<path d="M49.8949 62.2568C49.9482 62.7349 50.1036 63.2524 50.5118 63.5077C50.8458 63.7165 51.268 63.698 51.653 63.7792C52.0576 63.8796 52.4328 64.0739 52.7484 64.3465C53.0639 64.619 53.3108 64.9621 53.4691 65.348C53.777 66.1269 53.8369 66.982 53.6407 67.7963C53.5508 68.196 53.4338 68.5891 53.2905 68.9729C52.8846 70.1146 52.3975 71.2448 51.646 72.1963C51.0027 72.95 50.2794 73.6317 49.489 74.2292C48.9996 74.6284 48.4939 75.0368 47.8909 75.2248C47.4814 75.3331 47.0597 75.3885 46.6361 75.3895C46.1142 75.4151 45.5599 75.4313 45.1076 75.1714C44.4118 74.7699 44.2031 73.8811 43.8273 73.171C43.5049 72.5653 43.0271 72.0547 42.7279 71.4374C42.5161 70.9532 42.3604 70.4463 42.264 69.9267L41.6216 67.0699C41.3896 66.0349 41.1762 64.8653 41.7607 63.9764C41.8016 63.9031 41.8607 63.8415 41.9324 63.7977C42.0433 63.7527 42.1647 63.7399 42.2826 63.7606C43.0222 63.8103 43.7602 63.6417 44.4048 63.2756C44.507 63.2248 44.5978 63.1538 44.6716 63.0667C44.7663 62.9198 44.8229 62.7514 44.8363 62.5771C44.899 62.2227 44.9985 61.8758 45.1331 61.542C45.1714 61.4229 45.2412 61.3163 45.3349 61.2334C45.4328 61.1715 45.5442 61.1341 45.6596 61.1243C46.6525 60.9624 47.6538 60.857 48.6586 60.8087C48.9903 60.7948 49.4867 60.6625 49.7116 60.9526C49.9366 61.2427 49.8578 61.9087 49.8949 62.2568Z" fill="#FBBEBE"/>
<path opacity="0.1" d="M49.8949 62.2568C49.9482 62.7349 50.1036 63.2524 50.5118 63.5077C50.8458 63.7165 51.268 63.698 51.653 63.7792C52.0576 63.8796 52.4328 64.0739 52.7484 64.3465C53.0639 64.619 53.3108 64.9621 53.4691 65.348C53.777 66.1269 53.8369 66.982 53.6407 67.7963C53.5508 68.196 53.4338 68.5891 53.2905 68.9729C52.8846 70.1146 52.3975 71.2448 51.646 72.1963C51.0027 72.95 50.2794 73.6317 49.489 74.2292C48.9996 74.6284 48.4939 75.0368 47.8909 75.2248C47.4814 75.3331 47.0597 75.3885 46.6361 75.3895C46.1142 75.4151 45.5599 75.4313 45.1076 75.1714C44.4118 74.7699 44.2031 73.8811 43.8273 73.171C43.5049 72.5653 43.0271 72.0547 42.7279 71.4374C42.5161 70.9532 42.3604 70.4463 42.264 69.9267L41.6216 67.0699C41.3896 66.0349 41.1762 64.8653 41.7607 63.9764C41.8016 63.9031 41.8607 63.8415 41.9324 63.7977C42.0433 63.7527 42.1647 63.7399 42.2826 63.7606C43.0222 63.8103 43.7602 63.6417 44.4048 63.2756C44.507 63.2248 44.5978 63.1538 44.6716 63.0667C44.7663 62.9198 44.8229 62.7514 44.8363 62.5771C44.899 62.2227 44.9985 61.8758 45.1331 61.542C45.1714 61.4229 45.2412 61.3163 45.3349 61.2334C45.4328 61.1715 45.5442 61.1341 45.6596 61.1243C46.6525 60.9624 47.6538 60.857 48.6586 60.8087C48.9903 60.7948 49.4867 60.6625 49.7116 60.9526C49.9366 61.2427 49.8578 61.9087 49.8949 62.2568Z" fill="black"/>
<path d="M51.7575 63.8999C52.2955 63.7398 52.8524 63.6516 53.4136 63.6377C54.7403 63.6052 56.1574 64.0647 56.9251 65.1484C57.4446 65.9298 57.6355 66.8845 57.4563 67.8056C57.2706 68.72 56.8555 69.572 56.2502 70.2818C55.9 70.6542 55.5891 71.0616 55.3224 71.4978C54.956 72.194 54.9467 73.0248 54.8586 73.8185C54.6266 75.7006 53.8241 77.4736 53.504 79.344C53.1839 81.2145 53.4623 83.3866 54.9397 84.5795C55.1879 84.779 55.4871 84.9879 55.508 85.3058C55.5428 85.8141 54.8817 86.0322 54.3738 86.0786C52.8546 86.2248 51.2959 86.3664 49.8208 85.9742C49.2085 85.8118 48.6217 85.5588 48.0001 85.4428C46.4206 85.148 44.8341 85.7514 43.2569 86.0438C42.1137 86.2314 40.9571 86.3253 39.7987 86.3246C39.5283 86.3486 39.2559 86.313 39.0008 86.2202C38.8748 86.1707 38.7678 86.0825 38.6952 85.9682C38.6227 85.8539 38.5884 85.7194 38.5972 85.5843C38.6476 85.4089 38.7418 85.2492 38.8709 85.1202C39.6688 84.1316 39.9123 82.8227 40.1303 81.5719L40.8493 77.3598C41.2413 75.1134 41.6055 72.6744 40.5432 70.6554C39.7778 69.205 38.3722 68.1839 37.5651 66.7567C37.2797 66.3246 37.1504 65.808 37.1986 65.2923C37.3192 64.5752 37.9663 64.0623 38.6297 63.7607C39.9043 63.1904 41.3506 63.138 42.6631 63.6145C42.6399 64.6193 42.8951 65.6358 43.0621 66.6313L43.3427 68.2558C43.485 69.2131 43.6943 70.1591 43.9689 71.087C44.071 71.4575 44.2418 71.8054 44.4722 72.1128C44.7199 72.3883 45.0225 72.6089 45.3606 72.7603C46.0934 73.1185 46.8992 73.302 47.7148 73.2963C48.0676 73.3035 48.4191 73.2501 48.7539 73.1385C49.3059 72.9389 49.7535 72.5282 50.1849 72.129C50.3268 72.0084 50.4537 71.8713 50.563 71.7206C50.6767 71.5268 50.7633 71.3183 50.8205 71.101C51.0083 70.5335 51.1556 69.9534 51.2612 69.3651C51.3331 68.9149 51.3539 68.4577 51.3864 68.0029C51.4884 66.6847 51.4861 65.1925 51.7575 63.8999Z" fill="#F2F2F2"/>
<path d="M53.1538 90.5297C53.1538 90.5297 53.7035 97.8212 50.2661 99.0605C46.8288 100.3 49.8532 93.0058 49.8532 93.0058L50.9526 90.8035L53.1538 90.5297Z" fill="#FBBEBE"/>
<path d="M41.4639 90.5297C41.4639 90.5297 40.9142 97.8212 44.3515 99.0605C47.7889 100.3 44.7644 93.0058 44.7644 93.0058L43.665 90.8035L41.4639 90.5297Z" fill="#FBBEBE"/>
<path opacity="0.1" d="M56.178 66.1764L57.2773 67.9657C57.2773 67.9657 56.3148 74.1572 56.178 75.2572C56.0602 76.0494 55.8763 76.8304 55.6283 77.5918C55.6283 77.5918 55.4914 80.8942 55.4914 82.1311C55.4914 83.368 54.7956 85.4334 54.7956 85.4334C54.6992 86.6032 54.4656 87.7575 54.0998 88.8727C53.5501 90.3881 52.9981 92.175 52.9981 92.175C52.9981 92.175 52.3022 90.2488 49.5607 93.1381C49.2542 92.826 49.0824 92.406 49.0824 91.9685C49.0824 91.5309 49.2542 91.1109 49.5607 90.7988C49.5607 90.7988 50.3864 87.0857 50.3864 85.1596C50.3864 83.2334 51.8987 74.0203 51.8987 74.0203C51.8987 74.0203 52.8775 63.561 56.178 66.1764Z" fill="black"/>
<path d="M56.4494 66.0395L57.5488 67.8265C57.5488 67.8265 56.5863 74.018 56.4494 75.1204C56.3306 75.9133 56.1459 76.695 55.8974 77.4573C55.8974 77.4573 55.7536 80.7596 55.7536 82.0012C55.7536 83.2427 55.0578 85.3035 55.0578 85.3035C54.9608 86.4731 54.7272 87.6274 54.362 88.7427C53.8123 90.2558 53.2626 92.0451 53.2626 92.0451C53.2626 92.0451 52.5668 90.1189 49.8253 93.0081C49.5182 92.6964 49.346 92.2762 49.346 91.8385C49.346 91.4008 49.5182 90.9807 49.8253 90.6689C49.8253 90.6689 50.651 86.9558 50.651 85.0273C50.651 83.0989 52.1632 73.8881 52.1632 73.8881C52.1632 73.8881 53.1536 63.4357 56.4494 66.0395Z" fill="#F2F2F2"/>
<path opacity="0.1" d="M38.3026 65.0741L37.6068 65.8933C37.6068 65.8933 36.795 70.5788 38.5833 76.4942L39.133 81.8619C39.133 81.8619 40.0955 86.4011 40.2347 87.5035C40.3739 88.6058 40.3715 88.7404 40.6452 89.1535C40.7294 89.2499 40.7758 89.3736 40.7758 89.5016C40.7758 89.6296 40.7294 89.7533 40.6452 89.8497L41.4709 92.8782C41.4709 92.8782 42.7095 91.3651 45.182 93.2912C45.182 93.2912 45.8778 92.1889 45.3188 91.2258C44.7598 90.2628 44.7691 89.8497 44.906 89.5758C45.0428 89.302 44.3563 87.9235 44.3563 87.6497C44.3563 87.3758 43.3937 81.045 43.3937 81.045C43.3937 81.045 42.9809 74.8535 42.568 72.7904C42.3152 71.521 42.3222 68.6897 42.3639 66.6986C42.408 64.6262 39.9007 63.5007 38.4209 64.9604C38.3815 64.9906 38.3421 65.0323 38.3026 65.0741Z" fill="black"/>
<path d="M37.8944 64.8003L37.1986 65.6195C37.1986 65.6195 36.3892 70.3026 38.1751 76.2203L38.7248 81.5857C38.7248 81.5857 39.6873 86.1273 39.8265 87.2273C39.9657 88.3273 39.9633 88.4665 40.2393 88.8773C40.3222 88.9744 40.3677 89.0978 40.3677 89.2254C40.3677 89.353 40.3222 89.4765 40.2393 89.5735L41.0627 92.5904C41.0627 92.5904 42.3013 91.0773 44.7738 93.0035C44.7738 93.0035 45.4696 91.9035 44.9106 90.9404C44.3516 89.9773 44.3609 89.5642 44.5001 89.2881C44.6392 89.0119 43.9481 87.6381 43.9481 87.3619C43.9481 87.0857 42.9855 80.7573 42.9855 80.7573C42.9855 80.7573 42.5727 74.5657 42.1621 72.5026C41.7516 70.4395 42.023 64.248 42.023 64.248C42.023 64.248 39.8149 62.7395 37.8944 64.8003Z" fill="#F2F2F2"/>
<path d="M47.1024 62.8742C44.0639 62.8742 41.6008 60.4097 41.6008 57.3695C41.6008 54.3294 44.0639 51.8649 47.1024 51.8649C50.1409 51.8649 52.604 54.3294 52.604 57.3695C52.604 60.4097 50.1409 62.8742 47.1024 62.8742Z" fill="#FBBEBE"/>
<path opacity="0.1" d="M44.2333 49.1056C44.4978 49.8442 44.9814 50.4844 45.6194 50.9406C46.2574 51.3967 47.0194 51.6471 47.8034 51.6582C48.5875 51.6693 49.3563 51.4406 50.0069 51.0027C50.6576 50.5648 51.1591 49.9385 51.4443 49.2077C49.2989 48.3444 47.1024 49.1148 47.1024 49.1148C46.0123 48.7273 45.0567 48.7644 44.2333 49.1056Z" fill="black"/>
<path d="M47.1024 49.391C47.1024 49.391 57.6905 45.6779 55.0788 63.7003C55.0788 63.7003 52.7408 65.2134 50.9526 64.2503C50.9526 64.2503 52.1911 51.7186 47.3784 52.2803C42.5656 52.8419 43.389 63.9741 43.389 63.9741C43.389 63.9741 40.6382 64.8003 39.8148 63.2779C38.9914 61.7556 40.0885 46.9125 47.1024 49.391Z" fill="#FF6584"/>
<path opacity="0.1" d="M47.378 51.4541C50.6808 51.0758 51.1331 56.852 51.089 60.5164C51.0473 56.8752 50.435 51.9298 47.378 52.2802C43.9407 52.6724 43.3794 58.4649 43.3377 61.7463C43.3005 58.7364 43.6299 51.8834 47.378 51.4541Z" fill="black"/>
<path opacity="0.1" d="M55.079 62.8741C55.3178 61.2925 55.4549 59.6973 55.4896 58.0981C55.5011 59.9704 55.3638 61.8405 55.079 63.691C55.079 63.691 52.7411 65.204 50.9528 64.241C50.9528 64.241 50.983 63.9439 51.0155 63.445C52.7944 64.364 55.079 62.8741 55.079 62.8741Z" fill="black"/>
<path opacity="0.1" d="M39.815 62.4611C40.5827 63.8697 43.0204 63.2524 43.3521 63.1573C43.3683 63.6678 43.3892 63.9719 43.3892 63.9719C43.3892 63.9719 40.6384 64.798 39.815 63.2757C39.6433 62.9624 39.5552 62.0828 39.583 60.9062C39.6062 61.6744 39.6874 62.2267 39.815 62.4611Z" fill="black"/>
<path d="M11.6175 151.515C10.982 150.338 11.7034 148.895 12.5314 147.846C13.3594 146.797 14.3707 145.704 14.3498 144.365C14.3173 142.443 12.2786 141.308 10.6387 140.29C9.42931 139.533 8.31366 138.635 7.31506 137.616C6.89795 137.224 6.55258 136.761 6.29452 136.249C5.95821 135.497 5.96747 134.641 5.98835 133.817C6.05793 131.074 6.19323 128.333 6.39424 125.595" stroke="#3F3D56" stroke-width="4" stroke-miterlimit="10"/>
<path d="M3.30971 125.447C3.33268 124.944 3.48177 124.456 3.74323 124.026C4.0047 123.597 4.3701 123.24 4.8057 122.989L5.47601 124.316L5.45514 122.708C5.77574 122.615 6.10958 122.575 6.4432 122.59C7.03516 122.618 7.6056 122.82 8.08243 123.172C8.55927 123.524 8.92108 124.01 9.12211 124.568C9.32314 125.126 9.35437 125.73 9.21186 126.306C9.06935 126.881 8.75948 127.402 8.32145 127.801C7.88341 128.201 7.33689 128.461 6.75094 128.55C6.16498 128.638 5.56593 128.551 5.02952 128.299C4.4931 128.047 4.04341 127.641 3.73729 127.134C3.43117 126.626 3.28238 126.039 3.30971 125.447Z" fill="#61A199"/>
<path d="M8.65355 145.741C8.95571 146.328 9.44291 146.798 10.0396 147.08C10.6363 147.361 11.3091 147.438 11.9537 147.297C12.5983 147.157 13.1786 146.808 13.6048 146.304C14.0309 145.801 14.279 145.17 14.3105 144.511C14.3319 144.096 14.2655 143.68 14.1157 143.293C13.8967 142.724 13.51 142.236 13.0072 141.893C12.5043 141.55 11.909 141.368 11.3004 141.372C10.6917 141.376 10.0986 141.564 9.59974 141.913C9.10087 142.262 8.71989 142.754 8.50742 143.325L10.3792 144.85L8.32186 144.372C8.32099 144.848 8.43476 145.318 8.65355 145.741Z" fill="#61A199"/>
<path d="M10.1335 139.918C10.5268 139.937 10.9198 139.877 11.2901 139.744C11.6604 139.61 12.0008 139.405 12.2918 139.139C12.5828 138.874 12.8187 138.554 12.986 138.198C13.1534 137.841 13.2488 137.455 13.267 137.062C13.2899 136.592 13.2008 136.125 13.0072 135.697C12.8269 135.297 12.5614 134.941 12.2293 134.654C11.8972 134.367 11.5065 134.156 11.0845 134.035L11.0984 135.272L10.4211 133.926C9.62729 133.89 8.85144 134.17 8.26425 134.706C7.67705 135.242 7.32659 135.989 7.28991 136.783C7.27184 137.129 7.31501 137.475 7.41746 137.806C7.59867 138.395 7.95655 138.913 8.44248 139.291C8.92841 139.669 9.51885 139.888 10.1335 139.918Z" fill="#61A199"/>
<path d="M2.85769 135.075C3.25094 135.093 3.64397 135.034 4.01431 134.901C4.38465 134.767 4.72506 134.562 5.01606 134.296C5.30706 134.031 5.54294 133.711 5.71027 133.354C5.87759 132.998 5.97306 132.612 5.99122 132.218C6.01642 131.729 5.91917 131.241 5.70826 130.798C5.5329 130.426 5.28282 130.094 4.97361 129.823C4.66441 129.552 4.30271 129.347 3.91102 129.222C3.51934 129.097 3.10609 129.053 2.69701 129.095C2.28794 129.137 1.8918 129.262 1.53331 129.464L2.06215 130.914L0.974327 129.867C0.390406 130.402 0.0418453 131.146 0.00482893 131.937C-0.00881481 132.215 0.0169449 132.493 0.0813594 132.764C0.229953 133.399 0.581392 133.968 1.0824 134.385C1.5834 134.802 2.20665 135.044 2.85769 135.075Z" fill="#61A199"/>
<path opacity="0.1" d="M3.71112 126.245C4.40694 126.322 5.07725 126.535 5.77076 126.579C6.46426 126.623 7.22735 126.456 7.66572 125.915C7.86983 125.602 8.05495 125.276 8.22006 124.941C8.40955 124.645 8.66833 124.401 8.97387 124.228C9.21053 124.69 9.32168 125.207 9.29624 125.725C9.26363 126.453 8.96703 127.145 8.46188 127.67C7.95673 128.195 7.27763 128.518 6.55163 128.579C5.82563 128.639 5.10243 128.433 4.51731 127.999C3.93218 127.565 3.52521 126.932 3.3725 126.219C3.48615 126.224 3.59979 126.233 3.71112 126.245Z" fill="black"/>
<path opacity="0.1" d="M2.8577 135.075C3.25095 135.094 3.64398 135.034 4.01431 134.901C4.38465 134.767 4.72506 134.562 5.01606 134.296C5.30706 134.031 5.54294 133.711 5.71027 133.354C5.87759 132.998 5.97306 132.612 5.99122 132.218C6.01642 131.729 5.91917 131.241 5.70826 130.798C5.47026 130.958 5.2655 131.163 5.10522 131.401C4.89183 131.724 4.76425 132.098 4.51144 132.392C4.04755 132.94 3.24737 133.121 2.52372 133.089C1.80006 133.056 1.10424 132.857 0.382909 132.785C0.283175 132.785 0.181109 132.768 0.0813751 132.766C0.230406 133.401 0.58204 133.969 1.08301 134.386C1.58397 134.802 2.20698 135.044 2.8577 135.075Z" fill="black"/>
<path opacity="0.1" d="M10.1335 139.918C10.5268 139.937 10.9198 139.877 11.2901 139.744C11.6604 139.61 12.0008 139.405 12.2918 139.14C12.5828 138.874 12.8187 138.554 12.986 138.198C13.1534 137.841 13.2488 137.455 13.267 137.062C13.2899 136.593 13.2008 136.125 13.0072 135.697C12.7641 135.861 12.552 136.067 12.381 136.305C12.1491 136.635 12.0029 137.001 11.7316 137.317C11.2259 137.881 10.3747 138.078 9.60932 138.062C8.84392 138.046 8.15272 137.862 7.41515 137.807C7.59649 138.395 7.95474 138.914 8.44113 139.292C8.92751 139.67 9.51844 139.888 10.1335 139.918Z" fill="black"/>
<path opacity="0.1" d="M8.65353 145.741C8.9557 146.328 9.4429 146.798 10.0396 147.08C10.6363 147.361 11.309 147.438 11.9537 147.297C12.5983 147.157 13.1786 146.808 13.6048 146.304C14.0309 145.801 14.279 145.17 14.3105 144.511C14.3319 144.096 14.2655 143.681 14.1157 143.293C13.8694 143.455 13.6483 143.653 13.4593 143.88C13.1741 144.228 12.9954 144.622 12.6568 144.945C12.0445 145.548 11.0541 145.797 10.1751 145.82C9.66678 145.823 9.15877 145.796 8.65353 145.741Z" fill="black"/>
<path d="M16.1362 150.159C16.1362 150.159 13.7728 150.088 13.0584 149.579C12.344 149.071 9.42156 148.465 9.24296 149.28C9.06437 150.094 5.68965 153.332 8.35928 153.353C11.0289 153.374 14.5637 152.937 15.2757 152.503C15.9878 152.069 16.1362 150.159 16.1362 150.159Z" fill="#656380"/>
<path opacity="0.2" d="M8.31291 153.07C10.9825 153.09 14.5173 152.652 15.2294 152.22C15.7698 151.888 15.9855 150.705 16.0574 150.157H16.1362C16.1362 150.157 15.9878 152.067 15.2757 152.501C14.5637 152.935 11.0289 153.371 8.35931 153.35C7.58927 153.35 7.32254 153.07 7.33645 152.654C7.44314 152.912 7.74234 153.065 8.31291 153.07Z" fill="black"/>
</g>
<defs>
<clipPath id="clip0">
<rect width="240" height="164" fill="white" transform="matrix(-1 0 0 1 240 0)"/>
</clipPath>
</defs>
</svg>
