<svg width="18" height="18" viewBox="0 0 18 18" fill="none" xmlns="http://www.w3.org/2000/svg">
<path d="M15.1215 2.87982C13.5506 1.30898 11.3948 0.333984 9.00065 0.333984C6.70211 0.333984 4.49771 1.24708 2.87239 2.87239C1.24708 4.49771 0.333984 6.70211 0.333984 9.00065C0.333984 11.2992 1.24708 13.5036 2.87239 15.1289C4.49771 16.7542 6.70211 17.6673 9.00065 17.6673C13.0415 17.6673 16.4107 14.9048 17.3748 11.1673H15.1215C14.2331 13.6915 11.8281 15.5007 9.00065 15.5007C7.27674 15.5007 5.62344 14.8158 4.40446 13.5968C3.18547 12.3779 2.50065 10.7246 2.50065 9.00065C2.50065 7.27674 3.18547 5.62344 4.40446 4.40446C5.62344 3.18547 7.27674 2.50065 9.00065 2.50065C10.799 2.50065 12.4023 3.24815 13.5723 4.42898L10.084 7.91732H17.6673V0.333984L15.1215 2.87982Z" fill="white"/>
</svg>
